<?xml version="1.0" encoding="utf-8"?>
<!-- Generator: Adobe Illustrator 24.0.0, SVG Export Plug-In . SVG Version: 6.00 Build 0)  -->
<svg version="1.1" id="Layer_1" xmlns="http://www.w3.org/2000/svg" xmlns:xlink="http://www.w3.org/1999/xlink" x="0px" y="0px"
	 viewBox="0 0 1280 300" style="enable-background:new 0 0 1280 300;" xml:space="preserve">
<style type="text/css">
	.st0{fill:#B2B2B2;}
	.st1{fill:#666666;}
	.st2{opacity:8.000000e-02;clip-path:url(#SVGID_2_);fill:#5870C9;enable-background:new    ;}
	.st3{opacity:0.1;clip-path:url(#SVGID_2_);}
	.st4{fill:#26497A;}
	.st5{clip-path:url(#SVGID_2_);fill:#26497A;}
	.st6{clip-path:url(#SVGID_2_);}
	.st7{fill:#4497FF;}
	.st8{fill:#E4F2FF;}
	.st9{fill:#FF6D6D;}
	.st10{clip-path:url(#SVGID_2_);fill:none;}
	.st11{fill:#566ED1;}
</style>
<g>
	<defs>
		<rect id="SVGID_1_" width="1280" height="300"/>
	</defs>
	<clipPath id="SVGID_2_">
		<use xlink:href="#SVGID_1_"  style="overflow:visible;"/>
	</clipPath>
	<path class="st2" d="M1275,256.5v-5.1h-2.6v5.1h-1.2v-6.9H1261v3.2h-1.2v-3.2h-2.7v3.2h-1.2v-15.6h-5.8v8.6h-3.6v2.3h-7.6v-53.9h0
		l-5.3-6.9v3.3h0v-3.2h-0.6v-2.3h-4.5v2.3h-0.6v3.2h-0.6h-0.6v4.4h0.6v26.4c-1.9-1.3-4.4-2.3-7.3-3.3V201h1.1v-4.8h-1.1h-1.3v-5.5
		h-4.7v5.5h-1.6h-1v4.8h1v15.3c-3.8-0.8-7.8-1.4-11.9-2V201h-11.3v11.8c-0.4-0.1-0.8-0.1-1.1-0.1v-5.9h-1.4v-1.9h-10.8v1.9h-1.2v4.1
		c-0.4-0.1-0.8-0.1-1.2-0.1v-27.2h0.1l-1.4-4.6l-7-8.6l-6.3,7.3l-1.8,5.8h0v27.2c-1.2,0.1-2.5,0.2-3.7,0.3c-0.5-0.1-1,0-1.6,0.1
		c-1.2,0.1-2.3,0.2-3.5,0.4V198c0-0.1,0-0.1,0-0.1c0,0,0-0.1,0-0.1v-0.4h0c-0.4-2.1-3.3-2-5.2-0.1c-2,2.1-2.8,4.8-2.9,7
		c0,0.1,0,0.1,0,0.1h0v8.1c-0.1,0-0.2,0-0.2,0c-0.9-0.6-2.3-0.4-3.4,0.5c-2.4,0.4-4.7,0.8-7.2,1.2v-8.5h-2v-4.1l0,0v-3.8l-3.3-6.2
		h-2.4l-2.1,4.2v4.2h-3v16.6c-0.6,0.1-1.3,0.3-1.9,0.4v-1.4h-22.2v6.2c-1.5,0.3-2.9,0.6-4.3,1v-9.5c0-0.1,0-0.2,0-0.2
		c0-3.5-1.2-6.4-3-7.7v-3.5c0-1.4-0.5-2.6-1.2-3v-3h-1.5v3.2c-0.6,0.5-1,1.6-1,2.9v3.5c-1.7,1.3-2.9,4.2-2.9,7.6c0,0,0,0.1,0,0.1h0
		v11.8c-4.1,0.9-8.1,1.7-11.8,2.5l-5.8-4.9v-6.1h0h-1.8h0v6.1l-9.3,7.8c-1.7,0.2-3.3,0.4-4.8,0.5l-0.7-1.9h-2.8v-15.8h0
		c0,0,0-0.1,0-0.1c0-3.4-1.2-6.4-2.9-7.6v-3.5c0-1.2-0.4-2.3-1-2.9v-3.2h-1.5v3c-0.7,0.4-1.2,1.6-1.2,3v3.5c-1.8,1.2-3,4.2-3,7.7
		c0,0.1,0,0.1,0,0.2v15.7h-2.4v0.6c-1.6-0.2-3.2-0.4-4.9-0.5v-33.8l0,0l-6.5-28l-10.7-3.4l-5.2,26.3l0,0v5.1v4.8v28.8
		c-5,0.2-10.2,0.7-15.5,1.2v-28.8l-1.2-0.4v-3.6h0l-3.7-13.7l-11-5.1v0v0l0,0l0,0.1l-4.6,14.8h7.2v0l0,0h-7.2v3.8h-1.3v35.7
		c-1.2,0.2-2.3,0.4-3.5,0.6v-16.3h-1.3v-2.9h-1.7v-2.7h-6.4v2.7h-2v2.9H948v18.7c-1.8,0.4-3.7,0.7-5.5,1.1v-8h-1.5v-4.8h-7.4v4.8
		v9.9c-4.2,1-8.1,2-11.7,3c-10.6,2.9-23.3,3.4-36.2,2.5V227h-25.5v14.2c-1-0.2-2-0.4-3-0.6v-18.7H850v-5.1h-15.2v-24.1v-9.1h-14.1
		v9.1h-2.8v29.2h-2.1v-5.1h-8.3V170h-3.2v-5.5h-3.9v-5.1h-12.2v5.1h-3.2v5.5h-2.6v72.7h-6.6V131.6h-2.6v-7.3h-13.9l0,0v0h13.9
		l-8.7-28.4l0-0.1l-0.1,0v0v0l-21.1,9.7l-7.2,26.2l0,0v7l-2.2,0.7v56.4h-19.5v27h-2.8v-9.9h-4.7v9.9h-2.8v-1.8v-84V128v-9.8l0,0
		l-10-50.4l-20.5,6.6L661.1,128h0v93.1h-2.6v-6.9h-6.9v-21.6h-4.5v-30.1c0-0.1,0-0.2,0-0.3c0-6.7-2.4-12.4-5.8-14.8v-6.7
		c0-2.6-1-4.9-2.4-5.8v-5.8h-2.8v6.1c-1.2,1-2,3.1-2,5.5v6.7c-3.3,2.5-5.6,8.1-5.6,14.7c0,0.1,0,0.1,0,0.1h0v30.3h-5.4l-3.3,8.7
		l-25.1-21v-11.7h-0.1h-3.5H591v11.7l-25.1,21l-3.3-8.7h-5.4v-30.3h0c0-0.1,0-0.1,0-0.1c0-6.6-2.3-12.2-5.6-14.7v-6.7
		c0-2.4-0.8-4.5-2-5.5v-6.1h-2.8v5.8c-1.4,0.9-2.4,3.1-2.4,5.8v6.7c-3.4,2.4-5.8,8.1-5.8,14.8c0,0.1,0,0.3,0,0.5v30h-4.5v28.6h-3.8
		V167h-42.6v54.1H484v-84h-5.8v-8l-4-8.1h-4.7l-6.3,11.9v7.4l0,0.1v7.8h-3.9v68.7h-3.6v-6.9h-2.6v6.9h-1.7v-41.3h0
		c0-4-1.3-9-4.9-12.6c-2.5-2.5-6-3.1-8-1.5v-15.9h-0.1c0-0.1,0-0.2,0-0.3c-0.1-4.2-1.6-9.4-5.5-13.4c-3.6-3.7-9.2-3.9-10,0.2H423
		v0.8c0,0.1,0,0.2,0,0.2c0,0.1,0,0.2,0,0.3V166c-0.8-2.1-2-4-3.6-5.7c-3.5-3.6-9.3-3.2-9.4,1.8c0,1.3,0,2.4,0.2,3.5h-0.1v51.1H406
		V105.3h0l-3.4-11.2l-12.1-14.1l-13.4,16.5l-2.8,8.8h0.2v137.3h-2.4v-92.8h-2.4v-3.6h-20.8v3.6h-2.8V251l0,0v-21.5h-2.1v-90.6h-21.7
		v79.6h-9.9V212h-9.4v6.6h-3.6v-79.6h1.9v-9.1h-1.9h-3v-10.6h-9v10.6H285h-2.1v9.1h2.1v90.6h-5.6v-6.6h-2.8v-6.2h-3.9v6.2h-1.7
		v-95.3h1.1v-8.4h-1.1H270V113H269v-4.4h-8.6v4.4h-1.1v6.2h0v-6.3l-10.1,13.3h0.1v103.3h-5.5v-16.7c-0.5-1.6-1.3-2.8-2.3-3.5v-3.5
		c0-1.2-0.4-2.3-1-2.9v-3.2H239v3c-0.7,0.4-1.2,1.6-1.2,3v3.5c-1.8,1.2-3,4.2-3,7.7c0,0.1,0,0.1,0,0.2v15.7h-2.4v0.6
		c-1.6-0.2-3.2-0.4-4.9-0.5v-33.8l0,0l-6.5-28l-10.7-3.4L205,194h0v5.1v4.8v28.8c-5,0.2-10.2,0.7-15.5,1.2v-28.8l-1.1-0.4v-3.6h0
		l-3.7-13.7l-11-5.1v0v0l0,0l0,0.1l-4.6,14.8h7.2v0l0,0h-7.2v3.8h-1.3v35.7c-1.2,0.2-2.3,0.4-3.5,0.6v-16.3h-1.3v-2.9h-1.7v-2.7
		h-6.4v2.7h-2v2.9h-1.7v18.7c-1.9,0.4-3.7,0.7-5.5,1.1v-8h-1.4v-4.8h-7.4v4.8v9.9c-4.1,1-8.1,2-11.7,3c-1.6,0.4-3.2,0.8-4.8,1.1
		v-0.3H-2.3c-0.4,0.1-0.8,0.2-1.3,0.2v41.9h123.4v0.2h123.6V300h651.3v-31h-8.6v-9.1l20.8,0.4v8.4h-4.5v16.2h4.5h353h2.5v-16.2h-2.5
		V260h12.5h2.6h8.6v-3.4H1275z"/>
	<g class="st3">
		<path class="st4" d="M1361.1,256.3c0-15,5.4-30.6,1.1-44.1c-4.6-14-18.3-23.4-26.8-35.1c-8.6-11.8-13.3-27.7-25.1-36.3
			c-11.7-8.5-28.3-8.1-42.3-12.7c-13.5-4.4-26.7-14.6-41.7-14.6c-15,0-28.2,10.2-41.7,14.6c-14,4.6-30.6,4.2-42.3,12.7
			c-11.8,8.6-16.6,24.5-25.1,36.3c-8.5,11.6-22.2,21.1-26.8,35.1c-4.4,13.5,1.1,29.2,1.1,44.1c0,15-5.4,30.6-1.1,44.1
			c4.6,14,18.3,23.4,26.8,35.1c8.6,11.8,13.3,27.7,25.1,36.3c11.7,8.5,28.3,8.1,42.3,12.7c13.5,4.4,26.7,14.6,41.7,14.6
			c15,0,28.2-10.2,41.7-14.6c14-4.5,30.6-4.2,42.3-12.7c11.8-8.6,16.6-24.5,25.1-36.3c8.5-11.6,22.2-21.1,26.8-35.1
			C1366.5,286.9,1361.1,271.3,1361.1,256.3z"/>
	</g>
	<rect y="284.4" class="st5" width="1280" height="15.6"/>
	<g class="st6">
		<polygon class="st7" points="1219.2,217.5 1193.9,162.7 1065.5,162.7 1033.9,217.5 977.6,217.5 977.6,260.5 1258.7,260.5 
			1258.7,217.5 		"/>
		<path class="st8" d="M977.6,234.3L977.6,234.3c9.2,0,16.7-7.5,16.7-16.7l0,0h-16.7V234.3z"/>
		<path class="st8" d="M1061.5,169.3l-27.6,48.2h29.6c1.2,0,2.3-0.8,2.8-1.9l17.1-43.7c0.8-2-0.7-4.1-2.8-4.1h-16.4
			C1063,167.8,1062.1,168.4,1061.5,169.3z"/>
		<path class="st8" d="M1097.1,170.3l-12.1,39.2c-0.6,1.9,0.8,3.9,2.9,3.9h53c2,0,3.4-1.9,2.9-3.8l-10.4-39.2
			c-0.3-1.3-1.5-2.2-2.9-2.2H1100C1098.7,168.1,1097.5,169,1097.1,170.3z"/>
		<path class="st8" d="M1146.1,172.1l12.7,39.1c0.4,1.2,1.6,2.1,2.8,2.1h41.6c2.2,0,3.7-2.3,2.7-4.3l-19.2-39.2
			c-0.5-1-1.6-1.7-2.7-1.7h-35C1146.9,168.1,1145.5,170.1,1146.1,172.1z"/>
		<g>
			<polygon class="st4" points="1154.6,260.5 1153.6,260.5 1153.6,217.6 1136.3,162.9 1137.2,162.6 1154.6,217.5 			"/>
		</g>
		
			<ellipse transform="matrix(0.1602 -0.9871 0.9871 0.1602 622.7048 1252.8217)" class="st4" cx="1047.6" cy="260.5" rx="24.3" ry="24.3"/>
		<circle class="st8" cx="1047.5" cy="260.5" r="10.1"/>
		<g>
			<polygon class="st4" points="1076.3,260.5 1075.3,260.5 1075.3,217.4 1091.9,162.6 1092.8,162.9 1076.3,217.6 			"/>
		</g>
		<g>
			<polygon class="st4" points="1215.2,246.5 1214.2,246.5 1214.2,217.6 1188,163 1188.9,162.5 1215.2,217.4 			"/>
		</g>
		<circle class="st4" cx="1198.2" cy="260.5" r="24.3"/>
		<circle class="st8" cx="1198.2" cy="260.5" r="10.1"/>
		<path class="st9" d="M1258.6,234.3L1258.6,234.3v-16.7h-16.7l0,0C1241.9,226.8,1249.4,234.3,1258.6,234.3z"/>
	</g>
	<rect class="st10" width="1280" height="300"/>
	<g class="st6">
		<path class="st11" d="M77.5,171L77.5,171c-1.4,0-2.5,1.1-2.5,2.4l-2.9,109.9c0,1.4,1.1,2.5,2.5,2.5h5.8c1.4,0,2.6-1.1,2.5-2.5
			L80,173.4C80,172.1,78.9,171,77.5,171z"/>
		<path class="st7" d="M83,121.3L83,121.3c0.2,0.3,0.3,0.6,0.2,0.9L79.2,166c-0.1,0.7-0.7,1.2-1.4,1.2h-0.9c-0.8,0-1.4-0.6-1.4-1.4
			l0.2-3.1c0-0.3-0.1-0.7-0.3-0.9l-2.5-2.9c-0.3-0.3-0.4-0.7-0.3-1.1l7.9-36C80.8,120.6,82.3,120.3,83,121.3z"/>
		<path class="st7" d="M118.1,198.3L118.1,198.3c-0.3,0-0.6-0.1-0.9-0.2l-37.5-24.9c-0.6-0.4-0.8-1.1-0.4-1.8l0.4-0.8
			c0.4-0.7,1.3-0.9,1.9-0.5l2.8,1.7c0.3,0.2,0.7,0.2,1,0.2l3.8-0.7c0.4-0.1,0.9,0,1.2,0.3l28.5,24.3
			C119.8,196.8,119.3,198.2,118.1,198.3z"/>
		<path class="st7" d="M30.9,189.1L30.9,189.1c0.1-0.3,0.4-0.5,0.7-0.6l41.3-18.5c0.6-0.3,1.4-0.1,1.8,0.5l0.4,0.8
			c0.4,0.7,0.1,1.5-0.6,1.9l-2.9,1.4c-0.3,0.1-0.6,0.4-0.7,0.7l-1.3,3.6c-0.1,0.4-0.5,0.7-0.9,0.8L32.6,191
			C31.4,191.3,30.4,190.2,30.9,189.1z"/>
		<ellipse class="st4" cx="77.4" cy="170" rx="4.1" ry="3.9"/>
	</g>
	<g class="st6">
		<path class="st11" d="M264.4,173.5L264.4,173.5c-1.4,0-2.5,1-2.5,2.4l-2.8,107.6c0,1.4,1.1,2.5,2.5,2.5h5.6c1.4,0,2.5-1.1,2.5-2.5
			l-2.8-107.6C266.9,174.6,265.8,173.5,264.4,173.5z"/>
		<path class="st7" d="M269.8,124.8L269.8,124.8c0.2,0.2,0.3,0.6,0.2,0.9l-4,42.9c-0.1,0.7-0.6,1.2-1.3,1.2h-0.9
			c-0.8,0-1.4-0.6-1.4-1.4l0.2-3.1c0-0.3-0.1-0.7-0.3-0.9l-2.5-2.8c-0.3-0.3-0.4-0.7-0.3-1.1l7.8-35.2
			C267.6,124.2,269.1,123.9,269.8,124.8z"/>
		<path class="st7" d="M304.1,200.2L304.1,200.2c-0.3,0-0.6-0.1-0.9-0.2l-36.7-24.4c-0.6-0.4-0.8-1.1-0.4-1.7l0.4-0.7
			c0.4-0.6,1.2-0.9,1.9-0.5l2.7,1.7c0.3,0.2,0.6,0.2,1,0.2l3.7-0.7c0.4-0.1,0.8,0,1.1,0.3l27.9,23.8
			C305.8,198.7,305.3,200.1,304.1,200.2z"/>
		<path class="st7" d="M218.8,191.2L218.8,191.2c0.1-0.3,0.4-0.5,0.6-0.6l40.4-18.1c0.6-0.3,1.4-0.1,1.7,0.5l0.4,0.7
			c0.4,0.6,0.1,1.5-0.6,1.8l-2.9,1.4c-0.3,0.1-0.5,0.4-0.7,0.7l-1.3,3.5c-0.1,0.4-0.5,0.7-0.9,0.8L220.5,193
			C219.4,193.3,218.3,192.2,218.8,191.2z"/>
		<ellipse class="st4" cx="264.4" cy="172.5" rx="4" ry="3.9"/>
	</g>
	<g class="st6">
		<path class="st11" d="M171.8,153.8L171.8,153.8c-1.6,0-2.9,1.2-2.9,2.8L165.5,283c0,1.6,1.3,2.9,2.9,2.9h6.6c1.6,0,3-1.3,2.9-2.9
			l-3.3-126.5C174.6,155,173.3,153.8,171.8,153.8z"/>
		<path class="st7" d="M208.1,196.6L208.1,196.6c-0.4-0.1-0.7-0.2-0.9-0.5l-33.6-38.9c-0.5-0.6-0.5-1.5,0.1-2.1l0.7-0.7
			c0.6-0.6,1.7-0.6,2.3,0.1l2.5,2.7c0.3,0.3,0.6,0.5,1,0.5l4.5,0.4c0.5,0,0.9,0.3,1.2,0.7l23.8,35.5
			C210.4,195.4,209.5,196.9,208.1,196.6z"/>
		<path class="st7" d="M114.8,161.6L114.8,161.6c0.2-0.3,0.6-0.5,0.9-0.5l51.5-9.3c0.8-0.1,1.6,0.3,1.8,1.1l0.3,0.9
			c0.2,0.9-0.3,1.7-1.2,1.9l-3.7,0.8c-0.4,0.1-0.8,0.3-1,0.6l-2.5,3.6c-0.3,0.4-0.7,0.6-1.2,0.7l-43.6,2.7
			C114.7,164.2,113.9,162.6,114.8,161.6z"/>
		<path class="st7" d="M193.5,100.4L193.5,100.4c0.1,0.3,0.1,0.7,0,1l-18,47.6c-0.3,0.8-1.1,1.2-1.9,0.9l-1-0.3
			c-0.9-0.2-1.4-1.1-1.1-2l1.2-3.4c0.1-0.4,0.1-0.8-0.1-1.1l-1.9-3.9c-0.2-0.4-0.2-0.9,0-1.4l19.9-37.7
			C191.2,99.1,193,99.2,193.5,100.4z"/>
		<ellipse class="st4" cx="171.7" cy="152.6" rx="4.7" ry="4.5"/>
	</g>
</g>
</svg>
