<?xml version="1.0" encoding="utf-8"?>
<!-- Generator: Adobe Illustrator 24.0.0, SVG Export Plug-In . SVG Version: 6.00 Build 0)  -->
<svg version="1.1" id="Layer_1" xmlns="http://www.w3.org/2000/svg" xmlns:xlink="http://www.w3.org/1999/xlink" x="0px" y="0px"
	 viewBox="0 0 1280 300" style="enable-background:new 0 0 1280 300;" xml:space="preserve">
<style type="text/css">
	.st0{clip-path:url(#SVGID_2_);}
	.st1{fill:#E6F2FE;}
	.st2{fill:none;stroke:#2C4976;stroke-width:5;stroke-miterlimit:10;}
	.st3{fill:#FFFFFF;}
	.st4{opacity:0.4;clip-path:url(#SVGID_2_);}
	.st5{fill:none;}
	.st6{fill:#2C4976;}
	.st7{fill:#5597F6;}
	.st8{fill:#E5F1FD;}
	.st9{fill:#BDDDE4;}
	.st10{fill:#D8EFFC;}
	.st11{clip-path:url(#SVGID_4_);}
	.st12{fill:#5870CA;}
	.st13{fill:#25497A;}
	.st14{clip-path:url(#SVGID_4_);fill:#E4F2FF;}
	.st15{clip-path:url(#SVGID_4_);fill:#25497A;}
</style>
<g>
	<defs>
		<rect id="SVGID_3_" y="0.5" width="1280" height="300"/>
	</defs>
	<clipPath id="SVGID_2_">
		<use xlink:href="#SVGID_3_"  style="overflow:visible;"/>
	</clipPath>
	<g class="st0">
		<path class="st12" d="M157.42,281l-16.63-19.95c-0.59-0.7-1.13-1.45-1.54-2.27c-2.96-5.87,1.46-9.09,5.33-11.5
			c5.23-3.26,10.68-6.6,16.8-7.36c6.12-0.77,13.12,1.79,15.52,7.47c1.94,4.58,0.8,10.62,4.48,13.97c2.72-9.4,5.53-18.97,11.08-27.03
			s14.43-14.46,24.21-14.49c13-0.03,24.43,13.04,22.65,25.93c6.66-9.74,14.2-20.13,25.51-23.47c0.81-0.24,2.14-0.04,3.79,0.44
			c13.54,3.98,21.46,18.08,18.21,31.82c-0.24,1.01-0.42,1.7-0.51,1.92c-0.72,1.68-2.54,2.54-4.23,3.25
			c-37.77,15.83-78.56,22.79-118.94,29.63c-2.13-3.73-5.25-6.88-8.95-9.06"/>
	</g>
	<g class="st0">
		<path class="st7" d="M-19.39,230.79c2.04-20.14,6.02-40.65,16.78-57.8s29.48-30.44,49.72-29.96c3.68,0.09,7.72,0.81,10.06,3.67
			c2.08,2.55,2.25,6.12,2.26,9.41c0.07,22.37-2.85,44.74-8.65,66.35c11.71-17.24,25.4-35.85,45.78-40.19
			c4.45-0.95,9.77-0.86,12.73,2.59c1.73,2.02,2.27,4.78,2.63,7.42c1.27,9.38,1.01,18.97-0.77,28.26
			c10.22-10.64,23.26-18.55,37.42-22.7c3.2-0.94,6.75-1.67,9.79-0.3c2.39,1.08,4.07,3.28,5.47,5.5c14.4,22.86,8.24,54.42-8.8,75.37
			c-17.04,20.96-42.75,32.98-68.58,40.88c-17.52,5.35-35.52,9.13-53.71,11.26c-17.92,2.1-36.81,2.47-53.2-5.08
			c-19.04-8.77-32.61-28.41-34.07-49.32c-1.47-20.91,9.22-42.25,26.86-53.59c1.63,5.69,5.25,10.78,10.09,14.18"/>
	</g>
	<g class="st0">
		<path class="st13" d="M1177.54,238.59c-46.26,16.72-77.04,31.94-262.4,33.56c-112.51,0.99-220.6,27.23-293.83,60.31h-740.37
			c106.28-17.13,336.42-78.29,577.92-87.35C767.91,233.52,1085.89,268.09,1177.54,238.59z"/>
	</g>
	<polygon style="clip-path:url(#SVGID_2_);fill:#E4F2FF;" points="1177.48,238.65 1220.23,180.85 1218.8,166.14 1194.84,159.31 
		1181.37,168.04 	"/>
	<polygon style="clip-path:url(#SVGID_2_);fill:#25497A;" points="1248.04,-8.12 1181.37,168.04 1198.24,164.46 1204.14,175.88 
		1213.41,173.21 1220.23,180.85 1290.21,-8.12 	"/>
	<polygon style="clip-path:url(#SVGID_2_);fill:#25497A;" points="1178.03,221.44 1183.32,219.51 1184.21,225.58 1188.26,224.08 
		1177.48,238.65 	"/>
	<g class="st0">
		<path class="st7" d="M793.31,318.1l13.37-22.27c0.47-0.79,0.89-1.61,1.18-2.48c2.02-6.25-2.83-8.76-7.03-10.55
			c-5.67-2.42-11.57-4.88-17.73-4.7c-6.16,0.18-12.68,3.79-14.19,9.77c-1.21,4.82,0.83,10.62-2.28,14.49
			c-4.13-8.87-8.37-17.9-15.1-25.01s-16.47-12.08-26.14-10.6c-12.86,1.96-22.14,16.64-18.41,29.1c-8.08-8.6-17.12-17.72-28.81-19.28
			c-0.83-0.11-2.12,0.29-3.67,1.02c-2.24,1.05-4.09,2.78-5.63,4.92c-9.07,12.63-1.11,30.44,14.26,32.83
			c28.4,4.43,77.79,11.5,105.81,11.89c1.53-4.01,4.13-7.61,7.45-10.32"/>
	</g>
	<g class="st0">
		<path class="st12" d="M908.88,285.2c1.29,0,3.44,0.72,5.96,1.79c12.38,5.29,21.94,15.58,26.62,28.2
			c2.07,5.57,3.63,11.19,3.37,14.93c-1.03,14.64-25.97,20.33-41.69,26.3c-12.09,4.59-32.43,7.46-45.28,5.99
			c-14.36-1.64-28.58-4.6-42.4-8.82c-20.04-6.12-39.98-15.45-53.2-31.71c-13.22-16.26-18-40.74-6.83-58.47
			c1.08-1.72,2.39-3.43,4.24-4.27c2.36-1.06,5.11-0.5,7.59,0.23c10.98,3.22,21.1,9.36,29.03,17.61c-1.38-7.21-1.58-14.65-0.6-21.93
			c0.28-2.05,0.7-4.19,2.04-5.76c2.3-2.68,6.42-2.74,9.88-2.01c15.81,3.36,26.43,17.8,35.51,31.18c-4.5-16.76-6.76-34.12-6.71-51.47
			c0.01-2.55,0.14-5.32,1.76-7.3c1.81-2.21,4.94-2.78,7.8-2.84c6.17-0.15,12.15,1.36,17.66,4.04c0.12,0.06,0.24,0.12,0.36,0.18
			c16.73,8.24,27.93,24.35,30.23,42.52C894.93,269.2,896.68,285.2,908.88,285.2z"/>
	</g>
</g>
</svg>
