<?xml version="1.0" encoding="utf-8"?>
<!-- Generator: Adobe Illustrator 23.0.2, SVG Export Plug-In . SVG Version: 6.00 Build 0)  -->
<svg version="1.1" id="Layer_1" xmlns="http://www.w3.org/2000/svg" xmlns:xlink="http://www.w3.org/1999/xlink" x="0px" y="0px"
	 viewBox="0 0 463 277.2" style="enable-background:new 0 0 463 277.2;" xml:space="preserve">
<style type="text/css">
	.st0{fill:#E73D2F;}
	.st1{fill:#FDD647;}
</style>
<title>E3Logo_Color_RGB</title>
<path class="st0" d="M184,214.2H79.3v-44.3H184V107H79.3V62.9H184V0H0v277.2h235.9C235.8,277.2,189.1,265.6,184,214.2z"/>
<path class="st1" d="M352.9,107.4c31.7,21.4,48.2,42.1,47,85.5c-1.1,44.9-46.4,84.2-95.6,84.2c-35.2,0-79.8-15.8-96.7-62.9
	l58.4-25.9c7.9,15,19.2,26.1,36.5,26.1c18.9,0,33.2-14.5,35-33.5c0.4-4.5-2.4-37.3-34.8-38.6l-36.7-4.1l47-75.3H207.5V0h192.4
	L352.9,107.4z"/>
<g>
	<path d="M436.6,0.7c1.4,0,2.7,0.2,3.9,0.5c1.3,0.4,2.4,0.9,3.5,1.5c1.1,0.6,2.1,1.4,3,2.3c0.9,0.9,1.7,1.9,2.3,3
		c0.6,1.1,1.1,2.3,1.5,3.5c0.3,1.3,0.5,2.6,0.5,3.9c0,1.3-0.2,2.6-0.5,3.9s-0.8,2.4-1.5,3.5c-0.6,1.1-1.4,2.1-2.3,3
		c-0.9,0.9-1.9,1.7-3,2.3c-1.1,0.6-2.3,1.1-3.5,1.5c-1.3,0.3-2.6,0.5-3.9,0.5c-1.4,0-2.7-0.2-3.9-0.5c-1.2-0.4-2.4-0.9-3.5-1.5
		c-1.1-0.6-2.1-1.4-3-2.3c-0.9-0.9-1.7-1.9-2.3-3s-1.1-2.3-1.5-3.5c-0.3-1.2-0.5-2.5-0.5-3.9c0-1.4,0.2-2.7,0.5-3.9
		c0.4-1.3,0.9-2.4,1.5-3.5c0.6-1.1,1.4-2.1,2.3-3c0.9-0.9,1.9-1.7,3-2.3c1.1-0.6,2.3-1.1,3.5-1.5C433.9,0.8,435.2,0.7,436.6,0.7z
		 M436.5,28.3c1.2,0,2.3-0.1,3.4-0.4c1.1-0.3,2.1-0.7,3.1-1.3c0.9-0.6,1.8-1.2,2.6-2s1.4-1.6,2-2.6c0.6-1,1-2,1.3-3.1
		c0.3-1.1,0.5-2.2,0.5-3.4c0-1.8-0.3-3.5-1-5.1c-0.7-1.6-1.6-3-2.7-4.1c-1.1-1.2-2.5-2.1-4-2.8c-1.6-0.7-3.2-1-5-1
		c-1.2,0-2.3,0.1-3.4,0.5s-2.1,0.7-3,1.3c-0.9,0.6-1.8,1.2-2.6,2c-0.8,0.8-1.4,1.7-2,2.6c-0.5,1-1,2-1.3,3.1
		c-0.3,1.1-0.4,2.3-0.5,3.5c0,1.2,0.1,2.3,0.4,3.4c0.3,1.1,0.7,2.1,1.2,3.1c0.5,1,1.2,1.8,2,2.6c0.8,0.8,1.6,1.4,2.5,2
		c0.9,0.6,1.9,1,3,1.3C434.2,28.1,435.3,28.3,436.5,28.3z M436.3,6.4c2.3,0,4,0.4,5.1,1.3c1.1,0.8,1.7,2.1,1.6,3.7
		c0,1.3-0.4,2.3-1.1,3.2c-0.7,0.9-1.8,1.5-3.2,1.8c0.2,0.1,0.4,0.3,0.6,0.5c0.2,0.2,0.3,0.4,0.5,0.7l4.6,6.7l-3,0
		c-0.4,0-0.8-0.2-1-0.5l-4-6.1c-0.1-0.2-0.3-0.3-0.4-0.4c-0.2-0.1-0.4-0.1-0.8-0.1l-1.6,0l0,7.1l-3.1,0l0.1-17.9L436.3,6.4z
		 M436,14.9c1.5,0,2.5-0.3,3.1-0.8c0.6-0.5,0.9-1.3,0.9-2.3c0-0.5-0.1-0.9-0.2-1.3c-0.1-0.4-0.3-0.7-0.6-0.9
		c-0.3-0.2-0.7-0.4-1.1-0.5c-0.5-0.1-1.1-0.2-1.8-0.2l-2.6,0l0,6.1L436,14.9z"/>
</g>
</svg>
