<svg xmlns="http://www.w3.org/2000/svg" viewBox="0 0 1920 1080"><defs><style>.cls-1{opacity:0.3;}.cls-2{fill:#224b80;}.cls-3{fill:#fda2a2;}.cls-4,.cls-9{fill:#8fc0ff;}.cls-5{opacity:0.5;}.cls-6{fill:#92b3d6;}.cls-7{fill:#b3b3b3;}.cls-8{fill:#fc6464;}.cls-12,.cls-9{opacity:0.8;}.cls-10,.cls-11,.cls-12{fill:#999;}.cls-11{opacity:0.85;}</style></defs><title>landing page to animate-v2 new color boat repositioned</title><g id="background"><g id="Group_80" data-name="Group 80" class="cls-1"><g id="Group_74" data-name="Group 74"><g id="Group_72" data-name="Group 72"><rect id="Rectangle_167" data-name="Rectangle 167" class="cls-2" x="955.7" y="722.17" width="82.82" height="152.93"/><rect id="Rectangle_168" data-name="Rectangle 168" class="cls-2" x="1048.26" y="706.99" width="82.82" height="152.93"/><rect id="Rectangle_169" data-name="Rectangle 169" class="cls-2" x="1071.93" y="691.8" width="82.82" height="152.93"/><rect id="Rectangle_170" data-name="Rectangle 170" class="cls-2" x="1121.34" y="620.22" width="54.98" height="224.51"/><rect id="Rectangle_171" data-name="Rectangle 171" class="cls-2" x="1121.34" y="593.1" width="45.93" height="251.62"/><rect id="Rectangle_172" data-name="Rectangle 172" class="cls-2" x="1183.28" y="691.8" width="54.98" height="224.51"/><rect id="Rectangle_173" data-name="Rectangle 173" class="cls-2" x="1210.42" y="552.97" width="81.43" height="291.75"/><rect id="Rectangle_174" data-name="Rectangle 174" class="cls-2" x="1220.86" y="536.71" width="62.63" height="308.02"/><rect id="Rectangle_175" data-name="Rectangle 175" class="cls-2" x="1233.38" y="521.52" width="39.67" height="323.21"/><rect id="Rectangle_176" data-name="Rectangle 176" class="cls-2" x="1313.42" y="439.09" width="54.98" height="417.57"/><path id="Path_53" data-name="Path 53" class="cls-2" d="M1368.4,439.09l80.73,23.43V856.66H1368.4Z"/><path id="Path_54" data-name="Path 54" class="cls-2" d="M1350.12,332.86l16.71,84.54h-45.22Z"/><rect id="Rectangle_177" data-name="Rectangle 177" class="cls-2" x="1321.77" y="417.4" width="45.24" height="36.88"/><path id="Path_55" data-name="Path 55" class="cls-2" d="M1367,417.4l74.94,22.21v36.88L1367,454.28Z"/><path id="Path_56" data-name="Path 56" class="cls-2" d="M1349.93,332.81l68.62,28.93,23.33,77.94-75.1-22.33Z"/><rect id="Rectangle_178" data-name="Rectangle 178" class="cls-2" x="1449.13" y="629.98" width="63.33" height="259.22"/><rect id="Rectangle_179" data-name="Rectangle 179" class="cls-2" x="1508.98" y="710.24" width="55.68" height="83.51"/><rect id="Rectangle_180" data-name="Rectangle 180" class="cls-2" x="1521.5" y="680.96" width="15.31" height="83.51"/><rect id="Rectangle_181" data-name="Rectangle 181" class="cls-2" x="1545.86" y="428.25" width="139.88" height="365.51"/><rect id="Rectangle_182" data-name="Rectangle 182" class="cls-2" x="1545.86" y="398.96" width="42.45" height="394.79"/><path id="Path_57" data-name="Path 57" class="cls-2" d="M1578.27,249.22,1645,268.77l40.78,159.51h-36.58L1545.7,399Z"/><rect id="Rectangle_183" data-name="Rectangle 183" class="cls-2" x="1545.86" y="398.96" width="129.45" height="56.4"/><path id="Path_58" data-name="Path 58" class="cls-2" d="M1679.37,398.87l6.44,29.69Z"/><rect id="Rectangle_184" data-name="Rectangle 184" class="cls-2" x="1545.86" y="704.82" width="749.32" height="88.94"/><rect id="Rectangle_185" data-name="Rectangle 185" class="cls-2" x="1694.1" y="684.21" width="23.66" height="88.94"/><rect id="Rectangle_186" data-name="Rectangle 186" class="cls-2" x="1727.5" y="667.94" width="14.61" height="88.94"/><rect id="Rectangle_187" data-name="Rectangle 187" class="cls-2" x="1747.69" y="633.24" width="56.37" height="88.94"/><rect id="Rectangle_188" data-name="Rectangle 188" class="cls-2" x="1753.25" y="639.74" width="56.37" height="88.94"/><rect id="Rectangle_164" data-name="Rectangle 164" class="cls-2" x="926.5" y="846.9" width="2243.69" height="92.19"/><rect id="Rectangle_165" data-name="Rectangle 165" class="cls-2" x="954.31" y="793.75" width="2200.57" height="145.34"/><rect id="Rectangle_227" data-name="Rectangle 227" class="cls-2" x="1167.27" y="706.99" width="54.98" height="197.39"/><rect id="Rectangle_228" data-name="Rectangle 228" class="cls-2" x="1283.49" y="768.81" width="54.98" height="67.24"/></g><g id="Group_63" data-name="Group 63"><g id="Group_61" data-name="Group 61"><g id="Group_60" data-name="Group 60"><g id="Group_58" data-name="Group 58"><path id="Path_142" data-name="Path 142" class="cls-2" d="M2098.49,757V619.93h-14.7V530h-60.27v89.94h-17.64l-10.75,26L1907.38,579V757Z"/></g></g><rect id="Rectangle_517" data-name="Rectangle 517" class="cls-2" x="1901.8" y="548.77" width="11.66" height="58.55"/></g><g id="Group_62" data-name="Group 62"><g id="Group_60-2" data-name="Group 60-2"><g id="Group_58-2" data-name="Group 58-2"><path id="Path_142-2" data-name="Path 142-2" class="cls-2" d="M1716.56,757V619.93h14.7V530h60.27v89.94h17.63l10.76,26L1907.67,579V757Z"/><path id="Path_145-2" data-name="Path 145-2" class="cls-2" d="M1761.69,482.15c-16.81,0-30.44,21.24-30.44,47.44S1744.88,577,1761.69,577c16.63-.28,30-21.52,29.79-47.44C1791.66,503.67,1778.32,482.43,1761.69,482.15Z"/><path id="Path_143-2" data-name="Path 143-2" class="cls-2" d="M1773.35,466H1750v44.41h23.32Z"/><ellipse id="Ellipse_3-2" data-name="Ellipse 3-2" class="cls-2" cx="1761.69" cy="466" rx="11.66" ry="18.17"/><path id="Path_144-2" data-name="Path 144-2" class="cls-2" d="M1766.87,431.68h-9.16v44.41h9.16Z"/></g></g><rect id="Rectangle_517-2" data-name="Rectangle 517-2" class="cls-2" x="1901.59" y="548.77" width="11.66" height="58.55"/></g></g></g><g id="Group_75" data-name="Group 75"><g id="Group_73" data-name="Group 73"><g id="Group_76" data-name="Group 76"><rect id="Rectangle_521" data-name="Rectangle 521" class="cls-3" x="1876.42" y="715.14" width="56.1" height="35.52"/><path id="Path_148" data-name="Path 148" class="cls-3" d="M1876.42,641.38s8.39-8.07,28.17-8.13,27.93,8.13,27.93,8.13v65.46h-56.1Z"/><rect id="Rectangle_523" data-name="Rectangle 523" class="cls-3" x="1839.63" y="715.14" width="29.93" height="35.52"/><path id="Path_149" data-name="Path 149" class="cls-3" d="M1839.63,671.32a132.16,132.16,0,0,1,29.93-25.21v60.73h-29.93Z"/></g><path id="Subtraction_4" data-name="Subtraction 4" class="cls-3" d="M1756.47,509.38c4.45.1,8.64,3.22,11.49,8.53a45.07,45.07,0,0,1,5.06,20.73h0v23.87h-16.79V509.38Zm-5,1.42h0v51.71h-11.56V538.64h0a48,48,0,0,1,3.44-17.41c1.92-4.74,4.76-8.39,8.11-10.43Zm4.78,61.23H1773v37.31h-16.79Zm-16.34,0h11.56v37.31h-11.56V572Z"/><path id="Subtraction_5" data-name="Subtraction 5" class="cls-3" d="M1756.6,632.59c5.52.12,10.73,4,14.27,10.59,3.94,7.19,6.15,16.28,6.28,25.73h0v29.65h-20.84v-66Zm-6.21,1.76v64.21H1736V668.91h0a59.55,59.55,0,0,1,4.27-21.61c2.38-5.88,5.9-10.42,10.06-12.95Zm5.93,76h20.84v46.32h-20.84V710.39Zm-20.29,0h14.35v46.32H1736V710.39Z"/></g><rect id="Rectangle_230" data-name="Rectangle 230" class="cls-3" x="953.52" y="731.15" width="55.68" height="123.64"/><rect id="Rectangle_231" data-name="Rectangle 231" class="cls-3" x="981.36" y="876.48" width="86.3" height="32.54"/><rect id="Rectangle_232" data-name="Rectangle 232" class="cls-3" x="1101.75" y="884.08" width="8.35" height="50.98"/><rect id="Rectangle_233" data-name="Rectangle 233" class="cls-3" x="1144.21" y="900.35" width="47.32" height="17.35"/><rect id="Rectangle_234" data-name="Rectangle 234" class="cls-3" x="1195.01" y="859.13" width="16.7" height="50.98"/><rect id="Rectangle_235" data-name="Rectangle 235" class="cls-3" x="1120.55" y="601" width="23.66" height="211.49"/><rect id="Rectangle_236" data-name="Rectangle 236" class="cls-3" x="1120.55" y="678" width="36.19" height="29.28"/><rect id="Rectangle_237" data-name="Rectangle 237" class="cls-3" x="1127.5" y="692.1" width="36.19" height="15.18"/><rect id="Rectangle_238" data-name="Rectangle 238" class="cls-3" x="1120.55" y="718.13" width="36.19" height="6.51"/><rect id="Rectangle_239" data-name="Rectangle 239" class="cls-3" x="1078.09" y="693.19" width="42.45" height="40.13"/><rect id="Rectangle_240" data-name="Rectangle 240" class="cls-3" x="1111.5" y="693.19" width="9.05" height="104.12"/><path id="Rectangle_241" data-name="Rectangle 241" class="cls-3" d="M1101.06,783.21h0c2.69,0,4.87,3.4,4.87,7.59v14.1c0,4.2-2.18,7.6-4.87,7.6h0c-2.69,0-4.87-3.4-4.87-7.6V790.8C1096.19,786.61,1098.37,783.21,1101.06,783.21Z"/><path id="Rectangle_242" data-name="Rectangle 242" class="cls-3" d="M960.48,884.08h0c3.84,0,7,4.85,7,10.84v10.85c0,6-3.12,10.84-7,10.84h0c-3.85,0-7-4.85-7-10.84V894.92C953.52,888.93,956.63,884.08,960.48,884.08Z"/><rect id="Rectangle_243" data-name="Rectangle 243" class="cls-3" x="1064.68" y="718.13" width="29.23" height="74.84"/><rect id="Rectangle_244" data-name="Rectangle 244" class="cls-3" x="1057.91" y="718.13" width="29.23" height="6.51"/><rect id="Rectangle_246" data-name="Rectangle 246" class="cls-3" x="1080.18" y="781.04" width="12.53" height="36.88"/><rect id="Rectangle_247" data-name="Rectangle 247" class="cls-3" x="1039.82" y="825.51" width="52.89" height="19.52"/><rect id="Rectangle_249" data-name="Rectangle 249" class="cls-3" x="1047.47" y="854.79" width="45.24" height="17.35"/><rect id="Rectangle_250" data-name="Rectangle 250" class="cls-3" x="1050.95" y="781.04" width="22.27" height="46.64"/><path id="Rectangle_252" data-name="Rectangle 252" class="cls-3" d="M1052,721.39h0c1.73,0,3.13,2.18,3.13,4.88V736c0,2.7-1.4,4.88-3.13,4.88h0c-1.73,0-3.14-2.18-3.14-4.88v-9.76C1048.86,723.57,1050.27,721.39,1052,721.39Z"/><rect id="Rectangle_253" data-name="Rectangle 253" class="cls-3" x="1167.17" y="706.21" width="44.54" height="119.3"/><rect id="Rectangle_254" data-name="Rectangle 254" class="cls-3" x="1158.82" y="810.32" width="36.19" height="39.05"/><rect id="Rectangle_255" data-name="Rectangle 255" class="cls-3" x="1207.54" y="553.28" width="6.26" height="272.23"/><rect id="Rectangle_256" data-name="Rectangle 256" class="cls-3" x="1264.61" y="812.49" width="62.63" height="13.01"/><rect id="Rectangle_257" data-name="Rectangle 257" class="cls-3" x="1288.27" y="759.35" width="62.63" height="68.33"/><rect id="Rectangle_258" data-name="Rectangle 258" class="cls-3" x="1313.32" y="435.06" width="50.8" height="392.62"/><rect id="Rectangle_259" data-name="Rectangle 259" class="cls-3" x="1346.03" y="452.41" width="18.09" height="392.62"/><path id="Path_68" data-name="Path 68" class="cls-3" d="M1570.65,335.67l11.5,76.72-38.87-.11Z"/><path id="Path_152" data-name="Path 152" class="cls-3" d="M1321.67,412.28l25.7-65.78,13.28,65.78v56.4h-39Z"/><rect id="Rectangle_261" data-name="Rectangle 261" class="cls-3" x="1250.69" y="865.64" width="24.36" height="19.52"/><rect id="Rectangle_262" data-name="Rectangle 262" class="cls-3" x="1275.05" y="877.57" width="123.88" height="7.59"/><rect id="Rectangle_263" data-name="Rectangle 263" class="cls-3" x="1394.75" y="827.68" width="33.41" height="33.62"/><rect id="Rectangle_264" data-name="Rectangle 264" class="cls-3" x="1435.11" y="827.68" width="5.57" height="33.62"/><rect id="Rectangle_265" data-name="Rectangle 265" class="cls-3" x="1258.34" y="553.28" width="12.53" height="272.23"/><rect id="Rectangle_266" data-name="Rectangle 266" class="cls-3" x="1207.54" y="553.28" width="63.33" height="7.59"/><rect id="Rectangle_267" data-name="Rectangle 267" class="cls-3" x="1207.54" y="568.46" width="63.33" height="7.59"/><rect id="Rectangle_268" data-name="Rectangle 268" class="cls-3" x="1207.54" y="583.64" width="63.33" height="7.59"/><rect id="Rectangle_269" data-name="Rectangle 269" class="cls-3" x="1207.54" y="598.83" width="63.33" height="7.59"/><rect id="Rectangle_270" data-name="Rectangle 270" class="cls-3" x="1207.54" y="614.02" width="63.33" height="7.59"/><rect id="Rectangle_271" data-name="Rectangle 271" class="cls-3" x="1207.54" y="629.2" width="63.33" height="7.59"/><rect id="Rectangle_272" data-name="Rectangle 272" class="cls-3" x="1207.54" y="644.38" width="63.33" height="7.59"/><rect id="Rectangle_273" data-name="Rectangle 273" class="cls-3" x="1207.54" y="659.57" width="63.33" height="7.59"/><rect id="Rectangle_274" data-name="Rectangle 274" class="cls-3" x="1207.54" y="674.75" width="63.33" height="7.59"/><rect id="Rectangle_275" data-name="Rectangle 275" class="cls-3" x="1207.54" y="689.94" width="63.33" height="7.59"/><rect id="Rectangle_276" data-name="Rectangle 276" class="cls-3" x="1207.54" y="705.12" width="63.33" height="7.59"/><rect id="Rectangle_277" data-name="Rectangle 277" class="cls-3" x="1207.54" y="720.3" width="63.33" height="7.59"/><rect id="Rectangle_278" data-name="Rectangle 278" class="cls-3" x="1207.54" y="735.49" width="63.33" height="7.59"/><rect id="Rectangle_279" data-name="Rectangle 279" class="cls-3" x="1207.54" y="750.67" width="63.33" height="7.59"/><rect id="Rectangle_280" data-name="Rectangle 280" class="cls-3" x="1207.54" y="765.86" width="63.33" height="7.59"/><rect id="Rectangle_281" data-name="Rectangle 281" class="cls-3" x="1207.54" y="781.04" width="63.33" height="7.59"/><rect id="Rectangle_282" data-name="Rectangle 282" class="cls-3" x="1207.54" y="796.23" width="63.33" height="7.59"/><rect id="Rectangle_283" data-name="Rectangle 283" class="cls-3" x="1207.54" y="811.41" width="63.33" height="7.59"/><path id="Path_70" data-name="Path 70" class="cls-3" d="M1373.38,384.56l7.07,4,7,33.6-6.77-2.74Z"/><path id="Path_71" data-name="Path 71" class="cls-3" d="M1386,391l7,4,6.94,33.63-6.65-2.55Z"/><path id="Path_72" data-name="Path 72" class="cls-3" d="M1398.93,397.67l7.28,3.91,6.93,33.4-6.89-2.24Z"/><path id="Path_73" data-name="Path 73" class="cls-3" d="M1412.16,405.26l7.28,3.91,6.86,33.05-6.83-1.89Z"/><path id="Path_74" data-name="Path 74" class="cls-3" d="M1367.86,412.73l7,3.86L1375,456l-7-3.85Z"/><path id="Path_75" data-name="Path 75" class="cls-3" d="M1380.63,418l6.77,4,.5,39.56-6.76-4Z"/><path id="Path_76" data-name="Path 76" class="cls-3" d="M1393.13,424.55l6.81,4.07.52,39.86-6.81-4.07Z"/><path id="Path_77" data-name="Path 77" class="cls-3" d="M1406.14,431.17l7,3.8.08,39.13-7-3.8Z"/><path id="Path_78" data-name="Path 78" class="cls-3" d="M1419.59,438.65l6.68,3.52-.08,36.92-6.67-3.53Z"/><rect id="Rectangle_284" data-name="Rectangle 284" class="cls-3" x="1435.11" y="885.16" width="30.62" height="33.62"/><rect id="Rectangle_285" data-name="Rectangle 285" class="cls-3" x="1485.22" y="859.13" width="30.62" height="16.27"/><rect id="Rectangle_286" data-name="Rectangle 286" class="cls-3" x="1446.94" y="629.5" width="60.55" height="22.48"/><rect id="Rectangle_287" data-name="Rectangle 287" class="cls-3" x="1446.94" y="633.54" width="13.92" height="185.47"/><rect id="Rectangle_288" data-name="Rectangle 288" class="cls-3" x="1446.94" y="759.35" width="45.93" height="59.65"/><rect id="Rectangle_289" data-name="Rectangle 289" class="cls-3" x="1492.87" y="629.2" width="14.61" height="141"/><path id="Rectangle_290" data-name="Rectangle 290" class="cls-3" d="M1522.1,722.47h0c3.46,0,6.27,4.37,6.27,9.76v17.36c0,5.39-2.81,9.76-6.27,9.76h0c-3.45,0-6.26-4.37-6.26-9.76V732.23C1515.84,726.84,1518.65,722.47,1522.1,722.47Z"/><rect id="Rectangle_291" data-name="Rectangle 291" class="cls-3" x="1536.72" y="773.45" width="6.96" height="104.12"/><rect id="Rectangle_292" data-name="Rectangle 292" class="cls-3" x="1553.42" y="763.69" width="22.27" height="104.12"/><rect id="Rectangle_293" data-name="Rectangle 293" class="cls-3" x="1553.42" y="853.71" width="112.74" height="14.1"/><rect id="Rectangle_294" data-name="Rectangle 294" class="cls-3" x="1616.06" y="815.75" width="7.66" height="52.06"/><rect id="Rectangle_296" data-name="Rectangle 296" class="cls-3" x="1567.34" y="722.47" width="18.09" height="67.24"/><path id="Path_79" data-name="Path 79" class="cls-3" d="M1541.59,394.93l35-145.34h8.81v520.6h-43.84Z"/><path id="Path_80" data-name="Path 80" class="cls-3" d="M1620.23,346.67l22.27,81.89V789.72h-22.27Z"/><path id="Path_82" data-name="Path 82" class="cls-3" d="M1602.91,263.78l5.45,1.75,44.32,160.52h-5.33Z"/><path id="Path_83" data-name="Path 83" class="cls-3" d="M1611.1,267.17l6.4,1.92,42.83,157H1655Z"/><path id="Path_84" data-name="Path 84" class="cls-3" d="M1620.62,271l5.49,2.18L1668,426.05h-5.33Z"/><path id="Path_85" data-name="Path 85" class="cls-3" d="M1628.81,275.31l5.9,1.78,40.93,149h-5.32Z"/><path id="Rectangle_297" data-name="Rectangle 297" class="cls-3" d="M1696.44,718.13h0c2.11,0,3.83,2.67,3.83,6v26c0,3.29-1.72,6-3.83,6h0c-2.12,0-3.83-2.67-3.83-6v-26C1692.61,720.8,1694.32,718.13,1696.44,718.13Z"/><rect id="Rectangle_300" data-name="Rectangle 300" class="cls-3" x="1710.7" y="825.51" width="99.33" height="15.18"/><path id="Rectangle_303" data-name="Rectangle 303" class="cls-3" d="M1702,849.37h4.87c3.26,0,5.91,4.13,5.91,9.22h0c0,5.09-2.65,9.22-5.91,9.22H1702c-3.27,0-5.92-4.13-5.92-9.22h0C1696.09,853.5,1698.74,849.37,1702,849.37Z"/><path id="Rectangle_304" data-name="Rectangle 304" class="cls-3" d="M1675.56,888.42h4.87c3.27,0,5.92,4.12,5.92,9.21h0c0,5.1-2.65,9.22-5.92,9.22h-4.87c-3.27,0-5.92-4.12-5.92-9.22h0C1669.64,892.54,1672.29,888.42,1675.56,888.42Z"/><path id="Rectangle_305" data-name="Rectangle 305" class="cls-3" d="M1722.88,898.18h35.5c3.26,0,5.91,4.12,5.91,9.22h0c0,5.09-2.65,9.21-5.91,9.21h-35.5c-3.26,0-5.91-4.12-5.91-9.21h0C1717,902.3,1719.62,898.18,1722.88,898.18Z"/><rect id="Rectangle_306" data-name="Rectangle 306" class="cls-3" x="1770.66" y="879.47" width="89.78" height="15.18"/><rect id="Rectangle_309" data-name="Rectangle 309" class="cls-3" x="1674.85" y="585.87" width="29.93" height="122.56"/><path id="Rectangle_311" data-name="Rectangle 311" class="cls-3" d="M1761.6,797.22h9.05c3.27,0,5.91,4.13,5.91,9.22h0c0,5.09-2.64,9.22-5.91,9.22h-9.05c-3.27,0-5.91-4.13-5.91-9.22h0C1755.69,801.35,1758.33,797.22,1761.6,797.22Z"/><path id="Rectangle_312" data-name="Rectangle 312" class="cls-3" d="M1793.62,781.34h4.17c4.81,0,8.7,6.07,8.7,13.56h0c0,7.49-3.89,13.56-8.7,13.56h-4.17c-4.81,0-8.7-6.07-8.7-13.56h0C1784.92,787.41,1788.81,781.34,1793.62,781.34Z"/><rect id="Rectangle_313" data-name="Rectangle 313" class="cls-3" x="1883.27" y="850.14" width="64.72" height="38.38"/><rect id="Rectangle_537" data-name="Rectangle 537" class="cls-3" x="1906.91" y="875.65" width="82.12" height="26.03"/><rect id="Rectangle_539" data-name="Rectangle 539" class="cls-3" x="1812.17" y="675.34" width="6.61" height="75.49"/><rect id="Rectangle_540" data-name="Rectangle 540" class="cls-3" x="1800.51" y="657.17" width="5.31" height="75.49"/></g></g><rect class="cls-2" x="247.81" y="907.61" width="106.69" height="18"/><rect class="cls-2" x="259.78" y="895.4" width="82.91" height="18"/><rect class="cls-2" x="318.74" y="684.08" width="10.88" height="220.02" transform="translate(701.3 1564.45) rotate(176.12)"/><rect class="cls-2" x="273.74" y="684.08" width="10.88" height="220.02" transform="matrix(1, 0.07, -0.07, 1, 54.33, -17.06)"/><rect class="cls-2" x="745.81" y="907.61" width="106.69" height="18"/><rect class="cls-2" x="757.78" y="895.4" width="82.91" height="18"/><rect class="cls-2" x="769.45" y="790.4" width="10.88" height="113.12" transform="translate(133.91 -105.38) rotate(8.51)"/><rect class="cls-2" x="817.65" y="790.4" width="10.88" height="113.12" transform="translate(1762.49 1562.74) rotate(171.49)"/><path class="cls-2" d="M757.78,772v22.5h30.36c.6-2.9,5.23-5.15,10.85-5.15s10.25,2.25,10.86,5.15h30.84V772Z"/><rect class="cls-2" x="591.81" y="907.61" width="106.69" height="18"/><rect class="cls-2" x="603.78" y="895.4" width="82.91" height="18"/><rect class="cls-2" x="615.45" y="790.4" width="10.88" height="113.12" transform="translate(132.22 -82.58) rotate(8.51)"/><rect class="cls-2" x="663.65" y="790.4" width="10.88" height="113.12" transform="translate(1456.19 1585.54) rotate(171.49)"/><path class="cls-2" d="M603.78,772v22.5h30.36c.6-2.9,5.23-5.15,10.85-5.15s10.25,2.25,10.86,5.15h30.84V772Z"/><rect class="cls-2" x="423.81" y="907.61" width="106.69" height="18"/><rect class="cls-2" x="435.78" y="895.4" width="82.91" height="18"/><rect class="cls-2" x="449.65" y="760.84" width="10.88" height="142.84" transform="translate(128.22 -58.2) rotate(8.51)"/><rect class="cls-2" x="493.62" y="763.05" width="10.88" height="140.61" transform="translate(1115.98 1583.66) rotate(171.49)"/><rect class="cls-2" x="62.81" y="907.61" width="106.69" height="18"/><rect class="cls-2" x="74.78" y="895.4" width="82.91" height="18"/><rect class="cls-2" x="132.3" y="641.47" width="10.88" height="262.68" transform="translate(327.41 1534.55) rotate(176.12)"/><rect class="cls-2" x="90.95" y="618.71" width="10.88" height="285.47" transform="translate(51.7 -4.77) rotate(3.88)"/><path class="cls-2" d="M-104.5,518s438,276.26,1196.59,238.81L1075,850.89S74.62,802.48-104.5,518Z"/><g id="Group_80-2" data-name="Group 80"><g id="Group_74-2" data-name="Group 74"><g id="Group_72-2" data-name="Group 72"><rect id="Rectangle_189" data-name="Rectangle 189" class="cls-2" x="924" y="828.06" width="10.6" height="81.74"/><rect id="Rectangle_190" data-name="Rectangle 190" class="cls-2" x="948.02" y="828.06" width="14.13" height="81.74"/><rect id="Rectangle_191" data-name="Rectangle 191" class="cls-2" x="969.92" y="802.14" width="16.96" height="81.74"/><path id="Path_151" data-name="Path 151" class="cls-2" d="M1025.66,688.5h140.59V915.12H1025.66Z"/><rect id="Rectangle_193" data-name="Rectangle 193" class="cls-2" x="1178.34" y="606.76" width="68.53" height="360.86"/><rect id="Rectangle_194" data-name="Rectangle 194" class="cls-2" x="1191.06" y="636.67" width="68.53" height="360.86"/><path id="Path_59" data-name="Path 59" class="cls-2" d="M1197.42,584.83l13.35-22.17h15.43L1247,595.18v20.05l-49.6,42.37Z"/><rect id="Rectangle_195" data-name="Rectangle 195" class="cls-2" x="1259.59" y="824.07" width="68.53" height="137.89"/><rect id="Rectangle_196" data-name="Rectangle 196" class="cls-2" x="1271.6" y="805.13" width="8.48" height="93.7"/><rect id="Rectangle_197" data-name="Rectangle 197" class="cls-2" x="1285.73" y="711.43" width="136.35" height="224.29"/><rect id="Rectangle_198" data-name="Rectangle 198" class="cls-2" x="1328.12" y="629.69" width="51.57" height="222.3"/><path id="Path_60" data-name="Path 60" class="cls-2" d="M1301.85,677c11.71-9.93,30.63-8.75,30.89,5s-4.26,22.75-15.65,32.83-31.21,7.72-31.28-3.29A45.26,45.26,0,0,1,1301.85,677Z"/><path id="Path_62" data-name="Path 62" class="cls-2" d="M1346.59,592.28c12.9-10.94,33.25-10.8,33.13,3.39s-5.24,23.77-17.8,34.85-33.84,9.76-33.6-1.61S1333.7,603.21,1346.59,592.28Z"/><rect id="Rectangle_199" data-name="Rectangle 199" class="cls-2" x="1349.32" y="592.81" width="30.38" height="222.3"/><path id="Path_64" data-name="Path 64" class="cls-2" d="M1301.85,698.94c11.71-9.93,30.63-8.75,30.89,5s-4.26,22.74-15.65,32.82-31.21,7.72-31.28-3.29A45.26,45.26,0,0,1,1301.85,698.94Z"/><path id="Path_65" data-name="Path 65" class="cls-2" d="M1391.58,670c11.71-9.93,30.63-8.75,30.89,5s-4.26,22.74-15.66,32.82-31.2,7.72-31.27-3.29A45.26,45.26,0,0,1,1391.58,670Z"/><rect id="Rectangle_200" data-name="Rectangle 200" class="cls-2" x="1393.12" y="684.51" width="28.97" height="251.2"/><rect id="Rectangle_201" data-name="Rectangle 201" class="cls-2" x="1393.12" y="824.07" width="78.42" height="111.65"/><rect id="Rectangle_202" data-name="Rectangle 202" class="cls-2" x="1435.51" y="520.04" width="103.86" height="406.71"/><path id="Path_66" data-name="Path 66" class="cls-2" d="M1486.51,451.19l44.3,44.91,9.07,23.94H1435.34l11.36-30.49Z"/><rect id="Rectangle_203" data-name="Rectangle 203" class="cls-2" x="1547.14" y="641.65" width="85.49" height="296.06"/><rect id="Rectangle_204" data-name="Rectangle 204" class="cls-2" x="1530.89" y="894.85" width="27.55" height="42.86"/><rect id="Rectangle_205" data-name="Rectangle 205" class="cls-2" x="1632.62" y="858.96" width="427.43" height="68.78"/><rect id="Rectangle_206" data-name="Rectangle 206" class="cls-2" x="1639.69" y="555" width="71.36" height="372.74"/><rect id="Rectangle_207" data-name="Rectangle 207" class="cls-2" x="1786.64" y="586.82" width="48.04" height="278.12"/><rect id="Rectangle_208" data-name="Rectangle 208" class="cls-2" x="1796.53" y="557.92" width="29.67" height="278.12"/><rect id="Rectangle_209" data-name="Rectangle 209" class="cls-2" x="1780.28" y="586.82" width="61.47" height="24.92"/><rect id="Rectangle_210" data-name="Rectangle 210" class="cls-2" x="1708.22" y="829.06" width="81.95" height="35.89"/><rect id="Rectangle_211" data-name="Rectangle 211" class="cls-2" x="1743.55" y="811.11" width="31.09" height="35.89"/><rect id="Rectangle_212" data-name="Rectangle 212" class="cls-2" x="1853.05" y="841.02" width="31.09" height="35.89"/><rect id="Rectangle_213" data-name="Rectangle 213" class="cls-2" x="1862.24" y="824.07" width="12.72" height="45.85"/><rect id="Rectangle_214" data-name="Rectangle 214" class="cls-2" x="1880.61" y="557.92" width="38.86" height="312.01"/><rect id="Rectangle_215" data-name="Rectangle 215" class="cls-2" x="1884.14" y="540.97" width="35.33" height="312.01"/><rect id="Rectangle_216" data-name="Rectangle 216" class="cls-2" x="1887.67" y="529.01" width="28.26" height="312.01"/><rect id="Rectangle_217" data-name="Rectangle 217" class="cls-2" x="1887.67" y="576.86" width="65" height="305.04"/><rect id="Rectangle_218" data-name="Rectangle 218" class="cls-2" x="1877.07" y="557.92" width="52.28" height="22.93"/><rect id="Rectangle_219" data-name="Rectangle 219" class="cls-2" x="1554.91" y="631.68" width="68.53" height="296.06"/><path id="Path_67" data-name="Path 67" class="cls-2" d="M1919.55,540.66,1952.91,577l-33.36,0Z"/><rect id="Rectangle_164-2" data-name="Rectangle 164" class="cls-2" x="1558.29" y="904.73" width="474.68" height="70.14"/><rect id="Rectangle_164-3" data-name="Rectangle 164" class="cls-2" x="1752.93" y="982.34" width="94.79" height="28.25"/><rect id="Rectangle_164-4" data-name="Rectangle 164" class="cls-2" x="1909.69" y="913.44" width="54.01" height="85.73"/><rect id="Rectangle_164-5" data-name="Rectangle 164" class="cls-2" x="1449.98" y="906.26" width="132.1" height="78.67"/><rect id="Rectangle_164-6" data-name="Rectangle 164" class="cls-2" x="1337.76" y="962.45" width="137.57" height="34.97"/><rect id="Rectangle_164-7" data-name="Rectangle 164" class="cls-2" x="923.5" y="872.89" width="276.43" height="116.11"/><rect id="Rectangle_164-8" data-name="Rectangle 164" class="cls-2" x="1304.67" y="947.47" width="63.19" height="14.29"/><rect id="Rectangle_164-9" data-name="Rectangle 164" class="cls-2" x="1115.43" y="986.77" width="63.19" height="14.29"/><rect id="Rectangle_164-10" data-name="Rectangle 164" class="cls-2" x="1268" y="993.06" width="20.61" height="25.7"/><rect id="Rectangle_164-11" data-name="Rectangle 164" class="cls-2" x="1076.4" y="966.86" width="20.61" height="25.7"/></g></g><g id="Group_75-2" data-name="Group 75"><path id="Path_92" data-name="Path 92" class="cls-3" d="M1520.09,488.69h0L1515,520.62h-17.67Z"/><path id="Path_93" data-name="Path 93" class="cls-3" d="M1469.77,488.69l-2.48,3.44,30.25,28.49H1515l-43.16-38.25Z"/><path id="Path_95" data-name="Path 95" class="cls-3" d="M1520.09,488.69h0L1496,498l-9.11-45.43Z"/><path id="Rectangle_318" data-name="Rectangle 318" class="cls-3" d="M1052.39,952.22h14.83c2.35,0,4.24,2.68,4.24,6h0c0,3.31-1.89,6-4.24,6h-14.83c-2.34,0-4.24-2.67-4.24-6h0C1048.15,954.9,1050.05,952.22,1052.39,952.22Z"/><rect id="Rectangle_319" data-name="Rectangle 319" class="cls-3" x="1024.35" y="706" width="93.26" height="234.26"/><rect id="Rectangle_320" data-name="Rectangle 320" class="cls-3" x="1024.35" y="681.08" width="93.26" height="12.96"/><rect id="Rectangle_323" data-name="Rectangle 323" class="cls-3" x="1139.29" y="935.28" width="38.15" height="22.93"/><rect id="Rectangle_324" data-name="Rectangle 324" class="cls-3" x="1133.64" y="994.09" width="38.15" height="22.93"/><rect id="Rectangle_325" data-name="Rectangle 325" class="cls-3" x="1101.14" y="969.17" width="9.89" height="53.83"/><path id="Rectangle_326" data-name="Rectangle 326" class="cls-3" d="M1165.08,864.5h0c3.7,0,6.71,4.24,6.71,9.47v29.91c0,5.23-3,9.47-6.71,9.47h0c-3.71,0-6.72-4.24-6.72-9.47V874C1158.36,868.74,1161.37,864.5,1165.08,864.5Z"/><rect id="Rectangle_327" data-name="Rectangle 327" class="cls-3" x="1191.57" y="599.34" width="8.48" height="352.88"/><rect id="Rectangle_328" data-name="Rectangle 328" class="cls-3" x="1176.73" y="599.34" width="4.95" height="358.86"/><rect id="Rectangle_329" data-name="Rectangle 329" class="cls-3" x="1176.73" y="946.24" width="53.69" height="11.96"/><rect id="Rectangle_330" data-name="Rectangle 330" class="cls-3" x="1176.73" y="599.34" width="26.85" height="33.89"/><path id="Path_86" data-name="Path 86" class="cls-3" d="M1230.75,565.15l13.81,21.23V952.22h-14.13Z"/><path id="Path_87" data-name="Path 87" class="cls-3" d="M1194.4,577.41l13.13-20.18h5.23V611.3H1194.4Z"/><rect id="Rectangle_331" data-name="Rectangle 331" class="cls-3" x="1249.5" y="626.25" width="8.48" height="325.97"/><path id="Rectangle_332" data-name="Rectangle 332" class="cls-3" d="M1269.28,913.35h0c3.52,0,6.36,4,6.36,9v15.95c0,5-2.84,9-6.36,9h0c-3.51,0-6.35-4-6.35-9V922.32C1262.93,917.36,1265.77,913.35,1269.28,913.35Z"/><path id="Rectangle_333" data-name="Rectangle 333" class="cls-3" d="M1272.46,958.2h0c1.76,0,3.18,2,3.18,4.49v11c0,2.47-1.42,4.48-3.18,4.48h0c-1.75,0-3.18-2-3.18-4.48v-11C1269.28,960.21,1270.71,958.2,1272.46,958.2Z"/><path id="Rectangle_334" data-name="Rectangle 334" class="cls-3" d="M1302.49,1003.06h4.24c3.9,0,7.07,4.47,7.07,10h0c0,5.51-3.17,10-7.07,10h-4.24c-3.9,0-7.06-4.46-7.06-10h0C1295.43,1007.53,1298.59,1003.06,1302.49,1003.06Z"/><path id="Path_88" data-name="Path 88" class="cls-3" d="M1300.25,669.59c11.7-9.93,30.63-8.75,30.88,5s-4.26,22.75-15.65,32.83-31.2,7.72-31.27-3.29A45.18,45.18,0,0,1,1300.25,669.59Z"/><path id="Path_89" data-name="Path 89" class="cls-3" d="M1345,584.86c12.89-10.94,33.24-10.8,33.12,3.39s-5.24,23.77-17.8,34.84-33.84,9.77-33.6-1.6S1332.09,595.79,1345,584.86Z"/><path id="Path_90" data-name="Path 90" class="cls-3" d="M1390,662.61c11.71-9.93,30.63-8.75,30.89,5s-4.26,22.74-15.65,32.82-31.21,7.72-31.28-3.29A45.26,45.26,0,0,1,1390,662.61Z"/><rect id="Rectangle_335" data-name="Rectangle 335" class="cls-3" x="1286.95" y="706" width="17.66" height="68.78"/><rect id="Rectangle_336" data-name="Rectangle 336" class="cls-3" x="1326.51" y="620.27" width="21.9" height="53.83"/><rect id="Rectangle_337" data-name="Rectangle 337" class="cls-3" x="1331.46" y="620.27" width="16.96" height="79.75"/><rect id="Rectangle_338" data-name="Rectangle 338" class="cls-3" x="1373.85" y="695.04" width="13.42" height="79.75"/><path id="Path_91" data-name="Path 91" class="cls-3" d="M1342.64,753.32c11.7-9.92,30.63-8.74,30.88,5s-4.26,22.75-15.65,32.83-31.2,7.71-31.27-3.29A45.2,45.2,0,0,1,1342.64,753.32Z"/><rect id="Rectangle_339" data-name="Rectangle 339" class="cls-3" x="1326.51" y="789.74" width="21.9" height="69.78"/><rect id="Rectangle_340" data-name="Rectangle 340" class="cls-3" x="1373.85" y="695.04" width="6.36" height="164.48"/><rect id="Rectangle_341" data-name="Rectangle 341" class="cls-3" x="1286.95" y="774.78" width="39.56" height="9.97"/><rect id="Rectangle_342" data-name="Rectangle 342" class="cls-3" x="1286.95" y="796.71" width="39.56" height="6.98"/><rect id="Rectangle_343" data-name="Rectangle 343" class="cls-3" x="1294.01" y="812.66" width="32.5" height="6.98"/><rect id="Rectangle_344" data-name="Rectangle 344" class="cls-3" x="1283.42" y="828.61" width="43.1" height="6.98"/><rect id="Rectangle_345" data-name="Rectangle 345" class="cls-3" x="1283.42" y="844.56" width="43.1" height="6.98"/><rect id="Rectangle_346" data-name="Rectangle 346" class="cls-3" x="1283.42" y="860.51" width="43.1" height="6.98"/><rect id="Rectangle_347" data-name="Rectangle 347" class="cls-3" x="1283.42" y="876.46" width="43.1" height="6.98"/><rect id="Rectangle_348" data-name="Rectangle 348" class="cls-3" x="1283.42" y="892.41" width="43.1" height="6.98"/><rect id="Rectangle_349" data-name="Rectangle 349" class="cls-3" x="1283.42" y="908.36" width="43.1" height="6.98"/><rect id="Rectangle_350" data-name="Rectangle 350" class="cls-3" x="1326.51" y="867.49" width="55.81" height="8.97"/><rect id="Rectangle_351" data-name="Rectangle 351" class="cls-3" x="1326.51" y="883.44" width="55.81" height="8.97"/><rect id="Rectangle_352" data-name="Rectangle 352" class="cls-3" x="1326.51" y="899.39" width="55.81" height="8.97"/><rect id="Rectangle_353" data-name="Rectangle 353" class="cls-3" x="1326.51" y="915.34" width="55.81" height="8.97"/><rect id="Rectangle_354" data-name="Rectangle 354" class="cls-3" x="1380.21" y="779.77" width="38.15" height="4.98"/><rect id="Rectangle_355" data-name="Rectangle 355" class="cls-3" x="1380.21" y="793.72" width="38.15" height="6.98"/><rect id="Rectangle_356" data-name="Rectangle 356" class="cls-3" x="1380.21" y="812.66" width="38.15" height="6.98"/><rect id="Rectangle_357" data-name="Rectangle 357" class="cls-3" x="1380.21" y="828.61" width="38.15" height="6.98"/><rect id="Rectangle_358" data-name="Rectangle 358" class="cls-3" x="1380.21" y="844.56" width="38.15" height="6.98"/><rect id="Rectangle_359" data-name="Rectangle 359" class="cls-3" x="1380.21" y="860.51" width="38.15" height="6.98"/><rect id="Rectangle_360" data-name="Rectangle 360" class="cls-3" x="1380.21" y="876.46" width="38.15" height="6.98"/><rect id="Rectangle_361" data-name="Rectangle 361" class="cls-3" x="1380.21" y="892.41" width="38.15" height="6.98"/><rect id="Rectangle_362" data-name="Rectangle 362" class="cls-3" x="1331.46" y="699.02" width="38.6" height="6.98"/><rect id="Rectangle_363" data-name="Rectangle 363" class="cls-3" x="1331.46" y="714.97" width="38.6" height="6.98"/><rect id="Rectangle_364" data-name="Rectangle 364" class="cls-3" x="1331.46" y="730.92" width="38.6" height="6.98"/><rect id="Rectangle_365" data-name="Rectangle 365" class="cls-3" x="1331.46" y="746.87" width="38.6" height="6.98"/><rect id="Rectangle_366" data-name="Rectangle 366" class="cls-3" x="1306.02" y="945.24" width="127.17" height="18.94"/><rect id="Rectangle_367" data-name="Rectangle 367" class="cls-3" x="1497.49" y="520.59" width="17.66" height="383.78"/><rect id="Rectangle_368" data-name="Rectangle 368" class="cls-3" x="1435.31" y="520.59" width="4.24" height="383.78"/><path id="Path_94" data-name="Path 94" class="cls-3" d="M1469.77,488.69h0l-30.31,42.48-4.15-10.55v-9.27l11-29.85,38.57-37.5Z"/><path id="Rectangle_369" data-name="Rectangle 369" class="cls-3" d="M1514.79,925.31h0c3.32,0,6,3.79,6,8.47v21.93c0,4.68-2.69,8.47-6,8.47h0c-3.31,0-6-3.79-6-8.47V933.78C1508.79,929.1,1511.48,925.31,1514.79,925.31Z"/><rect id="Rectangle_370" data-name="Rectangle 370" class="cls-3" x="1527.87" y="949.23" width="46.63" height="8.97"/><rect id="Rectangle_370-2" data-name="Rectangle 370" class="cls-3" x="1402.49" y="988.53" width="46.63" height="8.97"/><rect id="Rectangle_370-3" data-name="Rectangle 370" class="cls-3" x="1616.57" y="989.72" width="46.63" height="8.97"/><rect id="Rectangle_370-4" data-name="Rectangle 370" class="cls-3" x="1357.89" y="971.48" width="13.17" height="16.15"/><rect id="Rectangle_370-5" data-name="Rectangle 370" class="cls-3" x="1581.43" y="985.77" width="13.17" height="16.15"/><rect id="Rectangle_371" data-name="Rectangle 371" class="cls-3" x="1569.55" y="926.3" width="28.97" height="41.87"/><rect id="Rectangle_372" data-name="Rectangle 372" class="cls-3" x="1551.89" y="624.26" width="69.94" height="19.94"/><rect id="Rectangle_373" data-name="Rectangle 373" class="cls-3" x="1549.06" y="634.23" width="81.25" height="20.93"/><rect id="Rectangle_374" data-name="Rectangle 374" class="cls-3" x="1551.89" y="661.14" width="75.6" height="7.97"/><rect id="Rectangle_375" data-name="Rectangle 375" class="cls-3" x="1551.89" y="676.1" width="75.6" height="7.97"/><rect id="Rectangle_376" data-name="Rectangle 376" class="cls-3" x="1551.89" y="691.05" width="75.6" height="7.97"/><rect id="Rectangle_377" data-name="Rectangle 377" class="cls-3" x="1551.89" y="706" width="75.6" height="7.97"/><rect id="Rectangle_378" data-name="Rectangle 378" class="cls-3" x="1551.89" y="720.95" width="75.6" height="7.97"/><rect id="Rectangle_379" data-name="Rectangle 379" class="cls-3" x="1551.89" y="735.91" width="75.6" height="7.97"/><rect id="Rectangle_380" data-name="Rectangle 380" class="cls-3" x="1551.89" y="750.86" width="75.6" height="7.97"/><rect id="Rectangle_381" data-name="Rectangle 381" class="cls-3" x="1551.89" y="765.81" width="75.6" height="7.97"/><rect id="Rectangle_382" data-name="Rectangle 382" class="cls-3" x="1551.89" y="780.76" width="75.6" height="7.97"/><rect id="Rectangle_383" data-name="Rectangle 383" class="cls-3" x="1551.89" y="795.72" width="75.6" height="7.97"/><rect id="Rectangle_384" data-name="Rectangle 384" class="cls-3" x="1551.89" y="810.67" width="75.6" height="7.97"/><rect id="Rectangle_385" data-name="Rectangle 385" class="cls-3" x="1551.89" y="825.62" width="75.6" height="7.97"/><rect id="Rectangle_386" data-name="Rectangle 386" class="cls-3" x="1551.89" y="840.58" width="75.6" height="7.97"/><rect id="Rectangle_387" data-name="Rectangle 387" class="cls-3" x="1551.89" y="855.53" width="75.6" height="7.97"/><rect id="Rectangle_388" data-name="Rectangle 388" class="cls-3" x="1551.89" y="870.48" width="75.6" height="7.97"/><rect id="Rectangle_389" data-name="Rectangle 389" class="cls-3" x="1551.89" y="884.44" width="75.6" height="7.97"/><rect id="Rectangle_390" data-name="Rectangle 390" class="cls-3" x="1638.08" y="559" width="43.1" height="403.19"/><rect id="Rectangle_391" data-name="Rectangle 391" class="cls-3" x="1696.01" y="928.3" width="55.11" height="18.94"/><path id="Rectangle_392" data-name="Rectangle 392" class="cls-3" d="M1720,904.37h17c2.73,0,5,3.13,5,7h0c0,3.85-2.22,7-5,7h-17c-2.73,0-4.94-3.13-4.94-7h0C1715.09,907.5,1717.3,904.37,1720,904.37Z"/><path id="Rectangle_393" data-name="Rectangle 393" class="cls-3" d="M1712.26,877.46h3.54c2.73,0,4.94,3.12,4.94,7h0c0,3.85-2.21,7-4.94,7h-3.54c-2.73,0-4.94-3.13-4.94-7h0C1707.32,880.58,1709.53,877.46,1712.26,877.46Z"/><path id="Rectangle_394" data-name="Rectangle 394" class="cls-3" d="M1733.81,848.55h0c2.93,0,5.3,3.35,5.3,7.48v4c0,4.13-2.37,7.48-5.3,7.48h0c-2.93,0-5.3-3.35-5.3-7.48v-4C1728.51,851.9,1730.88,848.55,1733.81,848.55Z"/><rect id="Rectangle_395" data-name="Rectangle 395" class="cls-3" x="1767.37" y="947.24" width="51.57" height="14.95"/><path id="Rectangle_396" data-name="Rectangle 396" class="cls-3" d="M1729.93,968.17h12c2.34,0,4.24,2.68,4.24,6h0c0,3.31-1.9,6-4.24,6h-12c-2.35,0-4.24-2.67-4.24-6h0C1725.69,970.85,1727.58,968.17,1729.93,968.17Z"/><rect id="Rectangle_397" data-name="Rectangle 397" class="cls-3" x="1753.24" y="814.66" width="14.13" height="29.91"/><rect id="Rectangle_398" data-name="Rectangle 398" class="cls-3" x="1797.04" y="555.48" width="24.02" height="14.95"/><rect id="Rectangle_399" data-name="Rectangle 399" class="cls-3" x="1795.63" y="595.35" width="26.85" height="16.95"/><rect id="Rectangle_400" data-name="Rectangle 400" class="cls-3" x="1795.63" y="579.4" width="5.65" height="30.9"/><rect id="Rectangle_401" data-name="Rectangle 401" class="cls-3" x="1816.83" y="579.4" width="5.65" height="30.9"/><rect id="Rectangle_402" data-name="Rectangle 402" class="cls-3" x="1801.28" y="618.28" width="15.54" height="6.98"/><rect id="Rectangle_403" data-name="Rectangle 403" class="cls-3" x="1801.28" y="631.24" width="15.54" height="6.98"/><rect id="Rectangle_404" data-name="Rectangle 404" class="cls-3" x="1826.01" y="618.28" width="7.09" height="6.98"/><rect id="Rectangle_405" data-name="Rectangle 405" class="cls-3" x="1826.01" y="631.24" width="7.09" height="6.98"/><rect id="Rectangle_406" data-name="Rectangle 406" class="cls-3" x="1785.03" y="618.28" width="7.09" height="6.98"/><rect id="Rectangle_407" data-name="Rectangle 407" class="cls-3" x="1785.03" y="631.24" width="7.09" height="6.98"/><rect id="Rectangle_408" data-name="Rectangle 408" class="cls-3" x="1801.28" y="644.2" width="15.54" height="6.98"/><rect id="Rectangle_409" data-name="Rectangle 409" class="cls-3" x="1801.28" y="657.16" width="15.54" height="6.98"/><rect id="Rectangle_410" data-name="Rectangle 410" class="cls-3" x="1826.01" y="644.2" width="7.09" height="6.98"/><rect id="Rectangle_411" data-name="Rectangle 411" class="cls-3" x="1826.01" y="657.16" width="7.09" height="6.98"/><rect id="Rectangle_412" data-name="Rectangle 412" class="cls-3" x="1785.03" y="644.2" width="7.09" height="6.98"/><rect id="Rectangle_413" data-name="Rectangle 413" class="cls-3" x="1785.03" y="657.16" width="7.09" height="6.98"/><rect id="Rectangle_414" data-name="Rectangle 414" class="cls-3" x="1801.28" y="670.12" width="15.54" height="6.98"/><rect id="Rectangle_415" data-name="Rectangle 415" class="cls-3" x="1801.28" y="683.07" width="15.54" height="6.98"/><rect id="Rectangle_416" data-name="Rectangle 416" class="cls-3" x="1826.01" y="670.12" width="7.09" height="6.98"/><rect id="Rectangle_417" data-name="Rectangle 417" class="cls-3" x="1826.01" y="683.07" width="7.09" height="6.98"/><rect id="Rectangle_418" data-name="Rectangle 418" class="cls-3" x="1785.03" y="670.12" width="7.09" height="6.98"/><rect id="Rectangle_419" data-name="Rectangle 419" class="cls-3" x="1785.03" y="683.07" width="7.09" height="6.98"/><rect id="Rectangle_420" data-name="Rectangle 420" class="cls-3" x="1801.28" y="696.03" width="15.54" height="6.98"/><rect id="Rectangle_421" data-name="Rectangle 421" class="cls-3" x="1801.28" y="708.99" width="15.54" height="6.98"/><rect id="Rectangle_422" data-name="Rectangle 422" class="cls-3" x="1826.01" y="696.03" width="7.09" height="6.98"/><rect id="Rectangle_423" data-name="Rectangle 423" class="cls-3" x="1826.01" y="708.99" width="7.09" height="6.98"/><rect id="Rectangle_424" data-name="Rectangle 424" class="cls-3" x="1785.03" y="696.03" width="7.09" height="6.98"/><rect id="Rectangle_425" data-name="Rectangle 425" class="cls-3" x="1785.03" y="708.99" width="7.09" height="6.98"/><rect id="Rectangle_426" data-name="Rectangle 426" class="cls-3" x="1826.01" y="605.32" width="7.09" height="6.98"/><rect id="Rectangle_427" data-name="Rectangle 427" class="cls-3" x="1785.03" y="605.32" width="7.09" height="6.98"/><rect id="Rectangle_428" data-name="Rectangle 428" class="cls-3" x="1801.28" y="721.95" width="15.54" height="6.98"/><rect id="Rectangle_429" data-name="Rectangle 429" class="cls-3" x="1826.01" y="721.95" width="7.09" height="6.98"/><rect id="Rectangle_430" data-name="Rectangle 430" class="cls-3" x="1785.03" y="721.95" width="7.09" height="6.98"/><rect id="Rectangle_431" data-name="Rectangle 431" class="cls-3" x="1801.28" y="734.91" width="15.54" height="6.98"/><rect id="Rectangle_432" data-name="Rectangle 432" class="cls-3" x="1801.28" y="747.87" width="15.54" height="6.98"/><rect id="Rectangle_433" data-name="Rectangle 433" class="cls-3" x="1826.01" y="734.91" width="7.09" height="6.98"/><rect id="Rectangle_434" data-name="Rectangle 434" class="cls-3" x="1826.01" y="747.87" width="7.09" height="6.98"/><rect id="Rectangle_435" data-name="Rectangle 435" class="cls-3" x="1785.03" y="734.91" width="7.09" height="6.98"/><rect id="Rectangle_436" data-name="Rectangle 436" class="cls-3" x="1785.03" y="747.87" width="7.09" height="6.98"/><rect id="Rectangle_437" data-name="Rectangle 437" class="cls-3" x="1801.28" y="760.83" width="15.54" height="6.98"/><rect id="Rectangle_438" data-name="Rectangle 438" class="cls-3" x="1826.01" y="760.83" width="7.09" height="6.98"/><rect id="Rectangle_439" data-name="Rectangle 439" class="cls-3" x="1785.03" y="760.83" width="7.09" height="6.98"/><rect id="Rectangle_440" data-name="Rectangle 440" class="cls-3" x="1801.28" y="773.79" width="15.54" height="6.98"/><rect id="Rectangle_441" data-name="Rectangle 441" class="cls-3" x="1801.28" y="786.75" width="15.54" height="6.98"/><rect id="Rectangle_442" data-name="Rectangle 442" class="cls-3" x="1826.01" y="773.79" width="7.09" height="6.98"/><rect id="Rectangle_443" data-name="Rectangle 443" class="cls-3" x="1826.01" y="786.75" width="7.09" height="6.98"/><rect id="Rectangle_444" data-name="Rectangle 444" class="cls-3" x="1785.03" y="773.79" width="7.09" height="6.98"/><rect id="Rectangle_445" data-name="Rectangle 445" class="cls-3" x="1785.03" y="786.75" width="7.09" height="6.98"/><rect id="Rectangle_446" data-name="Rectangle 446" class="cls-3" x="1801.28" y="799.71" width="15.54" height="6.98"/><rect id="Rectangle_447" data-name="Rectangle 447" class="cls-3" x="1826.01" y="799.71" width="7.09" height="6.98"/><rect id="Rectangle_448" data-name="Rectangle 448" class="cls-3" x="1785.03" y="799.71" width="7.09" height="6.98"/><rect id="Rectangle_449" data-name="Rectangle 449" class="cls-3" x="1801.28" y="812.66" width="15.54" height="6.98"/><rect id="Rectangle_450" data-name="Rectangle 450" class="cls-3" x="1801.28" y="825.62" width="15.54" height="6.98"/><rect id="Rectangle_451" data-name="Rectangle 451" class="cls-3" x="1826.01" y="812.66" width="7.09" height="6.98"/><rect id="Rectangle_452" data-name="Rectangle 452" class="cls-3" x="1826.01" y="825.62" width="7.09" height="6.98"/><rect id="Rectangle_453" data-name="Rectangle 453" class="cls-3" x="1785.03" y="812.66" width="7.09" height="6.98"/><rect id="Rectangle_454" data-name="Rectangle 454" class="cls-3" x="1785.03" y="825.62" width="7.09" height="6.98"/><rect id="Rectangle_455" data-name="Rectangle 455" class="cls-3" x="1801.28" y="838.58" width="15.54" height="6.98"/><rect id="Rectangle_456" data-name="Rectangle 456" class="cls-3" x="1826.01" y="838.58" width="7.09" height="6.98"/><rect id="Rectangle_457" data-name="Rectangle 457" class="cls-3" x="1785.03" y="838.58" width="7.09" height="6.98"/><rect id="Rectangle_458" data-name="Rectangle 458" class="cls-3" x="1801.28" y="851.54" width="15.54" height="6.98"/><rect id="Rectangle_459" data-name="Rectangle 459" class="cls-3" x="1801.28" y="864.5" width="15.54" height="6.98"/><rect id="Rectangle_460" data-name="Rectangle 460" class="cls-3" x="1826.01" y="851.54" width="7.09" height="6.98"/><rect id="Rectangle_461" data-name="Rectangle 461" class="cls-3" x="1826.01" y="864.5" width="7.09" height="6.98"/><rect id="Rectangle_462" data-name="Rectangle 462" class="cls-3" x="1785.03" y="851.54" width="7.09" height="6.98"/><rect id="Rectangle_463" data-name="Rectangle 463" class="cls-3" x="1785.03" y="864.5" width="7.09" height="6.98"/><rect id="Rectangle_464" data-name="Rectangle 464" class="cls-3" x="1801.28" y="877.46" width="15.54" height="6.98"/><rect id="Rectangle_465" data-name="Rectangle 465" class="cls-3" x="1826.01" y="877.46" width="7.09" height="6.98"/><rect id="Rectangle_466" data-name="Rectangle 466" class="cls-3" x="1785.03" y="877.46" width="7.09" height="6.98"/><rect id="Rectangle_467" data-name="Rectangle 467" class="cls-3" x="1801.28" y="890.42" width="15.54" height="6.98"/><rect id="Rectangle_468" data-name="Rectangle 468" class="cls-3" x="1801.28" y="903.38" width="15.54" height="6.98"/><rect id="Rectangle_469" data-name="Rectangle 469" class="cls-3" x="1826.01" y="890.42" width="7.09" height="6.98"/><rect id="Rectangle_470" data-name="Rectangle 470" class="cls-3" x="1826.01" y="903.38" width="7.09" height="6.98"/><rect id="Rectangle_471" data-name="Rectangle 471" class="cls-3" x="1785.03" y="890.42" width="7.09" height="6.98"/><rect id="Rectangle_472" data-name="Rectangle 472" class="cls-3" x="1785.03" y="903.38" width="7.09" height="6.98"/><path id="Rectangle_473" data-name="Rectangle 473" class="cls-3" d="M1807.29,921.32h21.9c3.32,0,6,3.79,6,8.47h0c0,4.68-2.68,8.48-6,8.48h-21.9c-3.32,0-6-3.8-6-8.48h0C1801.28,925.11,1804,921.32,1807.29,921.32Z"/><path id="Rectangle_474" data-name="Rectangle 474" class="cls-3" d="M1849,854.53h13.43c2.53,0,4.59,2.9,4.59,6.48h0c0,3.58-2.06,6.48-4.59,6.48H1849c-2.53,0-4.59-2.9-4.59-6.48h0C1844.38,857.43,1846.44,854.53,1849,854.53Z"/><path id="Rectangle_475" data-name="Rectangle 475" class="cls-3" d="M1861.33,881.45h0c3.12,0,5.65,3.57,5.65,8v6c0,4.41-2.53,8-5.65,8h0c-3.12,0-5.65-3.57-5.65-8v-6C1855.68,885,1858.21,881.45,1861.33,881.45Z"/><rect id="Rectangle_476" data-name="Rectangle 476" class="cls-3" x="1841.55" y="932.29" width="130" height="22.93"/><rect id="Rectangle_477" data-name="Rectangle 477" class="cls-3" x="1844.38" y="938.27" width="11.3" height="35.89"/><rect id="Rectangle_478" data-name="Rectangle 478" class="cls-3" x="1876.88" y="938.27" width="47.34" height="35.89"/><rect id="Rectangle_483" data-name="Rectangle 483" class="cls-3" x="1880.33" y="576.41" width="38" height="6.98"/><rect id="Rectangle_484" data-name="Rectangle 484" class="cls-3" x="1880.33" y="589.37" width="38" height="6.98"/><rect id="Rectangle_485" data-name="Rectangle 485" class="cls-3" x="1880.33" y="602.33" width="38" height="6.98"/><rect id="Rectangle_486" data-name="Rectangle 486" class="cls-3" x="1880.33" y="615.29" width="38" height="6.98"/><rect id="Rectangle_487" data-name="Rectangle 487" class="cls-3" x="1880.33" y="628.25" width="38" height="6.98"/><rect id="Rectangle_488" data-name="Rectangle 488" class="cls-3" x="1880.33" y="640.38" width="38" height="6.98"/><rect id="Rectangle_489" data-name="Rectangle 489" class="cls-3" x="1880.33" y="653.17" width="38" height="6.98"/><rect id="Rectangle_490" data-name="Rectangle 490" class="cls-3" x="1880.33" y="665.96" width="38" height="6.98"/><rect id="Rectangle_491" data-name="Rectangle 491" class="cls-3" x="1880.33" y="678.76" width="38" height="6.98"/><rect id="Rectangle_492" data-name="Rectangle 492" class="cls-3" x="1880.33" y="691.55" width="38" height="6.98"/><rect id="Rectangle_493" data-name="Rectangle 493" class="cls-3" x="1880.33" y="704.34" width="38" height="6.98"/><rect id="Rectangle_494" data-name="Rectangle 494" class="cls-3" x="1880.33" y="717.13" width="38" height="6.98"/><rect id="Rectangle_495" data-name="Rectangle 495" class="cls-3" x="1880.33" y="729.93" width="38" height="6.98"/><rect id="Rectangle_496" data-name="Rectangle 496" class="cls-3" x="1880.33" y="742.72" width="38" height="6.98"/><rect id="Rectangle_497" data-name="Rectangle 497" class="cls-3" x="1880.33" y="755.51" width="38" height="6.98"/><rect id="Rectangle_498" data-name="Rectangle 498" class="cls-3" x="1880.33" y="768.31" width="38" height="6.98"/><rect id="Rectangle_499" data-name="Rectangle 499" class="cls-3" x="1880.33" y="781.1" width="38" height="6.98"/><rect id="Rectangle_500" data-name="Rectangle 500" class="cls-3" x="1880.33" y="793.89" width="38" height="6.98"/><rect id="Rectangle_501" data-name="Rectangle 501" class="cls-3" x="1880.33" y="806.68" width="38" height="6.98"/><rect id="Rectangle_502" data-name="Rectangle 502" class="cls-3" x="1880.33" y="819.48" width="38" height="6.98"/><rect id="Rectangle_503" data-name="Rectangle 503" class="cls-3" x="1880.33" y="831.61" width="38" height="6.98"/><rect id="Rectangle_504" data-name="Rectangle 504" class="cls-3" x="1880.33" y="844.56" width="38" height="6.98"/><rect id="Rectangle_505" data-name="Rectangle 505" class="cls-3" x="1880.33" y="857.52" width="38" height="6.98"/><rect id="Rectangle_506" data-name="Rectangle 506" class="cls-3" x="1880.33" y="870.48" width="38" height="6.98"/><path id="Path_96" data-name="Path 96" class="cls-3" d="M1927.75,579.4l-31.16-43,41.75,43v312h-10.6Z"/><rect id="Rectangle_508" data-name="Rectangle 508" class="cls-3" x="1880.33" y="883.44" width="38" height="6.98"/></g></g><rect class="cls-4" x="-34.5" y="913" width="2692" height="281"/><rect class="cls-2" x="247.81" y="903.47" width="106.69" height="18"/><rect class="cls-2" x="259.78" y="915.68" width="82.91" height="18"/><rect class="cls-2" x="318.74" y="924.97" width="10.88" height="220.02" transform="translate(577.64 2089.51) rotate(-176.12)"/><rect class="cls-2" x="273.74" y="924.97" width="10.88" height="220.02" transform="translate(-69.33 21.24) rotate(-3.88)"/><rect class="cls-2" x="745.81" y="903.47" width="106.69" height="18"/><rect class="cls-2" x="757.78" y="915.68" width="82.91" height="18"/><rect class="cls-2" x="769.45" y="925.56" width="10.88" height="113.12" transform="translate(-136.85 125.53) rotate(-8.51)"/><rect class="cls-2" x="817.65" y="925.56" width="10.88" height="113.12" transform="translate(1491.73 2075.26) rotate(-171.49)"/><path class="cls-2" d="M757.78,1057.08v-22.5h30.36c.6,2.89,5.23,5.14,10.85,5.14s10.25-2.25,10.86-5.14h30.84v22.5Z"/><rect class="cls-2" x="591.81" y="903.47" width="106.69" height="18"/><rect class="cls-2" x="603.78" y="915.68" width="82.91" height="18"/><rect class="cls-2" x="615.45" y="925.56" width="10.88" height="113.12" transform="translate(-138.54 102.73) rotate(-8.51)"/><rect class="cls-2" x="663.65" y="925.56" width="10.88" height="113.12" transform="translate(1185.43 2052.46) rotate(-171.49)"/><path class="cls-2" d="M603.78,1057.08v-22.5h30.36c.6,2.89,5.23,5.14,10.85,5.14s10.25-2.25,10.86-5.14h30.84v22.5Z"/><rect class="cls-2" x="423.81" y="903.47" width="106.69" height="18"/><rect class="cls-2" x="435.78" y="915.68" width="82.91" height="18"/><rect class="cls-2" x="449.65" y="925.4" width="10.88" height="142.84" transform="translate(-142.55 78.35) rotate(-8.51)"/><rect class="cls-2" x="493.62" y="925.41" width="10.88" height="140.61" transform="translate(845.22 2054.34) rotate(-171.49)"/><rect class="cls-2" x="62.81" y="903.47" width="106.69" height="18"/><rect class="cls-2" x="74.78" y="915.68" width="82.91" height="18"/><rect class="cls-2" x="132.3" y="924.92" width="10.88" height="262.68" transform="translate(203.75 2119.42) rotate(-176.12)"/><rect class="cls-2" x="90.95" y="924.9" width="10.88" height="285.47" transform="translate(-71.96 8.96) rotate(-3.88)"/><path class="cls-2" d="M-31.41,1314.61s364.92-279.8,1123.5-242.35L1075,978.18s-927.3,52-1106.42,336.43Z"/><polygon class="cls-2" points="1328.12 885 1328.12 889.28 1393.12 889.28 1422.08 889.28 1422.09 889.28 1422.09 889.28 1449.98 889.28 1449.98 885 1328.12 885"/><rect class="cls-2" x="924" y="952.11" width="10.6" height="44.83"/><rect class="cls-2" x="948.02" y="952.11" width="14.13" height="44.83"/><rect class="cls-2" x="969.92" y="952.11" width="16.96" height="70.74"/><path class="cls-2" d="M1158.41,952.11H1117.6V1119h-91.94v12h91.94v5.54h48.65V960.34a4.59,4.59,0,0,1-1.17.16C1161.63,960.5,1158.79,956.83,1158.41,952.11Z"/><polygon class="cls-2" points="1191.06 1188.33 1191.06 952.11 1181.68 952.11 1181.68 1191.77 1191.57 1191.77 1191.57 1188.33 1191.06 1188.33"/><polygon class="cls-2" points="1259.59 885 1257.98 885 1257.98 1188.33 1259.59 1188.33 1259.59 1000.93 1259.59 1000.93 1259.59 885"/><polygon class="cls-2" points="1244.56 885 1244.56 1188.33 1246.87 1188.33 1249.5 1188.33 1249.5 885 1244.56 885"/><polygon class="cls-2" points="1200.05 1169.64 1221.93 1188.33 1230.69 1188.33 1230.44 885 1200.05 885 1200.05 1169.64"/><rect class="cls-2" x="1191.06" y="952.11" width="0.51" height="236.22"/><path class="cls-2" d="M1283.42,996.39v-7h2.31v-9h-2.31v-7h2.31v-9h-2.31v-7h2.31v-9h-2.31v-7h2.31v-9h-2.31v-7h2.31v-9h-2.31v-7h2.31V889.28h42.39V885h-52.6a12.26,12.26,0,0,1,.12,1.73v15.95c0,5-2.84,9-6.35,9s-6.36-4-6.36-9V886.73a12.26,12.26,0,0,1,.12-1.73h-3.46v115.93h12V926.16h8.48v74.77h5.65v-4.54Z"/><polygon class="cls-2" points="1271.6 926.16 1271.6 1000.93 1271.6 1019.87 1280.08 1019.87 1280.08 1000.93 1280.08 926.16 1271.6 926.16"/><rect class="cls-2" x="1382.33" y="948.54" width="10.79" height="8.97"/><rect class="cls-2" x="1382.33" y="932.59" width="10.79" height="8.97"/><path class="cls-2" d="M1287,1109.34v-7.8a43.87,43.87,0,0,1-1.14-10,8,8,0,0,1,1.14-4.12v-37.19h0v-10h39.56v10h-21.9v32.06a26,26,0,0,1,12.48,6,52.14,52.14,0,0,1,11,12.85v-52.36a43.68,43.68,0,0,1-1.52-11.59,8.2,8.2,0,0,1,.22-1.88h-.31v-22.92H1294v-7h32.5v-9h-40.78v117.18h.08v-.11A8,8,0,0,1,1287,1109.34Zm39.56-88v7H1287v-7Z"/><polygon class="cls-2" points="1380.21 957.51 1326.51 957.51 1326.51 964.49 1285.73 964.49 1285.73 973.46 1326.51 973.46 1326.51 965.48 1348.41 965.48 1348.41 973.02 1373.85 973.02 1373.85 965.48 1380.21 965.48 1380.21 973.46 1393.12 973.46 1393.12 964.49 1380.21 964.49 1380.21 957.51"/><polygon class="cls-2" points="1328.12 889.28 1285.73 889.28 1285.73 909.66 1326.51 909.66 1326.51 900.69 1382.33 900.69 1382.33 909.66 1326.51 909.66 1326.51 916.64 1382.33 916.64 1382.33 925.61 1393.12 925.61 1393.12 889.28 1393.12 889.28 1328.12 889.28"/><rect class="cls-2" x="1380.21" y="1031.28" width="12.91" height="8.97"/><rect class="cls-2" x="1380.21" y="1012.34" width="12.91" height="11.96"/><path class="cls-2" d="M1380.21,1050.21h7.06v60.64a26.22,26.22,0,0,1,5.85.14v-65.76h-12.91Z"/><rect class="cls-2" x="1380.21" y="980.44" width="12.91" height="8.97"/><polygon class="cls-2" points="1380.21 1005.36 1393.12 1005.36 1393.12 1000.93 1393.12 996.39 1380.21 996.39 1380.21 1005.36"/><rect class="cls-2" x="1285.73" y="916.64" width="40.78" height="8.97"/><rect class="cls-2" x="1285.73" y="932.59" width="40.78" height="8.97"/><rect class="cls-2" x="1285.73" y="948.54" width="40.78" height="8.97"/><rect class="cls-2" x="1326.51" y="925.61" width="53.69" height="6.98"/><rect class="cls-2" x="1285.73" y="980.44" width="40.78" height="8.97"/><rect class="cls-2" x="1326.51" y="941.56" width="53.69" height="6.98"/><path class="cls-2" d="M1331.46,1071.15h10.59a45.25,45.25,0,0,1-13.93-22.42v52.36a33.44,33.44,0,0,1,3.34,8.1v-6.14h17.86v-9h-17.86v-7h17.86v-9h-17.86Z"/><path class="cls-2" d="M1348.42,973v55.62l.9.29v-19h24.53V973Z"/><path class="cls-2" d="M1374,1130h-.12V1009.9h-24.53v19a25.37,25.37,0,0,1,8.55,4.92c11.39,10.08,15.91,19.09,15.65,32.83a10.77,10.77,0,0,1-3.47,8.13v3.32h-8.46a22.84,22.84,0,0,1-3.51,0h-8.76v9h20.73v7h-20.73v9h20.73v7h-20.73v9h20.73v7h-20.73v69.78a30.88,30.88,0,0,1,11,6.15c11.17,9.84,16.44,18.51,17.56,30.28h1.83v-82.25A45.38,45.38,0,0,1,1374,1130Z"/><path class="cls-2" d="M1393.12,1000.93v4.43h25.24v7h-25.24v12h25.24v7h-25.24v9h25.24v5h-25.24v73.46a25.87,25.87,0,0,1,12.09,5.88c6,5.32,10.09,10.34,12.58,15.92h4.3V1000.93Z"/><polygon class="cls-2" points="1435.51 920.63 1435.51 898.25 1449.98 898.25 1449.98 889.28 1422.09 889.28 1393.12 889.28 1393.12 925.61 1418.36 925.61 1418.36 932.59 1393.12 932.59 1393.12 941.56 1418.36 941.56 1418.36 948.54 1393.12 948.54 1393.12 957.51 1418.36 957.51 1418.36 964.49 1393.12 964.49 1393.12 973.46 1418.36 973.46 1418.36 980.44 1393.12 980.44 1393.12 989.41 1418.36 989.41 1418.36 996.39 1393.12 996.39 1393.12 1000.93 1422.09 1000.93 1435.31 1000.93 1435.31 920.63 1435.51 920.63"/><polygon class="cls-2" points="1530.89 918.74 1449.98 918.74 1449.98 898.25 1435.51 898.25 1435.51 920.63 1439.55 920.63 1439.55 1293.96 1447.4 1304.96 1496.92 1304.96 1497.43 1304.48 1497.36 1304.38 1497.48 1304.38 1497.48 920.63 1515.15 920.63 1515.15 1304.41 1515.03 1304.41 1515.12 1304.96 1539.37 1304.96 1539.37 930.15 1530.89 930.15 1530.89 918.74"/><polygon class="cls-2" points="1623.44 932.59 1627.48 932.59 1627.48 940.56 1623.44 940.56 1623.44 946.55 1627.48 946.55 1627.48 954.52 1623.44 954.52 1623.44 961.5 1627.48 961.5 1627.48 969.47 1623.44 969.47 1623.44 976.45 1627.48 976.45 1627.48 984.42 1623.44 984.42 1623.44 991.4 1627.48 991.4 1627.48 999.38 1623.44 999.38 1623.44 1006.36 1627.48 1006.36 1627.48 1014.33 1623.44 1014.33 1623.44 1021.31 1627.48 1021.31 1627.48 1029.28 1623.44 1029.28 1623.44 1036.26 1627.48 1036.26 1627.48 1044.23 1623.44 1044.23 1623.44 1051.21 1627.48 1051.21 1627.48 1059.19 1623.44 1059.19 1623.44 1066.17 1627.48 1066.17 1627.48 1074.14 1623.44 1074.14 1623.44 1081.12 1627.48 1081.12 1627.48 1089.09 1623.44 1089.09 1623.44 1096.07 1627.48 1096.07 1627.48 1104.05 1623.44 1104.05 1623.44 1111.03 1627.48 1111.03 1627.48 1119 1623.44 1119 1623.44 1125.98 1627.48 1125.98 1627.48 1133.95 1623.44 1133.95 1623.44 1140.93 1627.48 1140.93 1627.48 1148.9 1623.44 1148.9 1623.44 1155.88 1627.48 1155.88 1627.48 1163.86 1623.44 1163.86 1623.44 1169.84 1630.31 1169.84 1630.31 1183.35 1632.62 1183.35 1632.62 920.27 1623.44 920.27 1623.44 932.59"/><polygon class="cls-2" points="1554.91 1169.84 1554.91 1163.86 1551.89 1163.86 1551.89 1155.88 1554.91 1155.88 1554.91 1148.9 1551.89 1148.9 1551.89 1140.93 1554.91 1140.93 1554.91 1133.95 1551.89 1133.95 1551.89 1125.98 1554.91 1125.98 1554.91 1119 1551.89 1119 1551.89 1111.03 1554.91 1111.03 1554.91 1104.05 1551.89 1104.05 1551.89 1096.07 1554.91 1096.07 1554.91 1089.09 1551.89 1089.09 1551.89 1081.12 1554.91 1081.12 1554.91 1074.14 1551.89 1074.14 1551.89 1066.17 1554.91 1066.17 1554.91 1059.19 1551.89 1059.19 1551.89 1051.21 1554.91 1051.21 1554.91 1044.23 1551.89 1044.23 1551.89 1036.26 1554.91 1036.26 1554.91 1029.28 1551.89 1029.28 1551.89 1021.31 1554.91 1021.31 1554.91 1014.33 1551.89 1014.33 1551.89 1006.36 1554.91 1006.36 1554.91 999.38 1551.89 999.38 1551.89 991.4 1554.91 991.4 1554.91 984.42 1551.89 984.42 1551.89 976.45 1554.91 976.45 1554.91 969.47 1551.89 969.47 1551.89 961.5 1554.91 961.5 1554.91 954.52 1551.89 954.52 1551.89 946.55 1554.91 946.55 1554.91 940.56 1551.89 940.56 1551.89 932.59 1554.91 932.59 1554.91 930.15 1547.14 930.15 1547.14 1183.35 1549.06 1183.35 1549.06 1169.84 1554.91 1169.84"/><polygon class="cls-2" points="1554.91 918.74 1530.89 918.74 1530.89 930.15 1539.37 930.15 1547.14 930.15 1554.91 930.15 1554.91 918.74"/><rect class="cls-2" x="1884.14" y="954.52" width="3.53" height="0.55"/><rect class="cls-2" x="1632.62" y="920.27" width="5.46" height="45.77"/><path class="cls-2" d="M1985.68,920.63v-.36H1833.1v1.35H1826v-1.35h-9.18v1.35h-15.55v-1.35h-9.16v1.35H1785v-1.35h-46.48a3.64,3.64,0,0,1-1.56.36h-17a3.71,3.71,0,0,1-1.56-.36H1711v13.54a3.66,3.66,0,0,1,1.22-.23h3.53c2.74,0,5,3.13,5,7s-2.21,7-5,7h-3.53a3.65,3.65,0,0,1-1.22-.22v12.74h18.79a4.83,4.83,0,0,1,4-2.55h0a4.82,4.82,0,0,1,4,2.55H1785v-6.54h7.09v6.54h9.16v-6.54h15.55v6.54H1826v-6.54h7.09v6.54h1.58v6h9.94a9.06,9.06,0,0,1-.24-2c0-3.58,2.06-6.48,4.59-6.48h4.08v-9.42h27.28v-.55h7.34v-4.43h40.08v-9.53h10.6v9.53h14.33V966h48V920.63Zm-193.56,26.91H1785v-7h7.09Zm0-13H1785v-7h7.09Zm24.71,13h-15.55v-7h15.55Zm0-13h-15.55v-7h15.55Zm16.27,13H1826v-7h7.09Zm0-13H1826v-7h7.09Zm33.89,1c0,4.4-2.53,8-5.65,8h0c-3.12,0-5.65-3.57-5.65-8v-6c0-4.41,2.53-8,5.65-8h0c3.12,0,5.65,3.57,5.65,8Zm51.34,6h-38v-7h38ZM1963.78,957c0,1.93-1.11,3.49-2.47,3.49s-2.48-1.56-2.48-3.49v-9c0-1.93,1.11-3.49,2.48-3.49s2.47,1.56,2.47,3.49Zm15.54,1.5c0,3.85-2.21,7-4.94,7s-5-3.12-5-7v-2c0-3.85,2.21-7,5-7s4.94,3.13,4.94,7Z"/><path class="cls-2" d="M1708.22,960.06H1711V947.32c-2.14-.77-3.72-3.5-3.72-6.76s1.58-6,3.72-6.75V920.27h-29.86V1266h-41.49v4H1711V995.94h-2.82Z"/><path class="cls-2" d="M1833.1,960.06v.44H1826v-.44h-9.18v.44h-15.55v-.44h-9.16v.44h-1.95v6h1.95v7h-1.95v6h1.95v7h-1.95v6h1.95v7h-5.48v6h5.48v7h-5.48v6h5.48v7h-5.48v6h5.48v7h-5.48v6h5.48v7h-5.48v6h5.48v7h-5.48v6h5.48v7h-5.48v6h5.48v7h-5.48v6h5.48v7h-5.48v6h5.48v7h-5.48v6h5.48v7h-5.48v6h5.48v7h-5.48v6h5.48v7h-5.48v6h5.48v7h-5.48v6h5.48v7h-5.48v6h5.48v7h-5.48v6h5.48v7h-5.48v6h5.48v.56h3.51v-.56h.9V989h29.68v3.44h6.89v7h-6.89v6h6.89v7h-6.89v6h6.89v7h-6.89v6h6.89v7h-6.89v6h6.89v7h-6.89v6h6.89v7h-6.89v6h6.89v7h-6.89v6h6.89v7h-6.89v6h6.89v7h-6.89v6h6.89v7h-6.89v6h6.89v7h-6.89v6h6.89v7h-6.89v6h6.89v7h-6.89v6h6.89v7h-6.89v6h6.89v7h-6.89v6h6.89v7h-6.89v6h6.89v7h-6.89v6h6.89v.56h1.58V960.06Zm-16.27,26.36h-15.55v-7h15.55Zm0-13h-15.55v-7h15.55Zm16.27,13H1826v-7h7.09Zm0-13H1826v-7h7.09Z"/><path class="cls-2" d="M1822.48,1213.26H1826v-.56h.2v-6h-.2v-7h.2v-6h-.2v-7h.2v-6h-.2v-7h.2v-6h-.2v-7h.2v-6h-.2v-7h.2v-6h-.2v-7h.2v-6h-.2v-7h.2v-6h-.2v-7h.2v-6h-.2v-7h.2v-6h-.2v-7h.2v-6h-.2v-7h.2v-6h-.2v-7h.2v-6h-.2v-7h.2v-6h-.2v-7h.2v-6h-.2v-7h.2v-6h-.2v-7h.2v-6h-.2v-7h.2V989h-29.68V1212.7h26Zm-5.65-6.54h-15.55v-7h15.55Zm0-13h-15.55v-7h15.55Zm0-13h-15.55v-7h15.55Zm0-13h-15.55v-7h15.55Zm0-13h-15.55v-7h15.55Zm0-13h-15.55v-7h15.55Zm0-13h-15.55v-7h15.55Zm0-13h-15.55v-7h15.55Zm0-13h-15.55v-7h15.55Zm0-13h-15.55v-7h15.55Zm0-13h-15.55v-7h15.55Zm0-13h-15.55v-7h15.55Zm0-13h-15.55v-7h15.55Zm0-13h-15.55v-7h15.55Zm0-13h-15.55v-7h15.55Zm0-12.95h-15.55v-7h15.55Zm0-13h-15.55v-7h15.55Z"/><path class="cls-2" d="M1790.17,992.4v-6H1785v-7h5.14v-6H1785v-7h5.14v-6H1785v-.44h-47.24a9.34,9.34,0,0,1,1.32,4.93v4c0,4.13-2.37,7.48-5.3,7.48h0c-2.93,0-5.3-3.35-5.3-7.48v-4a9.34,9.34,0,0,1,1.32-4.93h-21.61v35.88h35.33V978h31.08v17.94H1785V992.4Z"/><path class="cls-2" d="M1743.55,978v35.89h31.08V978Zm9.69,32.34v-29.9h14.13v29.9Z"/><polygon class="cls-2" points="1880.33 980.44 1880.33 973.46 1880.61 973.46 1880.61 967.48 1880.33 967.48 1880.33 960.5 1880.61 960.5 1880.61 955.07 1884.14 955.07 1884.14 954.52 1880.33 954.52 1880.33 948.09 1853.05 948.09 1853.05 957.51 1862.24 957.51 1862.24 955.07 1874.95 955.07 1874.95 983.98 1880.61 983.98 1880.61 980.44 1880.33 980.44"/><rect class="cls-2" x="1853.05" y="970.47" width="9.19" height="13.51"/><path class="cls-2" d="M1875,955.07h-12.72v2.44h.16c2.53,0,4.59,2.9,4.59,6.48s-2.06,6.48-4.59,6.48h-.16v30.46H1875V955.07Z"/><polygon class="cls-2" points="1884.14 983.98 1884.14 980.44 1880.61 980.44 1880.61 983.98 1880.61 986.42 1884.14 986.42 1884.14 983.98"/><rect class="cls-2" x="1880.61" y="1005.52" width="3.53" height="5.82"/><rect class="cls-2" x="1880.61" y="1056.69" width="3.53" height="5.82"/><rect class="cls-2" x="1880.61" y="1069.49" width="3.53" height="5.81"/><rect class="cls-2" x="1880.61" y="1043.9" width="3.53" height="5.81"/><rect class="cls-2" x="1880.61" y="1018.32" width="3.53" height="5.81"/><rect class="cls-2" x="1880.61" y="993.39" width="3.53" height="5.15"/><rect class="cls-2" x="1880.61" y="1031.11" width="3.53" height="5.81"/><polygon class="cls-2" points="1887.67 960.5 1887.67 955.07 1884.14 955.07 1880.61 955.07 1880.61 960.5 1887.67 960.5"/><polygon class="cls-2" points="1884.14 972.02 1887.67 972.02 1887.67 967.48 1880.61 967.48 1880.61 973.46 1884.14 973.46 1884.14 972.02"/><rect class="cls-2" x="1884.14" y="972.02" width="3.53" height="1.44"/><rect class="cls-2" x="1884.14" y="1018.32" width="3.53" height="5.81"/><rect class="cls-2" x="1884.14" y="993.39" width="3.53" height="5.15"/><polygon class="cls-2" points="1887.67 980.44 1884.14 980.44 1884.14 983.98 1884.14 986.42 1887.67 986.42 1887.67 983.98 1887.67 980.44"/><rect class="cls-2" x="1884.14" y="1005.52" width="3.53" height="5.82"/><rect class="cls-2" x="1884.14" y="1069.49" width="3.53" height="5.81"/><rect class="cls-2" x="1884.14" y="1056.69" width="3.53" height="5.82"/><rect class="cls-2" x="1884.14" y="1043.9" width="3.53" height="5.81"/><rect class="cls-2" x="1884.14" y="1031.11" width="3.53" height="5.81"/><polygon class="cls-2" points="1918.33 954.52 1887.67 954.52 1887.67 955.07 1887.67 960.5 1918.33 960.5 1918.33 967.48 1887.67 967.48 1887.67 972.02 1887.67 973.46 1918.33 973.46 1918.33 980.44 1887.67 980.44 1887.67 983.98 1887.67 986.42 1918.33 986.42 1918.33 993.39 1887.67 993.39 1887.67 998.55 1918.33 998.55 1918.33 1005.52 1887.67 1005.52 1887.67 1011.34 1918.33 1011.34 1918.33 1018.32 1887.67 1018.32 1887.67 1024.13 1918.33 1024.13 1918.33 1031.11 1887.67 1031.11 1887.67 1036.92 1918.33 1036.92 1918.33 1043.9 1887.67 1043.9 1887.67 1049.72 1918.33 1049.72 1918.33 1056.69 1887.67 1056.69 1887.67 1062.51 1918.33 1062.51 1918.33 1069.49 1887.67 1069.49 1887.67 1075.3 1918.33 1075.3 1918.33 1082.28 1887.67 1082.28 1887.67 1088.1 1918.33 1088.1 1918.33 1095.07 1887.67 1095.07 1887.67 1100.89 1918.33 1100.89 1918.33 1107.87 1887.67 1107.87 1887.67 1113.68 1918.33 1113.68 1918.33 1120.66 1887.67 1120.66 1887.67 1126.47 1918.33 1126.47 1918.33 1133.45 1887.67 1133.45 1887.67 1139.27 1918.33 1139.27 1918.33 1146.24 1887.67 1146.24 1887.67 1152.06 1918.33 1152.06 1918.33 1159.04 1887.67 1159.04 1887.67 1164.85 1918.33 1164.85 1918.33 1171.83 1887.67 1171.83 1887.67 1177.65 1918.33 1177.65 1918.33 1184.62 1887.67 1184.62 1887.67 1189.78 1918.33 1189.78 1918.33 1196.75 1887.67 1196.75 1887.67 1202.73 1918.33 1202.73 1918.33 1209.71 1887.67 1209.71 1887.67 1215.69 1918.33 1215.69 1918.33 1222.67 1887.67 1222.67 1887.67 1228.65 1918.33 1228.65 1918.33 1235.63 1887.67 1235.63 1887.67 1241.61 1918.33 1241.61 1918.33 1244.16 1927.75 1244.16 1927.74 943.11 1887.67 943.11 1887.67 947.54 1918.33 947.54 1918.33 954.52"/><rect class="cls-2" x="1554.91" y="999.38" width="68.53" height="6.98"/><rect class="cls-2" x="1554.91" y="969.47" width="68.53" height="6.98"/><rect class="cls-2" x="1554.91" y="940.56" width="68.53" height="5.98"/><rect class="cls-2" x="1554.91" y="984.42" width="68.53" height="6.98"/><rect class="cls-2" x="1554.91" y="1029.28" width="68.53" height="6.98"/><rect class="cls-2" x="1554.91" y="1074.14" width="68.53" height="6.98"/><rect class="cls-2" x="1554.91" y="1059.19" width="68.53" height="6.98"/><rect class="cls-2" x="1554.91" y="1044.24" width="68.53" height="6.98"/><rect class="cls-2" x="1554.91" y="954.52" width="68.53" height="6.98"/><rect class="cls-2" x="1554.91" y="1014.33" width="68.53" height="6.98"/><polygon class="cls-2" points="1554.91 930.15 1554.91 932.59 1623.44 932.59 1623.44 920.27 1558.29 920.27 1558.29 918.74 1554.91 918.74 1554.91 930.15"/><path class="cls-2" d="M1985.68,885h-14.13v7.71h-7.85v18.85h-54V892.71h-68.14V885h-90.43v11.7H1696V885h-14.83v35.27h37.29c-2-.93-3.38-3.54-3.38-6.62,0-3.85,2.21-7,4.94-7h17c2.73,0,5,3.13,5,7,0,3.08-1.42,5.69-3.39,6.62H1785v-5.63h7.09v5.63h9.16v-5.63h15.55v5.63H1826v-5.63h7.09v5.63h152.58Zm-156.49,18.68h-21.9c-3.32,0-6-3.79-6-8.47s2.69-8.48,6-8.48h21.9c3.32,0,6,3.8,6,8.48S1832.51,903.68,1829.19,903.68Z"/><polygon class="cls-2" points="1638.08 885 1598.52 885 1598.52 898.7 1582.07 898.7 1582.07 918.74 1558.29 918.74 1558.29 920.27 1623.44 920.27 1632.62 920.27 1632.62 920.27 1638.08 920.27 1638.08 885"/><rect class="cls-2" x="1909.69" y="892.71" width="54.01" height="18.85"/><path class="cls-2" d="M1569.55,885H1520.8v6.22c0,4.68-2.69,8.47-6,8.47s-6-3.79-6-8.47V885H1450v33.74h132.09v-20h-12.52Z"/><polygon class="cls-2" points="923.5 885 923.5 952.11 924 952.11 934.6 952.11 948.02 952.11 962.15 952.11 969.92 952.11 986.88 952.11 1024.35 952.11 1024.35 885 923.5 885"/><path class="cls-2" d="M1139.29,889.72V885H1117.6v67.11h40.81c0-.35-.05-.71-.05-1.08V921.12c0-5.23,3-9.46,6.72-9.46s6.71,4.23,6.71,9.46V951c0,.37,0,.73,0,1.08h5V889.72Z"/><polygon class="cls-2" points="1191.57 952.11 1191.57 885 1181.68 885 1181.68 952.11 1191.06 952.11 1191.57 952.11"/><polygon class="cls-3" points="1117.6 952.11 1117.6 885 1024.35 885 1024.35 952.11 1024.35 1119 1025.66 1119 1117.6 1119 1117.6 952.11"/><rect class="cls-3" x="1139.29" y="885" width="37.44" height="4.72"/><path class="cls-3" d="M1171.79,921.12c0-5.23-3-9.46-6.71-9.46s-6.72,4.23-6.72,9.46V951c0,.37,0,.73.05,1.08.38,4.72,3.22,8.39,6.67,8.39a4.59,4.59,0,0,0,1.17-.16c2.9-.72,5.15-4.06,5.49-8.23,0-.35,0-.71,0-1.08Z"/><polygon class="cls-3" points="1191.57 885 1191.57 952.11 1191.57 1188.33 1191.57 1191.77 1200.05 1191.77 1200.05 1169.64 1200.05 885 1191.57 885"/><polygon class="cls-3" points="1181.68 1191.77 1181.68 952.11 1181.68 885 1176.73 885 1176.73 889.72 1176.73 952.11 1176.73 1191.77 1181.68 1191.77"/><polygon class="cls-3" points="1244.56 1207.66 1244.56 1188.33 1244.56 885 1230.44 885 1230.69 1188.33 1230.7 1195.82 1230.75 1255.24 1230.75 1259.85 1244.56 1238.62 1244.56 1233.67 1244.56 1207.66"/><polygon class="cls-3" points="1249.5 885 1249.5 1188.33 1249.5 1198.75 1257.98 1198.75 1257.98 1188.33 1257.98 885 1249.5 885"/><path class="cls-3" d="M1262.93,886.73v15.95c0,5,2.84,9,6.36,9s6.35-4,6.35-9V886.73a12.26,12.26,0,0,0-.12-1.73h-12.47A12.26,12.26,0,0,0,1262.93,886.73Z"/><polygon class="cls-3" points="1304.61 1082.28 1304.61 1050.22 1286.95 1050.22 1286.95 1087.41 1286.95 1101.54 1286.95 1109.34 1286.95 1114.8 1286.95 1119 1304.61 1119 1304.61 1111.98 1304.61 1082.28"/><polygon class="cls-3" points="1387.27 1110.85 1387.27 1050.21 1380.21 1050.21 1380.21 1129.96 1387.27 1129.96 1387.27 1118.18 1387.27 1110.85"/><path class="cls-3" d="M1348.42,1035.26h-21.6a8.2,8.2,0,0,0-.22,1.88,43.68,43.68,0,0,0,1.52,11.59,45.25,45.25,0,0,0,13.93,22.42h28v3.66a10.77,10.77,0,0,0,3.47-8.13c.26-13.74-4.26-22.75-15.65-32.83a25.37,25.37,0,0,0-8.55-4.92l-.9-.29Z"/><path class="cls-3" d="M1361.59,1078.13h-3.51A22.84,22.84,0,0,0,1361.59,1078.13Z"/><polygon class="cls-3" points="1348.41 1035.26 1348.41 1028.64 1348.41 973.02 1348.41 965.48 1326.51 965.48 1326.51 973.46 1326.51 973.46 1326.51 980.44 1326.51 980.44 1326.51 989.41 1326.51 989.41 1326.51 996.39 1326.51 996.39 1326.51 1005.36 1326.51 1005.36 1326.51 1012.34 1326.51 1012.34 1326.51 1035.26 1326.82 1035.26 1348.41 1035.26"/><polygon class="cls-3" points="1380.21 1050.21 1380.21 1045.23 1380.21 1040.25 1380.21 1031.28 1380.21 1024.3 1380.21 1012.34 1380.21 1005.36 1380.21 996.39 1380.21 989.41 1380.21 980.44 1380.21 973.46 1380.21 965.48 1373.85 965.48 1373.85 973.02 1373.85 1009.9 1373.85 1050.21 1373.85 1129.96 1373.97 1129.96 1380.21 1129.96 1380.21 1050.21"/><polygon class="cls-3" points="1326.51 1050.22 1326.51 1040.25 1286.95 1040.25 1286.95 1050.22 1286.95 1050.22 1304.61 1050.22 1326.51 1050.22"/><rect class="cls-3" x="1286.95" y="1021.31" width="39.56" height="6.98"/><polygon class="cls-3" points="1326.51 1005.36 1326.51 1005.36 1294.01 1005.36 1294.01 1012.34 1326.51 1012.34 1326.51 1012.34 1326.51 1005.36"/><polygon class="cls-3" points="1326.51 989.41 1326.51 989.41 1285.73 989.41 1283.42 989.41 1283.42 996.39 1285.73 996.39 1326.51 996.39 1326.51 996.39 1326.51 989.41"/><polygon class="cls-3" points="1326.51 980.44 1326.51 973.46 1326.51 973.46 1285.73 973.46 1283.42 973.46 1283.42 980.44 1285.73 980.44 1326.51 980.44 1326.51 980.44"/><polygon class="cls-3" points="1326.51 957.51 1326.51 957.51 1285.73 957.51 1283.42 957.51 1283.42 964.49 1285.73 964.49 1326.51 964.49 1326.51 957.51"/><polygon class="cls-3" points="1326.51 948.54 1326.51 948.54 1326.51 941.56 1326.51 941.56 1285.73 941.56 1283.42 941.56 1283.42 948.54 1285.73 948.54 1326.51 948.54 1326.51 948.54"/><polygon class="cls-3" points="1326.51 932.59 1326.51 925.61 1326.51 925.61 1285.73 925.61 1283.42 925.61 1283.42 932.59 1285.73 932.59 1326.51 932.59 1326.51 932.59"/><polygon class="cls-3" points="1326.51 916.64 1326.51 909.66 1326.51 909.66 1285.73 909.66 1283.42 909.66 1283.42 916.64 1285.73 916.64 1326.51 916.64 1326.51 916.64"/><polygon class="cls-3" points="1326.51 948.54 1326.51 948.54 1326.51 948.54 1326.51 957.51 1326.51 957.51 1380.21 957.51 1382.33 957.51 1382.33 948.54 1380.21 948.54 1380.21 948.54 1326.51 948.54"/><polygon class="cls-3" points="1326.51 932.59 1326.51 932.59 1326.51 941.56 1326.51 941.56 1380.21 941.56 1382.33 941.56 1382.33 932.59 1380.21 932.59 1326.51 932.59"/><polygon class="cls-3" points="1326.51 925.61 1326.51 925.61 1380.21 925.61 1382.33 925.61 1382.33 916.64 1326.51 916.64 1326.51 916.64 1326.51 925.61"/><polygon class="cls-3" points="1382.33 909.66 1382.33 900.69 1326.51 900.69 1326.51 909.66 1326.51 909.66 1382.33 909.66"/><polygon class="cls-3" points="1380.21 1045.23 1393.12 1045.23 1418.36 1045.23 1418.36 1040.25 1393.12 1040.25 1380.21 1040.25 1380.21 1045.23"/><polygon class="cls-3" points="1380.21 1031.28 1393.12 1031.28 1418.36 1031.28 1418.36 1024.3 1393.12 1024.3 1380.21 1024.3 1380.21 1031.28"/><polygon class="cls-3" points="1380.21 1012.34 1393.12 1012.34 1418.36 1012.34 1418.36 1005.36 1393.12 1005.36 1380.21 1005.36 1380.21 1012.34"/><polygon class="cls-3" points="1380.21 996.39 1393.12 996.39 1418.36 996.39 1418.36 989.41 1393.12 989.41 1380.21 989.41 1380.21 996.39"/><polygon class="cls-3" points="1380.21 980.44 1393.12 980.44 1418.36 980.44 1418.36 973.46 1393.12 973.46 1380.21 973.46 1380.21 980.44"/><polygon class="cls-3" points="1380.21 957.51 1380.21 964.49 1393.12 964.49 1418.36 964.49 1418.36 957.51 1393.12 957.51 1382.33 957.51 1380.21 957.51"/><polygon class="cls-3" points="1380.21 941.56 1380.21 948.54 1380.21 948.54 1382.33 948.54 1393.12 948.54 1418.36 948.54 1418.36 941.56 1393.12 941.56 1382.33 941.56 1380.21 941.56"/><polygon class="cls-3" points="1380.21 925.61 1380.21 932.59 1382.33 932.59 1393.12 932.59 1418.36 932.59 1418.36 925.61 1393.12 925.61 1382.33 925.61 1380.21 925.61"/><polygon class="cls-3" points="1342.05 1071.15 1331.46 1071.15 1331.46 1078.13 1349.32 1078.13 1358.08 1078.13 1361.59 1078.13 1370.06 1078.13 1370.06 1074.81 1370.06 1071.15 1342.05 1071.15"/><polygon class="cls-3" points="1497.51 1304.41 1515 1304.41 1515.03 1304.41 1515.15 1304.41 1515.15 920.63 1497.48 920.63 1497.48 1304.38 1497.48 1304.41 1497.51 1304.41"/><polygon class="cls-3" points="1439.46 1293.83 1439.55 1293.96 1439.55 920.63 1435.51 920.63 1435.31 920.63 1435.31 1000.93 1435.31 1304.38 1439.46 1293.83"/><path class="cls-3" d="M1514.79,899.69c3.32,0,6-3.79,6-8.47V885h-12v6.22C1508.79,895.9,1511.48,899.69,1514.79,899.69Z"/><polygon class="cls-3" points="1569.55 885 1569.55 898.7 1582.07 898.7 1598.52 898.7 1598.52 885 1569.55 885"/><polygon class="cls-3" points="1551.89 1066.17 1551.89 1074.14 1554.91 1074.14 1623.44 1074.14 1627.48 1074.14 1627.48 1066.17 1623.44 1066.17 1554.91 1066.17 1551.89 1066.17"/><polygon class="cls-3" points="1551.89 1051.21 1551.89 1059.19 1554.91 1059.19 1623.44 1059.19 1627.48 1059.19 1627.48 1051.21 1623.44 1051.21 1554.91 1051.21 1551.89 1051.21"/><polygon class="cls-3" points="1551.89 1036.26 1551.89 1044.23 1554.91 1044.23 1623.44 1044.23 1627.48 1044.23 1627.48 1036.26 1623.44 1036.26 1554.91 1036.26 1551.89 1036.26"/><polygon class="cls-3" points="1551.89 1021.31 1551.89 1029.28 1554.91 1029.28 1623.44 1029.28 1627.48 1029.28 1627.48 1021.31 1623.44 1021.31 1554.91 1021.31 1551.89 1021.31"/><polygon class="cls-3" points="1551.89 1006.36 1551.89 1014.33 1554.91 1014.33 1623.44 1014.33 1627.48 1014.33 1627.48 1006.36 1623.44 1006.36 1554.91 1006.36 1551.89 1006.36"/><polygon class="cls-3" points="1551.89 991.4 1551.89 999.38 1554.91 999.38 1623.44 999.38 1627.48 999.38 1627.48 991.4 1623.44 991.4 1554.91 991.4 1551.89 991.4"/><polygon class="cls-3" points="1551.89 976.45 1551.89 984.42 1554.91 984.42 1623.44 984.42 1627.48 984.42 1627.48 976.45 1623.44 976.45 1554.91 976.45 1551.89 976.45"/><polygon class="cls-3" points="1551.89 961.5 1551.89 969.47 1554.91 969.47 1623.44 969.47 1627.48 969.47 1627.48 961.5 1623.44 961.5 1554.91 961.5 1551.89 961.5"/><polygon class="cls-3" points="1551.89 946.55 1551.89 954.52 1554.91 954.52 1623.44 954.52 1627.48 954.52 1627.48 946.55 1623.44 946.55 1554.91 946.55 1551.89 946.55"/><polygon class="cls-3" points="1551.89 932.59 1551.89 940.56 1554.91 940.56 1623.44 940.56 1627.48 940.56 1627.48 932.59 1623.44 932.59 1554.91 932.59 1551.89 932.59"/><polygon class="cls-3" points="1681.18 920.27 1681.18 885 1638.08 885 1638.08 920.27 1638.08 966.04 1638.08 1266 1639.69 1266 1681.18 1266 1681.18 920.27"/><rect class="cls-3" x="1696.01" y="885" width="55.11" height="11.7"/><path class="cls-3" d="M1741.94,913.65c0-3.85-2.22-7-5-7h-17c-2.73,0-4.94,3.13-4.94,7,0,3.08,1.42,5.69,3.38,6.62a3.71,3.71,0,0,0,1.56.36h17a3.64,3.64,0,0,0,1.56-.36C1740.52,919.34,1741.94,916.73,1741.94,913.65Z"/><path class="cls-3" d="M1707.32,940.56c0,3.26,1.58,6,3.72,6.76a3.65,3.65,0,0,0,1.22.22h3.53c2.74,0,5-3.12,5-7s-2.21-7-5-7h-3.53a3.66,3.66,0,0,0-1.22.23C1708.9,934.57,1707.32,937.3,1707.32,940.56Z"/><path class="cls-3" d="M1728.51,969c0,4.13,2.37,7.48,5.3,7.48h0c2.93,0,5.3-3.35,5.3-7.48v-4a9.34,9.34,0,0,0-1.32-4.93,4.82,4.82,0,0,0-4-2.55h0a4.83,4.83,0,0,0-4,2.55,9.34,9.34,0,0,0-1.32,4.93Z"/><rect class="cls-3" x="1753.24" y="980.44" width="14.13" height="29.91"/><rect class="cls-3" x="1801.28" y="1070.15" width="15.54" height="6.98"/><polygon class="cls-3" points="1826.01 1077.13 1826.2 1077.13 1833.1 1077.13 1833.1 1070.15 1826.2 1070.15 1826.01 1070.15 1826.01 1077.13"/><polygon class="cls-3" points="1792.13 1070.15 1786.64 1070.15 1785.03 1070.15 1785.03 1077.13 1786.64 1077.13 1792.13 1077.13 1792.13 1070.15"/><rect class="cls-3" x="1801.28" y="1057.19" width="15.54" height="6.98"/><polygon class="cls-3" points="1826.01 1064.17 1826.2 1064.17 1833.1 1064.17 1833.1 1057.19 1826.2 1057.19 1826.01 1057.19 1826.01 1064.17"/><polygon class="cls-3" points="1792.13 1057.19 1786.64 1057.19 1785.03 1057.19 1785.03 1064.17 1786.64 1064.17 1792.13 1064.17 1792.13 1057.19"/><rect class="cls-3" x="1801.28" y="1044.24" width="15.54" height="6.98"/><rect class="cls-3" x="1801.28" y="1031.28" width="15.54" height="6.98"/><polygon class="cls-3" points="1826.01 1051.21 1826.2 1051.21 1833.1 1051.21 1833.1 1044.23 1826.2 1044.23 1826.01 1044.23 1826.01 1051.21"/><polygon class="cls-3" points="1826.01 1038.25 1826.2 1038.25 1833.1 1038.25 1833.1 1031.28 1826.2 1031.28 1826.01 1031.28 1826.01 1038.25"/><polygon class="cls-3" points="1792.13 1044.23 1786.64 1044.23 1785.03 1044.23 1785.03 1051.21 1786.64 1051.21 1792.13 1051.21 1792.13 1044.23"/><polygon class="cls-3" points="1792.13 1031.28 1786.64 1031.28 1785.03 1031.28 1785.03 1038.25 1786.64 1038.25 1792.13 1038.25 1792.13 1031.28"/><rect class="cls-3" x="1801.28" y="1018.32" width="15.54" height="6.98"/><polygon class="cls-3" points="1826.01 1025.29 1826.2 1025.29 1833.1 1025.29 1833.1 1018.32 1826.2 1018.32 1826.01 1018.32 1826.01 1025.29"/><polygon class="cls-3" points="1792.13 1018.32 1786.64 1018.32 1785.03 1018.32 1785.03 1025.29 1786.64 1025.29 1792.13 1025.29 1792.13 1018.32"/><rect class="cls-3" x="1801.28" y="1005.36" width="15.54" height="6.98"/><rect class="cls-3" x="1801.28" y="992.4" width="15.54" height="6.98"/><polygon class="cls-3" points="1826.01 1012.34 1826.2 1012.34 1833.1 1012.34 1833.1 1005.36 1826.2 1005.36 1826.01 1005.36 1826.01 1012.34"/><polygon class="cls-3" points="1826.01 999.38 1826.2 999.38 1833.1 999.38 1833.1 992.4 1826.2 992.4 1826.01 992.4 1826.01 999.38"/><polygon class="cls-3" points="1792.13 1005.36 1786.64 1005.36 1785.03 1005.36 1785.03 1012.34 1786.64 1012.34 1792.13 1012.34 1792.13 1005.36"/><polygon class="cls-3" points="1792.13 992.4 1790.17 992.4 1785.03 992.4 1785.03 995.94 1785.03 999.38 1786.64 999.38 1792.13 999.38 1792.13 992.4"/><rect class="cls-3" x="1801.28" y="979.44" width="15.54" height="6.98"/><rect class="cls-3" x="1826.01" y="979.44" width="7.09" height="6.98"/><polygon class="cls-3" points="1785.03 979.44 1785.03 986.42 1790.17 986.42 1792.13 986.42 1792.13 979.44 1790.17 979.44 1785.03 979.44"/><rect class="cls-3" x="1801.28" y="966.48" width="15.54" height="6.98"/><polygon class="cls-3" points="1816.83 960.5 1816.83 960.06 1816.83 953.52 1801.28 953.52 1801.28 960.06 1801.28 960.5 1816.83 960.5"/><rect class="cls-3" x="1826.01" y="966.48" width="7.09" height="6.98"/><polygon class="cls-3" points="1833.1 960.5 1833.1 960.06 1833.1 953.52 1826.01 953.52 1826.01 960.06 1826.01 960.5 1833.1 960.5"/><polygon class="cls-3" points="1785.03 966.48 1785.03 973.46 1790.17 973.46 1792.13 973.46 1792.13 966.48 1790.17 966.48 1785.03 966.48"/><polygon class="cls-3" points="1790.17 960.5 1792.13 960.5 1792.13 960.06 1792.13 953.52 1785.03 953.52 1785.03 960.06 1785.03 960.5 1790.17 960.5"/><rect class="cls-3" x="1801.28" y="940.56" width="15.54" height="6.98"/><rect class="cls-3" x="1826.01" y="940.56" width="7.09" height="6.98"/><rect class="cls-3" x="1785.03" y="940.56" width="7.09" height="6.98"/><rect class="cls-3" x="1801.28" y="927.6" width="15.54" height="6.98"/><polygon class="cls-3" points="1801.28 914.64 1801.28 920.27 1801.28 921.62 1816.83 921.62 1816.83 920.27 1816.83 914.64 1801.28 914.64"/><rect class="cls-3" x="1826.01" y="927.6" width="7.09" height="6.98"/><polygon class="cls-3" points="1826.01 914.64 1826.01 920.27 1826.01 921.62 1833.1 921.62 1833.1 920.27 1833.1 914.64 1826.01 914.64"/><rect class="cls-3" x="1785.03" y="927.6" width="7.09" height="6.98"/><polygon class="cls-3" points="1785.03 914.64 1785.03 920.27 1785.03 921.62 1792.13 921.62 1792.13 920.27 1792.13 914.64 1785.03 914.64"/><path class="cls-3" d="M1835.19,895.21c0-4.68-2.68-8.48-6-8.48h-21.9c-3.32,0-6,3.8-6,8.48s2.69,8.47,6,8.47h21.9C1832.51,903.68,1835.19,899.89,1835.19,895.21Z"/><path class="cls-3" d="M1862.4,970.47c2.53,0,4.59-2.9,4.59-6.48s-2.06-6.48-4.59-6.48H1849c-2.53,0-4.59,2.9-4.59,6.48a9.06,9.06,0,0,0,.24,2c.61,2.57,2.32,4.43,4.35,4.43h13.43Z"/><path class="cls-3" d="M1861.34,921.62h0c-3.12,0-5.65,3.57-5.65,8v6c0,4.4,2.53,8,5.65,8h0c3.12,0,5.65-3.57,5.65-8v-6C1867,925.19,1864.46,921.62,1861.34,921.62Z"/><polygon class="cls-3" points="1909.69 892.71 1963.7 892.71 1971.55 892.71 1971.55 885 1951.06 885 1951.06 886.73 1936.93 886.73 1936.93 885 1924.21 885 1924.21 886.73 1876.88 886.73 1876.88 885 1855.68 885 1855.68 886.73 1844.38 886.73 1844.38 885 1841.55 885 1841.55 892.71 1909.69 892.71"/><rect class="cls-3" x="1844.38" y="885" width="11.3" height="1.73"/><rect class="cls-3" x="1876.88" y="885" width="47.33" height="1.73"/><polygon class="cls-3" points="1887.67 1082.28 1918.33 1082.28 1918.33 1075.3 1887.67 1075.3 1884.14 1075.3 1880.61 1075.3 1880.33 1075.3 1880.33 1082.28 1880.61 1082.28 1884.14 1082.28 1887.67 1082.28"/><polygon class="cls-3" points="1887.67 1069.49 1918.33 1069.49 1918.33 1062.51 1887.67 1062.51 1884.14 1062.51 1880.61 1062.51 1880.33 1062.51 1880.33 1069.49 1880.61 1069.49 1884.14 1069.49 1887.67 1069.49"/><polygon class="cls-3" points="1887.67 1056.69 1918.33 1056.69 1918.33 1049.72 1887.67 1049.72 1884.14 1049.72 1880.61 1049.72 1880.33 1049.72 1880.33 1056.69 1880.61 1056.69 1884.14 1056.69 1887.67 1056.69"/><polygon class="cls-3" points="1887.67 1043.9 1918.33 1043.9 1918.33 1036.92 1887.67 1036.92 1884.14 1036.92 1880.61 1036.92 1880.33 1036.92 1880.33 1043.9 1880.61 1043.9 1884.14 1043.9 1887.67 1043.9"/><polygon class="cls-3" points="1887.67 1031.11 1918.33 1031.11 1918.33 1024.13 1887.67 1024.13 1884.14 1024.13 1880.61 1024.13 1880.33 1024.13 1880.33 1031.11 1880.61 1031.11 1884.14 1031.11 1887.67 1031.11"/><polygon class="cls-3" points="1887.67 1018.32 1918.33 1018.32 1918.33 1011.34 1887.67 1011.34 1884.14 1011.34 1880.61 1011.34 1880.33 1011.34 1880.33 1018.32 1880.61 1018.32 1884.14 1018.32 1887.67 1018.32"/><polygon class="cls-3" points="1887.67 1005.52 1918.33 1005.52 1918.33 998.55 1887.67 998.55 1884.14 998.55 1880.61 998.55 1880.33 998.55 1880.33 1005.52 1880.61 1005.52 1884.14 1005.52 1887.67 1005.52"/><polygon class="cls-3" points="1887.67 993.39 1918.33 993.39 1918.33 986.42 1887.67 986.42 1884.14 986.42 1880.61 986.42 1880.33 986.42 1880.33 993.39 1880.61 993.39 1884.14 993.39 1887.67 993.39"/><polygon class="cls-3" points="1918.33 980.44 1918.33 973.46 1887.67 973.46 1884.14 973.46 1880.61 973.46 1880.33 973.46 1880.33 980.44 1880.61 980.44 1884.14 980.44 1887.67 980.44 1918.33 980.44"/><polygon class="cls-3" points="1887.67 967.48 1918.33 967.48 1918.33 960.5 1887.67 960.5 1880.61 960.5 1880.33 960.5 1880.33 967.48 1880.61 967.48 1887.67 967.48"/><polygon class="cls-3" points="1884.14 954.52 1887.67 954.52 1918.33 954.52 1918.33 947.54 1887.67 947.54 1880.33 947.54 1880.33 948.09 1880.33 954.52 1884.14 954.52"/><polygon class="cls-3" points="1927.75 1244.16 1927.75 1245.6 1926.03 1247.96 1919.55 1256.91 1912.17 1267.08 1896.59 1288.57 1915.93 1268.66 1917.47 1267.08 1919.55 1264.94 1936.03 1247.98 1938.34 1245.6 1938.34 943.11 1938.34 933.58 1927.74 933.58 1927.74 943.11 1927.75 1244.16"/><rect class="cls-3" x="1880.33" y="934.58" width="38" height="6.98"/><path class="cls-6" d="M1138.83,14.52a1.5,1.5,0,0,0,0-3,1.5,1.5,0,0,0,0,3Z"/></g><g id="boat1-bottom"><g id="boat_v2" data-name="boat v2"><polygon class="cls-7" points="502.71 1083.1 291.59 1083.1 285.14 1069.2 502.71 1069.2 502.71 1083.1"/><path class="cls-2" d="M269.5,1069.22s19.17-45.88,75.28-45.75,165.44.6,165.44,0,8.28,45.75,8.28,45.75Z"/></g></g><g id="boat2-bottom"><g id="boat_v2-2" data-name="boat v2"><polygon class="cls-7" points="1519.12 1004.32 1687.85 1004.32 1693 993.22 1519.12 993.22 1519.12 1004.32"/><polygon class="cls-7" points="1659.55 1026.01 1668.61 1026.01 1673.76 1014.91 1659.55 1014.91 1659.55 1026.01"/><polygon class="cls-7" points="1535.42 1026.01 1668.24 1026.01 1672.29 1014.91 1535.42 1014.91 1535.42 1026.01"/><path class="cls-2" d="M1705.5,993.23s-15.32-36.66-60.17-36.57-132.21.49-132.21,0-6.62,36.57-6.62,36.57Z"/><polygon class="cls-2" points="1669.23 1015.12 1678.29 1015.12 1683.44 1004.01 1669.23 1004.01 1669.23 1015.12"/><polygon class="cls-2" points="1527.7 1015.12 1677.52 1015.12 1682.1 1004.01 1527.7 1004.01 1527.7 1015.12"/><polygon class="cls-2" points="1649.26 1037.05 1658.32 1037.05 1663.47 1025.94 1649.26 1025.94 1649.26 1037.05"/><polygon class="cls-2" points="1546.33 1037.05 1658.33 1037.05 1661.75 1025.94 1546.33 1025.94 1546.33 1037.05"/></g></g><g id="steamboat-bottom"><rect class="cls-8" x="765.21" y="1057.22" width="290.55" height="36.02"/><rect class="cls-8" x="742.5" y="1021.19" width="313.26" height="36.02"/><rect class="cls-8" x="723.71" y="985.17" width="332.05" height="36.02"/><rect class="cls-3" x="740.15" y="996.13" width="14.88" height="17.62" rx="7.44"/><rect class="cls-3" x="766.39" y="996.13" width="14.88" height="17.62" rx="7.44"/><rect class="cls-3" x="792.62" y="996.13" width="14.88" height="17.62" rx="7.44"/><rect class="cls-3" x="818.86" y="996.13" width="14.88" height="17.62" rx="7.44"/><rect class="cls-3" x="845.09" y="996.13" width="14.88" height="17.62" rx="7.44"/><rect class="cls-3" x="871.33" y="996.13" width="14.88" height="17.62" rx="7.44"/><rect class="cls-3" x="897.56" y="996.13" width="14.88" height="17.62" rx="7.44"/><rect class="cls-3" x="923.8" y="996.13" width="14.88" height="17.62" rx="7.44"/><rect class="cls-3" x="950.03" y="996.13" width="14.88" height="17.62" rx="7.44"/><rect class="cls-3" x="976.27" y="996.13" width="14.88" height="17.62" rx="7.44"/><rect class="cls-3" x="1002.5" y="996.13" width="14.88" height="17.62" rx="7.44"/><rect class="cls-3" x="1028.74" y="996.13" width="14.88" height="17.62" rx="7.44"/><rect class="cls-3" x="758.56" y="1031.76" width="14.88" height="17.62" rx="7.44"/><rect class="cls-3" x="784.79" y="1031.76" width="14.88" height="17.62" rx="7.44"/><rect class="cls-3" x="811.03" y="1031.76" width="14.88" height="17.62" rx="7.44"/><rect class="cls-3" x="837.26" y="1031.76" width="14.88" height="17.62" rx="7.44"/><rect class="cls-3" x="863.5" y="1031.76" width="14.88" height="17.62" rx="7.44"/><rect class="cls-3" x="889.73" y="1031.76" width="14.88" height="17.62" rx="7.44"/><rect class="cls-3" x="915.97" y="1031.76" width="14.88" height="17.62" rx="7.44"/><rect class="cls-3" x="942.2" y="1031.76" width="14.88" height="17.62" rx="7.44"/><rect class="cls-3" x="968.44" y="1031.76" width="14.88" height="17.62" rx="7.44"/><rect class="cls-3" x="994.67" y="1031.76" width="14.88" height="17.62" rx="7.44"/><rect class="cls-3" x="1020.91" y="1031.76" width="14.88" height="17.62" rx="7.44"/><rect class="cls-3" x="775.78" y="1067" width="14.88" height="17.62" rx="7.44"/><rect class="cls-3" x="802.02" y="1067" width="14.88" height="17.62" rx="7.44"/><rect class="cls-3" x="828.26" y="1067" width="14.88" height="17.62" rx="7.44"/><rect class="cls-3" x="854.49" y="1067" width="14.88" height="17.62" rx="7.44"/><rect class="cls-3" x="880.73" y="1067" width="14.88" height="17.62" rx="7.44"/><rect class="cls-3" x="906.96" y="1067" width="14.88" height="17.62" rx="7.44"/><rect class="cls-3" x="933.2" y="1067" width="14.88" height="17.62" rx="7.44"/><rect class="cls-3" x="959.43" y="1067" width="14.88" height="17.62" rx="7.44"/><rect class="cls-3" x="985.67" y="1067" width="14.88" height="17.62" rx="7.44"/><rect class="cls-3" x="1011.9" y="1067" width="14.88" height="17.62" rx="7.44"/><rect class="cls-3" x="1038.14" y="1067" width="14.88" height="17.62" rx="7.44"/><rect class="cls-2" x="713.53" y="1018.06" width="347.72" height="6.27"/><rect class="cls-2" x="732.71" y="1054.08" width="328.53" height="6.27"/><path class="cls-2" d="M1028.72,971.07c45.8,14.32,62.28,32.11,62.28,32.11h-74.63L983,991l-224.32-1.18-113.25,13.32s27.43-17.79,86.32-32.11Z"/></g><g id="water"><rect class="cls-9" x="-32.5" y="911" width="2692" height="281"/></g><g id="boat1t-op"><g id="boat_v2-3" data-name="boat v2"><polygon class="cls-7" points="502.71 963.41 291.59 963.41 285.14 977.3 502.71 977.3 502.71 963.41"/><polygon class="cls-7" points="327 936.27 315.66 936.27 309.21 950.17 327 950.17 327 936.27"/><polygon class="cls-7" points="482.31 936.27 316.13 936.27 311.05 950.17 482.31 950.17 482.31 936.27"/><path d="M269.5,977.29s19.17,45.87,75.28,45.75,165.44-.61,165.44,0,8.28-45.75,8.28-45.75Z"/><polygon points="314.88 949.9 303.55 949.9 297.1 963.8 314.88 963.8 314.88 949.9"/><polygon points="491.98 949.9 304.51 949.9 298.79 963.8 491.98 963.8 491.98 949.9"/><polygon points="339.88 922.46 328.54 922.46 322.09 936.36 339.88 936.36 339.88 922.46"/><polygon points="468.67 922.46 328.52 922.46 324.24 936.36 468.67 936.36 468.67 922.46"/></g></g><g id="boat2-top"><g id="boat_v2-4" data-name="boat v2"><polygon class="cls-7" points="1519.12 908.66 1687.85 908.66 1693 919.77 1519.12 919.77 1519.12 908.66"/><polygon class="cls-7" points="1659.55 886.98 1668.61 886.98 1673.76 898.08 1659.55 898.08 1659.55 886.98"/><polygon class="cls-7" points="1535.42 886.98 1668.24 886.98 1672.29 898.08 1535.42 898.08 1535.42 886.98"/><path d="M1705.5,919.76s-15.32,36.66-60.17,36.57-132.21-.49-132.21,0-6.62-36.57-6.62-36.57Z"/><polygon points="1669.23 897.87 1678.29 897.87 1683.44 908.98 1669.23 908.98 1669.23 897.87"/><polygon points="1527.7 897.87 1677.52 897.87 1682.1 908.98 1527.7 908.98 1527.7 897.87"/><polygon points="1649.26 875.94 1658.32 875.94 1663.47 887.05 1649.26 887.05 1649.26 875.94"/><polygon points="1546.33 875.94 1658.33 875.94 1661.75 887.05 1546.33 887.05 1546.33 875.94"/></g></g><g id="steamboat-top"><rect class="cls-8" x="860.36" y="789.38" width="51.69" height="23.49"/><rect class="cls-8" x="841.96" y="812.87" width="122.95" height="36.02"/><rect class="cls-8" x="764.82" y="848.9" width="290.55" height="36.02"/><rect class="cls-8" x="742.11" y="884.92" width="313.26" height="36.02"/><rect class="cls-8" x="723.31" y="920.95" width="332.05" height="36.02"/><rect class="cls-8" x="798.5" y="754.14" width="19.97" height="94.76"/><rect class="cls-3" x="739.76" y="928.39" width="14.88" height="17.62" rx="7.44"/><rect class="cls-3" x="766" y="928.39" width="14.88" height="17.62" rx="7.44"/><rect class="cls-3" x="792.23" y="928.39" width="14.88" height="17.62" rx="7.44"/><rect class="cls-3" x="818.47" y="928.39" width="14.88" height="17.62" rx="7.44"/><rect class="cls-3" x="844.7" y="928.39" width="14.88" height="17.62" rx="7.44"/><rect class="cls-3" x="870.94" y="928.39" width="14.88" height="17.62" rx="7.44"/><rect class="cls-3" x="897.17" y="928.39" width="14.88" height="17.62" rx="7.44"/><rect class="cls-3" x="923.41" y="928.39" width="14.88" height="17.62" rx="7.44"/><rect class="cls-3" x="949.64" y="928.39" width="14.88" height="17.62" rx="7.44"/><rect class="cls-3" x="975.88" y="928.39" width="14.88" height="17.62" rx="7.44"/><rect class="cls-3" x="1002.11" y="928.39" width="14.88" height="17.62" rx="7.44"/><rect class="cls-3" x="1028.35" y="928.39" width="14.88" height="17.62" rx="7.44"/><rect class="cls-3" x="758.16" y="892.76" width="14.88" height="17.62" rx="7.44"/><rect class="cls-3" x="784.4" y="892.76" width="14.88" height="17.62" rx="7.44"/><rect class="cls-3" x="810.63" y="892.76" width="14.88" height="17.62" rx="7.44"/><rect class="cls-3" x="836.87" y="892.76" width="14.88" height="17.62" rx="7.44"/><rect class="cls-3" x="863.11" y="892.76" width="14.88" height="17.62" rx="7.44"/><rect class="cls-3" x="889.34" y="892.76" width="14.88" height="17.62" rx="7.44"/><rect class="cls-3" x="915.58" y="892.76" width="14.88" height="17.62" rx="7.44"/><rect class="cls-3" x="941.81" y="892.76" width="14.88" height="17.62" rx="7.44"/><rect class="cls-3" x="968.05" y="892.76" width="14.88" height="17.62" rx="7.44"/><rect class="cls-3" x="994.28" y="892.76" width="14.88" height="17.62" rx="7.44"/><rect class="cls-3" x="1020.52" y="892.76" width="14.88" height="17.62" rx="7.44"/><rect class="cls-3" x="775.39" y="857.51" width="14.88" height="17.62" rx="7.44"/><rect class="cls-3" x="801.63" y="857.51" width="14.88" height="17.62" rx="7.44"/><rect class="cls-3" x="827.86" y="857.51" width="14.88" height="17.62" rx="7.44"/><rect class="cls-3" x="854.1" y="857.51" width="14.88" height="17.62" rx="7.44"/><rect class="cls-3" x="880.33" y="857.51" width="14.88" height="17.62" rx="7.44"/><rect class="cls-3" x="906.57" y="857.51" width="14.88" height="17.62" rx="7.44"/><rect class="cls-3" x="932.81" y="857.51" width="14.88" height="17.62" rx="7.44"/><rect class="cls-3" x="959.04" y="857.51" width="14.88" height="17.62" rx="7.44"/><rect class="cls-3" x="985.28" y="857.51" width="14.88" height="17.62" rx="7.44"/><rect class="cls-3" x="1011.51" y="857.51" width="14.88" height="17.62" rx="7.44"/><rect class="cls-3" x="1037.75" y="857.51" width="14.88" height="17.62" rx="7.44"/><rect class="cls-3" x="855.27" y="822.27" width="14.88" height="17.62" rx="7.44"/><rect class="cls-3" x="881.51" y="822.27" width="14.88" height="17.62" rx="7.44"/><rect class="cls-3" x="907.74" y="822.27" width="14.88" height="17.62" rx="7.44"/><rect class="cls-3" x="933.98" y="822.27" width="14.88" height="17.62" rx="7.44"/><rect class="cls-3" x="867.02" y="795.65" width="14.88" height="12.53" rx="6.27"/><rect class="cls-3" x="893.26" y="795.65" width="14.88" height="12.53" rx="6.27"/><rect x="713.13" y="917.82" width="347.72" height="6.27"/><rect x="732.32" y="881.79" width="328.53" height="6.27"/><rect x="755.42" y="847.33" width="305.43" height="6.27"/><rect x="832.95" y="809.74" width="138.62" height="6.27"/><rect x="852.92" y="786.25" width="66.18" height="6.27"/><path d="M1028.33,971.07c45.8-14.32,62.28-32.11,62.28-32.11H1016L982.57,951.1l-224.32,1.17L645,939s27.43,17.78,86.32,32.11Z"/><circle class="cls-10" cx="824" cy="735" r="13"/><circle class="cls-11" cx="848" cy="718" r="14"/><circle class="cls-10" cx="877" cy="699" r="15"/><circle class="cls-12" cx="911" cy="679" r="19"/></g></svg>