<svg id="Layer_1" data-name="Layer 1" xmlns="http://www.w3.org/2000/svg" xmlns:xlink="http://www.w3.org/1999/xlink" viewBox="0 0 1920 1080"><defs><style>.cls-1{fill:#eff8ff;}.cls-2{fill:#224b80;}.cls-3{fill:url(#linear-gradient);}.cls-4{fill:#4496ff;}.cls-5{fill:#8fc0ff;}.cls-6{fill:#fc6464;}.cls-7{fill:#fda2a2;}</style><linearGradient id="linear-gradient" x1="-49.85" y1="825.26" x2="2085.86" y2="825.26" gradientUnits="userSpaceOnUse"><stop offset="0" stop-color="#224b80"/><stop offset="0.08" stop-color="#365383"/><stop offset="0.41" stop-color="#8a7490"/><stop offset="0.69" stop-color="#c88d9a"/><stop offset="0.89" stop-color="#ee9ca0"/><stop offset="1" stop-color="#fda2a2"/></linearGradient></defs><title>transportation v3 new colors</title><rect id="sky" class="cls-1" x="-106" y="-45" width="2109" height="1284"/><path id="Path_5" data-name="Path 5" class="cls-2" d="M1831.41,613.52l29.65-23.91,16.06,625.76L1843.71,1203Z"/><path id="Path_6" data-name="Path 6" class="cls-2" d="M1823.07,613.35l-29.64-19.71L1774,1215.37l29.64-11.27Z"/><path id="Path_5-2" data-name="Path 5" class="cls-2" d="M1611.41,613.52l29.65-23.91,16.07,625.76L1623.71,1203Z"/><path id="Path_6-2" data-name="Path 6" class="cls-2" d="M1603.07,613.35l-29.64-19.71L1554,1215.37l29.63-11.27Z"/><path id="Path_5-3" data-name="Path 5" class="cls-2" d="M1418.65,638.66l29.65-23.91,16.07,625.76L1431,1228.09Z"/><path id="Path_6-3" data-name="Path 6" class="cls-2" d="M1410.31,638.49l-29.63-19.71-19.45,621.74,29.63-11.28Z"/><path id="Path_5-4" data-name="Path 5" class="cls-2" d="M1036.28,869.91l29.65-14.59,16.07,382-33.42-7.58Z"/><path id="Path_6-4" data-name="Path 6" class="cls-2" d="M1027.94,869.81l-29.64-12-19.45,379.59,29.64-6.88Z"/><path id="Path_5-5" data-name="Path 5" class="cls-2" d="M757.36,928.56l34.15-12.82L810,1251l-38.48-6.65Z"/><path id="Path_6-5" data-name="Path 6" class="cls-2" d="M747.76,928.46,713.62,917.9,691.22,1251l34.13-6Z"/><path id="Path_5-6" data-name="Path 5" class="cls-2" d="M180.55,1034.76l33.93-8.1,18.39,211.94-38.24-4.21Z"/><path id="Path_6-6" data-name="Path 6" class="cls-2" d="M162.15,964.43l-35.61-9L103.18,1238.6l35.6-5.13Z"/><path id="Path_5-7" data-name="Path 5" class="cls-2" d="M470.91,1011.25l33.15-9.18,18,240.34-37.36-4.77Z"/><path id="Path_6-7" data-name="Path 6" class="cls-2" d="M428.36,938l-30.43-10.12-20,319.4,30.42-5.79Z"/><path id="Path_5-8" data-name="Path 5" class="cls-2" d="M1282.78,835.41,1298.85,1230l-33.42-7.59L1253.13,850"/><path id="Path_6-8" data-name="Path 6" class="cls-2" d="M1215.15,850.44,1195.71,1230l29.63-6.88,19.45-368"/><path class="cls-2" d="M1227.88,644.08C1196,676,1164,727.14,948.17,781.32c-134.75,33.83-385,76.47-544.75,76.47-222.1,0-393.92-11.19-607.61-13.61-23.63,55.25-16.18,233.88-39.81,289.13,212.41,86.35,714.1-44,1027.69-106.85,365.62-73.33,505-171.81,636.94-292.28C1564.8,602.6,2111,659.8,2111,659.8l-35.62-125.71s-400.18-4.19-507,0C1475.57,537.72,1315.87,556.09,1227.88,644.08Z"/><path class="cls-3" d="M-24,902.84s410,0,557.32-13.62c260.85-24.09,521.29-99.59,603.41-133C1221.59,721.61,1297,614.75,1371.4,593.8c67.72-19.08,172.85-38.76,353-38.76,137.23,0,337.32-1.18,337.32-1.18l24.1,57.75c-155.05-7.11-475.61-8.38-591.9,35.62-64.58,24.43-152.52,89.91-187.52,122.57C1165,901.79,916.74,950.69,795.22,973s-682,124.67-787.8,123.62C-99.43,1095.58-24,902.84-24,902.84Z"/><path class="cls-4" d="M1015.65,847a13.18,13.18,0,0,0-.2,2.29c0,6.45,4.77,11.68,10.65,11.68a10.15,10.15,0,0,0,7.65-3.57Z"/><ellipse class="cls-4" cx="1088.3" cy="874.05" rx="11.68" ry="12.03"/><ellipse class="cls-4" cx="1184.18" cy="815.98" rx="10.65" ry="11.68"/><path class="cls-4" d="M1151.2,780l-70.85,38.28-41.48-24.46s-6.78-1.86,2.4-6.91,67.53-34.43,67.53-34.43,11.83,5.85,18.34,4.25l13.18-6.77,61,35.49-21,13.69S1168.75,804.9,1151.2,780Z"/><path class="cls-4" d="M1200,785.36s15.82,10.76-5,23.13c0,0-6.12-12.1-16-4.52,0,0-5.32,3.59-11.7,20.73l-69.39,40.15s-5.59-11.17-16-2.13-8.37,14-8.37,14l-2.13-23,8.91-37.48,70.19-39.09,24.19,18.61Z"/><path class="cls-4" d="M1034.21,792.7l-18.5,30.22a2.87,2.87,0,0,0,1.18,4.07l53.63,26.51a2.88,2.88,0,0,0,4.09-2l7.09-34.87a2.86,2.86,0,0,0-1.37-3.06l-39.58-23a2.9,2.9,0,0,0-2.58-.15l-2.64,1.13A2.82,2.82,0,0,0,1034.21,792.7Z"/><path class="cls-5" d="M1167.29,798.12S1154.13,789,1148,781.77l-19.27,10.37s4.92,23.26,7.57,24.06S1167.29,798.12,1167.29,798.12Z"/><path class="cls-5" d="M1131.79,818.32s-5.18-19.94-10-22.6L1103,806.36s.53,25.52,2.66,26.59S1131.79,818.32,1131.79,818.32Z"/><polygon class="cls-5" points="1080.35 818.32 1071.31 855.41 1017.87 826.97 1037.28 791.6 1080.35 818.32"/><path class="cls-5" d="M1101.62,836.8s.8-26.32-7.45-26.32l-6.51,3.86s-3.32.53-2,30.17Z"/><path class="cls-4" d="M1072.37,854.22l-54.5-28.85s-6.38-1.46-2.39,19.14l56,32.17S1075.56,878.94,1072.37,854.22Z"/><path class="cls-5" d="M1116.51,756.51a83.7,83.7,0,0,0,11.7,1.86l45.59,32.57-4.52,3.85-17.15-13Z"/><path class="cls-6" d="M1317.45,652.36a12.12,12.12,0,0,0-.35,2c-.47,5.76,3.4,10.78,8.66,11.22a9.12,9.12,0,0,0,7.09-2.63Z"/><ellipse class="cls-6" cx="1380.35" cy="681.83" rx="10.78" ry="10.47" transform="translate(587.51 2001.54) rotate(-85.29)"/><ellipse class="cls-6" cx="1470.24" cy="637.02" rx="10.47" ry="9.55" transform="translate(714.69 2050) rotate(-85.29)"/><path class="cls-6" d="M1443.44,602.5l-66.1,29-35.24-24.9s-5.92-2.16,2.65-6,62.84-25.78,62.84-25.78,10.14,6.09,16.07,5.15l12.27-5.09,51.86,36.19L1468,621.73S1457.28,626,1443.44,602.5Z"/><path class="cls-6" d="M1486.62,610.83s13.33,10.78-6.22,20.29c0,0-4.57-11.25-13.91-5.21,0,0-5,2.81-12,17.66l-64.93,30.75s-4.16-10.39-14.09-3.07-8.5,11.84-8.5,11.84l-.21-20.69,10.71-32.82,65.56-29.75,20.24,18.41Z"/><path class="cls-6" d="M1338,605.2l-18.75,25.62a2.59,2.59,0,0,0,.75,3.73l46,27.62a2.58,2.58,0,0,0,3.8-1.49l8.9-30.62a2.59,2.59,0,0,0-1-2.84L1344,603.79a2.56,2.56,0,0,0-2.29-.33l-2.44.82A2.54,2.54,0,0,0,1338,605.2Z"/><path class="cls-7" d="M1456.47,619.82s-11.08-9.16-16-16l-18,7.85s2.69,21.13,5,22S1456.47,619.82,1456.47,619.82Z"/><path class="cls-7" d="M1423.29,635.26s-3.16-18.19-7.24-20.92l-17.64,8.11s-1.41,22.84.42,23.94S1423.29,635.26,1423.29,635.26Z"/><polygon class="cls-7" points="1377.34 631.48 1366.54 663.93 1320.91 634.6 1340.84 604.44 1377.34 631.48"/><path class="cls-7" d="M1395,649.54s2.65-23.45-4.71-24l-6.1,3s-3,.23-4,26.8Z"/><path class="cls-6" d="M1367.58,662.94,1321,633.17s-5.59-1.77-3.55,16.92l47.62,32.85S1368.61,685.26,1367.58,662.94Z"/><path class="cls-7" d="M1414.18,578.93a74.74,74.74,0,0,0,10.31,2.52l38.33,32.44L1458.5,617l-14.36-12.89Z"/><path class="cls-4" d="M1672.84,563.52A9.28,9.28,0,0,0,1672,565c-2.1,4.33-.6,9.39,3.34,11.3a7.55,7.55,0,0,0,6.29.1Z"/><ellipse class="cls-4" cx="1712.76" cy="605.27" rx="8.96" ry="8.71" transform="matrix(0.44, -0.9, 0.9, 0.44, 420.37, 1881.84)"/><ellipse class="cls-4" cx="1795.95" cy="597.53" rx="8.71" ry="7.94" transform="translate(474.2 1952.32) rotate(-64.11)"/><path class="cls-4" d="M1785.53,562.71l-60,2.61-19.85-29.9s-3.94-3.45,3.85-3.86,56.48-1.1,56.48-1.1,6,7.77,10.92,8.82l11-.26,29.35,43.65L1798.82,585S1789.21,585.08,1785.53,562.71Z"/><path class="cls-4" d="M1816.51,582.15s7.11,12.37-10.91,13.86c0,0-.16-10.1-9.23-8.22,0,0-4.73.68-14.59,10.1l-59.59,4.33s-.11-9.3-10-6.61-10.16,6.63-10.16,6.63l6.06-16.11,18.17-22.24,59.78-3.36,10.16,20.35Z"/><path class="cls-4" d="M1703,533.12l-22.24,14.24a2.15,2.15,0,0,0-.53,3.12l27.33,35.22a2.14,2.14,0,0,0,3.39,0L1727,564.62a2.16,2.16,0,0,0,.07-2.5L1708,533.83a2.14,2.14,0,0,0-1.67-.94l-2.14-.1A2.13,2.13,0,0,0,1703,533.12Z"/><path class="cls-5" d="M1790.43,580.06s-5.84-10.43-7.6-17.23l-16.3.68s-4.27,17.19-2.75,18.59S1790.43,580.06,1790.43,580.06Z"/><path class="cls-5" d="M1760.06,582.06s3-15.06.67-18.4l-16.12,1s-7.95,17.29-6.87,18.69S1760.06,582.06,1760.06,582.06Z"/><polygon class="cls-5" points="1725.57 565.32 1707.43 587.24 1680.86 550.78 1705.38 533.39 1725.57 565.32"/><path class="cls-5" d="M1733.81,584.63s9.1-17.39,3.58-20.07l-5.62.46s-2.41-.72-11.16,19.59Z"/><path class="cls-4" d="M1708.54,586.79l-27.16-37.08s-3.8-3.06-7.83,12.06l27,39.78S1702.63,604.4,1708.54,586.79Z"/><path class="cls-5" d="M1769.93,535.64a61.92,61.92,0,0,0,7.23,5.05l20,36.68-4.29,1.11-7.26-14.31Z"/><path class="cls-6" d="M608.87,901.46a17.05,17.05,0,0,0-1.29,2.88c-2.87,8.39,1,17.31,8.65,19.93A14,14,0,0,0,627.77,923Z"/><ellipse class="cls-6" cx="691.3" cy="968.9" rx="16.53" ry="16.05" transform="matrix(0.32, -0.95, 0.95, 0.32, -449.21, 1309.32)"/><ellipse class="cls-6" cx="841.78" cy="936.04" rx="16.05" ry="14.64" transform="translate(-316.36 1429.48) rotate(-71.11)"/><path class="cls-6" d="M814.9,874.65,705.75,892.91l-43-50.25s-8-5.44,6.18-7.93S772,820,772,820s12.78,12.87,22,13.69l20.15-3L877.63,904l-33.4,8.46S826.65,914.77,814.9,874.65Z"/><path class="cls-6" d="M876,903.26s15.78,21-16.85,27.83c0,0-2.57-18.45-18.73-13,0,0-8.51,2.3-24.44,21.76L707.87,961.2s-2.29-17-19.8-9.86S671,965.76,671,965.76l7.46-30.84,28.26-44.78,108.64-19.59,23.17,35Z"/><path class="cls-6" d="M657.17,839.07l-37.49,31a4,4,0,0,0-.29,5.83l57.94,58.32a4,4,0,0,0,6.2-.79l24.74-42.18a4,4,0,0,0-.43-4.59l-41.23-47.48a3.92,3.92,0,0,0-3.28-1.35l-3.94.29A4,4,0,0,0,657.17,839.07Z"/><path class="cls-7" d="M827.77,905.31s-13-17.78-17.79-29.83l-29.67,4.9s-3.95,32.44-.85,34.66S827.77,905.31,827.77,905.31Z"/><path class="cls-7" d="M772.64,915.79s2.12-28.23-2.91-33.82l-29.28,5.43s-10.66,33.42-8.37,35.75S772.64,915.79,772.64,915.79Z"/><polygon class="cls-7" points="705.75 892.91 677.5 937.11 620.68 876.35 661.64 839.01 705.75 892.91"/><path class="cls-7" d="M725.18,926.39s12.75-33.86,2-37.53L717,891s-4.56-.78-16,38.35Z"/><path class="cls-6" d="M679.41,936l-58-61.75s-7.65-4.74-11.63,23.83l58.45,66.72S672.56,969.59,679.41,936Z"/><path class="cls-7" d="M780.26,828.62a114.23,114.23,0,0,0,14.38,7.63l44.79,62.62-7.59,3-16.5-24.57Z"/></svg>