<svg id="Layer_1" data-name="Layer 1" xmlns="http://www.w3.org/2000/svg" xmlns:xlink="http://www.w3.org/1999/xlink" viewBox="0 0 1920 1080"><defs><style>.cls-1{fill:#eff8ff;}.cls-2{fill:#224b80;}.cls-3{fill:url(#linear-gradient);}.cls-4{fill:#4496ff;}.cls-5{fill:#8fc0ff;}.cls-6{fill:#fc6464;}.cls-7{fill:#fda2a2;}</style><linearGradient id="linear-gradient" x1="116.93" y1="905.09" x2="1953.22" y2="905.09" gradientUnits="userSpaceOnUse"><stop offset="0" stop-color="#224b80"/><stop offset="0.08" stop-color="#365383"/><stop offset="0.41" stop-color="#8a7490"/><stop offset="0.69" stop-color="#c88d9a"/><stop offset="0.89" stop-color="#ee9ca0"/><stop offset="1" stop-color="#fda2a2"/></linearGradient></defs><title>Transportation</title><rect id="sky" class="cls-1" x="-106" y="-45" width="2109" height="1284"/><path id="Path_5" data-name="Path 5" class="cls-2" d="M1811.63,763.39,1828.94,749l9.38,376.71-19.5-7.48Z"/><path id="Path_6" data-name="Path 6" class="cls-2" d="M1806.77,763.29l-17.3-11.86-11.36,374.28,17.3-6.78Z"/><path id="Path_5-2" data-name="Path 5" class="cls-2" d="M1683.22,763.39l17.3-14.39,9.38,376.71-19.5-7.48Z"/><path id="Path_6-2" data-name="Path 6" class="cls-2" d="M1678.35,763.29l-17.3-11.86-11.35,374.28,17.29-6.78Z"/><path id="Path_5-3" data-name="Path 5" class="cls-2" d="M1570.7,778.53,1588,764.14l9.37,376.71-19.5-7.48Z"/><path id="Path_6-3" data-name="Path 6" class="cls-2" d="M1565.83,778.43l-17.3-11.87-11.35,374.29,17.3-6.79Z"/><path id="Path_5-4" data-name="Path 5" class="cls-2" d="M1347.5,810.14l17.3-13,9.38,340.93-19.5-6.77Z"/><path id="Path_6-4" data-name="Path 6" class="cls-2" d="M1342.63,810l-17.3-10.73L1314,1138l17.3-6.14Z"/><path id="Path_5-5" data-name="Path 5" class="cls-2" d="M1184.68,862.47,1204.62,851l10.8,299.21L1193,1144.3Z"/><path id="Path_6-5" data-name="Path 6" class="cls-2" d="M1179.08,862.38,1159.15,853l-13.07,297.28,19.92-5.38Z"/><path id="Path_5-6" data-name="Path 5" class="cls-2" d="M848,957.24,867.79,950l10.73,189.13-22.32-3.76Z"/><path id="Path_6-6" data-name="Path 6" class="cls-2" d="M837.24,927.4l-20.78-7-13.64,219.71,20.78-4Z"/><path id="Path_5-7" data-name="Path 5" class="cls-2" d="M1017.47,936.26l19.36-8.19,10.48,214.47-21.81-4.26Z"/><path id="Path_6-7" data-name="Path 6" class="cls-2" d="M992.63,906.86,974.87,899l-11.65,247.84,17.76-4.49Z"/><path id="Path_5-8" data-name="Path 5" class="cls-2" d="M1491.39,779.35l9.38,352.15-19.51-6.77-7.18-332.36"/><path id="Path_6-8" data-name="Path 6" class="cls-2" d="M1451.91,792.76l-11.35,338.74,17.3-6.14L1469.21,797"/><path class="cls-2" d="M1215.53,799.33c-27.42,18.61-54.94,48.48-240.5,80.11-115.86,19.75-331,44.64-468.38,44.64-190.95,0-338.69-6.54-522.42-8C-36.09,948.38-29.68,1072.65-50,1104.91c182.63,50.4,614-45.66,883.62-82.38,314.35-42.8,434.15-100.29,547.64-170.61,124-76.81,593.58-43.42,593.58-43.42l-30.62-73.38s-344.08-2.45-436,0C1428.5,737.24,1291.19,748,1215.53,799.33Z"/><path class="cls-3" d="M139.15,950.37s352.54,0,479.19-8c224.28-14.06,448.21-58.13,518.82-77.66,73-20.18,137.81-82.55,201.77-94.78,58.22-11.14,148.62-22.63,303.54-22.63,118,0,290-.69,290-.69l20.71,33.71c-133.3-4.15-408.93-4.89-508.91,20.79-55.53,14.27-131.14,52.49-161.23,71.55-121.6,77-335.07,105.59-439.56,118.63s-586.37,72.78-677.34,72.16C74.3,1062.88,139.15,950.37,139.15,950.37Z"/><path class="cls-4" d="M1010.38,927.21a6.89,6.89,0,0,0-.34,1.3c-.64,3.71,1.58,7.19,5,7.77a5.93,5.93,0,0,0,4.75-1.29Z"/><ellipse class="cls-4" cx="1049.5" cy="949.95" rx="7.02" ry="6.82" transform="translate(-64.79 1823) rotate(-80.23)"/><ellipse class="cls-4" cx="1110.4" cy="926.04" rx="6.82" ry="6.22" transform="translate(9.35 1863.17) rotate(-80.23)"/><path class="cls-4" d="M1095,902.1l-44.55,15L1029,898.92s-3.72-1.74,2.06-3.74,42.26-13.11,42.26-13.11,6.22,4.53,10.13,4.26l8.25-2.59,31.57,26.46L1109.85,916S1102.63,918.14,1095,902.1Z"/><path class="cls-4" d="M1122.53,910s8,7.76-5.19,12.81c0,0-2.32-7.57-8.73-4.18,0,0-3.42,1.53-8.79,10.77l-43.89,16.22s-2.11-7-9-2.81-6.2,7.2-6.2,7.2l1.06-13.44,8.83-20.68,44.25-15.53,12.08,13.1Z"/><path class="cls-4" d="M1026.44,897.79l-13.63,15.55a1.67,1.67,0,0,0,.27,2.46l28.22,20.56a1.67,1.67,0,0,0,2.55-.74l7.54-19.36a1.69,1.69,0,0,0-.49-1.9l-20.49-17.14a1.66,1.66,0,0,0-1.47-.34l-1.63.39A1.66,1.66,0,0,0,1026.44,897.79Z"/><path class="cls-5" d="M1102.46,914.09s-6.67-6.58-9.47-11.31l-12.12,4.05s.53,13.87,2,14.59S1102.46,914.09,1102.46,914.09Z"/><path class="cls-5" d="M1080,922.2s-1-12-3.5-14l-11.91,4.25s-2.22,14.73-1.11,15.56S1080,922.2,1080,922.2Z"/><polygon class="cls-5" points="1050.44 917.1 1041.57 937.54 1013.64 915.88 1028.31 897.47 1050.44 917.1"/><path class="cls-5" d="M1060.85,929.84s3.06-15.06-1.68-15.88l-4.13,1.57s-2,0-4.13,17.16Z"/><path class="cls-4" d="M1042.3,937l-28.5-22s-3.52-1.48-3.27,10.77l29,24S1041.68,951.5,1042.3,937Z"/><path class="cls-5" d="M1077.37,885.12a48.35,48.35,0,0,0,6.54,2.23l23,23.26-3,1.77-8.57-9.2Z"/><path class="cls-6" d="M1277.63,823.16a5.71,5.71,0,0,0-.21,1.18,5.85,5.85,0,0,0,5,6.55,5.32,5.32,0,0,0,4.14-1.53Z"/><ellipse class="cls-6" cx="1314.34" cy="840.36" rx="6.29" ry="6.11" transform="translate(368.92 2081.28) rotate(-85.29)"/><ellipse class="cls-6" cx="1366.81" cy="814.2" rx="6.11" ry="5.57" transform="translate(443.16 2109.56) rotate(-85.29)"/><path class="cls-6" d="M1351.17,794.05,1312.58,811,1292,796.44s-3.45-1.27,1.55-3.5,36.68-15.05,36.68-15.05,5.92,3.55,9.38,3l7.16-3,30.28,21.13-11.54,6.23S1359.25,807.76,1351.17,794.05Z"/><path class="cls-6" d="M1376.37,798.92s7.79,6.29-3.63,11.84c0,0-2.66-6.57-8.12-3,0,0-2.92,1.64-7,10.31l-37.9,18s-2.43-6.06-8.22-1.8-5,6.92-5,6.92l-.12-12.08,6.26-19.16L1351,792.5l11.81,10.74Z"/><path class="cls-6" d="M1289.63,795.63l-10.94,15a1.5,1.5,0,0,0,.44,2.17L1306,828.88a1.5,1.5,0,0,0,2.22-.87l5.19-17.87a1.5,1.5,0,0,0-.58-1.65l-19.65-13.68a1.47,1.47,0,0,0-1.33-.2l-1.43.48A1.54,1.54,0,0,0,1289.63,795.63Z"/><path class="cls-7" d="M1358.78,804.17s-6.47-5.35-9.35-9.35l-10.5,4.57s1.57,12.34,2.92,12.87S1358.78,804.17,1358.78,804.17Z"/><path class="cls-7" d="M1339.4,813.18s-1.84-10.62-4.22-12.21l-10.3,4.73s-.82,13.33.24,14S1339.4,813.18,1339.4,813.18Z"/><polygon class="cls-7" points="1312.59 810.97 1306.28 829.91 1279.64 812.79 1291.28 795.19 1312.59 810.97"/><path class="cls-7" d="M1322.88,821.51s1.55-13.68-2.75-14l-3.56,1.73s-1.76.14-2.34,15.65Z"/><path class="cls-6" d="M1306.89,829.34,1279.71,812s-3.26-1-2.07,9.87l27.8,19.18S1307.49,842.36,1306.89,829.34Z"/><path class="cls-7" d="M1334.09,780.3a43.32,43.32,0,0,0,6,1.47l22.37,18.94-2.52,1.81-8.38-7.53Z"/><path class="cls-4" d="M1525.08,755.3a5.13,5.13,0,0,0,1.43,7.45,4.44,4.44,0,0,0,3.67.06Z"/><ellipse class="cls-4" cx="1548.38" cy="779.67" rx="5.23" ry="5.08" transform="translate(170.87 1832.21) rotate(-64.11)"/><ellipse class="cls-4" cx="1596.94" cy="775.15" rx="5.08" ry="4.63" transform="translate(202.29 1873.35) rotate(-64.11)"/><path class="cls-4" d="M1590.86,754.83l-35,1.52-11.58-17.45s-2.3-2,2.25-2.25,33-.65,33-.65,3.52,4.54,6.37,5.15l6.44-.15,17.14,25.48-10.83,1.37S1593,767.89,1590.86,754.83Z"/><path class="cls-4" d="M1608.94,766.17s4.15,7.22-6.37,8.1c0,0-.1-5.9-5.39-4.8,0,0-2.76.39-8.51,5.89l-34.79,2.53s-.06-5.43-5.84-3.86-5.93,3.87-5.93,3.87l3.54-9.4,10.61-13,34.89-2,5.94,11.88Z"/><path class="cls-4" d="M1542.66,737.56l-13,8.31a1.25,1.25,0,0,0-.31,1.82l16,20.56a1.25,1.25,0,0,0,2,0l9.41-12.3a1.26,1.26,0,0,0,0-1.46L1545.62,738a1.24,1.24,0,0,0-1-.55l-1.25-.06A1.29,1.29,0,0,0,1542.66,737.56Z"/><path class="cls-5" d="M1593.72,765s-3.41-6.09-4.44-10.06l-9.51.39s-2.5,10-1.61,10.86S1593.72,765,1593.72,765Z"/><path class="cls-5" d="M1576,766.12s1.76-8.79.39-10.74L1567,756s-4.64,10.09-4,10.91S1576,766.12,1576,766.12Z"/><polygon class="cls-5" points="1555.85 756.35 1545.27 769.15 1529.76 747.86 1544.07 737.71 1555.85 756.35"/><path class="cls-5" d="M1560.67,767.62s5.31-10.15,2.08-11.71l-3.28.27s-1.4-.42-6.51,11.43Z"/><path class="cls-4" d="M1545.91,768.88l-15.85-21.64s-2.22-1.79-4.57,7l15.79,23.22S1542.46,779.17,1545.91,768.88Z"/><path class="cls-5" d="M1581.75,739a36.52,36.52,0,0,0,4.22,3l11.66,21.41-2.5.65-4.24-8.36Z"/><path class="cls-6" d="M704.22,958.61a10.23,10.23,0,0,0-.7,1.58c-1.57,4.58.55,9.45,4.72,10.88a7.64,7.64,0,0,0,6.3-.68Z"/><ellipse class="cls-6" cx="749.23" cy="995.43" rx="9.02" ry="8.77" transform="translate(-435.14 1382.08) rotate(-71.11)"/><ellipse class="cls-6" cx="831.39" cy="977.49" rx="8.77" ry="7.99" transform="translate(-362.6 1447.69) rotate(-71.11)"/><path class="cls-6" d="M816.72,944l-59.6,10-23.5-27.43s-4.36-3,3.38-4.33,56.3-8,56.3-8,7,7,12,7.48l11-1.62L851,960l-18.24,4.61S823.13,965.88,816.72,944Z"/><path class="cls-6" d="M850.06,959.6s8.61,11.48-9.21,15.19c0,0-1.4-10.07-10.22-7.08,0,0-4.65,1.25-13.34,11.88l-59,11.64S757,982,747.47,985.85s-9.34,7.87-9.34,7.87l4.08-16.84,15.43-24.45L817,941.74l12.66,19.08Z"/><path class="cls-6" d="M730.59,924.55l-20.47,17a2.16,2.16,0,0,0-.15,3.18l31.63,31.85a2.16,2.16,0,0,0,3.39-.43l13.5-23a2.14,2.14,0,0,0-.23-2.5l-22.51-25.93a2.17,2.17,0,0,0-1.79-.73l-2.15.16A2.12,2.12,0,0,0,730.59,924.55Z"/><path class="cls-7" d="M823.74,960.71s-7.11-9.7-9.71-16.28l-16.2,2.67s-2.16,17.71-.47,18.93S823.74,960.71,823.74,960.71Z"/><path class="cls-7" d="M793.64,966.44S794.8,951,792.05,948l-16,3s-5.82,18.25-4.57,19.52S793.64,966.44,793.64,966.44Z"/><polygon class="cls-7" points="757.12 953.94 741.69 978.08 710.67 944.9 733.03 924.51 757.12 953.94"/><path class="cls-7" d="M767.73,972.23s7-18.5,1.11-20.5l-5.56,1.16s-2.49-.43-8.75,20.93Z"/><path class="cls-6" d="M742.74,977.48l-31.68-33.71s-4.18-2.59-6.35,13l31.91,36.43S739,995.81,742.74,977.48Z"/><path class="cls-7" d="M797.8,918.84a63.26,63.26,0,0,0,7.85,4.17l24.46,34.19L826,958.84l-9-13.41Z"/></svg>