<svg id="Layer_1" data-name="Layer 1" xmlns="http://www.w3.org/2000/svg" xmlns:xlink="http://www.w3.org/1999/xlink" viewBox="0 0 1920 1080"><defs><style>.cls-1{fill:#eff8ff;}.cls-2{fill:#566ed1;opacity:0.08;}.cls-3{fill:#224b80;}.cls-4{fill:url(#linear-gradient);}.cls-5{fill:#4496ff;}.cls-6{fill:#8fc0ff;}.cls-7{fill:#fc6464;}.cls-8{fill:#fda2a2;}</style><linearGradient id="linear-gradient" x1="-58.67" y1="807.94" x2="1980" y2="807.94" gradientUnits="userSpaceOnUse"><stop offset="0" stop-color="#224b80"/><stop offset="0.08" stop-color="#365383"/><stop offset="0.41" stop-color="#8a7490"/><stop offset="0.69" stop-color="#c88d9a"/><stop offset="0.89" stop-color="#ee9ca0"/><stop offset="1" stop-color="#fda2a2"/></linearGradient></defs><title>transportation v3 new colors</title><rect id="sky" class="cls-1" x="-106" y="-45" width="2109" height="1284"/><path class="cls-2" d="M7330.43,955.13V924.81h-15.15v30.32H7308V914.7h-59.91v19.09h-7.25V914.7h-15.8v19.09h-7.24V841.71H7183.6v50.53h-21.07v13.48h-44.77V588.07h.22l-31.09-41v19.45h-.08V547.48h-3.29V534h-26.33v13.48h-3.3v19.09h-6.58V592.4h3.29V748.16c-11.45-7.46-26-13.78-42.79-19.21V627.21h6.58V599.13H6999.9V566.57h-27.65v32.56h-15.14v28.08H6963v90.08c-22.16-4.7-46.09-8.56-70.45-12v-78.1h-66.5v69.57l-6.58-.8V660.9h-8.56V649.67h-63.87V660.9h-7.24v24.46c-2.39-.27-4.8-.53-7.24-.76V523.9h.48l-8.45-27-41.29-50.6-37.1,43.22-10.58,34.35h.15V684.15q-10.83.71-22,1.67a18.27,18.27,0,0,0-9.29.84q-10.28,1-20.75,2.16V610c0-.29,0-.58,0-.87s0-.5,0-.74v-2.5h-.26c-2.34-12.7-19.45-12-30.59-.59a61.68,61.68,0,0,0-17,41.26,8.63,8.63,0,0,0,0,.89h-.22V695l-1.4.2c-5.39-3.24-13.6-2.12-20.3,3.07q-20.88,3.27-42.16,7v-50H6460v-24l.15-.15V608.55l-19.41-36.63h-14.38l-12.44,25V621.6h-17.78v98.09L6384.87,722v-8.3h-131v36.49l-25.69,5.71v-56c0-.46,0-.93,0-1.4,0-20.46-7.33-38-17.77-45.38V632.61c0-8.13-3-15-7.26-17.67V597.07h-8.67v18.7c-3.63,3.08-6.13,9.45-6.13,16.84v20.72c-10.2,7.55-17.28,25-17.15,45.12v.42h-.06v69.57c-24.14,5.26-47.48,10.22-69.69,14.67L6067,754.39V718.31h-11.23v36.07l-55.11,46q-14.82,1.88-28,2.93L5968.35,792h-16.68V698.87h-.05v-.42c.13-20.15-7-37.57-17.16-45.12V632.61c0-7.39-2.5-13.76-6.13-16.84v-18.7h-8.66v17.87c-4.24,2.63-7.27,9.54-7.27,17.67v20.46c-10.43,7.38-17.77,24.92-17.77,45.38,0,.33,0,.66,0,1V792h-13.91v3.8q-14-1.89-29.15-3.12V593.55h0L5813,428.39l-63.12-20.24L5719.09,563.2l.16,0V791.73c-29.6,1.47-60.31,3.88-91.52,7V629l-6.8-2.16V605.29l-.08,0-22.05-80.61-64.73-29.86v0l-.17-.08.07.41-26.87,87.18h42.79v0l.12,0h-42.74v22.46h-7.9V815.54q-10.23,1.62-20.41,3.3V722.67H5471V705.82h-9.87V690.1h-37.53v15.72h-11.85v16.85h-9.88V832.76q-16.34,3.21-32.26,6.54v-47h-8.56V764.22h-43.45V850.8c-24.46,5.71-47.69,11.57-69.24,17.47-62.6,17.12-137.56,20.05-213.76,14.93V780.53H4884.3v83.6q-8.91-1.59-17.68-3.28V750.37h-42.95V720.21H4734V524.14h-83.37V578h-16.43V750.37h-12.63V720.21h-49.26V444.42h-18.95V412.11H4530.6V381.94h-72v30.17h-19v32.31h-15.16V873.18h-39.15v-655h-15.16V175.11h-82l.22-.08,0,.07h82.09L4318.92,7.84l.14-.78-.33.16,0-.06,0,.07L4194.5,64.52l-42.29,154.66-.15,0v41.35L4139,264.73V597.4h-115V756.84h-16.42V698.66h-27.8v58.18h-16.42V138.57l.3-.1L3904.6-159l-121.1,38.84-74,316.87h0V746.06h-15.16V705.13h-40.77V577.44H3626.9V399.87c0-.63,0-1.26,0-1.9,0-39.26-14.08-72.91-34.09-87.07V271.64c0-15.6-5.81-28.85-13.94-33.89V203.46h-16.63v35.88c-7,5.91-11.75,18.14-11.75,32.3V311.4c-19.57,14.49-33.16,47.9-32.92,86.57v.8h-.09V577.43h-32L3466,629,3317.74,505.27v-69.2h-21.55v69.21L3148,629l-19.52-51.57h-32V398.77h-.11c0-.27,0-.53,0-.8.24-38.67-13.35-72.08-32.92-86.57V271.64c0-14.16-4.8-26.39-11.76-32.3V203.46H3035v34.29c-8.12,5-13.93,18.29-13.93,33.89V310.9c-20,14.16-34.1,47.81-34.1,87.07,0,.91,0,1.8,0,2.7V577.44h-26.69V746.06h-22.59V427.19H2686.37V746.06h-21.61V250.51h-34.11V203.12l-23.87-47.92h-27.6L2542,225.49v43.34l.27.28v46h-22.74V720.21H2498V679.27h-15.16v40.94h-10.11V476.74h-.15c.08-23.74-7.82-53-28.68-74.4-14.62-15-35.52-18.24-47-8.73V300.07h-.41c0-.56.06-1.11,0-1.69-.42-24.59-9.61-55.54-32.67-79.17-21.38-21.92-54.2-23.24-58.69,1.14h-.5v4.78c0,.48,0,.93,0,1.42s0,1.12,0,1.68V421.09a97.76,97.76,0,0,0-21.25-33.83c-20.93-21.45-54.76-18.9-55.22,10.8a119.72,119.72,0,0,0,1.31,20.51H2229V720.21h-24V63.08h.3l-20.31-65.9-71.18-82.92-79.21,97.07-16.21,51.75h.92v810.1h-13.9V325.92h-13.89V304.38H1868.94v21.54h-16.42V922.74h0V795.62h-12.64V261.29H1712.3V731h-58.11V692.2h-55.58V731h-21.47V261.29h11.37V207.42h-29.06V144.94h-53v62.48h-27.79v53.87h12.63V795.62H1458.4V756.84H1442V720.21h-22.74v36.63h-10.1V194.5h6.32V144.94h-12.64V108.31h-6.31V82.46H1346v25.85h-6.32v36.63h-.15V107.63l-59.65,78.56h.43V795.62H1248V697.21c-3-9.24-7.79-16.63-13.54-20.88V655.61c0-7.39-2.5-13.76-6.13-16.84v-18.7h-8.66v17.87c-4.24,2.63-7.27,9.54-7.27,17.67v20.46c-10.43,7.38-17.77,24.92-17.77,45.38,0,.33,0,.66,0,1V815h-13.91v3.8q-14-1.89-29.15-3.12V616.55h0L1113,451.39l-63.12-20.24L1019.09,586.2l.16,0V814.73c-29.6,1.47-60.31,3.88-91.52,7V652l-6.8-2.16V628.29l-.08,0L898.8,547.65l-64.73-29.86v0l-.17-.08.07.41-26.87,87.18h42.79v0l.12,0H807.24v22.46h-7.9V838.54q-10.23,1.62-20.41,3.3V745.67H771V728.82h-9.87V713.1H723.62v15.72H711.77v16.85h-9.88V855.76q-16.33,3.21-32.26,6.54v-47h-8.56V787.22H617.62V873.8c-24.46,5.71-47.69,11.57-69.24,17.47-9.2,2.51-18.68,4.7-28.38,6.63V896H-203.53q-3.72.78-7.47,1.5v247H517v1h729v66H5087.63V1028.31h-50.48v-53.5l122.45,2.61V1027h-26.31v95.46H7256V1027H7241.5V975.34h139.62V955.13Z"/><path id="Path_5" data-name="Path 5" class="cls-3" d="M1737.11,605.82l28.3-22.82,15.34,597.33-31.9-11.86Z"/><path id="Path_6" data-name="Path 6" class="cls-3" d="M1729.15,605.66l-28.29-18.81-18.57,593.48,28.29-10.76Z"/><path id="Path_5-2" data-name="Path 5" class="cls-3" d="M1527.11,605.82l28.3-22.82,15.34,597.33-31.9-11.86Z"/><path id="Path_6-2" data-name="Path 6" class="cls-3" d="M1519.15,605.66l-28.29-18.81-18.57,593.48,28.29-10.76Z"/><path id="Path_5-3" data-name="Path 5" class="cls-3" d="M1343.11,629.82l28.3-22.82,15.34,597.33-31.9-11.86Z"/><path id="Path_6-3" data-name="Path 6" class="cls-3" d="M1335.15,629.66l-28.29-18.81-18.57,593.48,28.29-10.76Z"/><path id="Path_5-4" data-name="Path 5" class="cls-3" d="M978.11,850.57l28.3-13.94,15.34,364.7-31.9-7.24Z"/><path id="Path_6-4" data-name="Path 6" class="cls-3" d="M970.15,850.47,941.86,839l-18.57,362.35,28.29-6.57Z"/><path id="Path_5-5" data-name="Path 5" class="cls-3" d="M711.86,906.55l32.6-12.23,17.66,320.06L725.39,1208Z"/><path id="Path_6-5" data-name="Path 6" class="cls-3" d="M702.7,906.46l-32.59-10.08-21.38,318,32.58-5.76Z"/><path id="Path_5-6" data-name="Path 5" class="cls-3" d="M161.26,1007.93l32.39-7.73,17.55,202.3-36.5-4Z"/><path id="Path_6-6" data-name="Path 6" class="cls-3" d="M143.7,940.79l-34-8.57L87.4,1202.5l34-4.89Z"/><path id="Path_5-7" data-name="Path 5" class="cls-3" d="M438.43,985.49l31.65-8.77,17.14,229.42-35.66-4.55Z"/><path id="Path_6-7" data-name="Path 6" class="cls-3" d="M397.81,915.52l-29-9.67-19.06,304.9,29-5.53Z"/><path id="Path_5-8" data-name="Path 5" class="cls-3" d="M1213.41,817.63l15.34,376.7-31.9-7.24-11.74-355.52"/><path id="Path_6-8" data-name="Path 6" class="cls-3" d="M1148.86,832l-18.57,362.35,28.29-6.57,18.57-351.29"/><path class="cls-3" d="M1161,635c-30.44,30.44-61,79.28-267,131-128.63,32.29-367.48,73-520,73-212,0-376-10.69-580-13-22.56,52.75-15.44,223.25-38,276,202.76,82.42,681.66-42,981-102,349-70,482-164,608-279,137.62-125.6,659-71,659-71l-34-120s-382-4-484,0C1397.44,533.47,1245,551,1161,635Z"/><path class="cls-4" d="M-34,882s391.39,0,532-13c249-23,497.61-95.06,576-127,81-33,153-135,224-155,64.64-18.21,165-37,337-37,131,0,322-1.12,322-1.12L1980,604c-148-6.79-454-8-565,34-61.65,23.33-145.6,85.82-179,117C1101,881,864,927.67,748,949S97,1068-4,1067C-106,1066-34,882-34,882Z"/><path class="cls-5" d="M958.42,828.73a12.14,12.14,0,0,0-.2,2.19c0,6.16,4.56,11.15,10.17,11.15a9.73,9.73,0,0,0,7.31-3.41Z"/><ellipse class="cls-5" cx="1027.77" cy="854.52" rx="11.15" ry="11.48"/><ellipse class="cls-5" cx="1119.29" cy="799.08" rx="10.17" ry="11.15"/><path class="cls-5" d="M1087.81,764.78l-67.63,36.54L980.59,778s-6.48-1.77,2.28-6.59,64.46-32.87,64.46-32.87,11.3,5.58,17.51,4.06l12.58-6.47L1135.65,770l-20.05,13.07S1104.56,788.51,1087.81,764.78Z"/><path class="cls-5" d="M1134.38,769.85s15.1,10.28-4.82,22.08c0,0-5.84-11.54-15.23-4.31,0,0-5.07,3.42-11.16,19.79l-66.24,38.33s-5.33-10.66-15.23-2-8,13.32-8,13.32l-2-21.95,8.51-35.79,67-37.3,23.09,17.76Z"/><path class="cls-5" d="M976.14,776.86l-17.66,28.85a2.75,2.75,0,0,0,1.12,3.89l51.2,25.3a2.74,2.74,0,0,0,3.9-1.91l6.77-33.29a2.75,2.75,0,0,0-1.31-2.92l-37.78-21.94a2.77,2.77,0,0,0-2.46-.15l-2.52,1.08A2.74,2.74,0,0,0,976.14,776.86Z"/><path class="cls-6" d="M1103.17,782s-12.57-8.75-18.4-15.6l-18.4,9.89s4.69,22.21,7.23,23S1103.17,782,1103.17,782Z"/><path class="cls-6" d="M1069.28,801.32s-4.94-19-9.51-21.57l-18,10.15s.51,24.37,2.54,25.38S1069.28,801.32,1069.28,801.32Z"/><polygon class="cls-6" points="1020.18 801.32 1011.55 836.73 960.54 809.57 979.06 775.82 1020.18 801.32"/><path class="cls-6" d="M1040.48,819s.76-25.12-7.11-25.12l-6.21,3.68s-3.18.5-1.91,28.8Z"/><path class="cls-5" d="M1012.56,835.58l-52-27.53s-6.1-1.4-2.29,18.27L1011.67,857S1015.61,859.19,1012.56,835.58Z"/><path class="cls-6" d="M1054.69,742.32a79,79,0,0,0,11.17,1.77l43.52,31.09-4.31,3.68-16.37-12.43Z"/><path class="cls-7" d="M1246.51,642.9a11.07,11.07,0,0,0-.34,1.94c-.45,5.5,3.25,10.29,8.26,10.7a8.68,8.68,0,0,0,6.78-2.5Z"/><ellipse class="cls-7" cx="1306.54" cy="671.03" rx="10.29" ry="9.99" transform="translate(530.52 1918.08) rotate(-85.29)"/><ellipse class="cls-7" cx="1392.36" cy="628.25" rx="9.99" ry="9.11" transform="translate(651.93 1964.34) rotate(-85.29)"/><path class="cls-7" d="M1366.77,595.3,1303.68,623,1270,599.2s-5.65-2.06,2.52-5.73,60-24.61,60-24.61,9.68,5.82,15.34,4.92l11.71-4.86,49.51,34.55-18.87,10.19S1380,617.73,1366.77,595.3Z"/><path class="cls-7" d="M1408,603.26s12.73,10.29-5.93,19.36c0,0-4.37-10.74-13.29-5,0,0-4.78,2.69-11.42,16.86l-62,29.35s-4-9.91-13.45-2.93-8.12,11.31-8.12,11.31l-.2-19.76,10.23-31.33,62.58-28.39,19.32,17.57Z"/><path class="cls-7" d="M1266.15,597.88l-17.9,24.46a2.46,2.46,0,0,0,.72,3.56l43.86,26.36a2.46,2.46,0,0,0,3.63-1.42l8.49-29.23a2.45,2.45,0,0,0-1-2.7l-32.13-22.38a2.47,2.47,0,0,0-2.19-.31l-2.33.78A2.45,2.45,0,0,0,1266.15,597.88Z"/><path class="cls-8" d="M1379.21,611.84s-10.57-8.74-15.28-15.29L1346.77,604s2.56,20.17,4.77,21S1379.21,611.84,1379.21,611.84Z"/><path class="cls-8" d="M1347.53,626.58s-3-17.37-6.91-20l-16.84,7.74s-1.34,21.8.4,22.85S1347.53,626.58,1347.53,626.58Z"/><polygon class="cls-8" points="1303.68 622.96 1293.37 653.95 1249.81 625.94 1268.84 597.16 1303.68 622.96"/><path class="cls-8" d="M1320.51,640.21s2.53-22.38-4.5-23l-5.82,2.83s-2.87.22-3.82,25.58Z"/><path class="cls-7" d="M1294.36,653l-44.44-28.42s-5.34-1.69-3.38,16.15L1292,672.09S1295.34,674.3,1294.36,653Z"/><path class="cls-8" d="M1338.84,572.81a71.26,71.26,0,0,0,9.84,2.4l36.59,31-4.12,3-13.71-12.31Z"/><path class="cls-5" d="M1585.75,558.09a9.27,9.27,0,0,0-.84,1.4c-2,4.13-.58,9,3.19,10.79a7.23,7.23,0,0,0,6,.09Z"/><ellipse class="cls-5" cx="1623.85" cy="597.95" rx="8.56" ry="8.31" transform="translate(376.87 1797.73) rotate(-64.11)"/><ellipse class="cls-5" cx="1703.26" cy="590.56" rx="8.31" ry="7.58" transform="translate(428.25 1865.01) rotate(-64.11)"/><path class="cls-5" d="M1693.32,557.32l-57.24,2.49-18.95-28.54s-3.76-3.29,3.68-3.68,53.92-1.06,53.92-1.06,5.75,7.42,10.42,8.43l10.54-.25,28,41.67L1706,578.61S1696.83,578.68,1693.32,557.32Z"/><path class="cls-5" d="M1722.89,575.88s6.78,11.8-10.42,13.23c0,0-.15-9.64-8.8-7.85,0,0-4.52.65-13.93,9.64L1632.86,595s-.11-8.88-9.55-6.31-9.7,6.33-9.7,6.33l5.78-15.38,17.35-21.23,57.06-3.21,9.71,19.43Z"/><path class="cls-5" d="M1614.51,529.08l-21.23,13.59a2,2,0,0,0-.51,3l26.09,33.62a2,2,0,0,0,3.24,0l15.37-20.12a2,2,0,0,0,.07-2.38l-18.19-27a2,2,0,0,0-1.6-.9l-2-.1A2,2,0,0,0,1614.51,529.08Z"/><path class="cls-6" d="M1698,573.89s-5.58-10-7.26-16.46l-15.56.65s-4.08,16.42-2.62,17.76S1698,573.89,1698,573.89Z"/><path class="cls-6" d="M1669,575.79s2.88-14.37.64-17.56l-15.38.95s-7.59,16.5-6.56,17.84S1669,575.79,1669,575.79Z"/><polygon class="cls-6" points="1636.08 559.81 1618.77 580.74 1593.4 545.93 1616.81 529.33 1636.08 559.81"/><path class="cls-6" d="M1644,578.25s8.69-16.6,3.41-19.16l-5.36.44s-2.3-.69-10.65,18.7Z"/><path class="cls-5" d="M1619.82,580.31l-25.92-35.4s-3.63-2.92-7.48,11.51l25.83,38S1614.18,597.12,1619.82,580.31Z"/><path class="cls-6" d="M1678.42,531.48a59.62,59.62,0,0,0,6.91,4.83l19.07,35-4.09,1.06-6.93-13.67Z"/><path class="cls-7" d="M570.12,880.68a16.67,16.67,0,0,0-1.23,2.75c-2.74,8,1,16.53,8.26,19a13.39,13.39,0,0,0,11-1.18Z"/><ellipse class="cls-7" cx="648.8" cy="945.05" rx="15.78" ry="15.33" transform="translate(-455.39 1252.99) rotate(-71.11)"/><ellipse class="cls-7" cx="792.45" cy="913.69" rx="15.33" ry="13.97" transform="translate(-328.57 1367.69) rotate(-71.11)"/><path class="cls-7" d="M766.79,855.09,662.6,872.52l-41.09-48s-7.62-5.19,5.91-7.56,98.42-14.06,98.42-14.06,12.2,12.29,21,13.07L766,813.18l60.64,70-31.88,8.08S778,893.39,766.79,855.09Z"/><path class="cls-7" d="M825.08,882.4S840.14,902.48,809,909c0,0-2.46-17.61-17.88-12.39,0,0-8.13,2.2-23.33,20.77L664.62,937.71s-2.19-16.23-18.9-9.41-16.32,13.76-16.32,13.76l7.13-29.44,27-42.74,103.7-18.7,22.13,33.37Z"/><path class="cls-7" d="M616.22,821.13l-35.79,29.64a3.78,3.78,0,0,0-.27,5.56L635.47,912a3.77,3.77,0,0,0,5.92-.75L665,871a3.76,3.76,0,0,0-.41-4.38l-39.36-45.32A3.77,3.77,0,0,0,622.1,820l-3.76.28A3.76,3.76,0,0,0,616.22,821.13Z"/><path class="cls-8" d="M779.07,884.36s-12.44-17-17-28.48l-28.32,4.68s-3.77,31-.81,33.08S779.07,884.36,779.07,884.36Z"/><path class="cls-8" d="M726.44,894.36s2-27-2.77-32.28l-27.95,5.18s-10.17,31.91-8,34.13S726.44,894.36,726.44,894.36Z"/><polygon class="cls-8" points="662.6 872.52 635.63 914.71 581.39 856.71 620.49 821.07 662.6 872.52"/><path class="cls-8" d="M681.15,904.48s12.16-32.33,1.94-35.83l-9.73,2s-4.35-.75-15.28,36.61Z"/><path class="cls-7" d="M637.46,913.67l-55.39-58.94s-7.3-4.52-11.1,22.74l55.79,63.69S630.92,945.71,637.46,913.67Z"/><path class="cls-8" d="M733.72,811.16a109.61,109.61,0,0,0,13.73,7.27l42.75,59.78L783,881.08l-15.75-23.45Z"/></svg>