<svg id="Layer_1" data-name="Layer 1" xmlns="http://www.w3.org/2000/svg" xmlns:xlink="http://www.w3.org/1999/xlink" viewBox="0 0 2321.93 1333"><defs><style>.cls-1,.cls-13,.cls-14,.cls-59,.cls-60{fill:none;}.cls-2{clip-path:url(#clip-path);}.cls-3{fill:#eff7fd;}.cls-4{fill:#979797;}.cls-5{fill:#f5e8a9;}.cls-6{fill:#f5dc6e;}.cls-7{fill:#78b9e4;}.cls-8{fill:#25315b;}.cls-9{fill:#384880;}.cls-10{fill:#efbab8;}.cls-11{fill:#e67470;}.cls-12{clip-path:url(#clip-path-2);}.cls-13,.cls-14{stroke:#000;stroke-linejoin:round;stroke-width:4px;}.cls-14{stroke-linecap:round;}.cls-15{fill:#2a4b7c;}.cls-16{fill:#aecee3;}.cls-17{clip-path:url(#clip-path-3);}.cls-18{fill:#d1dde2;}.cls-19{clip-path:url(#clip-path-4);}.cls-20{clip-path:url(#clip-path-5);}.cls-21{fill:#e08e6d;}.cls-22{fill:#dc6b6a;}.cls-23{fill:#f1fdcb;opacity:0.3;}.cls-23,.cls-61{isolation:isolate;}.cls-24{fill:#8ca1c8;}.cls-25{fill:#de7e6c;}.cls-26{fill:#f6c796;}.cls-27{fill:#cbd9ed;}.cls-28{fill:#205ea4;}.cls-29,.cls-31{fill:#112e58;}.cls-29{stroke:#112e58;}.cls-29,.cls-59,.cls-60{stroke-miterlimit:10;}.cls-30{fill:#bffcf3;}.cls-32{fill:#fffce7;}.cls-33{fill:#6cc8b6;}.cls-34{fill:#443731;}.cls-35{fill:#cceef2;}.cls-36{opacity:0.57;}.cls-37{fill:#aecce2;}.cls-38{clip-path:url(#clip-path-7);}.cls-39{fill:#6d82b2;}.cls-40{fill:#bac6dd;}.cls-41{fill:#794916;}.cls-42{fill:#0254f4;}.cls-43{fill:#26669a;}.cls-44{fill:#e8deab;}.cls-45{fill:#51330d;}.cls-46{fill:#f4b795;}.cls-47{fill:#fff;}.cls-48{fill:#a27426;}.cls-49{fill:#2779f5;}.cls-50{fill:#2d739b;}.cls-51{fill:#0e2348;}.cls-52{fill:#3574f5;}.cls-53{fill:#63679b;}.cls-54{fill:#f5c096;}.cls-55{fill:#517af5;}.cls-56{fill:#78759b;}.cls-57{fill:#646f9b;}.cls-58{fill:#0b3985;}.cls-59{stroke:#38805c;}.cls-59,.cls-60{stroke-width:3px;}.cls-60{stroke:#f2a668;}.cls-61{fill:#5870c9;opacity:0.08;}</style><clipPath id="clip-path" transform="translate(153.3 0)"><polyline class="cls-1" points="2105 1285 0 1285 0 0 2105 0"/></clipPath><clipPath id="clip-path-2" transform="translate(153.3 0)"><polygon class="cls-1" points="777.72 1209.09 835.74 1209.09 830.48 1237.45 791.6 1241.51 777.72 1209.09"/></clipPath><clipPath id="clip-path-3" transform="translate(153.3 0)"><rect class="cls-1" x="1768.47" y="1088.16" width="75.67" height="175.35"/></clipPath><clipPath id="clip-path-4" transform="translate(153.3 0)"><rect class="cls-1" x="1683.26" y="1088.16" width="75.67" height="175.35"/></clipPath><clipPath id="clip-path-5" transform="translate(153.3 0)"><rect class="cls-1" x="1658.97" y="920.89" width="209.46" height="132.26"/></clipPath><clipPath id="clip-path-7" transform="translate(153.3 0)"><rect class="cls-1" x="1658.97" y="769.51" width="209.46" height="132.26"/></clipPath></defs><title>Housing-new</title><g class="cls-2"><rect id="sky" class="cls-3" x="149.42" width="2109" height="1333"/><g id="street"><rect id="Rectangle_4" data-name="Rectangle 4" class="cls-4" y="1226.53" width="2321.93" height="57.07"/></g><g id="Group_6" data-name="Group 6"><path id="Path_2" data-name="Path 2" class="cls-5" d="M907,1259.26c21.57,0,64.71-86.28,64.71-86.28s43.14,86.28,64.71,86.28Z" transform="translate(153.3 0)"/><path id="Path_3" data-name="Path 3" class="cls-6" d="M971.67,1173s-18.87,86.28-32.35,86.28h32.35Z" transform="translate(153.3 0)"/></g><g id="Group_7" data-name="Group 7"><path id="Path_4" data-name="Path 4" class="cls-7" d="M1120.36,1260l19-57,57-38,57,38,19,57Z" transform="translate(153.3 0)"/><path id="Path_5" data-name="Path 5" class="cls-8" d="M1158.39,1260l38-57,38,57Z" transform="translate(153.3 0)"/><path id="Path_6" data-name="Path 6" class="cls-9" d="M1120.36,1260l27.93-56.86,48.13-24,48.12,24,27.93,56.86-29.93-50.88-46.12-23.19-46.12,23.19Z" transform="translate(153.3 0)"/></g><g id="Group_8" data-name="Group 8"><path id="Path_7" data-name="Path 7" class="cls-10" d="M807.67,1259.76a63,63,0,1,0-123.28,0Z" transform="translate(153.3 0)"/><path id="Path_8" data-name="Path 8" class="cls-11" d="M772.24,1259.76c-1.27-27-11.31-48-23.52-48s-22.26,21-23.53,48Z" transform="translate(153.3 0)"/><path id="Path_9" data-name="Path 9" class="cls-11" d="M694.5,1259.66A63,63,0,0,1,743.22,1185a61,61,0,0,1,7.25-1.09c-1.47-.1-3-.16-4.44-.16a63.05,63.05,0,0,0-63,63.1,63.93,63.93,0,0,0,1.35,12.93h13.79v-.1Z" transform="translate(153.3 0)"/></g><g id="Group_13" data-name="Group 13"><rect id="Rectangle_5" data-name="Rectangle 5" class="cls-7" x="799.32" y="1208.48" width="34.63" height="18.65" transform="translate(-493.97 1134.75) rotate(-52.91)"/><rect id="Rectangle_6" data-name="Rectangle 6" class="cls-6" x="787.33" y="1200.48" width="16.64" height="19.3" transform="translate(-422.82 745.68) rotate(-37.97)"/><g id="Group_12" data-name="Group 12"><g id="Group_11" data-name="Group 11"><g class="cls-12"><g id="Group_10" data-name="Group 10"><g id="Group_9" data-name="Group 9"><rect id="Rectangle_7" data-name="Rectangle 7" x="944.67" y="1170.72" width="2.46" height="76.91"/><rect id="Rectangle_8" data-name="Rectangle 8" x="953.42" y="1170.72" width="2.46" height="76.91"/><rect id="Rectangle_9" data-name="Rectangle 9" x="962.17" y="1170.72" width="2.46" height="76.91"/><rect id="Rectangle_10" data-name="Rectangle 10" x="970.92" y="1170.72" width="2.46" height="76.91"/><rect id="Rectangle_11" data-name="Rectangle 11" x="979.67" y="1170.72" width="2.46" height="76.91"/><rect id="Rectangle_12" data-name="Rectangle 12" x="922.87" y="1231.36" width="76.91" height="2.46"/><rect id="Rectangle_13" data-name="Rectangle 13" x="922.87" y="1222.61" width="76.91" height="2.46"/><rect id="Rectangle_14" data-name="Rectangle 14" x="922.87" y="1213.85" width="76.91" height="2.46"/></g></g></g></g><path id="Path_11" data-name="Path 11" class="cls-13" d="M777.72,1209.12h58l-5.26,28.36-38.88,4.06Z" transform="translate(153.3 0)"/><circle id="Ellipse_1" data-name="Ellipse 1" class="cls-14" cx="945.04" cy="1262.35" r="3.72"/><path id="Path_12" data-name="Path 12" class="cls-14" d="M835.7,1256.58H794.53s-23,1.37-2.89-15l-18.94-44.06-9.23-1.69" transform="translate(153.3 0)"/><circle id="Ellipse_2" data-name="Ellipse 2" class="cls-14" cx="982.28" cy="1262.35" r="3.72"/></g></g><g id="Group_69" data-name="Group 69"><rect id="Rectangle_15" data-name="Rectangle 15" class="cls-15" x="1762.11" y="744" width="309.78" height="519.52"/><g id="Group_22" data-name="Group 22"><g id="Group_18" data-name="Group 18"><rect id="Rectangle_17" data-name="Rectangle 17" class="cls-16" x="1921.77" y="1088.16" width="75.67" height="175.35"/><g id="Group_17" data-name="Group 17"><g class="cls-17"><g id="Group_16" data-name="Group 16"><g id="Group_15" data-name="Group 15"><g id="Group_14" data-name="Group 14"><rect id="Rectangle_18" data-name="Rectangle 18" class="cls-18" x="1539.45" y="1148.17" width="307.75" height="27.25" transform="translate(-172.25 1537.64) rotate(-45)"/><rect id="Rectangle_19" data-name="Rectangle 19" class="cls-18" x="1562.19" y="1177.61" width="307.75" height="13.85" transform="translate(-181.67 1560.38) rotate(-45)"/></g></g></g></g></g></g><rect id="Rectangle_21" data-name="Rectangle 21" class="cls-16" x="1836.9" y="1088.16" width="75.67" height="175.35"/><g id="Group_21" data-name="Group 21"><g class="cls-19"><g id="Group_20" data-name="Group 20"><g id="Group_19" data-name="Group 19"><rect id="Rectangle_22" data-name="Rectangle 22" class="cls-18" x="1538.58" y="1148.17" width="307.75" height="27.25" transform="translate(-172.5 1537.03) rotate(-45)"/><rect id="Rectangle_23" data-name="Rectangle 23" class="cls-18" x="1561.32" y="1177.61" width="307.75" height="13.85" transform="translate(-181.92 1559.77) rotate(-45)"/></g></g></g></g></g><g id="Group_45" data-name="Group 45"><g id="Group_40" data-name="Group 40"><g class="cls-20"><g id="Group_39" data-name="Group 39"><g id="Group_38" data-name="Group 38"><rect id="Rectangle_485" data-name="Rectangle 485" class="cls-21" x="1806.28" y="911.9" width="217.6" height="163.82"/><path id="Path_13" data-name="Path 13" class="cls-22" d="M1870.58,1042.22v33.5H1653l-.28-33.64,34.16,0,176.89.11Z" transform="translate(153.3 0)"/><path id="Path_14" data-name="Path 14" class="cls-23" d="M1870.58,1053.21v22.51H1676.91a19,19,0,0,1-2.42-9.1,18,18,0,0,1,.43-3.87,18.75,18.75,0,0,1,.54-1.91c.35-.53.7-1,.93-1.41l4.44-7.36,6-10q36.08-59.49,73.68-118.06h29.79l73.42,118.17,5.8,9.33Z" transform="translate(153.3 0)"/><path id="Path_15" data-name="Path 15" class="cls-24" d="M1689.11,1053.11c-.72,3.53,9.1,8.4,15.53,10.76,11.73,4.29,20.26,3.18,38.68,2.48,0,0,19.56-.75,42.78-.28,19.31.39,20.15,1.4,35.46,1.38,18.91,0,42.7,0,44.25-6.34.84-3.41-5-8-10-10.21-11-4.77-17.51,2.55-36.63,2.21-5.84-.11-12.1-1.17-24.62-3.31-10.77-1.84-17-3.44-24.61-.83-5.56,1.92-28.34,7.31-44.84,3.31-9.17-2.22-10.49-3.26-16.11-3.58C1701,1048.23,1689.83,1049.57,1689.11,1053.11Z" transform="translate(153.3 0)"/><path id="Rectangle_485-2" data-name="Rectangle 485-2" class="cls-25" d="M1652.7,1075.72l-.14-163.82h30.75v129.79Z" transform="translate(153.3 0)"/><path id="Path_16" data-name="Path 16" class="cls-26" d="M1942,1081" transform="translate(153.3 0)"/><path id="Path_17" data-name="Path 17" class="cls-27" d="M1706.53,1022.43a5.34,5.34,0,0,1-1.58-2.36A7.36,7.36,0,0,0,1706.53,1022.43Z" transform="translate(153.3 0)"/><path id="Path_18" data-name="Path 18" class="cls-27" d="M1707.84,1023.53a8.46,8.46,0,0,1-1.26-1A14,14,0,0,0,1707.84,1023.53Z" transform="translate(153.3 0)"/><path id="Path_19" data-name="Path 19" class="cls-27" d="M1706.8,1026.29a5.42,5.42,0,0,1-1.58-2.36A7.52,7.52,0,0,0,1706.8,1026.29Z" transform="translate(153.3 0)"/><path id="Path_20" data-name="Path 20" class="cls-27" d="M1708.12,1027.39a8.54,8.54,0,0,1-1.27-1.05A11.6,11.6,0,0,0,1708.12,1027.39Z" transform="translate(153.3 0)"/><ellipse id="Ellipse_6" data-name="Ellipse 6" class="cls-28" cx="1929.42" cy="923.07" rx="13.97" ry="1.79"/><g id="Group_37" data-name="Group 37"><rect id="Rectangle_34" data-name="Rectangle 34" class="cls-29" x="1926.5" y="911.9" width="4.71" height="5.79"/><path id="Path_67" data-name="Path 67" class="cls-29" d="M1790.88,921.28v3.59c0-.66-.75-1.27-2-1.8-2.62-1.07-7.52-1.79-13.13-1.79s-10.52.72-13.14,1.79c-1.29.53-2,1.14-2,1.8v-3.59c0-2,6.79-3.59,15.17-3.59S1790.88,919.3,1790.88,921.28Z" transform="translate(153.3 0)"/><path id="Path_68" data-name="Path 68" class="cls-30" d="M1790.88,924.87c0,2-6.8,3.58-15.17,3.58s-15.17-1.61-15.17-3.58c0-.66.74-1.27,2-1.8,2.62-1.07,7.52-1.79,13.14-1.79s10.51.72,13.13,1.79C1790.14,923.6,1790.88,924.21,1790.88,924.87Z" transform="translate(153.3 0)"/></g></g></g></g><g id="Group_71" data-name="Group 71"><circle id="Ellipse_13" data-name="Ellipse 13" class="cls-31" cx="1989.78" cy="958.21" r="3.7"/><rect id="Rectangle_70" data-name="Rectangle 70" class="cls-31" x="1988.2" y="959.8" width="3.17" height="85.15"/><path id="Path_127" data-name="Path 127" class="cls-31" d="M1836.75,1037c6.57,0,11.9,8.2,11.9,8.2h-23.8S1830.17,1037,1836.75,1037Z" transform="translate(153.3 0)"/><path id="Rectangle_71" data-name="Rectangle 71" class="cls-31" d="M1819.44,969.28l17.4,7.75a1.6,1.6,0,0,1,.81,2.1h0a1.59,1.59,0,0,1-2.1.8l-17.4-7.75a1.59,1.59,0,0,1-.81-2.09h0A1.6,1.6,0,0,1,1819.44,969.28Z" transform="translate(153.3 0)"/><path id="Rectangle_72" data-name="Rectangle 72" class="cls-31" d="M1854.82,982.23,1837.41,990a1.57,1.57,0,0,1-2.09-.8h0a1.59,1.59,0,0,1,.8-2.1l17.4-7.75a1.6,1.6,0,0,1,2.1.81h0A1.57,1.57,0,0,1,1854.82,982.23Z" transform="translate(153.3 0)"/></g><g id="Group_70" data-name="Group 70"><rect id="Rectangle_67" data-name="Rectangle 67" class="cls-32" x="1837.99" y="1023.27" width="95.73" height="17.98" rx="7.4"/><rect id="Rectangle_68" data-name="Rectangle 68" class="cls-33" x="1864.96" y="1016.39" width="67.17" height="28.03" rx="6.35"/><rect id="Rectangle_64" data-name="Rectangle 64" class="cls-34" x="1834.81" y="1000.25" width="6.3" height="53.17"/><rect id="Rectangle_65" data-name="Rectangle 65" class="cls-34" x="1840.63" y="1036.55" width="92.88" height="9.4"/><rect id="Rectangle_66" data-name="Rectangle 66" class="cls-34" x="1931.93" y="1011.57" width="6.3" height="41.84"/><circle id="Ellipse_11" data-name="Ellipse 11" class="cls-34" cx="1837.72" cy="996.56" r="3.97"/><circle id="Ellipse_12" data-name="Ellipse 12" class="cls-34" cx="1935.04" cy="1007.66" r="3.97"/><path id="Path_125" data-name="Path 125" class="cls-34" d="M1689.44,1040.19a5.43,5.43,0,0,1,5.29,5.55,2.9,2.9,0,0,1-2.84,3.07c-2,0-4.12,1.46-4.11,3.54,0,3.61-3.62-3.54-3.62-6.61A5.42,5.42,0,0,1,1689.44,1040.19Z" transform="translate(153.3 0)"/><path id="Path_126" data-name="Path 126" class="cls-34" d="M1777.24,1040.19a5.43,5.43,0,0,0-5.29,5.55,3.21,3.21,0,0,0,2.85,3.07c1.69.09,4,1.52,4,3.6,0,3.61,3.68-3.6,3.68-6.67A5.43,5.43,0,0,0,1777.24,1040.19Z" transform="translate(153.3 0)"/><path id="Rectangle_69" data-name="Rectangle 69" class="cls-35" d="M1694.73,1016.39h10.58a5.29,5.29,0,0,1,5.29,5.29h0a5.29,5.29,0,0,1-5.29,5.29h-10.58a5.29,5.29,0,0,1-5.29-5.29h0A5.29,5.29,0,0,1,1694.73,1016.39Z" transform="translate(153.3 0)"/></g></g><g id="Group_44" data-name="Group 44" class="cls-36"><rect id="Rectangle_36" data-name="Rectangle 36" class="cls-37" x="1812.27" y="920.89" width="209.46" height="132.26"/><g id="Group_43" data-name="Group 43"><g class="cls-20"><g id="Group_42" data-name="Group 42"><g id="Group_41" data-name="Group 41"><rect id="Rectangle_37" data-name="Rectangle 37" class="cls-18" x="1529.35" y="978.57" width="311.03" height="27.54" transform="translate(-54.9 1482.03) rotate(-45)"/><rect id="Rectangle_38" data-name="Rectangle 38" class="cls-18" x="1552.33" y="1008.32" width="311.03" height="13.99" transform="translate(-64.42 1505.01) rotate(-45)"/></g></g></g></g></g></g><g id="Group_68" data-name="Group 68"><g id="Group_63" data-name="Group 63"><g class="cls-38"><g id="Group_62" data-name="Group 62"><g id="Group_61" data-name="Group 61"><rect id="Rectangle_485-3" data-name="Rectangle 485-3" class="cls-21" x="1806.28" y="760.52" width="217.6" height="163.82"/><path id="Path_69" data-name="Path 69" class="cls-22" d="M1870.58,890.84v33.51H1653l-.28-33.65,34.16,0,176.89.11Z" transform="translate(153.3 0)"/><path id="Path_70" data-name="Path 70" class="cls-23" d="M1870.58,901.83v22.52H1676.91a19,19,0,0,1-2.42-9.11,17.84,17.84,0,0,1,.43-3.86,18.23,18.23,0,0,1,.54-1.92c.35-.53.7-1,.93-1.41l4.44-7.36,6-10q36.08-59.49,73.68-118.06h29.79l73.42,118.17,5.8,9.33Z" transform="translate(153.3 0)"/><path id="Path_71" data-name="Path 71" class="cls-24" d="M1689.11,901.73c-.72,3.53,9.1,8.4,15.53,10.76,11.73,4.29,20.26,3.18,38.68,2.48,0,0,19.56-.75,42.78-.28,19.31.39,20.15,1.4,35.46,1.38,18.91,0,42.7,0,44.25-6.34.84-3.41-5-8-10-10.21-11-4.77-17.51,2.55-36.63,2.21-5.84-.11-12.1-1.17-24.62-3.31-10.77-1.84-17-3.44-24.61-.83-5.56,1.92-28.34,7.31-44.84,3.31-9.17-2.22-10.49-3.26-16.11-3.58C1701,896.86,1689.83,898.19,1689.11,901.73Z" transform="translate(153.3 0)"/><path id="Rectangle_485-4" data-name="Rectangle 485-4" class="cls-25" d="M1652.7,924.35l-.14-163.83h30.75V890.31Z" transform="translate(153.3 0)"/><path id="Path_72" data-name="Path 72" class="cls-26" d="M1942,929.59" transform="translate(153.3 0)"/><path id="Path_73" data-name="Path 73" class="cls-27" d="M1706.53,871.05a5.34,5.34,0,0,1-1.58-2.36A7.36,7.36,0,0,0,1706.53,871.05Z" transform="translate(153.3 0)"/><path id="Path_74" data-name="Path 74" class="cls-27" d="M1707.84,872.15a8.46,8.46,0,0,1-1.26-1A14,14,0,0,0,1707.84,872.15Z" transform="translate(153.3 0)"/><path id="Path_75" data-name="Path 75" class="cls-27" d="M1706.8,874.91a5.42,5.42,0,0,1-1.58-2.36A7.52,7.52,0,0,0,1706.8,874.91Z" transform="translate(153.3 0)"/><path id="Path_76" data-name="Path 76" class="cls-27" d="M1708.12,876a8.54,8.54,0,0,1-1.27-1A11.6,11.6,0,0,0,1708.12,876Z" transform="translate(153.3 0)"/><g id="Group_59" data-name="Group 59"><g id="Group_46" data-name="Group 46"><path id="Path_77" data-name="Path 77" class="cls-39" d="M1774.58,863.62c1.11,0,2,.57,2,1.27v.05h0v38.92h0v.06c0,.7-.91,1.27-2,1.27s-2-.57-2-1.27v-.06h0V864.94h0v-.06C1772.55,864.19,1773.46,863.62,1774.58,863.62Z" transform="translate(153.3 0)"/><path id="Path_78" data-name="Path 78" class="cls-39" d="M1808.32,864.53a2.41,2.41,0,0,1-2.06,2.64h-63.54a2.72,2.72,0,0,1,0-5.28h63.54A2.4,2.4,0,0,1,1808.32,864.53Z" transform="translate(153.3 0)"/><path id="Path_79" data-name="Path 79" class="cls-39" d="M1787.75,903.69c0,1-.37,1.77-.81,1.77h-25c-.45,0-.81-.79-.81-1.77s.36-1.78.81-1.78h25C1787.38,901.91,1787.75,902.7,1787.75,903.69Z" transform="translate(153.3 0)"/></g><g id="Group_51" data-name="Group 51"><g id="Group_47" data-name="Group 47"><line id="Line_9" data-name="Line 9" class="cls-1" x1="1863.79" y1="880.65" x2="1857.98" y2="902.48"/><rect id="Rectangle_41" data-name="Rectangle 41" class="cls-31" x="1696.29" y="890.47" width="22.59" height="2.19" transform="translate(559.83 2312.12) rotate(-75.08)"/></g><g id="Group_48" data-name="Group 48"><line id="Line_10" data-name="Line 10" class="cls-1" x1="1872.49" y1="882.75" x2="1870.81" y2="907.61"/><rect id="Rectangle_42" data-name="Rectangle 42" class="cls-31" x="1705.89" y="894.09" width="24.92" height="2.19" transform="translate(862.39 2549.11) rotate(-86.13)"/></g><g id="Group_49" data-name="Group 49"><line id="Line_11" data-name="Line 11" class="cls-1" x1="1874.79" y1="877.39" x2="1880.43" y2="901.4"/><rect id="Rectangle_43" data-name="Rectangle 43" class="cls-31" x="1723.22" y="877.06" width="2.19" height="24.68" transform="translate(-4.49 418.26) rotate(-13.23)"/></g><g id="Group_50" data-name="Group 50"><line id="Line_12" data-name="Line 12" class="cls-1" x1="1884.66" y1="880.41" x2="1890.3" y2="904.43"/><rect id="Rectangle_44" data-name="Rectangle 44" class="cls-31" x="1733.08" y="880.09" width="2.19" height="24.67" transform="translate(-4.76 419.94) rotate(-13.21)"/></g><path id="Path_80" data-name="Path 80" class="cls-39" d="M1707.71,851.92c-6.46,4.23-3.89,14.59-3.11,20.51.69,5.28,2.78,7.49,10,9.84,6.93,2.28,19.06.65,19.31-1.59.75-6.74-4.76-4-7.44-9.59-3.12-6.48,1.74-10.54-1.24-15.75C1722.53,850.67,1713,848.45,1707.71,851.92Z" transform="translate(153.3 0)"/><path id="Path_81" data-name="Path 81" class="cls-40" d="M1710,851.27c-3,2.92-2.43,12.17-1.78,17.78.58,5,2,8.09,8.36,10.28,6.14,2.12,16.71.83,17-1.3.45-4.12-4.55-2.38-6.81-7.68-3-7.12,1.37-10.63-1.24-15.55C1723.11,850.38,1713.74,847.6,1710,851.27Z" transform="translate(153.3 0)"/></g><g id="Group_56" data-name="Group 56"><g id="Group_52" data-name="Group 52"><line id="Line_13" data-name="Line 13" class="cls-1" x1="1988" y1="880.26" x2="1993.66" y2="902.15"/><rect id="Rectangle_45" data-name="Rectangle 45" class="cls-31" x="1836.44" y="879.9" width="2.19" height="22.61" transform="translate(-11.57 489.74) rotate(-14.54)"/></g><g id="Group_53" data-name="Group 53"><line id="Line_14" data-name="Line 14" class="cls-1" x1="1979.28" y1="882.27" x2="1980.8" y2="907.14"/><rect id="Rectangle_46" data-name="Rectangle 46" class="cls-31" x="1825.64" y="882.24" width="2.19" height="24.92" transform="translate(102.18 112.96) rotate(-3.49)"/></g><g id="Group_54" data-name="Group 54"><line id="Line_15" data-name="Line 15" class="cls-1" x1="1977.02" y1="876.87" x2="1971.22" y2="900.82"/><rect id="Rectangle_47" data-name="Rectangle 47" class="cls-31" x="1808.5" y="887.75" width="24.64" height="2.19" transform="translate(682.28 2449.79) rotate(-76.41)"/></g><g id="Group_55" data-name="Group 55"><line id="Line_16" data-name="Line 16" class="cls-1" x1="1967.13" y1="879.78" x2="1961.33" y2="903.73"/><rect id="Rectangle_48" data-name="Rectangle 48" class="cls-31" x="1798.6" y="890.66" width="24.64" height="2.19" transform="translate(671.88 2442.4) rotate(-76.41)"/></g><path id="Path_82" data-name="Path 82" class="cls-39" d="M1837.67,851.57c6.43,4.3,3.79,14.63,3,20.54-.73,5.27-2.83,7.46-10,9.73-6.95,2.19-19.07.42-19.3-1.83-.7-6.74,4.79-4,7.51-9.49,3.16-6.44-1.68-10.56,1.34-15.73C1822.86,850.15,1832.38,848,1837.67,851.57Z" transform="translate(153.3 0)"/><path id="Path_83" data-name="Path 83" class="cls-40" d="M1835.4,850.89c3,3,2.35,12.2,1.67,17.8-.62,5-2,8.07-8.43,10.18-6.16,2-16.73.64-17-1.49-.43-4.13,4.57-2.33,6.86-7.6,3.09-7.09-1.3-10.64,1.35-15.54C1822.28,849.85,1831.67,847.18,1835.4,850.89Z" transform="translate(153.3 0)"/></g><g id="Group_57" data-name="Group 57"><path id="Path_84" data-name="Path 84" class="cls-41" d="M1748.3,899.16l8.18,1.48a.31.31,0,0,1,.25.36.29.29,0,0,1-.27.25l-8.11.91a.82.82,0,0,1-.9-.73.17.17,0,0,1,0-.07l0-1.45a.77.77,0,0,1,.75-.77Z" transform="translate(153.3 0)"/><path id="Path_85" data-name="Path 85" class="cls-42" d="M1752.38,887c-.14,4.64-.4,12.62-2.8,13.15a2.18,2.18,0,0,1-1.72-.68c-1.3-1-2.56-3.14-2.37-12.36,0-2.38.2-5.59.65-9.41a80.18,80.18,0,0,1-12,.77c-7.72-.09-11.63-.2-13.84-3s-2.6-8.56,0-10.89c2.16-1.93,5.62-1,6.15-.86a8.92,8.92,0,0,1,4.61,3.14l5.32.93q7.71,1.38,15.14,2.92A98,98,0,0,1,1752.38,887Z" transform="translate(153.3 0)"/><path id="Path_86" data-name="Path 86" class="cls-43" d="M1757.37,853.22c.12,1.53-4.11,3.09-9.44,3.49-4.47.34-8.3-.24-9.49-1.34a5.63,5.63,0,0,0-.81-.65,29.78,29.78,0,0,1-5.2-4.23c-4.21-4.21-6.62-8.63-5.37-9.87s5.66,1.17,9.87,5.38a30.89,30.89,0,0,1,4,4.79c2.14.08,5.16.51,6.61.4C1752.84,850.78,1757.26,851.69,1757.37,853.22Z" transform="translate(153.3 0)"/><path id="Path_87" data-name="Path 87" class="cls-44" d="M1735.67,833.8l-1.2.37a4.4,4.4,0,0,1-3.89,3.08,3.55,3.55,0,0,1-1-.14l0,.1a8.12,8.12,0,0,0-.73-.56c-.95-.66-1.84-1-2-.82s.52.9,1.47,1.56a9.88,9.88,0,0,0,1.08.64l0,.28a3.54,3.54,0,0,1,.54.73h0a3.19,3.19,0,0,1,.45,1.91h0a1.28,1.28,0,0,1-.55.92.93.93,0,0,1-.33.12,2.13,2.13,0,0,1-1.78-.89h0l-.09-.12h-.06l-.94-.19c-.41-.44-.47-.71-1.45-1.74-.25-.26-.49-.51-.63-.68l0-.13s0,0,0-.08c.1-.55.73-3.72.76-3.85l1.15-.69.43-.25.65-.39.33-.47a1.7,1.7,0,0,1-.33-1c0-.75.41-1.35.9-1.35a.75.75,0,0,1,.6.34v.95h1.5v-1.5a22.69,22.69,0,0,0,3.92-.62,6.86,6.86,0,0,1,.43,2.42Z" transform="translate(153.3 0)"/><path id="Path_88" data-name="Path 88" class="cls-29" d="M1736.27,828.52a5.84,5.84,0,0,1-1.78.76,22.69,22.69,0,0,1-3.92.62v1.5h-1.5v-.94a.73.73,0,0,0-.6-.35c-.49,0-.89.61-.89,1.35a1.69,1.69,0,0,0,.32,1l-.32.47-.66.39-.43.25-1.15.69-.16.1s-2.4-6.51.6-8.58,10.49-.15,11.39-1.74S1738.07,827.25,1736.27,828.52Z" transform="translate(153.3 0)"/><ellipse id="Ellipse_7" data-name="Ellipse 7" class="cls-45" cx="1733.67" cy="831.65" rx="0.69" ry="0.23" transform="translate(299.91 1917.23) rotate(-60)"/><path id="Path_89" data-name="Path 89" class="cls-45" d="M1732.67,834.4a1.16,1.16,0,0,0,1,1.12Z" transform="translate(153.3 0)"/><path id="Path_90" data-name="Path 90" class="cls-46" d="M1729.59,837.21l-.16.82a9.88,9.88,0,0,1-1.08-.64c-.95-.66-1.61-1.36-1.47-1.56s1,.16,2,.82A8.12,8.12,0,0,1,1729.59,837.21Z" transform="translate(153.3 0)"/><path id="Path_91" data-name="Path 91" class="cls-47" d="M1730.87,841.06a1.63,1.63,0,0,1-.76,1.05c-1.23.62-3.24-1.24-3.36-1.35l-.21-.2c-.41-.45-.7-.72-1.7-1.74-.25-.27-.28-.06-.42-.23s-.15-.17-.12-.2.15-.26.23-.23a1.91,1.91,0,0,1,.45.23,7.87,7.87,0,0,1,2.07,1.92,6,6,0,0,0,.45.43l.16.13h0a3.86,3.86,0,0,0,1.81.89.79.79,0,0,0,.48-.1,1.13,1.13,0,0,0,.41-.94h0a2.68,2.68,0,0,0-.1-.85,6.61,6.61,0,0,0-.69-1.35s0,.07.33.29a2.68,2.68,0,0,1,.66.76A1.88,1.88,0,0,1,1730.87,841.06Z" transform="translate(153.3 0)"/><path id="Path_92" data-name="Path 92" class="cls-48" d="M1739,901.11l8.13,1.72a.32.32,0,0,1,.24.37.31.31,0,0,1-.28.24l-8.13.67a.83.83,0,0,1-.89-.75v-.08l0-1.45a.75.75,0,0,1,.76-.74Z" transform="translate(153.3 0)"/><path id="Path_93" data-name="Path 93" class="cls-44" d="M1757.25,848.94c-.9,0-3.77,2-2.39,4.19,1,1.61,4.08,1.61,6,.45s2.6-3.25,2.25-3.59c-1.2-1.2-3.58,2.13-5.7,1.49C1755.91,851,1758.6,848.94,1757.25,848.94Z" transform="translate(153.3 0)"/><path id="Path_94" data-name="Path 94" class="cls-49" d="M1747.4,887.79c-.16,4.68-2.49,13.63-5,14.17-.71.15-2.26.37-2.75,0-1.38-1-2.09-4.43,0-13.49.69-3,2.05-6,2.52-9.83a77.51,77.51,0,0,1-11.6.54c-8.2-.09-12.35-.19-14.7-3.06s-2.76-8.63,0-11c2.3-1.95,6-1,6.54-.86a9.47,9.47,0,0,1,4.89,3.16l5.65.94c5.46.93,9.21,2.14,14.48,3.17C1748.37,878.39,1747.53,883.8,1747.4,887.79Z" transform="translate(153.3 0)"/><path id="Path_95" data-name="Path 95" class="cls-50" d="M1724.58,838.3c-.73-.25-1.6,1.6-2.85,3.59-1.84,2.94-5.09,7.5-5.69,10.49-.86,4.3-3.61,17.8-2.26,17.8,3.94,0,11.39-3.55,16.35-2.06,1.49.45,4.84-25.52.35-28.82-.06,0,.81,1.86-.2,2.74-.85.74-1.62.3-2.85-.75C1725.56,839.71,1725,838.44,1724.58,838.3Z" transform="translate(153.3 0)"/><path id="Path_96" data-name="Path 96" class="cls-43" d="M1750.33,860c.11,1.53-4.12,3.1-9.45,3.5a24,24,0,0,1-7.64-.48c-1.75-.14-4.8-2.85-7.41-6.74-3.1-4.61-4.43-9.13-3-10.11s5.14,2,8.23,6.57a26.18,26.18,0,0,1,3,5.78,34.56,34.56,0,0,1,6.38-.55C1745.8,857.53,1750.21,858.44,1750.33,860Z" transform="translate(153.3 0)"/><path id="Path_97" data-name="Path 97" class="cls-44" d="M1749.76,854.93c-.9,0-3.77,2-2.4,4.2,1,1.61,4.09,1.61,6,.45s2.59-3.25,2.25-3.6c-1.2-1.2-3.58,2.14-5.7,1.5C1748.41,857,1751.11,854.93,1749.76,854.93Z" transform="translate(153.3 0)"/></g><g id="Group_58" data-name="Group 58"><path id="Path_98" data-name="Path 98" class="cls-51" d="M1810.52,828.32c.23,2.06,1.91,2.67,3.89,4.81s.57,4.46.68,7.32c.19,4.9-1.15,5.57-.23,6.17,1.31.86,7.55-.84,8.92-5,1.09-3.31-.68-6.33-2.51-10.52-1.41-3.22-2.21-5.05-4.12-5.72C1813.85,824.21,1810.32,826.58,1810.52,828.32Z" transform="translate(153.3 0)"/><path id="Path_99" data-name="Path 99" class="cls-41" d="M1798.27,898.47l-8.18,1.48a.32.32,0,0,0-.25.37.33.33,0,0,0,.27.25l8.11.9a.82.82,0,0,0,.91-.72v-.08l0-1.45a.74.74,0,0,0-.74-.76Z" transform="translate(153.3 0)"/><path id="Path_100" data-name="Path 100" class="cls-52" d="M1794.88,886.29c.15,4.65.17,12.62,2.57,13.16.66.15.8-.32,1.26-.68,1.31-1,1.48-2.46,1.29-11.67,0-2.38.21-8.54-.23-12.35,2.89.41,7.69,3.07,12.66,3,7.73-.09,11.64-.19,13.85-3,2.32-3,2.6-8.56,0-10.89-2.17-1.94-5.62-1-6.16-.86a9,9,0,0,0-4.61,3.14l-5.32.93c-5.13.92-9.26,1.89-14.22,2.91A102.63,102.63,0,0,0,1794.88,886.29Z" transform="translate(153.3 0)"/><path id="Path_101" data-name="Path 101" class="cls-53" d="M1793.59,853.94c-.09,1.09,2.61,1.73,7,1a21.77,21.77,0,0,0,7.53-2.79,5.4,5.4,0,0,1,.68-.46,24.82,24.82,0,0,0,4.37-3c3.55-3,5.58-6.16,4.53-7s-1.5-.46-6.71,3.84a40.71,40.71,0,0,0-4.63,3.94,25.48,25.48,0,0,0-5.49,2.51C1798.4,853.25,1793.69,852.85,1793.59,853.94Z" transform="translate(153.3 0)"/><path id="Path_102" data-name="Path 102" class="cls-44" d="M1810.9,833.34l1.21.38a4.37,4.37,0,0,0,3.89,3.07,3.48,3.48,0,0,0,1-.14l0,.1c.21-.18.46-.37.73-.56,1-.66,1.84-1,2-.82s-.51.9-1.47,1.56a7.31,7.31,0,0,1-1.08.64l.06.29a3.92,3.92,0,0,0-.55.72h0a3.09,3.09,0,0,0-.45,1.9h0a1.19,1.19,0,0,0,.55.92,1,1,0,0,0,.32.12,2.08,2.08,0,0,0,1.78-.89h0l.1-.12h0l1-.18c.41-.45.47-.72,1.44-1.74.25-.27.5-.51.64-.68a1.2,1.2,0,0,1,0-.14.28.28,0,0,1,0-.08c-.11-.55-.74-3.72-.76-3.85l-1.16-.68-.42-.26-.66-.39-.32-.47a1.67,1.67,0,0,0,.32-1c0-.74-.4-1.35-.9-1.35a.76.76,0,0,0-.6.35v.94H1816v-1.5a22.42,22.42,0,0,1-3.91-.62,6.72,6.72,0,0,0-.43,2.42Z" transform="translate(153.3 0)"/><ellipse id="Ellipse_8" data-name="Ellipse 8" class="cls-45" cx="1812.82" cy="831.04" rx="0.19" ry="0.58" transform="translate(-19.35 1017.75) rotate(-30)"/><path id="Path_103" data-name="Path 103" class="cls-45" d="M1813.9,833.71a1.17,1.17,0,0,1-1.05,1.13Z" transform="translate(153.3 0)"/><path id="Path_104" data-name="Path 104" class="cls-46" d="M1817,836.52l.16.82a7.31,7.31,0,0,0,1.08-.64c1-.65,1.61-1.35,1.47-1.56s-1,.16-2,.82C1817.46,836.14,1817.21,836.32,1817,836.52Z" transform="translate(153.3 0)"/><path id="Path_105" data-name="Path 105" class="cls-47" d="M1815.7,840.61a1.7,1.7,0,0,0,.75,1c1.21.61,3.18-1.24,3.29-1.35l.21-.21c.41-.45.47-.72,1.44-1.74.25-.27.5-.51.64-.68s.13-.19.11-.22-.07,0-.15,0a2.77,2.77,0,0,0-.6.29c-1,.62-1.26,1.35-2,2.1a6,6,0,0,1-.44.43l-.15.12h0a3.76,3.76,0,0,1-1.78.89.77.77,0,0,1-.47-.09,1.13,1.13,0,0,1-.4-1h0a2.48,2.48,0,0,1,.1-.85,3.83,3.83,0,0,1,.89-1.35s-.26.07-.54.29a2.79,2.79,0,0,0-.65.76A2,2,0,0,0,1815.7,840.61Z" transform="translate(153.3 0)"/><path id="Path_106" data-name="Path 106" class="cls-48" d="M1807.59,900.42l-8.13,1.72a.31.31,0,0,0-.24.37.3.3,0,0,0,.28.25l8.13.66a.8.8,0,0,0,.88-.75s0,0,0-.07v-1.45a.76.76,0,0,0-.76-.75Z" transform="translate(153.3 0)"/><path id="Path_107" data-name="Path 107" class="cls-54" d="M1794.36,851.45c.68,0,2.83,1.51,1.8,3.14-.76,1.2-3.06,1.2-4.49.34s-1.94-2.43-1.68-2.69c.9-.9,2.68,1.59,4.26,1.12C1795.37,853,1793.35,851.45,1794.36,851.45Z" transform="translate(153.3 0)"/><path id="Path_108" data-name="Path 108" class="cls-55" d="M1799.86,887.1c.6,5.26,2.4,13.87,4.94,14.41.71.15,1.75.23,2.15-.23.6-.69,1.41-4.44-.69-13.49-.68-3-.89-7.14-1.37-11a61.55,61.55,0,0,0,11.14,1c8.21-.09,12.36.49,14.7-2.37,2.48-3,2.77-8.63,0-11-2.3-2-6-1-6.53-.87a9.41,9.41,0,0,0-4.9,3.17c-1.87.3-3.76.84-5.65,1.16-5.45.93-8.52,1.91-13.79,2.94A61.32,61.32,0,0,0,1799.86,887.1Z" transform="translate(153.3 0)"/><path id="Path_109" data-name="Path 109" class="cls-56" d="M1822,837.61c.73-.24,1.6,1.61,2.85,3.6a45.6,45.6,0,0,1,4.66,13.64c.69,7.78,4.64,14.64,3.29,14.64-3.94,0-11.39-3.55-16.34-2.06-.81.24,4.13-7.32-.67-13.72-3.77-5-1.7-13.23.37-14.75.06-.05-.87,1.51.15,2.39.84.74,1.61.3,2.85-.75C1821,839,1821.54,837.76,1822,837.61Z" transform="translate(153.3 0)"/><path id="Path_110" data-name="Path 110" class="cls-57" d="M1799.09,856.82c-.1,1.11,3.33,2.26,7.64,2.55,2.48.17,5.29.42,6.76.06,1.42-.11,3.3-2.48,5.42-5.32,2.5-3.35,3.58-6.64,2.4-7.35s-3.47,1.42-6,4.78c-1.11,1.48-2.31,2.86-3.11,4.2-1.71,0-4.33.12-5.16.06C1802.75,855.51,1799.18,855.71,1799.09,856.82Z" transform="translate(153.3 0)"/><path id="Path_111" data-name="Path 111" class="cls-29" d="M1810.52,828.33c.23,2,3.74.83,5.72,3s.12,3.55.22,6.4c.19,4.9-1.15,6.94-.22,7.55,1.3.85,7.54-.84,8.92-5,1.08-3.31-.69-6.33-2.52-10.52-1.41-3.23-2.2-5.06-4.12-5.72C1815.23,822.83,1810.32,826.58,1810.52,828.33Z" transform="translate(153.3 0)"/><ellipse id="Ellipse_9" data-name="Ellipse 9" class="cls-58" cx="1948.27" cy="849.48" rx="8.46" ry="3.32"/><path id="Path_112" data-name="Path 112" class="cls-59" d="M1788.79,849.82c0-.23.46-1.6,1.38-1.6s.68,3,1.37,3,.4-2.27.66-2.28,1.17,1.83,1.17,1.83" transform="translate(153.3 0)"/><path id="Path_113" data-name="Path 113" class="cls-59" d="M1801.14,849.25c.18.14.94,1.37.36,2.07s-2.73-1.36-3.17-.84,1.5,1.77,1.34,2-2.15-.27-2.15-.27" transform="translate(153.3 0)"/><path id="Path_114" data-name="Path 114" class="cls-59" d="M1793.9,849.05c.21-.09,1.65-.25,2,.58s-2.41,1.87-2.12,2.49,2.24-.59,2.35-.36-1.17,1.83-1.17,1.83" transform="translate(153.3 0)"/><path id="Path_115" data-name="Path 115" class="cls-60" d="M1789.86,852.81c-.11-.19-.43-1.61.36-2.08s2.11,2.2,2.7,1.85-.82-2.16-.61-2.3,2,1,2,1" transform="translate(153.3 0)"/><path id="Path_116" data-name="Path 116" class="cls-60" d="M1796.18,850.85c.22,0,1.56.58,1.48,1.49s-3,.45-3.07,1.14,2.24.58,2.22.83-1.91,1-1.91,1" transform="translate(153.3 0)"/><path id="Path_117" data-name="Path 117" class="cls-29" d="M1803.43,849.48a8.47,8.47,0,0,1-16.93,0c0,1.35,3.79,2.44,8.47,2.44S1803.43,850.83,1803.43,849.48Z" transform="translate(153.3 0)"/><path id="Path_118" data-name="Path 118" class="cls-44" d="M1798.3,853.54c.71,0,3,1.6,1.9,3.33-.8,1.28-3.24,1.28-4.76.36s-2.06-2.58-1.78-2.85c.95-1,2.84,1.69,4.52,1.19C1799.37,855.21,1797.23,853.54,1798.3,853.54Z" transform="translate(153.3 0)"/><path id="Path_119" data-name="Path 119" class="cls-59" d="M1791.53,848.59c-.15-.16-.74-1.48-.07-2.1s2.52,1.72,3,1.26-1.24-2-1.06-2.13,2.1.55,2.1.55" transform="translate(153.3 0)"/><path id="Path_120" data-name="Path 120" class="cls-59" d="M1796.59,847.77c0-.22.29-1.64,1.2-1.73s1,2.88,1.68,2.81.16-2.3.41-2.34,1.36,1.7,1.36,1.7" transform="translate(153.3 0)"/><path id="Path_121" data-name="Path 121" class="cls-60" d="M1795.58,850.52c-.12-.19-.43-1.6.35-2.07s2.12,2.19,2.71,1.84-.82-2.16-.61-2.3,1.94,1,1.94,1" transform="translate(153.3 0)"/><path id="Path_122" data-name="Path 122" class="cls-60" d="M1790.41,846.85c.11-.2,1.18-1.17,2-.72s-.87,2.93-.27,3.27,1.47-1.79,1.7-1.66.12,2.16.12,2.16" transform="translate(153.3 0)"/></g></g><ellipse id="Ellipse_10" data-name="Ellipse 10" class="cls-28" cx="1929.42" cy="771.69" rx="13.97" ry="1.79"/><g id="Group_60" data-name="Group 60"><rect id="Rectangle_49" data-name="Rectangle 49" class="cls-29" x="1926.5" y="760.52" width="4.71" height="5.79"/><path id="Path_123" data-name="Path 123" class="cls-29" d="M1790.88,769.9v3.58c0-.65-.75-1.26-2-1.79-2.62-1.07-7.52-1.79-13.13-1.79s-10.52.72-13.14,1.79c-1.29.53-2,1.14-2,1.79V769.9c0-2,6.79-3.59,15.17-3.59S1790.88,767.92,1790.88,769.9Z" transform="translate(153.3 0)"/><path id="Path_124" data-name="Path 124" class="cls-30" d="M1790.88,773.48c0,2-6.8,3.59-15.17,3.59s-15.17-1.61-15.17-3.59c0-.65.74-1.26,2-1.79,2.62-1.07,7.52-1.79,13.14-1.79s10.51.72,13.13,1.79C1790.14,772.22,1790.88,772.83,1790.88,773.48Z" transform="translate(153.3 0)"/></g></g></g></g></g><g id="Group_67" data-name="Group 67" class="cls-36"><rect id="Rectangle_51" data-name="Rectangle 51" class="cls-37" x="1812.27" y="769.51" width="209.46" height="132.26"/><g id="Group_66" data-name="Group 66"><g class="cls-38"><g id="Group_65" data-name="Group 65"><g id="Group_64" data-name="Group 64"><rect id="Rectangle_52" data-name="Rectangle 52" class="cls-18" x="1529.35" y="827.19" width="311.03" height="27.54" transform="translate(52.14 1437.69) rotate(-45)"/><rect id="Rectangle_53" data-name="Rectangle 53" class="cls-18" x="1552.33" y="856.94" width="311.03" height="13.99" transform="translate(42.62 1460.67) rotate(-45)"/></g></g></g></g></g></g></g></g><path id="路径_1819" data-name="路径 1819" class="cls-61" d="M2109.93,838.37v18.2h-12.51v19.49h-10v258.69h-25.85V739.57h-10v-26H1997.4l.14-.05v0h54.21l-34-100.91.09-.47-.22.09v0l-82,34.57-27.93,93.31-.1,0v24.95l-8.62,2.5V968.36H1823v96.19h-10.84v-35.1H1793.8v35.1H1783v-373l.2,0-39-179.48-80,23.43-48.88,191.18h0v331.44h-10v-24.7h-26.92v-77h-17.62V849.18c0-.38,0-.76,0-1.14,0-23.69-9.3-44-22.52-52.54V771.82c0-9.41-3.83-17.4-9.2-20.44V730.69h-11v21.64c-4.6,3.57-7.76,10.94-7.76,19.49v24c-12.92,8.75-21.9,28.91-21.74,52.24,0,.16,0,.32,0,.48h-.07V956.31h-21.13l-12.89,31.11-97.89-74.64V871h-14.23v41.76l-97.87,74.64-12.89-31.11h-21.14V848.52h-.07V848c.16-23.33-8.82-43.49-21.74-52.24v-24c0-8.54-3.16-15.92-7.76-19.48V730.69h-11v20.68c-5.37,3-9.21,11-9.21,20.45V795.5c-13.21,8.55-22.51,28.85-22.51,52.54,0,.55,0,1.09,0,1.63V956.32h-17.63v101.73h-14.92V865.67h-166v192.38H925.43v-299H902.91V730.48l-15.76-28.91H868.93L844.35,744v26.15l.18.16v27.78h-15v244.38H815.33v-24.69h-10v24.69h-6.67V895.57h-.1c.05-14.33-5.16-32-18.93-44.89-9.66-9-23.46-11-31-5.27V789h-.28c0-.34,0-.67,0-1a68.32,68.32,0,0,0-21.57-47.77c-14.12-13.22-35.79-14-38.76.69h-.32v2.89c0,.28,0,.56,0,.86s0,.67,0,1V862a58.82,58.82,0,0,0-14-20.41c-13.82-12.94-36.16-11.4-36.46,6.52a65.67,65.67,0,0,0,.87,12.37h-.42v182H621.82V646H622l-13.4-39.76-47-50L509.3,614.76,498.6,646h.6v488.76H490V804.57h-9.18v-13H399.94v13H389.1v360.08h0V1088h-8.34V765.57H296.52V1049H258.15v-23.4h-36.7V1049H207.27V765.57h7.5v-32.5H195.59V695.38h-35v37.69H142.21v32.5h8.34V1088H128.86v-23.4H118v-22.1H103v22.1H96.33V725.28h4.17v-29.9H92.16v-22.1H88v-15.6H54.63v15.6H50.46v22.1h-.1V672.87L11,720.26h.28V1088H-45.46v240H2105l20-444Z" transform="translate(153.3 0)"/></svg>