<svg xmlns="http://www.w3.org/2000/svg" xmlns:xlink="http://www.w3.org/1999/xlink" width="1920" height="1080" viewBox="0 0 1920 1080">
  <defs>
    <clipPath id="clip-path">
      <rect id="矩形_647" data-name="矩形 647" width="514.346" height="379.331" transform="translate(0 0)" fill="rgba(139,40,40,0.1)"/>
    </clipPath>
    <clipPath id="clip-healthy">
      <rect width="1920" height="1080"/>
    </clipPath>
  </defs>
  <g id="healthy" clip-path="url(#clip-healthy)">
    <rect width="1920" height="1080" fill="#fff"/>
    <rect id="sky" width="2109" height="1284" transform="translate(-58 -172)" fill="#eff8ff"/>
    <path id="路径_2" data-name="路径 2" d="M3242.542,1022.274v-19.532h-10.677v19.532h-5.106V996.232h-42.241v12.3h-5.106v-12.3h-11.139v12.3h-5.1V949.212h-24.139v32.552h-14.854v8.68h-31.562V785.827h.155l-21.918-26.375v12.526h-.055v-12.3h-2.32V751h-18.566v8.68h-2.323v12.3h-4.642v16.639h2.322V888.954c-8.076-4.809-18.352-8.878-30.172-12.375V811.041h4.642V792.956h-10.211V771.978h-19.5v20.978H2979.35v18.085h4.179v58.027c-15.623-3.027-32.5-5.516-49.668-7.719V811.041h-46.882v44.815l-4.642-.518v-22.6H2876.3v-7.233h-45.026v7.233h-5.106V848.5q-2.529-.266-5.105-.492V744.494h.338l-5.956-17.377-29.109-32.59-26.154,27.842-7.462,22.125h.109V847.721q-7.639.449-15.489,1.073a13.981,13.981,0,0,0-6.552.545q-7.238.629-14.63,1.388V799.942c0-.189.016-.372.017-.563,0-.164-.01-.317-.017-.475V797.3h-.18c-1.654-8.185-13.71-7.741-21.568-.384a38.008,38.008,0,0,0-12.007,26.581c0,.194.008.381.02.567h-.15v30.662c-.328.043-.659.089-.987.133-3.8-2.085-9.586-1.364-14.316,1.977q-14.712,2.106-29.722,4.53V829.126h-8.355V813.667l.1-.094V799.022l-13.678-23.6h-10.139L2596.4,791.51v15.914H2583.87v63.189q-3.969.73-7.942,1.473v-5.343h-92.371V890.25q-9.117,1.847-18.109,3.673V857.835c.006-.3.015-.6.015-.9,0-13.183-5.174-24.478-12.528-29.235V814.518c0-5.239-2.136-9.687-5.122-11.38V791.627h-6.11v12.046c-2.558,1.985-4.321,6.089-4.321,10.846v13.347c-7.189,4.866-12.184,16.086-12.1,29.068,0,.09,0,.178,0,.268h-.039v44.815c-17.026,3.386-33.474,6.578-49.136,9.453l-24.268-18.508V869.725h-7.918V892.96l-38.858,29.633q-10.445,1.207-19.768,1.884l-3.02-7.29h-11.762V857.2h-.035c0-.09,0-.178,0-.268.089-12.982-4.906-24.2-12.1-29.068V814.518c0-4.757-1.762-8.861-4.32-10.846V791.627h-6.112v11.512c-2.984,1.693-5.121,6.141-5.121,11.38V827.7c-7.354,4.757-12.528,16.052-12.528,29.235,0,.212.008.422.011.634v59.623h-9.808v2.449q-9.864-1.213-20.55-2.01V789.36h.016l-27.2-106.39-44.5-13.041-21.725,99.879.108.031V917.02c-20.867.947-42.517,2.5-64.52,4.541V812.2l-4.8-1.391V796.92l-.055-.016-15.542-51.928-45.636-19.235-.005-.025-.007.02-.122-.051.051.26L1957.088,782.1h30.163l0-.023.079.024H1957.2v14.467h-5.571V932.359q-7.214,1.036-14.389,2.12v-61.95h-5.571V861.68H1924.7V851.553h-26.459V861.68h-8.355v10.85h-6.962v70.918q-11.519,2.064-22.744,4.214V917.38h-6.035V899.295h-30.636v55.778c-17.241,3.676-33.618,7.449-48.813,11.248-44.132,11.033-96.975,12.915-150.7,9.616v-66.13H1518.026v53.851q-6.281-1.03-12.467-2.111V890.377H1475.28v-19.43h-63.23v-126.3h-58.778v34.7h-11.578V890.377h-8.9v-19.43h-34.733V693.3H1284.7V672.48h-16.032v-19.43h-50.761v19.43H1204.55V693.3h-10.688V969.487h-27.607V547.567h-10.687V519.811h-57.807l.153-.046-.008.043h57.87l-36.344-107.744.1-.5-.235.1-.013-.04-.009.05-87.558,36.9L1001.9,548.2l-.1.031v26.638l-9.2,2.67V791.836H911.554V894.542H899.978V857.069H880.385v37.473H868.808V496.274l.208-.059L827.337,304.593l-85.376,25.02L689.775,533.731h.029V887.6H679.119V861.232H650.378V778.981H631.563V664.6c.005-.409.02-.815.02-1.226,0-25.291-9.927-46.963-24.037-56.088V582c0-10.048-4.1-18.582-9.824-21.83V538.079H586v23.111c-4.909,3.807-8.29,11.681-8.29,20.806V607.6c-13.795,9.334-23.376,30.861-23.207,55.767,0,.173.005.343.005.516h-.067V778.974H531.875L518.109,812.19l-104.51-79.7V687.915H398.409V732.5l-104.5,79.693-13.761-33.216H257.577V663.888H257.5c0-.173.005-.343,0-.516.17-24.906-9.411-46.433-23.206-55.767V582c0-9.124-3.381-17-8.29-20.806V538.079H214.286v22.087c-5.727,3.248-9.825,11.782-9.825,21.83v25.287c-14.11,9.126-24.036,30.8-24.036,56.089,0,.583.019,1.161.028,1.741V778.981H161.635V887.6H145.711V682.195H-31.511V887.6H-46.748V568.387H-70.794V537.855L-87.627,506.99h-19.452l-26.242,45.277v27.917l.189.18v29.659h-16.031V870.947H-164.3v-26.37h-10.686v26.37h-7.124V714.115h-.106c.052-15.3-5.512-34.156-20.218-47.927-10.308-9.652-25.044-11.75-33.109-5.622V600.308h-.29c.023-.357.044-.715.038-1.088a72.912,72.912,0,0,0-23.035-51c-15.076-14.116-38.208-14.966-41.378.736h-.347v3.082c-.011.3-.034.6-.031.913,0,.367.023.718.031,1.081V678.265a62.626,62.626,0,0,0-14.981-21.792c-14.757-13.818-38.61-12.176-38.932,6.959a70.173,70.173,0,0,0,.923,13.21h-.444v194.3h-16.92v-423.3h.208L-385.019,405.2l-50.18-53.416-55.845,62.527-11.431,33.337h.65V969.487h-9.8V616.962h-9.8V603.084H-607.8v13.878h-11.578v384.447h0V919.522h-8.905v-344.2h-89.946V877.886H-759.2V852.9h-39.184v24.983H-813.52V575.325h8.015v-34.7h-20.482V500.382h-37.4v40.246h-19.593v34.7h8.9v344.2h-23.153v-24.98h-11.578V870.947h-16.031v23.595h-7.123V532.3h4.453V500.382h-8.905v-23.6h-4.455V460.132h-35.621v16.653h-4.453v23.6h-.106V476.349l-42.053,50.6h.3V919.522h-60.557V902.869h-28.5V840.415h-46.31v113.8h-9.794V930.626h-21.372V954.22h-9.8V930.626h-81.041v49.966h-9.8V943.118h-20.483v37.474h-68.571v24.983h188.858v63.842h-19.593v117.971H1661.372V1069.417h-35.589V1034.95l86.325,1.687v31.935h-18.549v61.489h1496.5v-61.489h-10.213V1035.3h98.438v-13.021Z" transform="translate(46.963 -120.552)" fill="#566ed1" opacity="0.077"/>
    <rect id="矩形_649" data-name="矩形 649" width="1921" height="116" transform="translate(0 967)" fill="#989898"/>
    <rect id="矩形_642" data-name="矩形 642" width="587.437" height="602.394" transform="translate(1257.895 397.718)" fill="#224b80"/>
    <rect id="Rectangle_485" data-name="Rectangle 485" width="513.146" height="423.064" transform="translate(1294.281 509.012)" fill="#ec8c69"/>
    <path id="路径_1539" data-name="路径 1539" d="M1645.3,3679.363v86.528H1132.15L1131.5,3679l80.555.057,417.137.292Z" transform="translate(162.131 -2834.485)" fill="#ec6369"/>
    <path id="Rectangle_485-2" data-name="Rectangle 485" d="M1131.315,3630.063,1130.971,3207h72.535v335.158Z" transform="translate(162.316 -2697.988)" fill="#ec7969"/>
    <g id="content" transform="translate(1425.933 592.826)">
      <rect id="矩形_624" data-name="矩形 624" width="2.5" height="111.237" transform="translate(97.487 188.923)" fill="#7896a1"/>
      <path id="路径_1264" data-name="路径 1264" d="M1536.85,6500.555l37.495,5s12.5,56.243,12.5,62.492,10,81.24,7.5,81.24-18.748,1.25-21.247-1.25-10-68.742-11.249-72.492-7.5-37.5-7.5-35c0,1.768-6.249,42.5-6.249,46.245s1.25,58.743,0,59.993-18.747,1.25-18.747-1.25-5-54.993-5-58.743,2.5-58.743,5-58.743S1536.85,6500.555,1536.85,6500.555Z" transform="translate(-1334.377 -6360.376)" fill="#005951"/>
      <path id="路径_1265" data-name="路径 1265" d="M1575.524,6264.508l-.267,8.68-7.5,1.25s1.25,13.748,7.5,13.748,6.249,1.25,11.249,0,12.5-11.248,12.5-11.248l-8.749-3.75-.035-10.058Z" transform="translate(-1359.036 -6225.497)" fill="#ffd394"/>
      <path id="路径_1266" data-name="路径 1266" d="M1179.629,6249.546c0,3.749-2.5,16.248,7.5,17.5,8.213,1.027,8.837-7.224,8.8-10.2a20.5,20.5,0,0,1,.072-2.137c.351-3.844.863-16.6-7.619-17.658C1177.782,6235.723,1179.629,6244.546,1179.629,6249.546Z" transform="translate(-1138.384 -6210.604)" fill="#ffd394"/>
      <path id="路径_1267" data-name="路径 1267" d="M1563.011,6426.033" transform="translate(-1356.339 -6318.041)" fill="#c2dbf0"/>
      <path id="路径_1268" data-name="路径 1268" d="M1243.627,6369.881c-.669-3.689,13.748-6.249,15-3.75s1.25,15,5,15,7.5,0,11.248,1.249,13.748,5,16.248,5,8.749,1.25,10,0,0-6.249,2.5-7.5a12.457,12.457,0,0,1,5-1.25s1.249-3.75,3.749-2.5,8.749,10,6.249,11.248-8.749,7.5-13.748,7.5-48.743,0-51.243-2.5S1244.725,6375.938,1243.627,6369.881Z" transform="translate(-1174.887 -6283.446)" fill="#ffd394"/>
      <path id="路径_1269" data-name="路径 1269" d="M1215.143,6210.676l-4.317-7.477c-.027-.6-.047-1.088-.047-1.422,0-3.749-5-13.749-10-13.749,0,0-15,8.75-15,18.749s2.5,16.248,15,18.747c7.249,1.45,9.449-5.508,10.021-12.341Z" transform="translate(-1142.038 -6182.833)" fill="#ffd394"/>
      <path id="路径_1270" data-name="路径 1270" d="M1193.416,6188.954c6.249-1.25,5,5,7.5,3.749,1.581-.79,3.749-10,3.749-11.249s-1.25-5-7.5-3.75-15-1.25-18.748-1.25-5,2.5-6.249,5,0,3.75-1.249,5c-1.768,1.768-2.5,2.5-2.5,6.25a44.349,44.349,0,0,0,1.25,8.749s2.5-3.75,3.749-2.5,0,8.749,1.25,10,10.948,11.249,16.248,11.249c5,0,6.61-2.4,8.749-5s2.5-5.954,2.5-8.749c0-1.25-11.249-2.5-12.5,0s0,6.249-2.5,6.249c-5,0-8.749-3.75-8.749-5v-8.749c0-2.5,1.378-2.959,3.749-3.75,3.75-1.25,2.5-8.75,2.5-8.75S1189.54,6189.728,1193.416,6188.954Z" transform="translate(-1132.174 -6176.258)" fill="#0c2e5a"/>
      <path id="路径_1271" data-name="路径 1271" d="M1171.313,6229c0,1.25,0,5,2.5,5,5,0,2.5-5,2.5-5s0-6.25-2.5-6.25S1171.313,6227.605,1171.313,6229Z" transform="translate(-1133.818 -6202.56)" fill="#ffd394"/>
      <path id="路径_1272" data-name="路径 1272" d="M1217.613,6222.678c.229-1.19,2.31-1.771,3.351-2.061a14.847,14.847,0,0,1,3.317-.175" transform="translate(-1160.121 -6201.234)" fill="none" stroke="#000" stroke-miterlimit="10" stroke-width="1"/>
      <ellipse id="椭圆_17" data-name="椭圆 17" cx="1.25" cy="1.875" rx="1.25" ry="1.875" transform="translate(59.992 21.443)"/>
      <path id="路径_1273" data-name="路径 1273" d="M1096.537,6352.974c-2.5,5-6.249,16.248-6.249,22.5s3.75,56.243,6.249,57.493,27.5,1.25,27.5,0-6.249-5-8.749-5-7.5,1.25-10,0,0-44.994,1.25-48.743,5-21.248,2.5-23.748S1096.537,6352.974,1096.537,6352.974Z" transform="translate(-1087.788 -6276.537)" fill="#ffc394"/>
      <path id="路径_1274" data-name="路径 1274" d="M1242.974,6379.542c1.25-1.251,17.5-5,17.5-3.75s2.5,8.749,2.5,10c0,1.768-13.748,6.25-15,6.25S1240.668,6381.849,1242.974,6379.542Z" transform="translate(-1174.234 -6289.357)" fill="#844129"/>
      <path id="路径_1275" data-name="路径 1275" d="M1369.88,6718.72c-.235-2.485-2.359-7.2,4.294-5.85s6.654,1.345,7.316,5.035.289,7.567-3.852,8.311-5.177.929-6.433-.116S1370.057,6720.583,1369.88,6718.72Z" transform="translate(-1246.335 -6480.855)" fill="#ffd394"/>
      <path id="路径_1276" data-name="路径 1276" d="M1139.469,6475.284c-.686-4.454,36.245-13.748,41.245-12.5s3.75,3.749,8.749,3.749,47.494,6.25,51.243,12.5,12.5,94.988,11.249,96.238c-2.431,2.43-10.674,1.538-13.748,0-2.5-1.25-7.5-77.491-7.5-77.491l-51.243-12.5S1141,6485.253,1139.469,6475.284Z" transform="translate(-1115.722 -6338.855)" fill="#6a72b6"/>
      <path id="路径_1277" data-name="路径 1277" d="M1309.426,6727.479c.247-2.487-1.25-7.5,6.249-5s7.5,2.5,7.5,6.249-1.25,7.5-6.249,7.5-6.249,0-7.5-1.25S1309.241,6729.346,1309.426,6727.479Z" transform="translate(-1211.939 -6486.063)" fill="#ffd394"/>
      <path id="路径_1278" data-name="路径 1278" d="M1139.469,6475.36c-.686-4.454,36.162-13.346,41.245-12.5,7.5,1.249,0,12.5,5,12.5s50.127,6.171,53.743,12.5c5,8.748-8.749,89.988-10,91.239-2.43,2.43-14.424-.963-17.5-2.5-1.627-.814,1.45-28.3,5-51.244,1.9-12.308,5.872-26.187,5-27.5-2.5-3.75-57.862,2.607-73.74-1.251C1138.2,6494.174,1141,6485.329,1139.469,6475.36Z" transform="translate(-1115.722 -6338.931)" fill="#6a85b6"/>
      <path id="路径_1279" data-name="路径 1279" d="M1368.989,6731.175c.807-1.546.47,2.455,5.219,1.545s5.936-1.137,5.466-3.592-1.658-2.227.717-2.682,4.749-.91,5.219,1.545,3.55,5.683,7.112,5,10.92-.82,13.764,1.18,5.516,6.092,3.785,6.911a44.318,44.318,0,0,1-17.808,3.412c-4.984-.318-21.84,1.638-23.5-.59-.926-1.245-.94-4.909-1.176-6.138A17.558,17.558,0,0,1,1368.989,6731.175Z" transform="translate(-1245.411 -6488.498)" fill="#7f5200"/>
      <path id="路径_1280" data-name="路径 1280" d="M1303.624,6740.343c1.12-1.367,0,2.5,5,2.5s6.249,0,6.249-2.5-1.25-2.5,1.249-2.5,5,0,5,2.5,2.5,6.249,6.249,6.249,11.249,1.25,13.748,3.75,4.417,7.02,2.5,7.5a47.312,47.312,0,0,1-18.747,0c-5-1.25-22.5-2.5-23.747-5-.7-1.4,0-5,0-6.249A17.212,17.212,0,0,1,1303.624,6740.343Z" transform="translate(-1207.386 -6495.176)" fill="#7f5200"/>
      <ellipse id="椭圆_18" data-name="椭圆 18" cx="4.436" cy="6.575" rx="4.436" ry="6.575" transform="translate(150.569 63.304) rotate(-30)" fill="#844129"/>
      <path id="路径_1281" data-name="路径 1281" d="M1564.865,6204.655c0-6.249,6.249-23.747,16.247-22.5s18.748,15,16.248,23.746-6.249,15-16.248,15S1564.865,6212.155,1564.865,6204.655Z" transform="translate(-1357.393 -6179.463)" fill="#ffd394"/>
      <path id="路径_1282" data-name="路径 1282" d="M1573.241,6186.627s16.509,6.56,18.315,12.452c2.194,7.155-5.149,11.906-6.249,14.907-1.291,3.521-.432,6.294,3.318,5.045s9.218-9.24,10.43-14.089c1.25-5-1.25-17.5-5-21.248s-10-8.749-13.748-7.5-1.047,0-5,0c-3.749,0-12.5,7.5-13.748,18.748s1.25,22.5,7.5,23.748,5.431-4.613,2.932-5.864-5.883-10.048-5.386-14.952C1566.857,6195.388,1573.241,6186.627,1573.241,6186.627Z" transform="translate(-1355.337 -6176)" fill="#7f3344"/>
      <path id="路径_1283" data-name="路径 1283" d="M1585.121,6321.141h12.5l-6.249,8.749Z" transform="translate(-1368.9 -6258.453)" fill="#fff"/>
      <path id="路径_1284" data-name="路径 1284" d="M1561.946,6287.229c-1.157,1.651,1.866,9.673,3.842,11.649,2.5,2.5,7.5,10,7.5,10s6.615-9.115,7.5-10c1.25-1.25,7.662-9.75,7.662-9.75l-1.54-.659s2.627-2.088,3.877-.839a17.958,17.958,0,0,0,3.75,2.5l-12.5,93.739-28.746-3.75,2.5-92.489s3.735-1.5,5-1.25A4.41,4.41,0,0,1,1561.946,6287.229Z" transform="translate(-1350.816 -6238.69)" fill="#007651"/>
      <path id="路径_1285" data-name="路径 1285" d="M1520.9,6289.311s-11.078,3.58-13.748,6.25c-2.5,2.5-17.5,146.232-15,147.482s28.746,5,28.746,3.749c0-.608,5-38.046,5-76.24C1525.9,6330.352,1520.9,6289.311,1520.9,6289.311Z" transform="translate(-1315.926 -6240.371)" fill="#fff"/>
      <path id="路径_1286" data-name="路径 1286" d="M1625.347,6292.779s16.762,8.5,16.762,11-12.5,59.993-10,67.492,33.745,71.242,31.246,72.491-36.539,6.715-38.745,5c-11.249-8.748-15-78.74-13.748-89.989S1625.347,6292.779,1625.347,6292.779Z" transform="translate(-1383.393 -6242.341)" fill="#fff"/>
      <path id="路径_1287" data-name="路径 1287" d="M1504.231,6303.779c-2.5,1.25-17.5,38.745-17.5,38.745a11.821,11.821,0,0,1,8.749,5,18.516,18.516,0,0,1,3.75,11.25c0,1.25,8.749-40,8.749-42.5s0-6.25-1.25-8.749A18.221,18.221,0,0,0,1504.231,6303.779Z" transform="translate(-1313.006 -6248.59)" fill="#fff"/>
      <path id="路径_1288" data-name="路径 1288" d="M1635.513,6421.439c2.5-1.25,10-1.25,10,2.5s-11.249,18.748-15,21.247c-5.6,3.734-20,13.749-20,16.248s2.5,6.25,1.25,8.75-5,7.5-2.5,7.5,5-1.249,3.75,1.25-3.75,3.75-7.5,3.75-7.5,0-6.249-6.249,2.5-15,5-17.5,20.559-28.935,22.153-31.34S1633.057,6422.667,1635.513,6421.439Z" transform="translate(-1376.797 -6315.007)" fill="#ffd394"/>
      <path id="路径_1289" data-name="路径 1289" d="M1672.331,6318.249c3.749,0,17.5,47.494,15,48.743s-8.749-3.749-12.5-3.749-8.965,6.094-10.731,4.921S1669.831,6318.249,1672.331,6318.249Z" transform="translate(-1413.615 -6256.81)" fill="#fff"/>
      <line id="直线_60" data-name="直线 60" y1="37.576" x2="8.638" transform="translate(186.152 72.561)" fill="#fff" stroke="#e6e6e6" stroke-miterlimit="10" stroke-width="2"/>
      <path id="路径_1290" data-name="路径 1290" d="M1607.877,6502.659c.929-1.5,10,0,10,2.5s-1.25,5-2.5,5-10-1.25-10-2.5S1607.2,6503.755,1607.877,6502.659Z" transform="translate(-1380.407 -6361.231)" fill="#ec8c69"/>
      <path id="路径_1291" data-name="路径 1291" d="M1544.608,6835.26c2.5-1.251,13.995-.681,13.748,0s-.733,8.23-2.5,10c-2.5,2.5-8.749,0-10-1.251S1544.608,6835.26,1544.608,6835.26Z" transform="translate(-1345.885 -6550.098)" fill="#ffd394"/>
      <path id="路径_1292" data-name="路径 1292" d="M1645.89,6839.125c0,.912.388,8.484,2.5,10,3.68,2.637,10-.913,10-2.5,0-2.5,1.25-7.5-1.25-7.5Z" transform="translate(-1403.422 -6552.713)" fill="#ffd394"/>
      <path id="路径_1293" data-name="路径 1293" d="M1514.2,6843.676c2.5.512,2.5,4.262,6.249,4.262s4.062-4.774,5.781-4.262,4.218,15.51,2.968,15.51-38.745,1.25-39.995,0,1.25-5,5-6.249,11.249-2.5,12.5-3.75S1512.137,6843.255,1514.2,6843.676Z" transform="translate(-1314.223 -6555.277)" fill="#7f4000"/>
      <path id="路径_1294" data-name="路径 1294" d="M1457.489,6360.057c1.512-3.652,0-10-2.5-12.5-2.795-2.795-13.748-5-17.5-8.749-3.186-3.187-12.5-11.248-11.248-13.748s2.581-1.09,3.962-2.194c1.006-.805-4.229-2.811-5.615-6.479-1.588-4.2,7.342-6.047-.847-10.076-2.243-1.1-11.249,1.25-11.249,5s3.749,12.5,6.249,15,16.248,27.5,20,30,11.249,10,15,7.5C1456.065,6362.256,1456.982,6361.282,1457.489,6360.057Z" transform="translate(-1270.832 -6249.875)" fill="#ffd394"/>
      <path id="路径_1295" data-name="路径 1295" d="M1642.142,6847.413a11.08,11.08,0,0,1,6.249-2.5c1.25,0,7.5,1.249,7.5,3.749a35.176,35.176,0,0,0,1.25,10c1.185,3.557,0,8.749-7.5,8.749s-8.786-.149-10-5c-1.25-5,1.25-5,1.25-7.5S1640.816,6848.738,1642.142,6847.413Z" transform="translate(-1399.674 -6556.003)" fill="#7f4000"/>
      <path id="路径_1296" data-name="路径 1296" d="M1587.047,6221.482a3.66,3.66,0,0,0-2.85-1.53c-1.078-.073-3.2.645-3.2,1.53" transform="translate(-1366.559 -6200.966)" fill="none" stroke="#754c24" stroke-miterlimit="10" stroke-width="1"/>
      <ellipse id="椭圆_19" data-name="椭圆 19" cx="1.25" cy="1.875" rx="1.25" ry="1.875" transform="translate(216.46 23.006)" fill="#603813"/>
      <ellipse id="椭圆_20" data-name="椭圆 20" cx="1.25" cy="1.875" rx="1.25" ry="1.875" transform="translate(229.106 23.006)" fill="#603813"/>
      <path id="路径_1297" data-name="路径 1297" d="M1593.419,6252.479a36.466,36.466,0,0,0,8.749-.817c1.275-.367-1.25,3.749-3.75,3.749S1592.03,6252.323,1593.419,6252.479Z" transform="translate(-1373.448 -6218.97)" fill="#7f3344"/>
      <rect id="矩形_625" data-name="矩形 625" width="97.487" height="12.498" transform="translate(4.999 176.425)" fill="#ddfffd"/>
      <rect id="矩形_626" data-name="矩形 626" width="2.5" height="111.237" transform="translate(6.249 188.923)" fill="#7896a1"/>
      <rect id="矩形_627" data-name="矩形 627" width="2.5" height="108.737" transform="translate(86.239 188.923)" fill="#7896a1"/>
      <rect id="矩形_628" data-name="矩形 628" width="2.5" height="108.737" transform="translate(17.498 188.923)" fill="#7896a1"/>
      <path id="路径_1298" data-name="路径 1298" d="M1648.5,6545.587c0-2.16,13.389-2.16,15.117-1.3,1.593.8,4.751,10.8,4.751,12.525,0,2.732-12.093,3.888-15.117,2.159C1651.574,6558.018,1648.5,6548.762,1648.5,6545.587Z" transform="translate(-1404.905 -6384.916)" fill="none" stroke="#ccc" stroke-miterlimit="10" stroke-width="2" opacity="0.5"/>
      <path id="路径_1299" data-name="路径 1299" d="M1646.848,6533.125c-1.854,1.4-1.728,6.911.864,6.911s16.412-.433,15.549-2.16-1.728-6.047-3.023-6.047S1649.528,6531.094,1646.848,6533.125Z" transform="translate(-1403.253 -6378.069)" fill="#fff" stroke="#e6e6e6" stroke-miterlimit="10" stroke-width="2"/>
      <path id="路径_1300" data-name="路径 1300" d="M1611,6222.481a3.66,3.66,0,0,1,2.85-1.529c1.078-.073,3.2.644,3.2,1.529" transform="translate(-1383.602 -6201.534)" fill="none" stroke="#754c24" stroke-miterlimit="10" stroke-width="1"/>
      <path id="路径_1301" data-name="路径 1301" d="M1288.51,6366.965s4.617,3.851,5.624,6.874c.625,1.875,8.124,15.623,14.373,16.873s16.248,10,23.747,10,17.5-1.25,26.246,0,18.747,8.75,18.747,15-2.5,13.748-8.749,13.748-15-6.25-16.248-15-1.25-15,2.5-18.748,11.248-8.749,11.248-15c0-5-1.25-8.749-6.249-11.248s-7.5-3.75-3.75-8.749,6.531-15.965,5.281-17.215" transform="translate(-1200.397 -6271.155)" fill="none" stroke="#844129" stroke-miterlimit="10" stroke-width="3"/>
      <line id="直线_61" data-name="直线 61" x1="2.591" y1="35.849" transform="translate(247.914 75.584)" fill="#fff" stroke="#e6e6e6" stroke-miterlimit="10" stroke-width="2"/>
      <path id="路径_1302" data-name="路径 1302" d="M1585.1,6186.7c.2-1.992,5.685-4.719,8.755-3.1s11.276,19.329,11.276,19.329-7.074-6.72-10.016-8.327-9.852-2.9-9.852-4.63S1585.019,6187.514,1585.1,6186.7Z" transform="translate(-1368.878 -6180.038)" fill="#af4258"/>
      <path id="路径_1303" data-name="路径 1303" d="M1104.776,6290.781c5.183-1.727,9.364,10.3,5.615,20.3s-2.775,17.028-4.751,19.005c-1.25,1.249-6.138,1.727-8.638,1.727-2.795,0-9.5-3.359-9.5-6.048,0-2.5,5.661-23.414,6.911-25.914S1099.474,6292.548,1104.776,6290.781Z" transform="translate(-1086.204 -6241.11)" fill="#782244"/>
      <path id="路径_1304" data-name="路径 1304" d="M1154.065,6280.522c5.141.345,26.246,6.249,30,15,2.5,5.83,5,14.989,6.386,20.453.627,2.465-.568,1.355-3.063,1.854l-11.662,5.615c-2.748.55-3.355-1.4-3.9-4.152l-.255-1.272-2.5,12.5c-1.25,6.249-1.25,10,0,13.749s7.264,14.8,6.249,16.248c-8.228,11.736-36.3,15.191-46.244,15-2.5-.048-6.249-27.5-6.249-31.246s-2.675-38.22-1.25-42.494c1.25-3.75-.7-14.648,5-17.5C1131.568,6281.771,1146.834,6280.035,1154.065,6280.522Z" transform="translate(-1105.321 -6235.331)" fill="#7f3344"/>
      <rect id="矩形_629" data-name="矩形 629" width="107.486" height="21.247" rx="4.013" transform="translate(0 157.677)" fill="#e9fffd"/>
    </g>
    <rect id="矩形_643" data-name="矩形 643" width="564.71" height="111.374" transform="translate(1257.622 888.577)" fill="#224b80"/>
    <g id="蒙版组_1" data-name="蒙版组 1" transform="translate(1293.373 509.286)" clip-path="url(#clip-path)">
      <g id="矩形_644" data-name="矩形 644" transform="translate(0 0)" fill="rgba(104,213,253,0.4)" stroke="#707070" stroke-width="1">
        <rect width="514.346" height="379.331" stroke="none"/>
        <rect x="0.5" y="0.5" width="513.346" height="378.331" fill="none"/>
      </g>
      <rect id="矩形_645" data-name="矩形 645" width="85.919" height="697.875" transform="translate(377.093 -141.763) rotate(47)" fill="rgba(139,40,40,0.1)"/>
      <rect id="矩形_646" data-name="矩形 646" width="42.083" height="697.875" transform="translate(473.812 -71) rotate(47)" fill="rgba(139,40,40,0.1)"/>
    </g>
    <rect id="矩形_648" data-name="矩形 648" width="589.435" height="149.231" rx="13" transform="translate(1257.383 270.601)" fill="#93a0c2"/>
    <g id="组_168" data-name="组 168" transform="translate(910.081 676.273)">
      <path id="路径_1786" data-name="路径 1786" d="M491.843,6480.609c.634,18.173,7.106,24.568,8.171,34.361s3.422,33.513,5.11,43.472.023,21.566,0,30.024,2.072,49.667,3.369,58.06-1.191,11.312,0,13.2,25.3,2.653,28.576,0-3.014-4.306-7.422-6.329-10.209-1.764-10.209-1.764v-7.28s2.762-2.138,2.724-2.793c-.164-2.848,2.919-29.014,3.329-39.41s3.307-26.34,3.951-31.768,2.239-51.358,3.131-57.907,0-30.191,0-30.191Z" transform="translate(-485.986 -6344.776)" fill="#434171"/>
      <path id="路径_1788" data-name="路径 1788" d="M6.657,0a6.721,6.721,0,0,1,6.722,6.721c0,1.381,2.217,6.1,1.363,6.669S13.329,12.4,11,12.4c-1.329,0-4.025,2.314-5.772,2.025A16.7,16.7,0,0,1,.756,12.4c-.457-.338-.615-.922-.82-2.342a17.805,17.805,0,0,1,0-3.337A6.721,6.721,0,0,1,6.657,0Z" transform="translate(13.38 148.129)" fill="#fc8863"/>
      <path id="路径_1784" data-name="路径 1784" d="M25.295,0c6.96,0,12-.244,15.855,5.543,3.406,5.108,6,15.89,5.628,22.7-.792,14.36,18.5,24.441,17.906,35.89S44.189,77.918,35.849,74.934C28.792,72.409,29.8,56.475,25.295,56.475c-6.1,0-8.938,4.461-13.2,0-4.91-5.136-8.874-19.833-8.874-28.239C3.219,12.639,12.064,0,25.295,0Z" transform="translate(-3.219 0.123)" fill="#373463"/>
      <path id="路径_1785" data-name="路径 1785" d="M12.983,0c7.17,0,10.86,5.372,10.86,14.094,0,.863,3.915,2.173,3.569,3.867S25.643,21.568,25.33,22.5c-.482,1.44-1.474,5.955-2.2,7.111-2.183,3.47-5.811,1.97-10.146,1.97C5.812,31.585,0,24.515,0,15.793S5.812,0,12.983,0Z" transform="translate(14.982 6.543)" fill="#fc8863"/>
      <path id="路径_1780" data-name="路径 1780" d="M579.106,6433.616a84.077,84.077,0,0,0-4.454,12.111l-5.452-1.58,3.558-14.983Z" transform="translate(-549.836 -6396.579)" fill="#fc8863"/>
      <path id="路径_1783" data-name="路径 1783" d="M10.038,0c5.544,0,11.888,14.97,11.888,25.393S15.582,37.742,10.038,37.742,0,29.293,0,18.871,4.494,0,10.038,0Z" transform="translate(5.078 3.866)" fill="#373463"/>
      <path id="路径_1781" data-name="路径 1781" d="M530.882,6452.963c7.032-.363,11.313,5.276,11.313,5.276s6.05,10.422,9.059,15.088,6.313,11.209,6.281,15.579-.2,3.386-2.722,8.1-3.828,4.082-3.559,6.579,5.532,32.055,6.708,34.965,3.322,4.584,2.843,9.966-3.376,6.938-4.913,7.26-38.988,4.241-38.988-8.807,3.918-31.016,3.495-43.384c-1.178-17.47-2.276-17.6-2.206-29.025.038-6.232.712-10.554,3.126-14.721S530.882,6452.963,530.882,6452.963Z" transform="translate(-511.34 -6412.641)" fill="#912323"/>
      <path id="路径_1782" data-name="路径 1782" d="M560.192,6325.542c1.81-.469,3.569,9.606,5.827,5.667s6.108-8.193,8.086-8.995c3.011-1.223,5.608-1.294,5.724-3.222s-2.331-7.343-9.813-8.2-11.7.838-11.7.838Z" transform="translate(-541.642 -6310.557)" fill="#373463"/>
      <path id="路径_1787" data-name="路径 1787" d="M669.394,6442.921c4.668,4.346,5.991,6.108,7.108,18.1s-2.2,34.154-2.2,34.154a45.48,45.48,0,0,1,1.509,9.586c.033.766-.539,1.118-.537,2.1.011,5.167,0,11.676,0,16.545,0,10.28-.319,10.6-.972,11.969s-1.174,1.246-2.563,2.71c.038.169.5,4.168,0,4.807-1.311,1.676-3.912,1.912-6.851,1.671s-5.284.242-6.424-1.671c-.259-.435,1.644-3.591,1.253-4.175-.979-1.46-1.836-1.915-2.341-3.856s-1.457-11.455-1.457-11.455l3.329-17.79,1.311-12.367s-1.609-15.9-1.311-19.942-3.329-20.9-3.329-20.9-.921-6.067,1.912-8.772S664.726,6438.576,669.394,6442.921Z" transform="translate(-645.513 -6390.86)" fill="#9b2e2e"/>
      <path id="路径_1789" data-name="路径 1789" d="M0,.857S2.582.448,5.359.156A16.108,16.108,0,0,0,11.105-2V5.424A37.944,37.944,0,0,0,5.359,6.48,35.661,35.661,0,0,0,0,8.52Z" transform="translate(22.667 301.505)" fill="#fc8863"/>
      <path id="路径_1790" data-name="路径 1790" d="M13.894-5.566c2.278,0,4.079.931,6.414.958,2.689.031,5.463-1.45,7.754,0s2.091,4.834,2.095,5.86C30.168,4.141,22.8,4.7,14.57,4.7S-.805,3.932-.805,2a15.9,15.9,0,0,0,.29-3.059A35.476,35.476,0,0,1-.192-5.22a27.589,27.589,0,0,0,5.2.3C7.631-5.007,11.1-5.566,13.894-5.566Z" transform="translate(23.001 312.339)"/>
    </g>
    <g id="组_166" data-name="组 166" transform="translate(776.189 689.007)">
      <path id="路径_1793" data-name="路径 1793" d="M19.043,0C31.639,0,42.8,15.146,40.032,26.914S43.519,37.746,44,44.488s-.849,7.407-2.056,9.4c-3.391,5.594-14.685-6.759-22.9-6.759-4.967,0-19.427,11.8-25.34,10.886-3.231-.5,4.094-6.853-.475-14.845s3.008-14.724,3.008-19.6C-3.764,10.549,6.447,0,19.043,0Z" transform="translate(24.574 0)" fill="#ffa236"/>
      <path id="路径_1794" data-name="路径 1794" d="M15.065,0c8.32,0,15.065,7.955,15.065,17.767S23.384,37.63,15.065,37.63,0,27.58,0,17.767,6.745,0,15.065,0Z" transform="translate(27.676 5.333)" fill="#ffd394"/>
      <path id="路径_1791" data-name="路径 1791" d="M68.377,29.477c1.538-.25,5.745-6.6,5.745,5.914S67.1,57.837,51.541,63.668s-4.175-8.588-4.175-21.1S66.839,29.727,68.377,29.477Z" transform="translate(-23.651 -24.914)" fill="#ffa236"/>
      <path id="路径_1792" data-name="路径 1792" d="M53.691,29.471c-15.494,0-6.892-.223-5.927,6.587S58.027,49.771,61.99,52.089s8.431,5.787,10.34,3.452c1.062-1.295,2-10.377,2.191-12.493C75,37.664,69.186,29.471,53.691,29.471Z" transform="translate(-10.693 -25.721)" fill="#ffa236"/>
      <path id="路径_1801" data-name="路径 1801" d="M0,0H22.795s.589,47.785.253,73.086c-.15,11.31-4.634,42.3-4.662,56.3-.034,17.047-2.916,17.79-2.916,17.79L7,148.069,4.658,75.019Z" transform="matrix(0.999, 0.052, -0.052, 0.999, 15.652, 144.233)" fill="#ffd394"/>
      <path id="路径_1802" data-name="路径 1802" d="M0,0H22.795s-.9,50.308-1.239,75.609c-.15,11.31-5.757,40.58-5.785,54.579-.034,17.047-4.393,16.849-4.393,16.849l-8.059.88L4.626,79.027Z" transform="translate(43.085 145.187) rotate(-2)" fill="#ffd394"/>
      <rect id="矩形_650" data-name="矩形 650" width="8.767" height="9.352" rx="4.384" transform="translate(39.95 38.934)" fill="#ffd394"/>
      <path id="路径_1795" data-name="路径 1795" d="M22.735-.417h7.56c4.735,0,13.311,5.547,17.061,8.175,5.588,3.913,4.232,6.747,4.232,14.279V92.175c0,12.266,5.677,49.673-6.589,49.673-51.51,0-46.81-2.535-47.346-7.877s1.332-35.024,1.332-41.8V22.037c0-8.182-.033-11.865,6.685-15.8C8.826,4.394,18.65-.417,22.735-.417Z" transform="translate(17.587 44.368)" fill="#f1e0d3"/>
      <path id="路径_1796" data-name="路径 1796" d="M428.955,6486.222s-5.272,1.664-7.707,2.537-4.551,1.162-7.452,3.58-2.107,5.1-5.161,9.366-6.222,6.751-7.559,9.246c-1.811,3.381-2.895,8.788-4.793,11.25s1.012,5.188,1.5,7.97,1.283,3.662,1.967,6.371,8.754,3.655,9.925,2.981a15.716,15.716,0,0,1,3.194-1.184s-2.744,11.84-3.194,16.759a85.373,85.373,0,0,0,0,14.461,29.05,29.05,0,0,0,.858,4.794c.528,2.04-1.785,3.906-1.264,4.958.854,1.722,16.165,2.025,18.348,1.316s1.716-49.188,1.846-52.311S428.955,6486.222,428.955,6486.222Z" transform="translate(-395.648 -6440.729)" fill="#5abaf8"/>
      <path id="路径_1798" data-name="路径 1798" d="M396.175,6486.222s5.272,1.664,7.707,2.537,4.551,1.162,7.452,3.58,3.4,5.678,4.558,6.947c2.794,3.056,5.9,5.667,7.232,8.162,1.811,3.381,3.824,12.291,5.723,14.753s-1.011,5.188-1.5,7.97.684,4.338,0,7.047-10.722,2.979-11.893,2.3a15.716,15.716,0,0,0-3.194-1.184s2.744,11.84,3.194,16.759a85.377,85.377,0,0,1,0,14.461,12.945,12.945,0,0,1-.994,4.312c-.4,1.231,1.844,4.915,1.471,5.667-.854,1.722-16.236,1.8-18.419,1.088s-1.716-49.188-1.846-52.311S396.175,6486.222,396.175,6486.222Z" transform="translate(-343.045 -6440.729)" fill="#5abaf8"/>
      <path id="路径_1800" data-name="路径 1800" d="M0,0,27.941,1.836,55.526,0V58.031H27.941A149.643,149.643,0,0,1,0,54.941Z" transform="translate(14.818 50.624)" fill="#f2f2f2"/>
      <path id="路径_1797" data-name="路径 1797" d="M7.051,2.378a5.381,5.381,0,0,1,2.327.453A16.916,16.916,0,0,1,12.185,5c.334.262.595.086,1.132.484a7.926,7.926,0,0,1,1.228,1.573c.372.579.8,1.209-.25,2.566s-5.85,5.823-9.562,5.823S0,13.172,0,9.622C0,7.733,2.862,1.46,4.352.17,5.411-.751,5.313,2.378,7.051,2.378Z" transform="translate(11.157 78.324) rotate(13)" fill="#ffd394"/>
      <path id="路径_1799" data-name="路径 1799" d="M7.051,13.066a5.381,5.381,0,0,0,2.327-.453,16.916,16.916,0,0,0,2.808-2.168c.334-.262.595-.086,1.132-.484a7.926,7.926,0,0,0,1.228-1.573c.372-.579.8-1.209-.25-2.566S8.446,0,4.734,0,0,2.272,0,5.823c0,1.889,2.862,8.162,4.352,9.452C5.411,16.2,5.313,13.066,7.051,13.066Z" transform="translate(78.755 93.372) rotate(167)" fill="#ffd394"/>
      <path id="路径_1803" data-name="路径 1803" d="M8.311,0c4.2,0,6.3.139,6.3,3.367s2.7,4.674,1.24,6.972-4.844,2.188-7.081,2.222c-2.821.043-5.912-.851-6.657-1.879-1.256-1.734.855-4.839.855-6.26C2.969,1.194,4.115,0,8.311,0Z" transform="translate(11.182 287.34)" fill="#fff"/>
      <path id="路径_1804" data-name="路径 1804" d="M6.6,0c4.2,0,6.3.139,6.3,3.367s2.7,4.674,1.24,6.972-4.844,2.188-7.081,2.222C4.235,12.6,1.144,11.71.4,10.682c-1.256-1.734.855-4.839.855-6.26C1.254,1.194,2.4,0,6.6,0Z" transform="matrix(0.998, 0.07, -0.07, 0.998, 50.176, 286.263)" fill="#fff"/>
    </g>
    <g id="组_167" data-name="组 167" transform="translate(1045.48 663.775)">
      <rect id="矩形_651" data-name="矩形 651" width="11.69" height="30.978" transform="translate(84.378 33.489)" fill="#ffb884"/>
      <path id="路径_1817" data-name="路径 1817" d="M7.306,0c2.659,0,9.171,2.85,10.539,5.219.571.982-3.233.948-3.233,2.379,0,.642,3.422,2.456,3.233,3.227-.43,1.783-1.984,6.429-4.652,7.152-1.7.463-6.492-2.339-6.492-2.339S0,11.795,0,7.6A7.456,7.456,0,0,1,7.306,0Z" transform="translate(135.813 134.605)" fill="#ffb884"/>
      <path id="路径_1814" data-name="路径 1814" d="M0,0C.634,18.174,7.106,24.57,8.171,34.362s3.422,33.514,5.11,43.473.023,21.566,0,30.025,2.072,49.668,3.369,58.062-1.191,11.312,0,13.2,25.3,2.652,28.576,0-3.014-4.306-7.422-6.33S27.6,171.027,27.6,171.027v-7.28s2.762-2.138,2.724-2.793c-.164-2.848,2.919-29.015,3.329-39.411S36.956,95.2,37.6,89.774s2.239-51.36,3.131-57.909,0-30.191,0-30.191Z" transform="translate(75.157 174.321) rotate(-22)" fill="#434171"/>
      <path id="路径_1815" data-name="路径 1815" d="M0,0C.634,18.174,7.106,24.57,8.171,34.362s3.422,33.514,5.11,43.473.023,21.566,0,30.025,2.072,49.668,3.369,58.062-1.191,11.312,0,13.2,25.3,2.652,28.576,0-3.014-4.306-7.422-6.33S27.6,171.026,27.6,171.026v-7.28s2.762-2.138,2.724-2.794c-.164-2.848,2.919-29.015,3.329-39.411S36.956,95.2,37.6,89.773s2.239-51.36,3.131-57.909,0-30.191,0-30.191Z" transform="translate(61.849 151.909) rotate(20)" fill="#434171"/>
      <path id="路径_1807" data-name="路径 1807" d="M5.106,0,24.213.841c2.582,0,6.451-1.627,6.451.955l-3.4,22.4a4.676,4.676,0,0,1-4.676,4.676H6.225A4.676,4.676,0,0,1,1.549,24.2L0,5.337C0,2.755,2.524,0,5.106,0Z" transform="translate(81.9 42.501) rotate(25)" fill="#fff"/>
      <path id="路径_1805" data-name="路径 1805" d="M15.263,0c8.429,0,15.6,12.931,15.708,22.266S32.316,38.06,23.886,38.06,0,30.862,0,19.882,6.833,0,15.263,0Z" transform="matrix(0.946, 0.326, -0.326, 0.946, 87.547, 3.031)" fill="#ffb884"/>
      <path id="路径_1806" data-name="路径 1806" d="M12.419,1.2c8.9-6.1,25.881,12.7,31.248,17.633s3.217,13.349,2.8,19.01,7.8,61.555,10.99,76.839c.287,1.376,1.987,3.273,1.5,4.524C54.785,129.963,2.721,127.647.391,123.24S6.886,50.656,7.145,42.151,3.524,7.305,12.419,1.2Z" transform="translate(64.863 45.785) rotate(3)" fill="#363362"/>
      <path id="路径_1808" data-name="路径 1808" d="M-29.41,3.093c3.158-6.124,8.882-9.418,16.59-9.233S1.161-.688,5.382-.858c7.95-.32,4.167-7,11.239-6.7S20.273.92,18.225,3.093,11.354,8.542,2.474,10.115-14.7,14.053-16.7,16.575s.193,16.913-1.361,16.587c-4.121-.864-8.775-6.361-7.39-14.8C-25.049,15.9-32.568,9.218-29.41,3.093Z" transform="translate(102.181 7.568)" fill="#25294e"/>
      <path id="路径_1810" data-name="路径 1810" d="M1.8.121C3.84-.588,5.14,1.934,5.14,4.707S3.881,9.727,2.328,9.727.01,7.539.01,4.766-.245.829,1.8.121Z" transform="translate(81.717 23.749) rotate(1)" fill="#ffb884"/>
      <path id="路径_1809" data-name="路径 1809" d="M.006,0H5.629L4.644,18.047l-2.355-.041a22.547,22.547,0,0,1-1.805-6.9A99.272,99.272,0,0,1,.006,0Z" transform="translate(84.897 21.192) rotate(-8)" fill="#25294e"/>
      <path id="路径_1811" data-name="路径 1811" d="M12.206-6.676c2.31,0,6.424.118,6.754.684.321.5-.882,3.064-1.372,4.583-.851,2.642-.9,7.354-1.963,8.493s-1.849.824-3.419.824c-2.011,0-5.261-1.284-7.318-2.556C1.649,3.349-2.78-3.966-2.78-5.992-2.78-9.208,6.771-6.676,12.206-6.676Z" transform="translate(90.602 40.421)" fill="#25294e"/>
      <path id="路径_1812" data-name="路径 1812" d="M0,0C15.6,12.543,23.269,32.521,30.793,38.5s22.72,22.194,29.6,25.147S58.8,72.983,56.439,75.491,34.749,63.378,30.793,60.906s-28.835-20.1-28.835-20.1Z" transform="matrix(0.996, 0.087, -0.087, 0.996, 87.776, 64.28)" fill="#363362"/>
      <path id="路径_1813" data-name="路径 1813" d="M62.466,34.474c-1.274,4.461-7.772,15.806-13.591,23.1-3.212,4.026-10.682,7.593-10.682,7.593s-.492,4.756-4.272,11.971c-2.216,4.23-8.023,9.972-11.1,14.728-8,12.354-9.544,21.12-12.136,21.959S0,104.723,0,104.723s17.543-36.47,21.463-45.231S43.443,25.066,44.847,19.731,55.354,0,55.354,0L67.781,11.7Z" transform="matrix(0.998, 0.07, -0.07, 0.998, 22.706, 45.618)" fill="#363362"/>
      <path id="路径_1816" data-name="路径 1816" d="M7.306,0a7.456,7.456,0,0,1,7.306,7.6c0,3.21-2.633,8.425-5.122,9.029-.541.134.174-3.425-.774-3.425-.581,0-3.155,1.008-3.929.925C1.45,13.776,0,11.19,0,7.6A7.456,7.456,0,0,1,7.306,0Z" transform="translate(11.902 148.633)" fill="#ffb884"/>
    </g>
    <path id="路径_1818" data-name="路径 1818" d="M-13.943-20.827l504.6,19.452L480.21,177.133H.94Z" transform="translate(1307.131 220.867)" fill="#5d80bc"/>
    <circle id="椭圆_28" data-name="椭圆 28" cx="60" cy="60" r="60" transform="translate(1486 164)" fill="#e65c5c"/>
    <rect id="矩形_652" data-name="矩形 652" width="78.729" height="26.243" transform="translate(1506.271 212.514)" fill="#fff"/>
    <rect id="矩形_653" data-name="矩形 653" width="27.118" height="81.353" transform="translate(1532.514 183.647)" fill="#fff"/>
    <path id="路径_1820" data-name="路径 1820" d="M29.26.7c8.05,0,14.91-2.87,19.46-8.19l-5.88-5.6A17.036,17.036,0,0,1,29.75-7.28c-10.15,0-17.5-7.14-17.5-17.22s7.35-17.22,17.5-17.22a17.208,17.208,0,0,1,13.09,5.74l5.88-5.53c-4.55-5.32-11.41-8.19-19.39-8.19C14.28-49.7,3.08-39.13,3.08-24.5S14.28.7,29.26.7ZM59.57,0H94.29V-7.7H68.67V-49h-9.1ZM103.6,0h9.1V-49h-9.1Zm58.94-49v33.18L135.52-49h-7.49V0h9.03V-33.18L164.08,0h7.49V-49ZM186.83,0h9.1V-49h-9.1Zm47.11.7c8.05,0,14.91-2.87,19.46-8.19l-5.88-5.6a17.036,17.036,0,0,1-13.09,5.81c-10.15,0-17.5-7.14-17.5-17.22s7.35-17.22,17.5-17.22a17.208,17.208,0,0,1,13.09,5.74l5.88-5.53c-4.55-5.32-11.41-8.19-19.39-8.19-15.05,0-26.25,10.57-26.25,25.2S218.96.7,233.94.7Z" transform="translate(1417 370)" fill="#fff"/>
    <rect id="矩形_654" data-name="矩形 654" width="589" height="22" transform="translate(1258 398)" fill="#93a0c2"/>
    <rect id="矩形_3" data-name="矩形 3" width="2321.932" height="174.22" transform="translate(-207.418 1024.606)" fill="#333"/>
  </g>
</svg>
