<svg id="Layer_1" data-name="Layer 1" xmlns="http://www.w3.org/2000/svg" xmlns:xlink="http://www.w3.org/1999/xlink" viewBox="0 0 1920 1080"><defs><style>.cls-1,.cls-13,.cls-14,.cls-58,.cls-59{fill:none;}.cls-2{clip-path:url(#clip-path);}.cls-3{fill:#eff7fd;}.cls-4{fill:#979797;}.cls-5{fill:#f5e8a9;}.cls-6{fill:#f5dc6e;}.cls-7{fill:#78b9e4;}.cls-8{fill:#25315b;}.cls-9{fill:#384880;}.cls-10{fill:#efbab8;}.cls-11{fill:#e67470;}.cls-12{clip-path:url(#clip-path-2);}.cls-13,.cls-14{stroke:#000;stroke-linejoin:round;stroke-width:4px;}.cls-14{stroke-linecap:round;}.cls-15{fill:#2a4b7c;}.cls-16{fill:#aecee3;}.cls-17{clip-path:url(#clip-path-3);}.cls-18{fill:#d1dde2;}.cls-19{clip-path:url(#clip-path-4);}.cls-20{clip-path:url(#clip-path-5);}.cls-21{fill:#e08e6d;}.cls-22{fill:#dc6b6a;}.cls-23{fill:#f1fdcb;opacity:0.3;}.cls-23,.cls-60{isolation:isolate;}.cls-24{fill:#8ca1c8;}.cls-25{fill:#de7e6c;}.cls-26{fill:#cbd9ed;}.cls-27{fill:#205ea4;}.cls-28,.cls-30{fill:#112e58;}.cls-28{stroke:#112e58;}.cls-28,.cls-58,.cls-59{stroke-miterlimit:10;}.cls-29{fill:#bffcf3;}.cls-31{fill:#fffce7;}.cls-32{fill:#6cc8b6;}.cls-33{fill:#443731;}.cls-34{fill:#cceef2;}.cls-35{opacity:0.57;}.cls-36{fill:#aecce2;}.cls-37{clip-path:url(#clip-path-7);}.cls-38{fill:#6d82b2;}.cls-39{fill:#bac6dd;}.cls-40{fill:#794916;}.cls-41{fill:#0254f4;}.cls-42{fill:#26669a;}.cls-43{fill:#e8deab;}.cls-44{fill:#51330d;}.cls-45{fill:#f4b795;}.cls-46{fill:#fff;}.cls-47{fill:#a27426;}.cls-48{fill:#2779f5;}.cls-49{fill:#2d739b;}.cls-50{fill:#0e2348;}.cls-51{fill:#3574f5;}.cls-52{fill:#63679b;}.cls-53{fill:#f5c096;}.cls-54{fill:#517af5;}.cls-55{fill:#78759b;}.cls-56{fill:#646f9b;}.cls-57{fill:#0b3985;}.cls-58{stroke:#38805c;}.cls-58,.cls-59{stroke-width:3px;}.cls-59{stroke:#f2a668;}.cls-60{fill:#5870c9;opacity:0.08;}</style><clipPath id="clip-path"><polyline class="cls-1" points="1918.95 1080.5 0.7 1080.5 0.7 0.5 1918.95 0.5"/></clipPath><clipPath id="clip-path-2"><polygon class="cls-1" points="709.42 1011.32 762.29 1011.32 757.5 1037.17 722.07 1040.87 709.42 1011.32"/></clipPath><clipPath id="clip-path-3"><rect class="cls-1" x="1580.38" y="901.13" width="68.96" height="159.8"/></clipPath><clipPath id="clip-path-4"><rect class="cls-1" x="1502.74" y="901.13" width="68.96" height="159.8"/></clipPath><clipPath id="clip-path-5"><rect class="cls-1" x="1480.6" y="748.69" width="190.87" height="120.53"/></clipPath><clipPath id="clip-path-7"><rect class="cls-1" x="1480.6" y="610.74" width="190.87" height="120.53"/></clipPath></defs><title>Housing</title><g class="cls-2"><rect id="sky" class="cls-3" x="-2.84" y="0.5" width="1921.9" height="1027.15"/><g id="street"><rect id="Rectangle_4" data-name="Rectangle 4" class="cls-4" x="-139" y="1027.22" width="2115.94" height="52.01"/></g><g id="Group_6" data-name="Group 6"><path id="Path_2" data-name="Path 2" class="cls-5" d="M827.2,1057c19.66,0,59-78.62,59-78.62s39.31,78.62,59,78.62Z"/><path id="Path_3" data-name="Path 3" class="cls-6" d="M886.17,978.42S869,1057,856.69,1057h29.48Z"/></g><g id="Group_7" data-name="Group 7"><path id="Path_4" data-name="Path 4" class="cls-7" d="M1021.67,1057.72l17.33-52,52-34.66,52,34.66,17.32,52Z"/><path id="Path_5" data-name="Path 5" class="cls-8" d="M1056.32,1057.72l34.66-52,34.65,52Z"/><path id="Path_6" data-name="Path 6" class="cls-9" d="M1021.67,1057.72l25.45-51.82L1091,984.08l43.85,21.82,25.45,51.82L1133,1011.35l-42-21.13-42,21.13Z"/></g><g id="Group_8" data-name="Group 8"><path id="Path_7" data-name="Path 7" class="cls-10" d="M736.72,1057.5a57.41,57.41,0,1,0-112.35,0Z"/><path id="Path_8" data-name="Path 8" class="cls-11" d="M704.43,1057.5c-1.15-24.58-10.31-43.72-21.44-43.72s-20.28,19.14-21.43,43.72Z"/><path id="Path_9" data-name="Path 9" class="cls-11" d="M633.59,1057.4A57.46,57.46,0,0,1,678,989.35a56.66,56.66,0,0,1,6.61-1c-1.34-.1-2.69-.14-4.05-.15a57.46,57.46,0,0,0-56.17,69.29h12.57v-.1Z"/></g><g id="Group_13" data-name="Group 13"><rect id="Rectangle_5" data-name="Rectangle 5" class="cls-7" x="729.11" y="1010.76" width="31.56" height="16.99" transform="translate(-517.38 998.72) rotate(-52.91)"/><rect id="Rectangle_6" data-name="Rectangle 6" class="cls-6" x="718.19" y="1003.48" width="15.16" height="17.59" transform="translate(-469.18 660.81) rotate(-37.97)"/><g id="Group_12" data-name="Group 12"><g id="Group_11" data-name="Group 11"><g class="cls-12"><g id="Group_10" data-name="Group 10"><g id="Group_9" data-name="Group 9"><rect id="Rectangle_7" data-name="Rectangle 7" x="721.86" y="976.36" width="2.24" height="70.09"/><rect id="Rectangle_8" data-name="Rectangle 8" x="729.83" y="976.36" width="2.24" height="70.09"/><rect id="Rectangle_9" data-name="Rectangle 9" x="737.81" y="976.36" width="2.24" height="70.09"/><rect id="Rectangle_10" data-name="Rectangle 10" x="745.78" y="976.36" width="2.24" height="70.09"/><rect id="Rectangle_11" data-name="Rectangle 11" x="753.76" y="976.36" width="2.24" height="70.09"/><rect id="Rectangle_12" data-name="Rectangle 12" x="701.99" y="1031.61" width="70.09" height="2.24"/><rect id="Rectangle_13" data-name="Rectangle 13" x="701.99" y="1023.64" width="70.09" height="2.24"/><rect id="Rectangle_14" data-name="Rectangle 14" x="701.99" y="1015.67" width="70.09" height="2.24"/></g></g></g></g><path id="Path_11" data-name="Path 11" class="cls-13" d="M709.42,1011.35h52.87l-4.79,25.85-35.43,3.69Z"/><circle id="Ellipse_1" data-name="Ellipse 1" class="cls-14" cx="722.2" cy="1059.86" r="3.39"/><path id="Path_12" data-name="Path 12" class="cls-14" d="M762.26,1054.6H724.74s-21,1.25-2.63-13.67l-17.26-40.15-8.41-1.53"/><circle id="Ellipse_2" data-name="Ellipse 2" class="cls-14" cx="756.14" cy="1059.86" r="3.39"/></g></g><g id="Group_69" data-name="Group 69"><rect id="Rectangle_15" data-name="Rectangle 15" class="cls-15" x="1434.89" y="587.5" width="282.3" height="473.43"/><g id="Group_22" data-name="Group 22"><g id="Group_18" data-name="Group 18"><rect id="Rectangle_17" data-name="Rectangle 17" class="cls-16" x="1580.38" y="901.13" width="68.96" height="159.8"/><g id="Group_17" data-name="Group 17"><g class="cls-17"><g id="Group_16" data-name="Group 16"><g id="Group_15" data-name="Group 15"><g id="Group_14" data-name="Group 14"><rect id="Rectangle_18" data-name="Rectangle 18" class="cls-18" x="1371.68" y="955.81" width="280.45" height="24.83" transform="translate(-241.81 1352.67) rotate(-45)"/><rect id="Rectangle_19" data-name="Rectangle 19" class="cls-18" x="1392.4" y="982.64" width="280.45" height="12.62" transform="translate(-250.4 1373.39) rotate(-45)"/></g></g></g></g></g></g><rect id="Rectangle_21" data-name="Rectangle 21" class="cls-16" x="1503.05" y="901.13" width="68.96" height="159.8"/><g id="Group_21" data-name="Group 21"><g class="cls-19"><g id="Group_20" data-name="Group 20"><g id="Group_19" data-name="Group 19"><rect id="Rectangle_22" data-name="Rectangle 22" class="cls-18" x="1370.89" y="955.81" width="280.45" height="24.83" transform="translate(-242.04 1352.1) rotate(-45)"/><rect id="Rectangle_23" data-name="Rectangle 23" class="cls-18" x="1391.61" y="982.64" width="280.45" height="12.62" transform="translate(-250.63 1372.83) rotate(-45)"/></g></g></g></g></g><g id="Group_45" data-name="Group 45"><g id="Group_40" data-name="Group 40"><g class="cls-20"><g id="Group_39" data-name="Group 39"><g id="Group_38" data-name="Group 38"><rect id="Rectangle_485" data-name="Rectangle 485" class="cls-21" x="1475.14" y="740.5" width="198.3" height="149.29"/><path id="Path_13" data-name="Path 13" class="cls-22" d="M1673.44,859.26v30.53h-198.3l-.25-30.66,31.13,0,161.19.1Z"/><path id="Path_14" data-name="Path 14" class="cls-23" d="M1673.44,869.27v20.52H1497a17.33,17.33,0,0,1-2.21-8.29,16.12,16.12,0,0,1,.4-3.53c.13-.59.29-1.17.48-1.75s.64-.93.86-1.28c1.34-2.24,2.69-4.47,4-6.71q2.74-4.54,5.5-9.08,32.88-54.21,67.14-107.59h27.14l66.92,107.69q2.63,4.25,5.28,8.5Z"/><path id="Path_15" data-name="Path 15" class="cls-24" d="M1508.06,869.18c-.65,3.22,8.29,7.66,14.16,9.8,10.69,3.92,18.46,2.91,35.25,2.27,0,0,17.82-.68,39-.26,17.6.36,18.37,1.27,32.32,1.26,17.22,0,38.91,0,40.32-5.78.76-3.1-4.53-7.32-9.08-9.3-10-4.35-16,2.32-33.38,2-5.32-.09-11-1.07-22.43-3-9.82-1.68-15.54-3.14-22.43-.76-5.06,1.75-25.83,6.67-40.86,3-8.36-2-9.56-3-14.69-3.27C1518.88,864.74,1508.72,866,1508.06,869.18Z"/><path id="Rectangle_485-2" data-name="Rectangle 485-2" class="cls-25" d="M1474.89,889.79l-.14-149.29h28V858.77Z"/><path id="Path_17" data-name="Path 17" class="cls-26" d="M1523.94,841.22a4.85,4.85,0,0,1-1.44-2.15A6.4,6.4,0,0,0,1523.94,841.22Z"/><path id="Path_18" data-name="Path 18" class="cls-26" d="M1525.13,842.23a8.87,8.87,0,0,1-1.15-1C1524.35,841.61,1524.73,841.93,1525.13,842.23Z"/><path id="Path_19" data-name="Path 19" class="cls-26" d="M1524.19,844.74a4.85,4.85,0,0,1-1.44-2.15A6.5,6.5,0,0,0,1524.19,844.74Z"/><path id="Path_20" data-name="Path 20" class="cls-26" d="M1525.39,845.74a8.15,8.15,0,0,1-1.16-1A11.72,11.72,0,0,0,1525.39,845.74Z"/><ellipse id="Ellipse_6" data-name="Ellipse 6" class="cls-27" cx="1587.36" cy="750.68" rx="12.73" ry="1.63"/><g id="Group_37" data-name="Group 37"><rect id="Rectangle_34" data-name="Rectangle 34" class="cls-28" x="1584.7" y="740.5" width="4.29" height="5.28"/><path id="Path_67" data-name="Path 67" class="cls-28" d="M1600.8,749.05v3.26c0-.59-.67-1.15-1.85-1.63-2.39-1-6.85-1.63-12-1.63s-9.58.65-12,1.63c-1.18.48-1.85,1-1.85,1.63v-3.26c0-1.81,6.18-3.27,13.82-3.27S1600.8,747.24,1600.8,749.05Z"/><path id="Path_68" data-name="Path 68" class="cls-29" d="M1600.8,752.31c0,1.81-6.19,3.27-13.82,3.27s-13.82-1.46-13.82-3.27c0-.59.67-1.15,1.85-1.63,2.39-1,6.85-1.63,12-1.63s9.58.65,12,1.63C1600.13,751.16,1600.8,751.72,1600.8,752.31Z"/></g></g></g></g><g id="Group_71" data-name="Group 71"><circle id="Ellipse_13" data-name="Ellipse 13" class="cls-30" cx="1642.36" cy="782.7" r="3.37"/><rect id="Rectangle_70" data-name="Rectangle 70" class="cls-30" x="1640.92" y="784.15" width="2.89" height="77.6"/><path id="Path_127" data-name="Path 127" class="cls-30" d="M1642.6,854.52c6,0,10.85,7.47,10.85,7.47h-21.69S1636.61,854.52,1642.6,854.52Z"/><path id="Rectangle_71" data-name="Rectangle 71" class="cls-30" d="M1626.83,792.79l15.86,7.07a1.44,1.44,0,0,1,.73,1.91h0a1.45,1.45,0,0,1-1.91.73l-15.85-7.06a1.46,1.46,0,0,1-.74-1.91h0A1.46,1.46,0,0,1,1626.83,792.79Z"/><path id="Rectangle_72" data-name="Rectangle 72" class="cls-30" d="M1659.07,804.59l-15.86,7.06a1.44,1.44,0,0,1-1.91-.73h0A1.45,1.45,0,0,1,1642,809l15.86-7.06a1.44,1.44,0,0,1,1.91.73h0A1.44,1.44,0,0,1,1659.07,804.59Z"/></g><g id="Group_70" data-name="Group 70"><rect id="Rectangle_67" data-name="Rectangle 67" class="cls-31" x="1504.03" y="841.99" width="87.24" height="16.39" rx="6.75"/><rect id="Rectangle_68" data-name="Rectangle 68" class="cls-32" x="1528.61" y="835.72" width="61.21" height="25.55" rx="5.78"/><rect id="Rectangle_64" data-name="Rectangle 64" class="cls-33" x="1501.14" y="821.01" width="5.75" height="48.45"/><rect id="Rectangle_65" data-name="Rectangle 65" class="cls-33" x="1506.44" y="854.09" width="84.64" height="8.56"/><rect id="Rectangle_66" data-name="Rectangle 66" class="cls-33" x="1589.64" y="831.33" width="5.75" height="38.13"/><circle id="Ellipse_11" data-name="Ellipse 11" class="cls-33" cx="1503.79" cy="817.64" r="3.61"/><circle id="Ellipse_12" data-name="Ellipse 12" class="cls-33" cx="1592.48" cy="827.77" r="3.61"/><path id="Path_125" data-name="Path 125" class="cls-33" d="M1508.37,857.41a5,5,0,0,1,4.82,5.06,2.64,2.64,0,0,1-2.59,2.79c-1.83,0-3.76,1.34-3.75,3.23,0,3.29-3.3-3.22-3.3-6A5,5,0,0,1,1508.37,857.41Z"/><path id="Path_126" data-name="Path 126" class="cls-33" d="M1588.38,857.41a5,5,0,0,0-4.82,5.06,2.92,2.92,0,0,0,2.59,2.79c1.54.08,3.7,1.39,3.69,3.28,0,3.29,3.36-3.27,3.36-6.07A5,5,0,0,0,1588.38,857.41Z"/><path id="Rectangle_69" data-name="Rectangle 69" class="cls-34" d="M1513.19,835.72h9.64a4.82,4.82,0,0,1,4.82,4.82h0a4.82,4.82,0,0,1-4.82,4.82h-9.64a4.82,4.82,0,0,1-4.82-4.82h0A4.82,4.82,0,0,1,1513.19,835.72Z"/></g></g><g id="Group_44" data-name="Group 44" class="cls-35"><rect id="Rectangle_36" data-name="Rectangle 36" class="cls-36" x="1480.6" y="748.69" width="190.87" height="120.53"/><g id="Group_43" data-name="Group 43"><g class="cls-20"><g id="Group_42" data-name="Group 42"><g id="Group_41" data-name="Group 41"><rect id="Rectangle_37" data-name="Rectangle 37" class="cls-18" x="1362.48" y="801.25" width="283.43" height="25.09" transform="translate(-134.88 1301.98) rotate(-45)"/><rect id="Rectangle_38" data-name="Rectangle 38" class="cls-18" x="1383.42" y="828.37" width="283.43" height="12.75" transform="translate(-143.55 1322.93) rotate(-45)"/></g></g></g></g></g></g><g id="Group_68" data-name="Group 68"><g id="Group_63" data-name="Group 63"><g class="cls-37"><g id="Group_62" data-name="Group 62"><g id="Group_61" data-name="Group 61"><rect id="Rectangle_485-3" data-name="Rectangle 485-3" class="cls-21" x="1475.14" y="602.55" width="198.3" height="149.29"/><path id="Path_69" data-name="Path 69" class="cls-22" d="M1673.44,721.31v30.53h-198.3l-.25-30.66,31.13,0,161.19.1Z"/><path id="Path_70" data-name="Path 70" class="cls-23" d="M1673.44,731.32v20.52H1497a17.33,17.33,0,0,1-2.21-8.29,16.12,16.12,0,0,1,.4-3.53c.13-.59.29-1.17.48-1.75s.64-.93.86-1.28q2-3.36,4-6.7c1.83-3,3.66-6.06,5.5-9.09q32.88-54.21,67.14-107.59h27.14q33.46,53.85,66.92,107.69,2.63,4.26,5.28,8.5Z"/><path id="Path_71" data-name="Path 71" class="cls-24" d="M1508.06,731.23c-.65,3.22,8.29,7.66,14.16,9.8,10.69,3.92,18.46,2.91,35.25,2.27,0,0,17.82-.68,39-.26,17.6.36,18.37,1.27,32.32,1.26,17.22,0,38.91,0,40.32-5.78.76-3.1-4.53-7.32-9.08-9.3-10-4.35-16,2.32-33.38,2-5.32-.09-11-1.07-22.43-3-9.82-1.68-15.54-3.14-22.43-.76-5.06,1.75-25.83,6.67-40.86,3-8.36-2-9.56-3-14.69-3.27C1518.88,726.79,1508.72,728,1508.06,731.23Z"/><path id="Rectangle_485-4" data-name="Rectangle 485-4" class="cls-25" d="M1474.89,751.84l-.14-149.29h28V720.82Z"/><path id="Path_73" data-name="Path 73" class="cls-26" d="M1523.94,703.27a4.85,4.85,0,0,1-1.44-2.15A6.4,6.4,0,0,0,1523.94,703.27Z"/><path id="Path_74" data-name="Path 74" class="cls-26" d="M1525.13,704.28a8.87,8.87,0,0,1-1.15-1C1524.35,703.66,1524.73,704,1525.13,704.28Z"/><path id="Path_75" data-name="Path 75" class="cls-26" d="M1524.19,706.79a4.85,4.85,0,0,1-1.44-2.15A6.5,6.5,0,0,0,1524.19,706.79Z"/><path id="Path_76" data-name="Path 76" class="cls-26" d="M1525.39,707.8a9,9,0,0,1-1.16-1A13.43,13.43,0,0,0,1525.39,707.8Z"/><g id="Group_59" data-name="Group 59"><g id="Group_46" data-name="Group 46"><path id="Path_77" data-name="Path 77" class="cls-38" d="M1586,696.5c1,0,1.84.52,1.84,1.16v.05h0v35.47h0v0c0,.64-.82,1.16-1.84,1.16s-1.85-.52-1.85-1.16a.06.06,0,0,1,0,0h0V697.7h0a.07.07,0,0,1,0-.05C1584.1,697,1584.93,696.5,1586,696.5Z"/><path id="Path_78" data-name="Path 78" class="cls-38" d="M1616.7,697.33a2.19,2.19,0,0,1-1.88,2.41h-57.9a2.48,2.48,0,0,1,0-4.82h57.9A2.19,2.19,0,0,1,1616.7,697.33Z"/><path id="Path_79" data-name="Path 79" class="cls-38" d="M1598,733c0,.9-.33,1.62-.74,1.62h-22.74c-.41,0-.74-.72-.74-1.62s.33-1.62.74-1.62h22.74C1597.62,731.39,1598,732.12,1598,733Z"/></g><g id="Group_51" data-name="Group 51"><g id="Group_47" data-name="Group 47"><line id="Line_9" data-name="Line 9" class="cls-1" x1="1527.55" y1="712.02" x2="1522.25" y2="731.91"/><rect id="Rectangle_41" data-name="Rectangle 41" class="cls-30" x="1514.61" y="720.97" width="20.58" height="2" transform="translate(434.75 2009.65) rotate(-75.08)"/></g><g id="Group_48" data-name="Group 48"><line id="Line_10" data-name="Line 10" class="cls-1" x1="1535.48" y1="713.94" x2="1533.94" y2="736.59"/><rect id="Rectangle_42" data-name="Rectangle 42" class="cls-30" x="1523.36" y="724.27" width="22.71" height="2" transform="translate(707.39 2207.46) rotate(-86.13)"/></g><g id="Group_49" data-name="Group 49"><line id="Line_11" data-name="Line 11" class="cls-1" x1="1537.57" y1="709.05" x2="1542.71" y2="730.93"/><rect id="Rectangle_43" data-name="Rectangle 43" class="cls-30" x="1539.15" y="708.75" width="2" height="22.49" transform="translate(-123.91 371.61) rotate(-13.23)"/></g><g id="Group_50" data-name="Group 50"><line id="Line_12" data-name="Line 12" class="cls-1" x1="1546.57" y1="711.81" x2="1551.7" y2="733.69"/><rect id="Rectangle_44" data-name="Rectangle 44" class="cls-30" x="1548.14" y="711.51" width="2" height="22.48" transform="translate(-124.18 373.16) rotate(-13.21)"/></g><path id="Path_80" data-name="Path 80" class="cls-38" d="M1525,685.84c-5.89,3.85-3.55,13.3-2.84,18.69.63,4.81,2.53,6.82,9.08,9,6.32,2.08,17.38.59,17.61-1.45.67-6.14-4.35-3.67-6.79-8.74-2.84-5.9,1.59-9.6-1.13-14.35C1538.52,684.7,1529.86,682.68,1525,685.84Z"/><path id="Path_81" data-name="Path 81" class="cls-39" d="M1527.09,685.25c-2.72,2.66-2.22,11.08-1.63,16.2.53,4.56,1.81,7.37,7.62,9.37,5.6,1.93,15.23.76,15.45-1.18.41-3.76-4.15-2.17-6.21-7-2.77-6.49,1.25-9.69-1.13-14.18C1539.05,684.44,1530.51,681.91,1527.09,685.25Z"/></g><g id="Group_56" data-name="Group 56"><g id="Group_52" data-name="Group 52"><line id="Line_13" data-name="Line 13" class="cls-1" x1="1640.73" y1="711.67" x2="1645.9" y2="731.62"/><rect id="Rectangle_45" data-name="Rectangle 45" class="cls-30" x="1642.32" y="711.34" width="2" height="20.61" transform="translate(-128.52 435.57) rotate(-14.54)"/></g><g id="Group_53" data-name="Group 53"><line id="Line_14" data-name="Line 14" class="cls-1" x1="1632.79" y1="713.49" x2="1634.18" y2="736.16"/><rect id="Rectangle_46" data-name="Rectangle 46" class="cls-30" x="1632.49" y="713.47" width="2" height="22.71" transform="translate(-41.13 100.87) rotate(-3.49)"/></g><g id="Group_54" data-name="Group 54"><line id="Line_15" data-name="Line 15" class="cls-1" x1="1630.73" y1="708.58" x2="1625.45" y2="730.4"/><rect id="Rectangle_47" data-name="Rectangle 47" class="cls-30" x="1616.86" y="718.49" width="22.45" height="2" transform="translate(546.15 2132.9) rotate(-76.41)"/></g><g id="Group_55" data-name="Group 55"><line id="Line_16" data-name="Line 16" class="cls-1" x1="1621.72" y1="711.23" x2="1616.43" y2="733.05"/><rect id="Rectangle_48" data-name="Rectangle 48" class="cls-30" x="1607.85" y="721.14" width="22.45" height="2" transform="translate(536.67 2126.17) rotate(-76.41)"/></g><path id="Path_82" data-name="Path 82" class="cls-38" d="M1643.44,685.52c5.87,3.92,3.46,13.34,2.72,18.72-.67,4.8-2.58,6.8-9.15,8.87-6.33,2-17.38.38-17.59-1.67-.64-6.14,4.37-3.61,6.84-8.65,2.89-5.87-1.52-9.62,1.23-14.34C1630,684.22,1638.63,682.31,1643.44,685.52Z"/><path id="Path_83" data-name="Path 83" class="cls-39" d="M1641.38,684.91c2.7,2.69,2.14,11.11,1.51,16.21-.55,4.56-1.85,7.35-7.67,9.28-5.62,1.86-15.25.58-15.45-1.36-.39-3.76,4.16-2.12,6.25-6.93,2.82-6.45-1.18-9.69,1.23-14.15C1629.42,684,1638,681.52,1641.38,684.91Z"/></g><g id="Group_57" data-name="Group 57"><path id="Path_84" data-name="Path 84" class="cls-40" d="M1562,728.89l7.45,1.35a.28.28,0,0,1,0,.56l-7.39.82a.74.74,0,0,1-.82-.66.15.15,0,0,1,0-.07l0-1.32a.68.68,0,0,1,.67-.7Z"/><path id="Path_85" data-name="Path 85" class="cls-41" d="M1565.73,717.79c-.14,4.23-.37,11.5-2.56,12a2,2,0,0,1-1.57-.62c-1.18-.93-2.33-2.87-2.15-11.27,0-2.16.18-5.1.58-8.58a71.33,71.33,0,0,1-10.93.7c-7-.08-10.6-.17-12.61-2.76s-2.37-7.8,0-9.92c2-1.77,5.12-.92,5.61-.79a8.11,8.11,0,0,1,4.19,2.86l4.86.85q7,1.26,13.79,2.66A90.31,90.31,0,0,1,1565.73,717.79Z"/><path id="Path_86" data-name="Path 86" class="cls-42" d="M1570.27,687c.11,1.39-3.75,2.81-8.61,3.18-4.07.31-7.55-.22-8.64-1.22a5.18,5.18,0,0,0-.74-.59,27.42,27.42,0,0,1-4.73-3.86c-3.84-3.84-6-7.87-4.91-9s5.16,1.07,9,4.9a28.59,28.59,0,0,1,3.62,4.37c2,.08,4.7.46,6,.36C1566.14,684.8,1570.17,685.63,1570.27,687Z"/><path id="Path_87" data-name="Path 87" class="cls-43" d="M1550.5,669.33l-1.1.34a4,4,0,0,1-3.55,2.8,2.87,2.87,0,0,1-.87-.13l0,.09a8.34,8.34,0,0,0-.67-.5c-.86-.61-1.67-.94-1.8-.75s.47.82,1.34,1.42a7.42,7.42,0,0,0,1,.58l0,.26a3.58,3.58,0,0,1,.5.66h0a2.85,2.85,0,0,1,.41,1.73h0a1.12,1.12,0,0,1-.5.84,1,1,0,0,1-.3.11,1.92,1.92,0,0,1-1.62-.81h0a.76.76,0,0,1-.08-.11h-.05l-.86-.17c-.38-.4-.43-.65-1.32-1.58-.23-.24-.45-.47-.58-.62l0-.13,0-.07c.09-.5.66-3.39.69-3.51l1.05-.62.39-.23.6-.36.29-.43a1.5,1.5,0,0,1-.29-.94c0-.68.36-1.23.81-1.23a.67.67,0,0,1,.55.31v.86h1.37v-1.37a20.45,20.45,0,0,0,3.56-.56,6.12,6.12,0,0,1,.4,2.2Z"/><path id="Path_88" data-name="Path 88" class="cls-28" d="M1551,664.52a5.39,5.39,0,0,1-1.62.69,20.56,20.56,0,0,1-3.57.56v1.37h-1.37v-.86a.69.69,0,0,0-.54-.31c-.45,0-.82.55-.82,1.23a1.55,1.55,0,0,0,.29.95l-.29.42-.6.36-.39.23-1.05.63-.15.08s-2.18-5.93.55-7.81,9.56-.14,10.38-1.59S1552.68,663.36,1551,664.52Z"/><ellipse id="Ellipse_7" data-name="Ellipse 7" class="cls-44" cx="1548.67" cy="667.37" rx="0.63" ry="0.21" transform="translate(196.38 1674.87) rotate(-60)"/><path id="Path_89" data-name="Path 89" class="cls-44" d="M1547.76,669.87a1.07,1.07,0,0,0,1,1Z"/><path id="Path_90" data-name="Path 90" class="cls-45" d="M1545,672.43l-.15.75a7.42,7.42,0,0,1-1-.58c-.87-.6-1.47-1.24-1.34-1.42s.93.14,1.8.75C1544.54,672.1,1544.76,672.27,1545,672.43Z"/><path id="Path_91" data-name="Path 91" class="cls-46" d="M1546.12,676a1.49,1.49,0,0,1-.69.95c-1.13.57-3-1.13-3.06-1.23a1.13,1.13,0,0,1-.19-.19c-.38-.4-.65-.65-1.55-1.58-.24-.24-.26,0-.39-.2s-.13-.16-.11-.19.14-.23.21-.21a1.65,1.65,0,0,1,.42.21,7,7,0,0,1,1.88,1.76l.41.39.14.11h0a3.56,3.56,0,0,0,1.65.81.71.71,0,0,0,.45-.09,1,1,0,0,0,.37-.85h0a2.26,2.26,0,0,0-.1-.78,5.91,5.91,0,0,0-.62-1.23s0,.06.29.26a2.51,2.51,0,0,1,.61.69A1.75,1.75,0,0,1,1546.12,676Z"/><path id="Path_92" data-name="Path 92" class="cls-47" d="M1553.52,730.66l7.41,1.58a.28.28,0,0,1,.22.33.29.29,0,0,1-.26.22l-7.41.61a.75.75,0,0,1-.81-.68v-.07l0-1.32a.68.68,0,0,1,.69-.68Z"/><path id="Path_93" data-name="Path 93" class="cls-43" d="M1570.16,683.12c-.82,0-3.44,1.84-2.18,3.83.92,1.46,3.72,1.46,5.46.41s2.37-3,2-3.28c-1.09-1.09-3.26,1.94-5.19,1.36C1568.93,685,1571.39,683.12,1570.16,683.12Z"/><path id="Path_94" data-name="Path 94" class="cls-48" d="M1561.18,718.52c-.14,4.27-2.26,12.43-4.58,12.93-.64.13-2.06.33-2.5,0-1.27-.94-1.91-4.05,0-12.3.62-2.71,1.86-5.46,2.29-9a70.41,70.41,0,0,1-10.57.49c-7.47-.08-11.26-.17-13.4-2.78s-2.51-7.87,0-10c2.1-1.78,5.44-.92,6-.79a8.61,8.61,0,0,1,4.46,2.89c1.71.27,3.43.56,5.15.85,5,.85,8.4,1.95,13.19,2.89C1562.07,710,1561.3,714.9,1561.18,718.52Z"/><path id="Path_95" data-name="Path 95" class="cls-49" d="M1540.39,673.43c-.66-.23-1.46,1.46-2.6,3.27-1.68,2.68-4.64,6.83-5.19,9.56-.78,3.91-3.28,16.22-2,16.22,3.59,0,10.38-3.23,14.89-1.88,1.37.41,4.42-23.25.32-26.26,0,0,.75,1.69-.18,2.5-.77.67-1.47.27-2.6-.68C1541.29,674.71,1540.8,673.56,1540.39,673.43Z"/><path id="Path_96" data-name="Path 96" class="cls-42" d="M1563.85,693.17c.11,1.39-3.75,2.82-8.61,3.19a21.73,21.73,0,0,1-7-.44c-1.6-.13-4.37-2.6-6.76-6.15-2.81-4.19-4-8.31-2.7-9.2s4.68,1.79,7.5,6a23.5,23.5,0,0,1,2.72,5.27,31.31,31.31,0,0,1,5.82-.5C1559.72,691,1563.75,691.78,1563.85,693.17Z"/><path id="Path_97" data-name="Path 97" class="cls-43" d="M1563.34,688.59c-.82,0-3.44,1.83-2.19,3.82.92,1.46,3.72,1.47,5.46.41s2.37-3,2.05-3.28c-1.09-1.09-3.26,2-5.19,1.37C1562.11,690.5,1564.56,688.59,1563.34,688.59Z"/></g><g id="Group_58" data-name="Group 58"><path id="Path_98" data-name="Path 98" class="cls-50" d="M1618.7,664.34c.21,1.88,1.75,2.43,3.55,4.38s.52,4.07.62,6.66c.17,4.47-1,5.08-.21,5.63,1.2.78,6.88-.76,8.13-4.58,1-3-.63-5.77-2.29-9.59-1.28-2.94-2-4.6-3.75-5.21C1621.74,660.59,1618.53,662.75,1618.7,664.34Z"/><path id="Path_99" data-name="Path 99" class="cls-40" d="M1607.54,728.26l-7.45,1.35a.28.28,0,0,0-.23.33.27.27,0,0,0,.25.23l7.39.83a.74.74,0,0,0,.82-.66s0-.05,0-.07l0-1.32a.68.68,0,0,0-.67-.7Z"/><path id="Path_100" data-name="Path 100" class="cls-51" d="M1604.45,717.17c.13,4.23.16,11.49,2.34,12,.61.14.74-.29,1.16-.62,1.18-.93,1.34-2.23,1.17-10.63,0-2.17.19-7.78-.21-11.25,2.64.37,7,2.79,11.54,2.74,7-.08,10.6-.17,12.61-2.77s2.37-7.79,0-9.92c-2-1.76-5.12-.91-5.61-.78a8.12,8.12,0,0,0-4.2,2.86c-1.6.27-3.22.56-4.85.85-4.67.84-8.44,1.72-13,2.65A95.12,95.12,0,0,0,1604.45,717.17Z"/><path id="Path_101" data-name="Path 101" class="cls-52" d="M1603.28,687.68c-.09,1,2.38,1.58,6.41.89a20.15,20.15,0,0,0,6.86-2.54,4.31,4.31,0,0,1,.63-.42,23.17,23.17,0,0,0,4-2.76c3.23-2.74,5.08-5.61,4.12-6.42s-1.37-.42-6.11,3.5a37.88,37.88,0,0,0-4.22,3.58,23.14,23.14,0,0,0-5,2.3C1607.66,687.06,1603.37,686.69,1603.28,687.68Z"/><path id="Path_102" data-name="Path 102" class="cls-43" d="M1619.05,668.91l1.1.34a4,4,0,0,0,3.55,2.8,3.2,3.2,0,0,0,.87-.12l0,.09a6.5,6.5,0,0,1,.67-.51c.86-.6,1.67-.94,1.8-.75s-.47.82-1.34,1.42a6.47,6.47,0,0,1-1,.58l0,.27a3.51,3.51,0,0,0-.5.65h0a2.87,2.87,0,0,0-.41,1.74h0a1.12,1.12,0,0,0,.5.84,1,1,0,0,0,.3.1,1.9,1.9,0,0,0,1.62-.81h0l.09-.1h0l.87-.17a18.61,18.61,0,0,1,1.31-1.59c.23-.24.46-.46.58-.62l0-.12,0-.07c-.09-.5-.66-3.39-.69-3.51l-1-.63-.39-.23-.6-.36-.29-.42a1.55,1.55,0,0,0,.29-1c0-.68-.36-1.23-.81-1.23a.7.7,0,0,0-.55.31v.86h-1.37v-1.36a20.47,20.47,0,0,1-3.56-.57,6.17,6.17,0,0,0-.4,2.21Z"/><ellipse id="Ellipse_8" data-name="Ellipse 8" class="cls-44" cx="1620.8" cy="666.81" rx="0.18" ry="0.53" transform="translate(-116.26 899.74) rotate(-30)"/><path id="Path_103" data-name="Path 103" class="cls-44" d="M1621.78,669.25a1,1,0,0,1-1,1Z"/><path id="Path_104" data-name="Path 104" class="cls-45" d="M1624.59,671.81l.15.75a7.49,7.49,0,0,0,1-.59c.87-.6,1.47-1.23,1.34-1.42s-.93.15-1.8.75C1625,671.46,1624.8,671.63,1624.59,671.81Z"/><path id="Path_105" data-name="Path 105" class="cls-46" d="M1623.42,675.53a1.53,1.53,0,0,0,.69,1c1.1.56,2.9-1.13,3-1.23l.19-.19c.37-.41.43-.66,1.31-1.59.23-.24.46-.46.58-.62s.13-.17.1-.2-.06,0-.14,0a3,3,0,0,0-.54.27c-.95.56-1.15,1.23-1.77,1.91a5,5,0,0,1-.41.39l-.13.11h0a3.27,3.27,0,0,1-1.63.81.71.71,0,0,1-.43-.08,1,1,0,0,1-.36-.86h0a2.56,2.56,0,0,1,.09-.78,3.5,3.5,0,0,1,.82-1.23s-.24.06-.5.27a2.49,2.49,0,0,0-.6.69A1.86,1.86,0,0,0,1623.42,675.53Z"/><path id="Path_106" data-name="Path 106" class="cls-47" d="M1616,730l-7.41,1.57a.28.28,0,0,0-.22.33.29.29,0,0,0,.26.23l7.41.61a.75.75,0,0,0,.8-.69.15.15,0,0,0,0-.07l0-1.32a.68.68,0,0,0-.69-.68Z"/><path id="Path_107" data-name="Path 107" class="cls-53" d="M1604,685.41c.61,0,2.57,1.38,1.64,2.86-.7,1.1-2.79,1.1-4.09.31s-1.77-2.21-1.53-2.45c.82-.82,2.43,1.45,3.88,1C1604.9,686.84,1603.06,685.41,1604,685.41Z"/><path id="Path_108" data-name="Path 108" class="cls-54" d="M1609,717.9c.55,4.79,2.18,12.64,4.51,13.13.64.14,1.59.21,2-.21.55-.63,1.28-4-.62-12.3-.63-2.7-.82-6.49-1.25-10a55.79,55.79,0,0,0,10.15.91c7.47-.08,11.26.45,13.4-2.16s2.51-7.86,0-10c-2.1-1.78-5.44-.93-6-.79a8.53,8.53,0,0,0-4.46,2.88c-1.71.28-3.43.77-5.15,1.06-5,.85-7.77,1.74-12.57,2.68A55.56,55.56,0,0,0,1609,717.9Z"/><path id="Path_109" data-name="Path 109" class="cls-55" d="M1629.16,672.8c.66-.22,1.46,1.47,2.6,3.28a41.55,41.55,0,0,1,4.24,12.43c.63,7.09,4.23,13.34,3,13.34-3.59,0-10.38-3.23-14.89-1.87-.74.22,3.76-6.67-.61-12.51-3.44-4.58-1.56-12.06.34-13.44.05,0-.79,1.38.13,2.18.77.67,1.47.28,2.6-.68C1628.26,674.09,1628.75,672.94,1629.16,672.8Z"/><path id="Path_110" data-name="Path 110" class="cls-56" d="M1608.28,690.31c-.08,1,3,2.05,7,2.32,2.26.15,4.82.38,6.16,0,1.3-.09,3-2.26,4.94-4.84,2.28-3.06,3.26-6.06,2.19-6.7s-3.16,1.3-5.45,4.35c-1,1.36-2.1,2.61-2.82,3.84-1.57,0-4,.1-4.71,0C1611.63,689.11,1608.37,689.3,1608.28,690.31Z"/><path id="Path_111" data-name="Path 111" class="cls-28" d="M1618.7,664.34c.21,1.88,3.42.76,5.21,2.71s.11,3.24.21,5.83c.17,4.47-1,6.33-.21,6.88,1.19.78,6.88-.76,8.13-4.58,1-3-.63-5.77-2.29-9.59-1.28-2.94-2-4.61-3.75-5.21C1623,659.34,1618.53,662.75,1618.7,664.34Z"/><ellipse id="Ellipse_9" data-name="Ellipse 9" class="cls-57" cx="1604.53" cy="683.62" rx="7.71" ry="3.02"/><path id="Path_112" data-name="Path 112" class="cls-58" d="M1598.9,683.93c0-.21.42-1.46,1.26-1.46s.62,2.71,1.25,2.71.36-2.07.6-2.08,1.06,1.66,1.06,1.66"/><path id="Path_113" data-name="Path 113" class="cls-58" d="M1610.16,683.4c.16.14.86,1.26.32,1.9s-2.48-1.25-2.88-.77,1.36,1.61,1.22,1.79-2-.24-2-.24"/><path id="Path_114" data-name="Path 114" class="cls-58" d="M1603.56,683.23c.19-.09,1.5-.24,1.85.52s-2.2,1.71-1.93,2.27,2-.53,2.14-.32-1.06,1.66-1.06,1.66"/><path id="Path_115" data-name="Path 115" class="cls-59" d="M1599.88,686.65c-.11-.17-.39-1.46.32-1.89s1.93,2,2.47,1.68-.75-2-.56-2.09,1.77.87,1.77.87"/><path id="Path_116" data-name="Path 116" class="cls-59" d="M1605.63,684.87c.21,0,1.42.53,1.36,1.36s-2.75.41-2.8,1,2,.53,2,.76-1.75.93-1.75.93"/><path id="Path_117" data-name="Path 117" class="cls-28" d="M1612.24,683.62a7.71,7.71,0,1,1-15.42,0c0,1.23,3.45,2.23,7.71,2.23S1612.24,684.85,1612.24,683.62Z"/><path id="Path_118" data-name="Path 118" class="cls-43" d="M1607.57,687.32c.65,0,2.73,1.46,1.73,3-.73,1.16-3,1.16-4.34.32s-1.87-2.35-1.62-2.6c.87-.87,2.58,1.54,4.12,1.08C1608.54,688.84,1606.59,687.32,1607.57,687.32Z"/><path id="Path_119" data-name="Path 119" class="cls-58" d="M1601.4,682.81c-.14-.15-.68-1.35-.07-1.92s2.3,1.57,2.76,1.15-1.13-1.78-1-1.94,1.91.51,1.91.51"/><path id="Path_120" data-name="Path 120" class="cls-58" d="M1606,682.06c0-.21.27-1.49,1.09-1.58s.91,2.63,1.53,2.57.15-2.11.38-2.14,1.24,1.55,1.24,1.55"/><path id="Path_121" data-name="Path 121" class="cls-59" d="M1605.09,684.57c-.11-.18-.39-1.47.32-1.89s1.93,2,2.47,1.68-.75-2-.56-2.1,1.77.88,1.77.88"/><path id="Path_122" data-name="Path 122" class="cls-59" d="M1600.37,681.22c.11-.18,1.09-1.06,1.81-.65s-.79,2.66-.25,3,1.35-1.62,1.55-1.51.11,2,.11,2"/></g></g><ellipse id="Ellipse_10" data-name="Ellipse 10" class="cls-27" cx="1587.36" cy="612.73" rx="12.73" ry="1.63"/><g id="Group_60" data-name="Group 60"><rect id="Rectangle_49" data-name="Rectangle 49" class="cls-28" x="1584.7" y="602.55" width="4.29" height="5.28"/><path id="Path_123" data-name="Path 123" class="cls-28" d="M1600.8,611.1v3.26c0-.59-.67-1.15-1.85-1.63-2.39-1-6.85-1.63-12-1.63s-9.58.65-12,1.63c-1.18.48-1.85,1-1.85,1.63V611.1c0-1.81,6.18-3.27,13.82-3.27S1600.8,609.29,1600.8,611.1Z"/><path id="Path_124" data-name="Path 124" class="cls-29" d="M1600.8,614.36c0,1.81-6.19,3.27-13.82,3.27s-13.82-1.46-13.82-3.27c0-.59.67-1.15,1.85-1.63,2.39-1,6.85-1.63,12-1.63s9.58.65,12,1.63C1600.13,613.21,1600.8,613.77,1600.8,614.36Z"/></g></g></g></g></g><g id="Group_67" data-name="Group 67" class="cls-35"><rect id="Rectangle_51" data-name="Rectangle 51" class="cls-36" x="1480.6" y="610.74" width="190.87" height="120.53"/><g id="Group_66" data-name="Group 66"><g class="cls-37"><g id="Group_65" data-name="Group 65"><g id="Group_64" data-name="Group 64"><rect id="Rectangle_52" data-name="Rectangle 52" class="cls-18" x="1362.48" y="663.3" width="283.43" height="25.09" transform="translate(-37.33 1261.58) rotate(-45)"/><rect id="Rectangle_53" data-name="Rectangle 53" class="cls-18" x="1383.42" y="690.42" width="283.43" height="12.75" transform="translate(-46.01 1282.52) rotate(-45)"/></g></g></g></g></g></g></g></g><path id="路径_1819" data-name="路径 1819" class="cls-60" d="M1919,1080.5V690.08h-6.9v17.76h-9.13V943.58h-23.56V583.46h-9.13V559.77H1820.9l.13,0v0h49.39l-31-92,.09-.43-.2.09v0L1764.53,499l-25.46,85-.09,0v22.74l-7.85,2.27V792H1662v87.66h-9.88v-32h-16.72v32h-9.88V539.68l.18,0-35.58-163.55-72.87,21.35-44.54,174.22h0v302h-9.12V851.18H1439V781h-16V683.35c0-.35,0-.7,0-1.05,0-21.58-8.47-40.08-20.51-47.87V612.85c0-8.58-3.5-15.86-8.39-18.63V575.36h-10v19.73c-4.19,3.25-7.08,10-7.08,17.76V634.7c-11.77,8-20,26.34-19.81,47.6,0,.15,0,.3,0,.44h-.06V781H1337.9l-11.75,28.35-89.2-68v-38h-13v38l-89.2,68L1123.05,781h-19.27V682.74h-.06v-.44c.14-21.26-8-39.63-19.81-47.6V612.85c0-7.79-2.88-14.51-7.07-17.76V575.36h-10v18.85c-4.89,2.77-8.39,10.06-8.39,18.64v21.58c-12,7.79-20.52,26.29-20.52,47.87,0,.5,0,1,0,1.49V781h-16.07v92.71H1008.3V698.37H857V873.69H844V601.23H823.51V575.17l-14.37-26.34h-16.6l-22.39,38.65V611.3l.16.16v25.31H756.62v222.7H743.7V837h-9.12v22.51H728.5V725.61h-.09c0-13.05-4.71-29.15-17.26-40.9-8.8-8.24-21.37-10-28.26-4.8V628.47h-.25c0-.3,0-.61,0-.93A62.27,62.27,0,0,0,663,584c-12.87-12-32.61-12.78-35.32.63h-.29v2.63c0,.26,0,.51,0,.78s0,.61,0,.92V695a53.44,53.44,0,0,0-12.79-18.6c-12.6-11.79-33-10.39-33.23,5.94a60,60,0,0,0,.79,11.28h-.38V859.47H567.36V498.18h.17L555.31,462l-42.83-45.59-47.66,53.36-9.76,28.46h.56v445.4h-8.36V642.69h-8.37V630.84H365.16v11.85h-9.88V970.82h0V900.93h-7.6V607.15H270.91V865.39H236V844.07H202.5v21.32H189.58V607.15h6.84V577.54H178.94V543.19H147v34.35H130.29v29.61h7.6V900.93H118.13V879.61h-9.88V859.47H94.57v20.14H88.49V570.43h3.79V543.19H84.69V523.05h-3.8V508.83H50.49v14.22h-3.8v20.14H46.6V522.67L10.7,565.86H11V900.93H-2.84L.7,1080.5Z"/></svg>