<?xml version="1.0" encoding="utf-8"?>
<!-- Generator: Adobe Illustrator 23.0.4, SVG Export Plug-In . SVG Version: 6.00 Build 0)  -->
<svg version="1.1" id="Layer_1" xmlns="http://www.w3.org/2000/svg" xmlns:xlink="http://www.w3.org/1999/xlink" x="0px" y="0px"
	 viewBox="0 0 896 896" style="enable-background:new 0 0 896 896;" xml:space="preserve">
<style type="text/css">
	.st0{clip-path:url(#SVGID_2_);}
	.st1{fill:#B7DFE6;}
	.st2{fill:#566ED1;}
	.st3{fill:#25497A;}
	.st4{fill:#4497FF;}
</style>
<g>
	<defs>
		<circle id="SVGID_1_" cx="448" cy="448" r="448"/>
	</defs>
	<clipPath id="SVGID_2_">
		<use xlink:href="#SVGID_1_"  style="overflow:visible;"/>
	</clipPath>
	<g class="st0">
		<circle class="st1" cx="448" cy="448" r="448"/>
		<g>
			<path class="st2" d="M300,540.3L300,540.3l-0.1-126.7c0-9.9-7.6-17.8-17-17.8c-9.4,0-17,8-17,17.8l-0.5,103.3
				c0,0-2.2,4.1-5.7,4.1c-3.4,0-5.9-4.1-5.9-4.1l0.5-157.6c0-9.9-7.9-17.8-17.6-17.8c-9.7,0-17.6,8-17.6,17.8l0,137.2
				c0,0-2,3.1-6.1,3.1c-3.3,0-5.5-3.1-5.5-3.1l0-162.4c0-9.9-7.9-17.8-17.6-17.8h0c-9.7,0-17.6,8-17.6,17.8v177c0,0-1.9,3.1-5.7,3.1
				c-3.4,0.1-5.9-3.1-5.9-3.1V373.9c0-9.9-7.7-17.8-17.2-17.8h0c-9.5,0-17.2,8-17.2,17.8V539c0,0.4,0,8.7,0,9.2c0,0-1.8,4.3-5.9,4.3
				c-3.7,0-5.6-4.3-5.6-4.3v-68.3c0-9.2-6.7-17.2-15.8-18.2c-10.8-1.2-19.9,7.2-19.9,17.7v165.1c0,24.2,11.6,38.1,17.9,44.7
				c0,0,0,0,0,0c4.3,5.1,23.5,12.6,23.5,12.6s0.4,0,1.3,0v66.9c0,0,40.7,38.2,55.9,48.8c18.7,13,79.9,43.6,79.9,43.6V692.3
				c0.2-0.1,0.4-0.1,0.7-0.2c11.5-3.7,41.3-15.6,41.9-47.4C300.4,618.6,300,540.3,300,540.3z"/>
			<path class="st3" d="M645,587.9L645,587.9l0-98.3c0-7.6,5.9-13.8,13.2-13.8s13.2,6.2,13.2,13.8l0.4,80.2c0,0,1.7,3.1,4.4,3.1
				c2.6,0,4.6-3.1,4.6-3.1l-0.4-122.3c0-7.6,6.1-13.8,13.6-13.8s13.6,6.2,13.6,13.8l0,106.5c0,0,1.5,2.4,4.7,2.4
				c2.6,0,4.3-2.4,4.3-2.4l0-126c0-7.6,6.1-13.8,13.7-13.8h0c7.6,0,13.7,6.2,13.7,13.8v137.3c0,0,1.5,2.4,4.4,2.4
				c2.7,0,4.6-2.4,4.6-2.4V458.8c0-7.6,6-13.8,13.3-13.8h0c7.4,0,13.3,6.2,13.3,13.8v128.1c0,0.3,0,6.8,0,7.1c0,0,1.4,3.4,4.6,3.4
				c2.9,0,4.4-3.4,4.4-3.4v-53c0-7.1,5.2-13.3,12.3-14.1c8.4-0.9,15.4,5.6,15.4,13.8v128.1c0,18.8-9,29.6-13.9,34.7c0,0,0,0,0,0
				c-3.4,3.9-18.2,9.8-18.2,9.8s-0.3,0-1,0v51.9c0,0-31.5,29.6-43.4,37.9c-14.5,10.1-62,33.8-62,33.8v-131c-0.2-0.1-0.3-0.1-0.5-0.2
				c-9-2.9-32-12.1-32.5-36.8C644.6,648.7,645,587.9,645,587.9z"/>
			<path class="st4" d="M615.2,353.4L615.2,353.4l-0.1-160.1c0-12.5-9.9-22.5-22-22.5s-22,10.1-22,22.5l-0.7,130.5
				c0,0-2.9,5.1-7.4,5.1c-4.4,0-7.6-5.1-7.6-5.1l0.7-199.1c0-12.5-10.2-22.5-22.7-22.5s-22.7,10.1-22.7,22.5l0,173.4
				c0,0-2.5,4-7.8,4c-4.3,0-7.1-4-7.1-4l0-205.2c0-12.5-10.2-22.5-22.8-22.5h0c-12.6,0-22.8,10.1-22.8,22.5v223.6
				c0,0-2.5,3.9-7.3,3.9c-4.5,0.1-7.7-3.9-7.7-3.9V143.2c0-12.5-10-22.5-22.2-22.5h0c-12.3,0-22.2,10.1-22.2,22.5v208.6
				c0,0.6,0,11,0.1,11.6c0,0-2.3,5.5-7.6,5.5c-4.8,0-7.3-5.5-7.3-5.5V277c0-11.6-8.7-21.7-20.4-23c-13.9-1.5-25.7,9.1-25.7,22.4V485
				c0,30.6,15,48.1,23.1,56.5c0,0,0,0,0,0c5.6,6.4,30.4,16,30.4,16s0.6,0,1.6,0v88.4l2.5,255.1c24.1,12.6,175.5-11.6,175.5-11.6
				l-2.4-344c0.3-0.1,0.6-0.2,0.8-0.3c14.9-4.7,53.4-19.7,54.1-59.9C615.9,452.3,615.2,353.4,615.2,353.4z"/>
		</g>
	</g>
</g>
</svg>
