<?xml version="1.0" encoding="utf-8"?>
<!-- Generator: Adobe Illustrator 24.0.0, SVG Export Plug-In . SVG Version: 6.00 Build 0)  -->
<svg version="1.1" id="Layer_1" xmlns="http://www.w3.org/2000/svg" xmlns:xlink="http://www.w3.org/1999/xlink" x="0px" y="0px"
	 viewBox="0 0 1280 300" style="enable-background:new 0 0 1280 300;" xml:space="preserve">
<style type="text/css">
	.st0{fill:none;}
	.st1{fill:#5870CA;}
	.st2{clip-path:url(#SVGID_2_);fill:#E6F2FE;}
	.st3{clip-path:url(#SVGID_2_);fill:url(#_x31_0_dpi_30_x25_);}
	.st4{clip-path:url(#SVGID_2_);fill:none;stroke:#EF7672;stroke-width:5;stroke-miterlimit:10;}
	.st5{clip-path:url(#SVGID_2_);fill:none;stroke:#5870CA;stroke-width:5;stroke-miterlimit:10;}
	.st6{clip-path:url(#SVGID_2_);}
	.st7{fill:#E6F2FE;}
	.st8{fill:none;stroke:#EF7672;stroke-width:5;stroke-miterlimit:10;stroke-dasharray:11.9349,11.9349;}
	.st9{clip-path:url(#SVGID_2_);fill:#EF7672;}
	.st10{clip-path:url(#SVGID_2_);fill:#E6F2FE;stroke:#5870CA;stroke-width:5;stroke-miterlimit:10;}
	.st11{clip-path:url(#SVGID_2_);fill:#5870CA;}
</style>
<pattern  width="28.8" height="28.8" patternUnits="userSpaceOnUse" id="_x31_0_dpi_30_x25_" viewBox="2.16 -30.96 28.8 28.8" style="overflow:visible;">
	<g>
		<rect x="2.16" y="-30.96" class="st0" width="28.8" height="28.8"/>
		<g>
			<path class="st1" d="M30.96,0c1.19,0,2.16-0.97,2.16-2.16c0-1.19-0.97-2.16-2.16-2.16c-1.19,0-2.16,0.97-2.16,2.16
				C28.8-0.97,29.77,0,30.96,0z"/>
			<path class="st1" d="M16.56,0c1.19,0,2.16-0.97,2.16-2.16c0-1.19-0.97-2.16-2.16-2.16c-1.19,0-2.16,0.97-2.16,2.16
				C14.4-0.97,15.37,0,16.56,0z"/>
			<path class="st1" d="M30.96-14.4c1.19,0,2.16-0.97,2.16-2.16c0-1.19-0.97-2.16-2.16-2.16c-1.19,0-2.16,0.97-2.16,2.16
				C28.8-15.37,29.77-14.4,30.96-14.4z"/>
			<path class="st1" d="M16.56-14.4c1.19,0,2.16-0.97,2.16-2.16c0-1.19-0.97-2.16-2.16-2.16c-1.19,0-2.16,0.97-2.16,2.16
				C14.4-15.37,15.37-14.4,16.56-14.4z"/>
			<path class="st1" d="M9.36-7.2c1.19,0,2.16-0.97,2.16-2.16c0-1.19-0.97-2.16-2.16-2.16c-1.19,0-2.16,0.97-2.16,2.16
				C7.2-8.17,8.17-7.2,9.36-7.2z"/>
			<path class="st1" d="M23.76-7.2c1.19,0,2.16-0.97,2.16-2.16c0-1.19-0.97-2.16-2.16-2.16c-1.19,0-2.16,0.97-2.16,2.16
				C21.6-8.17,22.57-7.2,23.76-7.2z"/>
			<path class="st1" d="M9.36-21.6c1.19,0,2.16-0.97,2.16-2.16c0-1.19-0.97-2.16-2.16-2.16c-1.19,0-2.16,0.97-2.16,2.16
				C7.2-22.57,8.17-21.6,9.36-21.6z"/>
			<path class="st1" d="M23.76-21.6c1.19,0,2.16-0.97,2.16-2.16c0-1.19-0.97-2.16-2.16-2.16c-1.19,0-2.16,0.97-2.16,2.16
				C21.6-22.57,22.57-21.6,23.76-21.6z"/>
		</g>
		<g>
			<path class="st1" d="M2.16,0c1.19,0,2.16-0.97,2.16-2.16c0-1.19-0.97-2.16-2.16-2.16C0.97-4.32,0-3.35,0-2.16
				C0-0.97,0.97,0,2.16,0z"/>
			<path class="st1" d="M2.16-14.4c1.19,0,2.16-0.97,2.16-2.16c0-1.19-0.97-2.16-2.16-2.16C0.97-18.72,0-17.75,0-16.56
				C0-15.37,0.97-14.4,2.16-14.4z"/>
		</g>
		<g>
			<path class="st1" d="M30.96-28.8c1.19,0,2.16-0.97,2.16-2.16c0-1.19-0.97-2.16-2.16-2.16c-1.19,0-2.16,0.97-2.16,2.16
				C28.8-29.77,29.77-28.8,30.96-28.8z"/>
			<path class="st1" d="M16.56-28.8c1.19,0,2.16-0.97,2.16-2.16c0-1.19-0.97-2.16-2.16-2.16c-1.19,0-2.16,0.97-2.16,2.16
				C14.4-29.77,15.37-28.8,16.56-28.8z"/>
		</g>
		<g>
			<path class="st1" d="M2.16-28.8c1.19,0,2.16-0.97,2.16-2.16c0-1.19-0.97-2.16-2.16-2.16C0.97-33.12,0-32.15,0-30.96
				C0-29.77,0.97-28.8,2.16-28.8z"/>
		</g>
	</g>
</pattern>
<g>
	<defs>
		<rect id="SVGID_1_" x="-1" y="0" width="1281" height="300"/>
	</defs>
	<clipPath id="SVGID_2_">
		<use xlink:href="#SVGID_1_"  style="overflow:visible;"/>
	</clipPath>
	<rect x="-1" y="0" class="st2" width="1281" height="300"/>
	<circle class="st3" cx="644.04" cy="49.36" r="56.64"/>
	<circle class="st4" cx="634.05" cy="40.99" r="56.99"/>
	<rect x="1098.9" y="198" class="st3" width="114.17" height="115"/>
	<polygon class="st3" points="135.01,212.44 263.5,211.5 264.44,341.41 	"/>
	<polygon class="st4" points="124.01,224.44 252.5,223.5 253.44,353.41 	"/>
	<path class="st5" d="M503.51,155.69c1.02,0.9,2.01,1.84,2.99,2.81l0,0L556,208c26.23,26.23,68.77,26.23,95,0l98-98
		c26.23-26.23,68.77-26.23,95,0l47,47l28,28c26.23,26.23,68.77,26.23,95,0l36.88-36.88c20.5-20.5,53.74-20.5,74.25,0l0,0
		c9.85,9.85,23.2,15.38,37.12,15.38h117.25"/>
	<path class="st5" d="M-0.5,163.5h48.34c17.72,0,34.72-7,47.3-19.47l50.36-49.93c26.27-26.04,68.64-25.95,94.8,0.2l70.2,70.2
		c26.23,26.23,68.77,26.23,95,0l6-6c8.1-8.1,17.75-13.7,28-16.8"/>
	<line class="st4" x1="474.5" y1="-6.5" x2="474.5" y2="101"/>
	<line class="st4" x1="474.5" y1="179.5" x2="474.5" y2="305"/>
	<g class="st6">
		<circle class="st7" cx="474.5" cy="140.5" r="19"/>
		<circle class="st8" cx="474.5" cy="140.5" r="19"/>
	</g>
	<circle class="st9" cx="474.5" cy="140.5" r="8.5"/>
	<circle class="st10" cx="904.5" cy="170.5" r="14"/>
	<circle class="st11" cx="904.5" cy="170.5" r="7.5"/>
	<circle class="st10" cx="104.5" cy="133.5" r="14"/>
	<circle class="st11" cx="104.5" cy="133.5" r="7.5"/>
	<rect x="1108.48" y="208.39" class="st4" width="113.52" height="113.52"/>
</g>
</svg>
