<?xml version="1.0" encoding="utf-8"?>
<!-- Generator: Adobe Illustrator 24.0.0, SVG Export Plug-In . SVG Version: 6.00 Build 0)  -->
<svg version="1.1" id="Layer_1" xmlns="http://www.w3.org/2000/svg" xmlns:xlink="http://www.w3.org/1999/xlink" x="0px" y="0px"
	 viewBox="0 0 1980 1980" style="enable-background:new 0 0 1980 1980;" xml:space="preserve">
<style type="text/css">
	.st0{fill:none;stroke:#566ED1;stroke-width:40;stroke-linecap:round;stroke-miterlimit:10;}
	.st1{fill:none;stroke:#25497A;stroke-width:40;stroke-miterlimit:10;}
	.st2{fill:#26497A;}
	.st3{fill:#4497FF;}
	.st4{fill:#E4F2FF;}
	.st5{fill:none;stroke:#B7DFE6;stroke-width:20;stroke-linecap:round;stroke-miterlimit:10;}
	.st6{fill:none;stroke:#E4F2FF;stroke-width:8;stroke-linecap:round;stroke-linejoin:round;}
	.st7{fill:none;stroke:#E4F2FF;stroke-width:8;stroke-linecap:round;stroke-linejoin:round;stroke-dasharray:4.755,19.02;}
	.st8{fill:none;stroke:#25497A;stroke-width:8;stroke-linecap:round;stroke-linejoin:round;stroke-miterlimit:10;}
	.st9{fill:none;stroke:#E4F2FF;stroke-width:8;stroke-linecap:round;stroke-linejoin:round;stroke-dasharray:4.9167,19.6667;}
	.st10{opacity:0.3;fill:none;stroke:#4497FF;stroke-width:10;stroke-linecap:round;stroke-linejoin:round;stroke-miterlimit:10;}
	.st11{opacity:0.3;}
	.st12{fill:none;}
	.st13{fill:#25497A;}
	.st14{fill:#B7DFE6;}
	.st15{fill:#D4F1FF;}
	.st16{fill:#E4F2FF;stroke:#E4F2FF;stroke-width:1.5;stroke-miterlimit:10;}
	.st17{fill:none;stroke:#4497FF;stroke-width:6;stroke-linecap:round;stroke-miterlimit:10;}
	.st18{fill:none;stroke:#4497FF;stroke-width:6;stroke-linecap:round;stroke-linejoin:round;}
</style>
<g>
	<g>
		<path class="st10" d="M1400.8,1792.5l5.9-17.1c189.6-549.8-2.2-1158.9-472.5-1500.9l0,0"/>
		<path class="st10" d="M1040.2,192.6l-22.3,28.9c-337.3,436.1-518.3,973-513.8,1524.3l0,0l0,0c155.6-238.9,355.7-442.4,587-600.9
			c200.6-137.5,424.7-241.2,663.6-304.8l71.3-19l-143.2,35.6c-486,120.7-996.5,98-1469.9-65.4l0,0l37.9,13.1l0,0
			c502.1,167.6,938.9,488.6,1248.8,917.8l39.4,54.5l-40.2-52.3"/>
	</g>
	<g>
		<path class="st13" d="M989.3,217.5c56.9,0,113.8,5.7,169.1,17c53.9,11,106.9,27.5,157.5,48.9c49.7,21,97.7,47.1,142.5,77.4
			c44.4,30,86.2,64.5,124.2,102.5c38,38,72.5,79.8,102.5,124.2c30.3,44.9,56.3,92.8,77.4,142.5c21.4,50.6,37.9,103.6,48.9,157.5
			c11.3,55.3,17,112.2,17,169.1c0,56.9-5.7,113.8-17,169.1c-11,53.9-27.5,106.9-48.9,157.5c-21,49.7-47.1,97.7-77.4,142.5
			c-30,44.4-64.5,86.2-102.5,124.2c-38,38-79.8,72.5-124.2,102.5c-44.9,30.3-92.8,56.3-142.5,77.4c-50.6,21.4-103.6,37.9-157.5,48.9
			c-55.3,11.3-112.2,17-169.1,17s-113.8-5.7-169.1-17c-53.9-11-106.9-27.5-157.5-48.9c-49.7-21-97.7-47.1-142.5-77.4
			c-44.4-30-86.2-64.5-124.2-102.5c-38-38-72.5-79.8-102.5-124.2c-30.3-44.9-56.3-92.8-77.4-142.5c-21.4-50.6-37.9-103.6-48.9-157.5
			c-11.3-55.3-17-112.2-17-169.1c0-56.9,5.7-113.8,17-169.1c11-53.9,27.5-106.9,48.9-157.5c21-49.7,47.1-97.7,77.4-142.5
			c30-44.4,64.5-86.2,102.5-124.2c38-38,79.8-72.5,124.2-102.5c44.9-30.3,92.8-56.3,142.5-77.4c50.6-21.4,103.6-37.9,157.5-48.9
			C875.4,223.2,932.3,217.5,989.3,217.5 M989.3,207.5c-469,0-849.1,380.2-849.1,849.1s380.2,849.1,849.1,849.1
			c469,0,849.1-380.2,849.1-849.1S1458.2,207.5,989.3,207.5L989.3,207.5z"/>
	</g>
</g>
<g>
	<g>
		<g id="组_38_19_">
			<circle id="椭圆_13-2_19_" class="st3" cx="989.4" cy="212.4" r="149.6"/>
		</g>
	</g>
	<g>
		<path class="st2" d="M1026.5,173.3c-20.3-20.3-53.2-20.3-73.5,0c-17.3,17.3-19.8,44-7.5,64l-42.3,42.3c-1.6,1.6-2.4,3.6-2.4,5.8
			c0,2.2,0.9,4.3,2.4,5.8c1.6,1.6,3.6,2.4,5.8,2.4c2.2,0,4.3-0.9,5.8-2.4l41.4-41.4c20.4,17.2,51,16.2,70.2-3
			C1046.8,226.5,1046.8,193.5,1026.5,173.3z M1017.3,237.6c-15.2,15.2-40,15.2-55.2,0c-15.2-15.2-15.2-40,0-55.2
			c15.2-15.2,40-15.2,55.2,0C1032.6,197.6,1032.6,222.4,1017.3,237.6z"/>
		<path class="st4" d="M1017.3,182.4c-15.2-15.2-39.9-15.2-55.2,0c-15.2,15.2-15.2,39.9,0,55.2c15.2,15.2,39.9,15.2,55.2,0
			S1032.6,197.7,1017.3,182.4z M1011.2,190.6c-1.4,1.4-3.6,1.4-4.9,0c-9.1-9.1-23.9-9.1-32.9,0c-0.7,0.7-1.6,1-2.5,1s-1.8-0.3-2.5-1
			c-1.4-1.4-1.4-3.6,0-4.9c11.8-11.8,31-11.8,42.8,0C1012.5,187.1,1012.5,189.3,1011.2,190.6z"/>
	</g>
</g>
<g>
	<g>
		<g id="组_38_18_">
			<circle id="椭圆_13-2_18_" class="st3" cx="1787.2" cy="809.7" r="149.6"/>
		</g>
	</g>
	<g id="组_37_3_" transform="translate(-446 75)">
		<g id="_21_3_" transform="translate(1744.565 1587.158)">
			<path class="st4" d="M484.7-930.1L484.7-930.1c0,0-0.1,0-0.1,0c0,0-0.1,0-0.1,0v0c-26.3,0.1-47.6,21.5-47.6,47.9
				c0,11.8,4.3,23.1,12.2,31.9c0,0,15.2,19.7,17.9,28.6h17.5h0.2h17.5c2.8-9,17.9-28.6,17.9-28.6c7.9-8.8,12.2-20.2,12.2-31.9
				C532.4-908.6,511.1-930,484.7-930.1z M474.3-907c-8.4,0-15.2,6.8-15.2,15.2c0,2.9-2.4,5.3-5.3,5.3c0,0,0,0,0,0
				c-2.9,0-5.3-2.4-5.3-5.3c0-14.2,11.6-25.8,25.8-25.8c0,0,0,0,0,0c2.9,0,5.3,2.4,5.3,5.3C479.6-909.4,477.2-907,474.3-907z"/>
			<path id="路径_258_3_" class="st13" d="M466.1-792.8c0,9.9,8,18,18,18c9.9,0,18-8,18-18c0-10-8-18-18-18l0,0
				C474.1-810.8,466.1-802.8,466.1-792.8z"/>
			<path class="st14" d="M503.7-823.6h-19.1v0h-18.9c-3.4,0-6.1,2.8-6.1,6.1c0,3.4,2.8,6.1,6.1,6.1h19.1v0h18.9
				c3.4,0,6.1-2.7,6.1-6.1C509.8-820.8,507-823.6,503.7-823.6z"/>
			<path class="st14" d="M503.6-799.4h-18.9h-0.2h-18.9c-3.4,0-6.1,2.8-6.1,6.1c0,3.4,2.8,6.1,6.1,6.1h18.9h0.2h18.9
				c3.4,0,6.1-2.8,6.1-6.1S507-799.4,503.6-799.4z"/>
			<path class="st13" d="M503.6-811.5h-18.9v0h-19.1c-3.4,0-6.1,2.8-6.1,6.1s2.8,6.1,6.1,6.1h18.9v0h19.1c3.4,0,6.1-2.8,6.1-6.1
				S507-811.5,503.6-811.5z"/>
		</g>
	</g>
</g>
<g>
	<g>
		<g id="组_38_17_">
			<circle id="椭圆_13-2_17_" class="st3" cx="1496.6" cy="1729.9" r="149.6"/>
		</g>
	</g>
	<g>
		<g>
			<path class="st16" d="M1427.5,1671.3c-0.7,0-1.3-0.3-1.8-0.8l-1.1-1.1c-1-1-1-2.6,0-3.6c1-1,2.6-1,3.6,0l1.1,1.1c1,1,1,2.6,0,3.6
				C1428.8,1671.1,1428.2,1671.3,1427.5,1671.3z"/>
		</g>
		<g>
			<path class="st16" d="M1546.7,1715.1h-3.1c-1.4,0-2.6-1.1-2.6-2.6s1.1-2.6,2.6-2.6h3.1c1.4,0,2.6,1.1,2.6,2.6
				S1548.1,1715.1,1546.7,1715.1z M1531.4,1715.1h-3.1c-1.4,0-2.6-1.1-2.6-2.6s1.1-2.6,2.6-2.6h3.1c1.4,0,2.6,1.1,2.6,2.6
				S1532.8,1715.1,1531.4,1715.1z M1516.2,1715.1h-3.1c-1.4,0-2.6-1.1-2.6-2.6s1.1-2.6,2.6-2.6h3.1c1.4,0,2.6,1.1,2.6,2.6
				S1517.6,1715.1,1516.2,1715.1z M1500.9,1715.1h-3.1c-1.4,0-2.6-1.1-2.6-2.6s1.1-2.6,2.6-2.6h3.1c1.4,0,2.6,1.1,2.6,2.6
				S1502.3,1715.1,1500.9,1715.1z M1485.7,1715.1h-3.1c-1.4,0-2.6-1.1-2.6-2.6s1.1-2.6,2.6-2.6h3.1c1.4,0,2.6,1.1,2.6,2.6
				S1487.1,1715.1,1485.7,1715.1z M1470.7,1714.5c-0.7,0-1.3-0.3-1.8-0.8l-2.2-2.2c-1-1-1-2.6,0-3.6c1-1,2.6-1,3.6,0l2.2,2.2
				c1,1,1,2.6,0,3.6C1472,1714.2,1471.3,1714.5,1470.7,1714.5z M1459.9,1703.7c-0.7,0-1.3-0.3-1.8-0.8l-2.2-2.2c-1-1-1-2.6,0-3.6
				c1-1,2.6-1,3.6,0l2.2,2.2c1,1,1,2.6,0,3.6C1461.2,1703.5,1460.5,1703.7,1459.9,1703.7z M1449.1,1692.9c-0.7,0-1.3-0.3-1.8-0.8
				l-2.2-2.2c-1-1-1-2.6,0-3.6c1-1,2.6-1,3.6,0l2.2,2.2c1,1,1,2.6,0,3.6C1450.4,1692.7,1449.7,1692.9,1449.1,1692.9z M1438.3,1682.1
				c-0.7,0-1.3-0.3-1.8-0.8l-2.2-2.2c-1-1-1-2.6,0-3.6c1-1,2.6-1,3.6,0l2.2,2.2c1,1,1,2.6,0,3.6
				C1439.6,1681.9,1439,1682.1,1438.3,1682.1z"/>
		</g>
		<g>
			<path class="st16" d="M1560.5,1715.1h-1.6c-1.4,0-2.6-1.1-2.6-2.6s1.1-2.6,2.6-2.6h1.6c1.4,0,2.6,1.1,2.6,2.6
				S1561.9,1715.1,1560.5,1715.1z"/>
		</g>
	</g>
	<g>
		<g>
			<path class="st16" d="M1471.3,1729.7c-1.4,0-2.6-1.1-2.6-2.6v-1.6c0-1.4,1.1-2.6,2.6-2.6s2.6,1.1,2.6,2.6v1.6
				C1473.9,1728.6,1472.7,1729.7,1471.3,1729.7z"/>
		</g>
		<g>
			<path class="st16" d="M1471.3,1790.7c-1.4,0-2.6-1.1-2.6-2.6v-3.2c0-1.4,1.1-2.6,2.6-2.6s2.6,1.1,2.6,2.6v3.2
				C1473.9,1789.6,1472.7,1790.7,1471.3,1790.7z M1471.3,1774.9c-1.4,0-2.6-1.1-2.6-2.6v-3.2c0-1.4,1.1-2.6,2.6-2.6s2.6,1.1,2.6,2.6
				v3.2C1473.9,1773.8,1472.7,1774.9,1471.3,1774.9z M1471.3,1759.2c-1.4,0-2.6-1.1-2.6-2.6v-3.2c0-1.4,1.1-2.6,2.6-2.6
				s2.6,1.1,2.6,2.6v3.2C1473.9,1758,1472.7,1759.2,1471.3,1759.2z M1471.3,1743.4c-1.4,0-2.6-1.1-2.6-2.6v-3.2
				c0-1.4,1.1-2.6,2.6-2.6s2.6,1.1,2.6,2.6v3.2C1473.9,1742.2,1472.7,1743.4,1471.3,1743.4z"/>
		</g>
		<g>
			<path class="st16" d="M1471.3,1803.9c-1.4,0-2.6-1.1-2.6-2.6v-1.6c0-1.4,1.1-2.6,2.6-2.6s2.6,1.1,2.6,2.6v1.6
				C1473.9,1802.7,1472.7,1803.9,1471.3,1803.9z"/>
		</g>
	</g>
	<path class="st13" d="M1575.1,1708.9l-44.6-44.6l-0.3-0.3l-0.2-0.2c-0.2-0.2-0.4-0.3-0.6-0.4c-0.1-0.1-0.2-0.1-0.3-0.2
		c-0.2-0.1-0.4-0.2-0.6-0.3c-0.1-0.1-0.3-0.1-0.4-0.1c-0.2-0.1-0.4-0.1-0.6-0.2c-0.3-0.1-0.7-0.1-1-0.1h-100.1
		c-2.9,0-5.2,2.3-5.2,5.2v100.1c0,0.3,0,0.7,0.1,1c0,0.2,0.1,0.4,0.2,0.6l0.1,0.4c0.1,0.2,0.2,0.4,0.3,0.6l0.2,0.3
		c0.2,0.3,0.4,0.5,0.6,0.8l44.9,44.9c1,1,2.3,1.5,3.7,1.5h100.1c0.3,0,0.7,0,1-0.1c0.1,0,0.3-0.1,0.5-0.1c0.2,0,0.3-0.1,0.5-0.2
		c0.2-0.1,0.3-0.1,0.5-0.2c0.1-0.1,0.3-0.1,0.4-0.2c0.3-0.2,0.5-0.4,0.8-0.6c0.2-0.2,0.5-0.5,0.7-0.8c0.1-0.1,0.2-0.3,0.2-0.4
		c0.1-0.1,0.2-0.3,0.2-0.4l0,0c0.1-0.2,0.1-0.3,0.2-0.5c0.1-0.2,0.1-0.3,0.1-0.5c0.1-0.3,0.1-0.7,0.1-1v-100.1
		C1576.6,1711.2,1576.1,1709.9,1575.1,1708.9z M1531.7,1765.6v-85.3l34.5,34.5v85.3L1531.7,1765.6z M1521.3,1672.9v89.6h-89.6v-89.6
		H1521.3z M1524.3,1773l34.5,34.5h-85.3L1439,1773H1524.3z M1527.2,1665.2C1527.2,1665.2,1527.2,1665.2,1527.2,1665.2L1527.2,1665.2
		L1527.2,1665.2z M1424,1768.6L1424,1768.6L1424,1768.6L1424,1768.6z M1572.2,1815.1L1572.2,1815.1L1572.2,1815.1L1572.2,1815.1z
		 M1573.7,1813.7C1573.7,1813.7,1573.7,1813.7,1573.7,1813.7L1573.7,1813.7L1573.7,1813.7z"/>
</g>
<g>
	<g>
		<g id="组_38_11_">
			<circle id="椭圆_13-2_11_" class="st3" cx="192.8" cy="789.6" r="149.6"/>
		</g>
	</g>
	<g>
		<g>
			<g>
				<path class="st13" d="M109.7,782.3c0-2.1,0-4.2,0-6.3c0-4,0-8.1,0-12.1c0-0.7-0.2-1-0.9-0.9c-0.7,0.1-1.4,0-2.1,0
					c-4.7,0.1-8.7,3.9-8.7,8.6c-0.1,7.1-0.1,14.3,0,21.4c0,3.4,1.8,5.8,4.7,7.5c1.8,1,3.9,1.1,5.9,1.1c1.1,0,1.1,0,1.1-1.1
					C109.7,794.4,109.7,788.4,109.7,782.3z"/>
			</g>
			<g>
				<path class="st13" d="M206,757c0.1,0.9,0.1,1.6,0.2,2.4c0.7,5.9,0.9,11.8,1.1,17.7c0.2,5.1-0.2,10.2-0.4,15.3
					c-0.1,1.3-0.2,2.6-0.3,4c-0.2,2.7-0.5,5.4-0.7,8.1c0,0.2-0.2,0.5,0.1,0.6c0.4,0.1,0.5-0.2,0.7-0.3c2-1.4,3.8-2.9,5.4-4.6
					c6.7-6.9,9.3-14.7,7.9-23.2c-1-6.5-4.6-12.2-10.2-17C208.8,758.9,207.6,757.9,206,757z"/>
			</g>
			<g>
				<path class="st4" d="M157.8,804.3c0.5-4.1,0.7-7.3,0.9-10.3c0.2-4.3,0.5-10.1,0.3-15.7c-0.2-5.5-0.4-11.9-1.2-18.4l-0.2-1.2
					c-0.2-1.7-0.4-3.4-0.7-5c0-0.3,0-0.6,0-0.8c-1.8,0-3.5,0-5.3,0l-39.9,0c-1.3,0.1-2.2,0.9-2.5,2.1c-0.2,0.7,0,1.4,0,2.1
					c0,8.4,0,16.8,0,25.2c0,8.8,0,17.6,0,26.4c0,2,1,3,3,3c14.9,0,29.8,0,44.7,0c0-0.2,0-0.5,0-0.7
					C157.3,808.5,157.6,806.3,157.8,804.3z"/>
				<g>
					<path class="st4" d="M206.7,761.9c0-0.5-0.1-1.1-0.2-2.1c-0.2-1.5-0.4-3-0.5-4.4c-0.4-4.8-1.2-9.5-2.1-14.2
						c-0.6-3.1-1.2-6.1-1.9-9.2c-0.1-0.4-0.1-0.7-0.7-0.4c-6.4,3.5-12.8,7-19.3,10.5c-4.9,2.7-9.8,5.4-14.8,8.1
						c0.3,0.6,0.6,1.2,0.7,1.9c0.3,1.8,0.5,3.5,0.7,5.3l0.2,1.2c0.9,6.9,1.2,13.7,1.3,19.4c0.2,6.1-0.1,12.1-0.3,16.7
						c-0.2,3.2-0.5,6.7-1,10.9c-0.2,2.1-0.5,4.4-0.9,7.1c-0.1,0.6-0.3,1.2-0.6,1.8c0.4,0.2,0.8,0.4,1.3,0.7
						c5.1,2.8,10.1,5.5,15.2,8.3c5.7,3.1,11.5,6.2,17.2,9.4c0.6,0.3,0.8,0.2,0.9-0.4c0.7-3.2,1.3-6.4,1.8-9.6
						c0.7-4.2,1.4-8.4,1.9-12.6c0.5-3.9,0.9-7.8,1.2-11.7c0.4-4.8,0.6-9.5,0.7-14.3C207.5,776.7,207.2,769.3,206.7,761.9z"/>
					<path class="st13" d="M168.8,805.5c0.5-4.3,0.8-7.7,1-10.9c0.2-4.6,0.5-10.6,0.3-16.7c-0.2-5.7-0.5-12.5-1.3-19.4l-0.2-1.2
						c-0.2-1.8-0.4-3.5-0.7-5.3c-0.1-0.7-0.3-1.3-0.7-1.9c-1.1-1.9-3.3-3.1-5.6-2.8c-2.7,0.4-4.7,2.7-4.7,5.4c0,0.3,0,0.6,0,0.8
						c0.2,1.7,0.5,3.4,0.7,5l0.2,1.2c0.8,6.4,1.1,12.9,1.2,18.4c0.2,5.7-0.1,11.4-0.3,15.7c-0.2,3-0.5,6.3-0.9,10.3
						c-0.2,2-0.5,4.2-0.9,6.7c0,0.2,0,0.5,0,0.7c0,2.7,1.9,5.1,4.7,5.5c0.3,0,0.5,0.1,0.8,0.1c2.1,0,3.9-1.2,4.9-3
						c0.3-0.5,0.5-1.1,0.6-1.8C168.3,809.9,168.6,807.7,168.8,805.5z"/>
				</g>
			</g>
			<g>
				<path class="st13" d="M140.8,813.2c0-0.1,0-0.2,0-0.3c0,0,0,0,0,0c0-0.8,0-0.9-0.7-1c-0.1,0-0.2,0-0.4,0c-3.1,0-6.1,0-9.2,0
					c0,0,0,0-0.1,0c0,0,0,0-0.1,0c-3.1,0-6.1,0-9.2,0c-0.2,0-0.3,0-0.4,0c-0.6,0-0.7,0.2-0.7,1c0,0,0,0,0,0c0,0.1,0,0.2,0,0.3
					c0,6.6,0,13.2,0,19.8c0,6.7,0,13.5,0,20.2c0,1.5,0.7,2.2,2.1,2.2c1.9,0,5.7,0,5.7,0h5c0,0,3.8,0,5.7,0c1.5,0,2.1-0.7,2.1-2.2
					c0-6.7,0-13.5,0-20.2C140.8,826.4,140.8,819.8,140.8,813.2z"/>
			</g>
		</g>
		<g>
			<path class="st13" d="M259.5,787.9h-22.1c-3,0-5.5-2.5-5.5-5.5s2.5-5.5,5.5-5.5h22.1c3,0,5.5,2.5,5.5,5.5
				S262.6,787.9,259.5,787.9z"/>
		</g>
		<g>
			<path class="st13" d="M234.7,756.1c-1.4,0-2.8-0.5-3.9-1.6c-2.2-2.2-2.2-5.7,0-7.8l16.6-16.6c2.2-2.2,5.7-2.2,7.8,0
				c2.2,2.2,2.2,5.7,0,7.8l-16.6,16.6C237.5,755.6,236.1,756.1,234.7,756.1z"/>
		</g>
		<g>
			<path class="st13" d="M251.2,836.2c-1.4,0-2.8-0.5-3.9-1.6L230.8,818c-2.2-2.2-2.2-5.7,0-7.8c2.2-2.2,5.7-2.2,7.8,0l16.6,16.6
				c2.2,2.2,2.2,5.7,0,7.8C254.1,835.7,252.7,836.2,251.2,836.2z"/>
		</g>
	</g>
</g>
<g>
	<g>
		<g id="组_38_10_">
			<circle id="椭圆_13-2_10_" class="st3" cx="488.3" cy="1729.3" r="149.6"/>
		</g>
	</g>
	<g>
		<g>
			<g>
				<path class="st4" d="M562.4,1653.9H461.7c-5.8,0-10.5,4.7-10.5,10.5v19c15.9,3.2,28,17.4,28,34.3c0,9.9-4.2,18.9-10.9,25.3h94.2
					c5.8,0,10.5-4.7,10.5-10.5v-68C573,1658.6,568.2,1653.9,562.4,1653.9z"/>
			</g>
			<g>
				<rect x="487.1" y="1698.1" class="st13" width="13.2" height="28.7"/>
				<rect x="507" y="1678.6" class="st13" width="13.2" height="48.3"/>
				<rect x="526.8" y="1671.1" class="st13" width="13.2" height="55.8"/>
			</g>
			<path class="st13" d="M400.6,1802.7c-6.4,0-11.1-5.9-9.7-12.2c5.5-24.3,27.3-42.4,53.2-42.4c26,0,47.7,18.1,53.2,42.4
				c1.4,6.2-3.3,12.2-9.7,12.2H400.6z"/>
		</g>
		<g>
			<circle class="st13" cx="444.1" cy="1717.7" r="25.3"/>
		</g>
	</g>
</g>
</svg>
