<svg id="Layer_1" data-name="Layer 1" xmlns="http://www.w3.org/2000/svg" viewBox="0 0 1280 300"><defs><style>.cls-1,.cls-22,.cls-24{fill:#e4f2ff;}.cls-2{fill:#4497ff;}.cls-3{fill:#754c24;}.cls-4{fill:#566ed1;}.cls-5{fill:#25497a;}.cls-6,.cls-7,.cls-9{fill:#fff;}.cls-6,.cls-7{stroke:#000;}.cls-12,.cls-13,.cls-14,.cls-15,.cls-16,.cls-17,.cls-18,.cls-19,.cls-20,.cls-21,.cls-22,.cls-23,.cls-24,.cls-25,.cls-26,.cls-27,.cls-6,.cls-7,.cls-9{stroke-miterlimit:10;}.cls-6{stroke-width:2px;}.cls-8{fill:#c7b299;}.cls-9{stroke:#42210b;}.cls-14,.cls-15,.cls-16,.cls-20,.cls-9{stroke-width:3px;}.cls-10,.cls-12,.cls-27{fill:#b7dfe6;}.cls-11{fill:#ff6d6d;}.cls-12,.cls-14,.cls-27{stroke:#b7dfe6;}.cls-12,.cls-22{stroke-width:9px;}.cls-13,.cls-14,.cls-15,.cls-16,.cls-17,.cls-18,.cls-19,.cls-20,.cls-21,.cls-23,.cls-25,.cls-26{fill:none;}.cls-13,.cls-17,.cls-20{stroke:#ff6d6d;}.cls-13,.cls-23{stroke-width:6px;}.cls-15,.cls-25{stroke:#566ed1;}.cls-16,.cls-18,.cls-19,.cls-21,.cls-23{stroke:#4497ff;}.cls-17,.cls-19{stroke-width:4px;}.cls-18{stroke-width:7px;}.cls-21,.cls-24,.cls-25,.cls-26,.cls-27{stroke-width:5px;}.cls-22,.cls-24,.cls-26{stroke:#e4f2ff;}</style></defs><title>resources</title><path class="cls-1" d="M1291,56s-50,55-73,78c-17.09,17.09-74.16,59.14-97,62-32,4-71.11,6-129-1s-93,59-113,79c-16.32,16.32-82,56-82,56l494-2Z"/><path class="cls-1" d="M0,180s49-14,71-4,80.16,29.14,103,32c32,4,68-16,105-8,36.16,7.82,43,41,63,54,19.36,12.58,32,48,32,48L0,300Z"/><path class="cls-2" d="M140.5,96.5c0,2,0,5,2,5s33-14,33-14l-2-5Z"/><path class="cls-3" d="M1122.5,107.5c-4,1.34-7,10-7,13s-7,8-7,8l3,2s-7,9-2,11,13,0,13,4-6,10,0,12,15-3,15-6-3-9,0-12,9-12,9-16-3-11-10-13S1125.9,106.37,1122.5,107.5Z"/><path class="cls-4" d="M1117.5,102.5c-2.18,1.8-2,7,3,10s13,5,12,8-5,5-7,8-1,7-3,7-9-5-12-4a5.91,5.91,0,0,0-4,6c0,2,1,8,3,8s9.32-2.15,11-2-2,7,0,7,7,1.12,7-3c0-3-3-5-3-8s2-7,4-9,6.51-1.94,7,0c1,4-6,4-5,9s4,10,7,7,13-14,14-18-1-5-2-7,1.61-4.78,0-8c-3-6-31-17-31-17A4.67,4.67,0,0,1,1117.5,102.5Z"/><path class="cls-5" d="M1143.5,151.5c3.45,1,23,24,23,26s-10,18-13,16-5-6-5-5,0,67-3,66-53-5-55-8,13-71,12-72-11-3-11-5,8-11,12-12,12.65-3.57,15-2c3,2,8,3,12,1s5-5,7-5S1142.06,151.07,1143.5,151.5Z"/><path class="cls-3" d="M1154.5,190.5c0,2,9.45,14.11,9,15-1,2-17,28-19,28s-8,1-8,4,3,8,7,7,1-3,3-5,36-30,34-39c-1.11-5-13.55-21.9-15.77-21.95S1154.5,186.57,1154.5,190.5Z"/><path class="cls-6" d="M1120.74,121a22.49,22.49,0,0,1-2.1,2.5"/><path class="cls-7" d="M1116.5,137.5c-2,0-4,0-5-1"/><path class="cls-8" d="M110.5,112.5c3.84.73,17,11,15,21-.22,1.09,1.87.12,2,1,1,7,0,20.26-3,20-4.07-.35-4.38-.45-6,0-2.16.6,3,4,0,6s-15.6,4.08-15,0c.55-3.73,2-7-2-10-2.26-1.7-9.81-7-11-13-1-5-1-16,4-20S106.38,111.72,110.5,112.5Z"/><path class="cls-8" d="M157.5,86.5c2,2-3,8,2,12,2.21,1.77,7,4,8,8s-3,39-5,41-19,19-22,19-8-9-7-11,21.05-14.15,22-17c1-3,4-27,4-29s-10-3.08-11-9,1-11,4-13C154.36,86.26,156.6,85.6,157.5,86.5Z"/><path class="cls-8" d="M71.5,176.5c.93-.36,10,2,10,3s-7,7-6,8c1.58,1.58,14,18,15,18s2-1,3,0,0,8-2,8-3-2-4-3-23-22-24-24S68.51,177.64,71.5,176.5Z"/><path class="cls-5" d="M106.5,123.5c4-2,9,4,10,2s7-6,6-9-1-13-4-13c-5,0-3,4-7,5-5,1.24-6-4-9-3s0,4-4,5-11-1-12,4,4,10,1,12-6,1-5,5,6,5,6,7-3,8,0,9,8.49-.88,9.24.06,3.76-3.06,2.76-5.06-4.75-6.37-3-9c2-3,8-1,9,0S102,125.74,106.5,123.5Z"/><path class="cls-5" d="M179.5,81.5c0,1-4,6-4,6l-2-5Z"/><path class="cls-7" d="M101.5,136.5c1,0,2,2,2,2"/><path class="cls-9" d="M118.5,132.5c1,1,1,4,1,4"/><path class="cls-7" d="M125.5,145.5c-1,1-7,1-7,1"/><path class="cls-3" d="M1106.5,139.17c.88-.58,1,7.33,2,7.33,2.24,0,13-7,14-6s2,5,1,7-1,5-5,6-7-1-8,2c-.71,2.12-10.45,45.35-13,53-2,6-9,6-13,1s-4-16-2-20c2.24-4.47,21-37,22-38S1104.5,140.5,1106.5,139.17Z"/><path class="cls-10" d="M1092.5,246.5c0,1-6,62,0,62s27,3,27,0-1-40,0-39,0,39,3,39,21,3,23,1,1-56-2-57S1092.5,241.5,1092.5,246.5Z"/><path class="cls-5" d="M91.5,234.5c-4,1.34-10,68-6,68s17,0,18-1,6-35,9-36,9,41,12,40,13-2,14-4-4-62-7-65C127.5,232.5,97.5,232.5,91.5,234.5Z"/><path class="cls-11" d="M102.5,158.5c1.31.53,6.76,3,9,3,3,0,5.85-2,7.93-3s13.07-6,15.07-6,8,13,7,15-12,6-12,8,5,60,2,62-40,3-42,1,2-61,0-61-8,6-10,5-10-2-11-5,5.68-9.39,12-13C87.5,160.5,97.5,156.5,102.5,158.5Z"/><polygon class="cls-12" points="231.5 225.5 167.5 229.5 167.5 176.5 233.5 167.5 231.5 225.5"/><polygon class="cls-13" points="255.5 257.5 195.5 253.5 191.5 201.5 260.5 195.5 255.5 257.5"/><polygon class="cls-14" points="1062 100 980 99 972.5 64.5 1069 63 1062 100"/><polygon class="cls-14" points="1010.5 88.5 989.5 88.5 984.5 73.5 1010.5 74.5 1010.5 88.5"/><polygon class="cls-14" points="1055.5 88.5 1018.5 88.5 1017.5 73.5 1058.5 71.5 1055.5 88.5"/><line class="cls-15" x1="987.5" y1="115.5" x2="1054.5" y2="110.5"/><line class="cls-15" x1="992.5" y1="121.5" x2="1063.5" y2="119.5"/><line class="cls-16" x1="995.5" y1="215.5" x2="1037.5" y2="201.5"/><line class="cls-16" x1="1004.5" y1="219.5" x2="1033.5" y2="212.5"/><line class="cls-14" x1="1198.5" y1="255.5" x2="1220.5" y2="266.5"/><line class="cls-13" x1="1214.5" y1="117.5" x2="1209.5" y2="154.5"/><line class="cls-17" x1="1242" y1="128" x2="1234.5" y2="157.5"/><line class="cls-18" x1="45.83" y1="200.5" x2="49.62" y2="237.5"/><line class="cls-19" x1="25" y1="211" x2="30.68" y2="240.5"/><ellipse class="cls-20" cx="1018.5" cy="213" rx="49" ry="20.5" transform="translate(-20.75 264.66) rotate(-14.66)"/><rect class="cls-2" x="29" y="249" width="4" height="4"/><rect class="cls-2" x="47" y="248" width="7" height="6"/><rect class="cls-11" x="1205" y="165" width="6" height="5" transform="translate(33.31 -160.26) rotate(7.7)"/><rect class="cls-11" x="1230.02" y="165.87" width="4.94" height="4" transform="translate(79.36 -298.51) rotate(14.26)"/><path class="cls-21" d="M182,80s9.75-34,25.5-27-6.75,61,2.25,62,15.75-33,22.5-29,1.5,24,4.5,24S243.5,99,245,99"/><polygon class="cls-22" points="1150.24 77.13 1192.5 79.77 1192.5 44.77 1148.92 38.83 1150.24 77.13"/><polygon class="cls-23" points="1165.06 98.5 1213.77 95.25 1217.02 53.04 1161 48.17 1165.06 98.5"/><polygon class="cls-24" points="37.44 20.38 75.75 63.44 16.58 43.83 37.44 20.38"/><polygon class="cls-25" points="37.52 36.59 76.46 77.43 25.6 60.93 37.52 36.59"/><line class="cls-26" x1="11.04" y1="70.88" x2="72.36" y2="105.66"/><path class="cls-25" d="M20.46,88.62c1,.29,46.76,7.69,46.76,7.69"/><polygon class="cls-27" points="1268.73 222.82 1211.44 229.11 1268.5 254.2 1268.73 222.82"/><polygon class="cls-25" points="1257.81 234.79 1201.53 239.02 1250.35 260.85 1257.81 234.79"/></svg>