<svg id="Layer_1" data-name="Layer 1" xmlns="http://www.w3.org/2000/svg" viewBox="0 0 1920 1080"><defs><style>.cls-1{fill:#eff8ff;}.cls-2,.cls-7{fill:none;}.cls-3{fill:#566ed1;opacity:0.08;}.cls-4{fill:#4496ff;}.cls-5{fill:#224b80;}.cls-6,.cls-8{fill:#fc6464;}.cls-6,.cls-7{stroke:#fc6464;stroke-miterlimit:10;stroke-width:4px;}.cls-9{fill:#f76c6c;}.cls-10{fill:#fda2a2;}.cls-11{fill:#deffff;}.cls-12{fill:#8bb1cc;}.cls-13{fill:#c2dbf0;}</style></defs><title>climate change v4 new colors - resized cloud</title><rect id="sky" class="cls-1" x="-115" y="-109" width="2109" height="1284"/><rect class="cls-2" x="947.5" y="567.63" width="425" height="307"/><rect class="cls-2" x="4.5" y="295" width="815.39" height="589" transform="translate(824.39 1179) rotate(180)"/><path class="cls-3" d="M2312,958.61V944.05h-8v14.56h-3.81V939.19h-31.49v9.17h-3.81v-9.17h-8.31v9.17h-3.8V904.13h-18v24.28h-11.08v6.47h-23.53V782.31h.11L2184,762.64V772h0v-9.17h-1.73v-6.47h-13.84v6.47h-1.74V772h-3.46v12.41h1.73V859.2c-6-3.58-13.68-6.61-22.49-9.22V801.11h3.46V787.62h-7.62V772H2123.7v15.64h-8v13.49h3.11v43.27c-11.65-2.26-24.23-4.12-37-5.76V801.11h-35v33.42l-3.46-.39V817.29h-4.5V811.9h-33.57v5.39h-3.81V829l-3.81-.37V751.49h.26l-4.45-13-21.7-24.3L1952.32,735l-5.56,16.5h.08v77q-5.7.33-11.55.8a10.39,10.39,0,0,0-4.89.41c-3.6.31-7.23.65-10.91,1V792.83c0-.14,0-.27,0-.42s0-.23,0-.35v-1.2h-.13c-1.23-6.1-10.22-5.77-16.08-.28a28.33,28.33,0,0,0-9,19.82c0,.14,0,.28,0,.42h-.11v22.86l-.74.1c-2.83-1.55-7.15-1-10.67,1.47q-11,1.57-22.17,3.38v-24h-6.23V803.07l.08-.07V792.15l-10.2-17.6h-7.56l-6.54,12v11.86h-9.35v47.12l-5.92,1.1v-4h-68.87v17.53l-13.51,2.74V836c0-.22,0-.45,0-.67,0-9.83-3.85-18.25-9.34-21.8V803.7c0-3.9-1.59-7.22-3.82-8.48v-8.59h-4.55v9c-1.91,1.48-3.22,4.54-3.22,8.08v9.95c-5.37,3.63-9.09,12-9,21.68v.2h0v33.41c-12.7,2.53-25,4.91-36.64,7l-18.09-13.8V844.87h-5.91v17.32l-29,22.1q-7.79.9-14.74,1.4l-2.25-5.43h-8.77V835.53h0v-.2c.07-9.68-3.66-18.05-9-21.68V803.7c0-3.54-1.31-6.6-3.22-8.08v-9h-4.56v8.59c-2.22,1.26-3.81,4.58-3.81,8.48v9.83c-5.49,3.55-9.34,12-9.34,21.8v44.93h-7.31v1.83c-4.9-.61-10-1.11-15.32-1.5V784.94h0l-20.28-79.32-33.18-9.73L1465,770.36l.08,0V880.13c-15.56.71-31.7,1.86-48.11,3.39V802l-3.57-1V790.58h0l-11.58-38.72-34-14.34v0h0l-.09,0,0,.19-14.13,41.87h.08v10.79h-4.15V891.57q-5.39.76-10.73,1.58V847h-4.15v-8.09h-5.2v-7.55h-19.72v7.55h-6.23V847h-5.19v52.88q-8.6,1.53-17,3.14V880.4h-4.5V866.92H1253.9V908.5c-12.85,2.75-25.06,5.56-36.39,8.39-32.91,8.23-72.31,9.63-112.37,7.17V874.75h-79v40.16c-3.12-.52-6.22-1-9.29-1.58V860.27H994.25V845.78H947.1V751.6H903.28v25.88h-8.64v82.79H888V845.78H862.11V713.32h-10V697.79h-12V683.31H802.34v14.48h-10v15.53h-8V919.25H763.83V604.65h-8V584h-43.1l.11,0v0H756l-27.1-80.34.07-.37-.17.07v0l-65.29,27.51-22.23,74.29-.08,0V625l-6.86,2V786.79H573.92v76.58h-8.64V835.43h-14.6v27.94H542v-297l.16,0L511.12,423.48l-63.66,18.66-38.91,152.2h0V858.2h-8V838.53H379.17V777.2h-14V691.92c0-.31,0-.61,0-.92,0-18.86-7.4-35-17.92-41.82V630.33c0-7.5-3.06-13.86-7.33-16.28V597.58h-8.74v17.23c-3.66,2.84-6.18,8.71-6.18,15.52v19.09c-10.29,7-17.43,23-17.3,41.58,0,.13,0,.26,0,.39h-.05V777.2H290.81L280.55,802l-77.93-59.43V709.3H191.3v33.24L113.38,802,103.12,777.2H86.29V691.39h-.06c0-.13,0-.26,0-.39.12-18.57-7-34.62-17.31-41.58V630.33c0-6.81-2.52-12.68-6.18-15.52V597.58H54v16.47c-4.27,2.42-7.33,8.78-7.33,16.28v18.85C36.16,656,28.76,672.14,28.76,691c0,.44,0,.87,0,1.3v84.9h-14v81H2.88V705H-129.27V858.2h-11.36v-238h-17.93V597.41l-12.55-23h-14.5l-19.57,33.76V629l.14.13v22.11h-12V845.78h-11.29V826.12h-8v19.66h-5.31V728.84h-.08c0-11.41-4.11-25.47-15.07-35.74-7.69-7.19-18.68-8.76-24.69-4.19V644h-.22a7.22,7.22,0,0,0,0-.81,54.32,54.32,0,0,0-17.18-38c-11.24-10.52-28.48-11.16-30.85.55h-.26V608c0,.22,0,.45,0,.68s0,.54,0,.81v92.63A46.56,46.56,0,0,0-341,685.86c-11-10.3-28.79-9.08-29,5.19a52.06,52.06,0,0,0,.69,9.85h-.33V845.78h-12.61V530.15h.15l-10.67-31.65-37.42-39.83-41.64,46.62-8.52,24.86h.48v389.1h-7.3V656.4h-7.31V646.05H-559V656.4h-8.63V943.05h0V882h-6.64V625.35h-67.07V851h-30.54V832.32h-29.22V851h-11.29V625.35h6V599.48h-15.28v-30h-27.88v30h-14.61v25.87h6.64V882h-17.27V863.37h-8.63V845.78h-12v17.59h-5.31V593.27h3.31v-23.8H-804V551.88h-3.33V539.46h-26.56v12.42h-3.32v17.59h-.08V551.55l-31.35,37.73h.22V882h-45.15V869.58h-21.25V823h-34.53v84.86h-7.3V890.28h-15.94v17.59h-7.3V890.28h-60.43v37.25h-7.31V899.59h-15.27v27.94H-1134v18.63H-993.2v47.6h-14.61v88H1133v-88h-26.54v-25.7l64.37,1.26v23.81H1157V1039H2272.85V993.13h-7.62V968.32h73.4v-9.71Z"/><path class="cls-4" d="M1936.5,663c-.08-42-9.76-66.89-14.78-78.13-4.52-10.13-9-53.55-9-53.55V492.24h-52v39.08s-4.53,43.42-9.05,53.55c-1.21,2.73-2.7,5.41-4.27,8.5-3.47-8.94-7.28-14.87-10-21-5.75-12.88-7-68.08-7-68.08V454.62h-75.18v49.69s-1.23,55.2-7,68.08c-2.71,6.09-6.5,12-10,20.89-1.54-3-3-5.71-4.22-8.41-4.52-10.13-9-53.55-9-53.55V492.24h-52v39.08s-4.52,43.42-9,53.55c-5,11.24-14.7,21.71-14.78,63.69Z"/><path class="cls-4" d="M1781.89,422h20.94s6.6-24.45,7.85-44.5c2.62-41.89-27.92-55.85-28.79-75-.75-16.59,43.63-31.42,48-48s0-22.68,0-22.68a183.37,183.37,0,0,0,31.42-23.56c23.55-21.82,17.45-51.49,17.45-51.49s18.32-10.47,22.68-29.66c2.27-10,7.86-41.89-20.94-55,0,0-28.79-53.23-76.79-24.43,0,0-27.92-33.16-52.35-37.52-21.73-3.88-75.92-.87-91.62,27.92,0,0-104.71-8.72-85.52,94.24,0,0-27.92,76.79,19.2,103s94.24,15.7,94.24,15.7-24.43,48.87,10.47,68.06c17.78,9.79,31.87,12.22,46.25,22.69,12.4,9,19.2,18.33,26.18,27C1784.72,386.49,1781.89,422,1781.89,422Z"/><path class="cls-5" d="M1669,619c-476,0-706,464.22-911,465.93s1310-27.13,1310-27.13V685.06S2023,619,1669,619Z"/><line class="cls-6" x1="1244.68" y1="320.4" x2="1244.68" y2="400.49"/><line class="cls-6" x1="1260.94" y1="320.4" x2="1260.94" y2="400.49"/><line class="cls-6" x1="1243.06" y1="445.57" x2="1234.93" y2="708.73"/><line class="cls-6" x1="1264.19" y1="445.57" x2="1272.32" y2="708.73"/><line class="cls-6" x1="1247.93" y1="395.18" x2="1275.57" y2="372.42"/><line class="cls-6" x1="1252.81" y1="391.93" x2="1608.81" y2="391.93"/><line class="cls-6" x1="1581.17" y1="372.42" x2="1610.43" y2="391.93"/><line class="cls-6" x1="1273.94" y1="372.42" x2="1582.8" y2="372.42"/><line class="cls-6" x1="1252.81" y1="310.65" x2="1579.55" y2="372.42"/><line class="cls-6" x1="1166.65" y1="380.71" x2="1252.81" y2="310.65"/><line class="cls-6" x1="1276.38" y1="373.24" x2="1295.89" y2="392.74"/><line class="cls-6" x1="1274.76" y1="392.74" x2="1295.89" y2="373.24"/><line class="cls-6" x1="1299.14" y1="373.24" x2="1318.65" y2="392.74"/><line class="cls-6" x1="1297.51" y1="392.74" x2="1318.65" y2="373.24"/><line class="cls-6" x1="1320.27" y1="373.24" x2="1339.78" y2="392.74"/><line class="cls-6" x1="1318.65" y1="392.74" x2="1339.78" y2="373.24"/><line class="cls-6" x1="1343.03" y1="373.24" x2="1362.54" y2="392.74"/><line class="cls-6" x1="1341.4" y1="392.74" x2="1362.54" y2="373.24"/><line class="cls-6" x1="1365.79" y1="373.24" x2="1385.29" y2="392.74"/><line class="cls-6" x1="1364.16" y1="392.74" x2="1385.29" y2="373.24"/><line class="cls-6" x1="1386.92" y1="373.24" x2="1406.43" y2="392.74"/><line class="cls-6" x1="1385.29" y1="392.74" x2="1406.43" y2="373.24"/><line class="cls-6" x1="1408.05" y1="373.24" x2="1427.56" y2="392.74"/><line class="cls-6" x1="1406.43" y1="392.74" x2="1427.56" y2="373.24"/><line class="cls-6" x1="1430.81" y1="373.24" x2="1450.32" y2="392.74"/><line class="cls-6" x1="1429.18" y1="392.74" x2="1450.32" y2="373.24"/><line class="cls-6" x1="1453.57" y1="373.24" x2="1473.07" y2="392.74"/><line class="cls-6" x1="1451.94" y1="392.74" x2="1473.07" y2="373.24"/><line class="cls-6" x1="1476.33" y1="373.24" x2="1495.83" y2="392.74"/><line class="cls-6" x1="1474.7" y1="392.74" x2="1495.83" y2="373.24"/><line class="cls-6" x1="1499.08" y1="373.24" x2="1518.59" y2="392.74"/><line class="cls-6" x1="1497.46" y1="392.74" x2="1518.59" y2="373.24"/><line class="cls-6" x1="1520.22" y1="373.24" x2="1539.72" y2="392.74"/><line class="cls-6" x1="1518.59" y1="392.74" x2="1539.72" y2="373.24"/><line class="cls-6" x1="1541.35" y1="373.24" x2="1560.85" y2="392.74"/><line class="cls-6" x1="1539.72" y1="392.74" x2="1560.85" y2="373.24"/><line class="cls-6" x1="1562.48" y1="373.24" x2="1581.99" y2="392.74"/><line class="cls-6" x1="1560.85" y1="392.74" x2="1581.99" y2="373.24"/><line class="cls-6" x1="1243.87" y1="452.89" x2="1266.63" y2="475.65"/><line class="cls-6" x1="1242.25" y1="472.39" x2="1263.38" y2="452.89"/><line class="cls-6" x1="1242.25" y1="474.02" x2="1266.63" y2="498.4"/><line class="cls-6" x1="1240.62" y1="496.78" x2="1266.63" y2="472.39"/><line class="cls-6" x1="1242.25" y1="503.28" x2="1266.63" y2="527.66"/><line class="cls-6" x1="1240.62" y1="526.04" x2="1266.63" y2="501.65"/><line class="cls-6" x1="1240.62" y1="527.66" x2="1266.63" y2="552.05"/><line class="cls-6" x1="1240.62" y1="552.05" x2="1266.63" y2="527.66"/><line class="cls-6" x1="1240.62" y1="553.67" x2="1268.25" y2="579.68"/><line class="cls-6" x1="1238.99" y1="579.68" x2="1266.63" y2="553.67"/><line class="cls-6" x1="1238.99" y1="579.68" x2="1269.88" y2="608.94"/><line class="cls-6" x1="1237.37" y1="608.94" x2="1268.25" y2="579.68"/><line class="cls-6" x1="1237.37" y1="607.32" x2="1269.88" y2="636.58"/><line class="cls-6" x1="1237.37" y1="634.95" x2="1269.88" y2="607.32"/><line class="cls-6" x1="1237.37" y1="634.95" x2="1271.51" y2="659.33"/><line class="cls-6" x1="1235.74" y1="659.33" x2="1269.88" y2="634.95"/><line class="cls-6" x1="1235.74" y1="659.33" x2="1271.51" y2="685.34"/><line class="cls-6" x1="1235.74" y1="685.34" x2="1271.51" y2="659.33"/><line class="cls-6" x1="1235.74" y1="685.34" x2="1271.51" y2="711.35"/><line class="cls-6" x1="1235.74" y1="711.35" x2="1271.51" y2="685.34"/><line class="cls-6" x1="1608.81" y1="392.75" x2="1608.81" y2="459.4"/><path class="cls-7" d="M1626.69,549.61s-1.63,13-14.63,13c-19.51,0-14.63-26-1.63-26V390.3"/><circle class="cls-8" cx="1252.81" cy="323.7" r="9.75"/><rect class="cls-8" x="1178.04" y="396.85" width="27.63" height="27.63"/><rect class="cls-8" x="1592.55" y="457" width="37.39" height="26.01" rx="6.76"/><rect class="cls-8" x="1595.8" y="471.63" width="8.13" height="27.63"/><rect class="cls-8" x="1618.56" y="473.25" width="8.13" height="27.63"/><rect class="cls-8" x="1594.18" y="486.26" width="34.14" height="50.39"/><polygon class="cls-8" points="1611.36 520.15 1594.18 536.65 1576.99 501.13 1594.18 486.26 1611.36 520.15"/><polygon class="cls-8" points="1611.13 520.15 1628.32 536.65 1645.5 501.13 1628.32 486.26 1611.13 520.15"/><rect class="cls-8" x="1208.92" y="697.58" width="89.41" height="94.28"/><rect class="cls-8" x="1218.67" y="395.23" width="61.77" height="53.64"/><polygon class="cls-8" points="1306.45 448.87 1275.57 448.87 1275.57 417.98 1300.85 417.98 1306.45 417.98 1306.45 448.87"/><polygon class="cls-8" points="1290.2 408.23 1280.45 408.23 1280.45 419.61 1301.58 417.98 1290.2 408.23"/><rect class="cls-7" x="1171.59" y="379.06" width="52.75" height="17.31" transform="translate(2395.93 775.43) rotate(-180)"/><rect class="cls-7" x="1217.75" y="379.06" width="6.59" height="17.31" transform="translate(2442.09 775.43) rotate(-180)"/><rect class="cls-7" x="1211.15" y="379.06" width="6.59" height="17.31" transform="translate(2428.9 775.43) rotate(-180)"/><rect class="cls-7" x="1204.56" y="379.06" width="6.59" height="17.31" transform="translate(2415.72 775.43) rotate(-180)"/><rect class="cls-7" x="1197.97" y="379.06" width="6.59" height="17.31" transform="translate(2402.53 775.43) rotate(-180)"/><rect class="cls-7" x="1191.37" y="379.06" width="6.59" height="17.31" transform="translate(2389.34 775.43) rotate(-180)"/><rect class="cls-7" x="1184.78" y="379.06" width="6.59" height="17.31" transform="translate(2376.15 775.43) rotate(-180)"/><rect class="cls-7" x="1178.19" y="379.06" width="6.59" height="17.31" transform="translate(2362.97 775.43) rotate(-180)"/><rect class="cls-7" x="1171.59" y="379.06" width="6.59" height="17.31" transform="translate(2349.78 775.43) rotate(-180)"/><rect class="cls-7" x="1165" y="379.06" width="6.59" height="17.31" transform="translate(2336.59 775.43) rotate(-180)"/><rect class="cls-9" x="1352" y="634" width="200" height="123"/><rect class="cls-9" x="1352" y="617" width="200" height="9"/><rect class="cls-9" x="1352" y="601" width="200" height="8"/><rect class="cls-9" x="1352" y="601" width="5" height="38"/><rect class="cls-9" x="1367" y="601" width="5" height="38"/><rect class="cls-9" x="1382" y="601" width="5" height="38"/><rect class="cls-9" x="1397" y="601" width="5" height="38"/><rect class="cls-9" x="1412" y="601" width="5" height="38"/><rect class="cls-9" x="1427" y="601" width="5" height="38"/><rect class="cls-9" x="1442" y="601" width="5" height="38"/><rect class="cls-9" x="1457" y="601" width="5" height="38"/><rect class="cls-9" x="1472" y="601" width="5" height="38"/><rect class="cls-9" x="1487" y="601" width="5" height="38"/><rect class="cls-9" x="1502" y="601" width="5" height="38"/><rect class="cls-9" x="1517" y="601" width="5" height="38"/><rect class="cls-9" x="1532" y="601" width="5" height="38"/><rect class="cls-9" x="1547" y="601" width="5" height="38"/><rect class="cls-10" x="839.74" y="802.29" width="30.98" height="398.71"/><rect class="cls-10" x="898.66" y="801.41" width="30.98" height="398.71"/><rect class="cls-10" x="1049.74" y="802.29" width="30.98" height="398.71"/><rect class="cls-10" x="1108.66" y="801.41" width="30.98" height="398.71"/><rect class="cls-10" x="1259.74" y="802.29" width="30.98" height="398.71"/><rect class="cls-10" x="1318.66" y="801.41" width="30.98" height="398.71"/><rect class="cls-10" x="1469.74" y="802.29" width="30.98" height="398.71"/><rect class="cls-10" x="1528.66" y="801.41" width="30.98" height="398.71"/><rect class="cls-10" x="1679.74" y="802.29" width="30.98" height="398.71"/><rect class="cls-10" x="1738.66" y="801.41" width="30.98" height="398.71"/><rect class="cls-10" x="1889.74" y="802.29" width="30.98" height="398.71"/><rect class="cls-10" x="798.82" y="745" width="1460.18" height="74.83"/><rect class="cls-10" x="798.7" y="717" width="1460.3" height="17.68"/><rect class="cls-10" x="799" y="726" width="8" height="31"/><rect class="cls-10" x="832" y="726" width="8" height="31"/><rect class="cls-10" x="865" y="726" width="8" height="31"/><rect class="cls-10" x="898" y="726" width="8" height="31"/><rect class="cls-10" x="931" y="726" width="8" height="31"/><rect class="cls-10" x="964" y="726" width="8" height="31"/><rect class="cls-10" x="997" y="726" width="8" height="31"/><rect class="cls-10" x="1030" y="726" width="8" height="31"/><rect class="cls-10" x="1063" y="726" width="8" height="31"/><rect class="cls-10" x="1096" y="726" width="8" height="31"/><rect class="cls-10" x="1129" y="726" width="8" height="31"/><rect class="cls-10" x="1162" y="726" width="8" height="31"/><rect class="cls-10" x="1195" y="726" width="8" height="31"/><rect class="cls-10" x="1228" y="726" width="8" height="31"/><rect class="cls-10" x="1261" y="726" width="8" height="31"/><rect class="cls-10" x="1294" y="726" width="8" height="31"/><rect class="cls-10" x="1327" y="726" width="8" height="31"/><rect class="cls-10" x="1360" y="726" width="8" height="31"/><rect class="cls-10" x="1393" y="726" width="8" height="31"/><rect class="cls-10" x="1426" y="726" width="8" height="31"/><rect class="cls-10" x="1459" y="726" width="8" height="31"/><rect class="cls-10" x="1492" y="726" width="8" height="31"/><rect class="cls-10" x="1525" y="726" width="8" height="31"/><rect class="cls-10" x="1558" y="726" width="8" height="31"/><rect class="cls-10" x="1591" y="726" width="8" height="31"/><rect class="cls-10" x="1624" y="726" width="8" height="31"/><rect class="cls-10" x="1657" y="726" width="8" height="31"/><rect class="cls-10" x="1690" y="726" width="8" height="31"/><rect class="cls-10" x="1723" y="726" width="8" height="31"/><rect class="cls-10" x="1756" y="726" width="8" height="31"/><rect class="cls-10" x="1789" y="726" width="8" height="31"/><rect class="cls-10" x="1822" y="726" width="8" height="31"/><rect class="cls-10" x="1855" y="726" width="8" height="31"/><rect class="cls-10" x="1888" y="726" width="8" height="31"/><path class="cls-11" d="M2760.72,1125.51c-9.76-13.86-72.23-11.62-122.71-13-89.13-2.46-118.78-15.63-208.23-28-214.13-29.62-262.76,15.72-433.2-14-139.91-24.4-113.82-56.12-254.71-78-142.8-22.18-181.91,8.49-357-10-159.89-16.9-142-44.06-271.44-52-161.2-9.9-219.29,29.66-394.15,22a1022.26,1022.26,0,0,1-208.23-31l-1325.62,3v1.75L433,922.51c129.81,58.08,232,68.21,302.94,66,90.24-2.82,256.94-28.87,358.77-22,117.81,7.94,101.54,35.1,247.08,52,159.33,18.49,194.94-12.18,324.92,10,128.23,21.88,104.49,53.6,231.85,78,155.13,29.72,199.4-15.62,394.3,14,56.29,8.55,86.57,17.48,126.7,23h331.87C2757.82,1138.62,2765,1131.54,2760.72,1125.51Z"/><path class="cls-12" d="M2466.63,1252.51h-50.24l-3362.93-3.12-22.31-324.88,1262.4-3c137.7,110.62,247.68,133,323.39,132.56,85.21-.52,255.93-30.06,358.77-22.85,117.81,8.25,101.54,36.47,247.08,54,159.33,19.22,194.94-12.65,324.92,10.39,128.23,22.73,104.49,55.69,231.85,81,155.14,30.87,199.4-16.23,394.3,14.54,60.84,9.6,91.28,19.67,136.63,25.21,28.29,3.46,31.68,1,52.91,3.88C2410.62,1226.66,2444.87,1241.11,2466.63,1252.51Z"/><path class="cls-13" d="M2482.39,1145.51c-21.23-2.76-24.62-.41-52.91-3.73-45.35-5.34-75.79-15-136.63-24.27-194.9-29.62-239.17,15.72-394.3-14-127.36-24.4-103.62-56.12-231.85-78-130-22.18-165.59,8.49-324.92-10-145.54-16.9-129.27-44.06-247.08-52-101.83-6.87-268.53,19.18-358.77,22-70.93,2.21-173.13-7.92-302.94-66l-1327.48,4c.08.27.15.54.22.81L288,921.51c137.71,110.62,247.69,133,323.39,132.56,85.21-.52,255.93-30.06,358.77-22.85,117.81,8.25,101.54,36.47,247.08,54,159.33,19.22,194.94-12.65,324.92,10.39,126.82,22.48,105,55,227.71,80.19l765.54.69h50.24C2563.86,1165.54,2529.61,1151.63,2482.39,1145.51Z"/></svg>