<svg xmlns="http://www.w3.org/2000/svg" xmlns:xlink="http://www.w3.org/1999/xlink" width="3500" height="1200" viewBox="0 0 3500 1200">
  <defs>
    <clipPath id="clip-path">
      <rect id="矩形_7" data-name="矩形 7" width="190.043" height="69.423" transform="translate(0 0)" fill="#fff"/>
    </clipPath>
    <clipPath id="clip-header_3">
      <rect width="3500" height="1200"/>
    </clipPath>
  </defs>
  <g id="header_3" data-name="header – 3" clip-path="url(#clip-header_3)">
    <rect width="3500" height="1200" fill="#fff"/>
    <path id="路径_1501" data-name="路径 1501" d="M2197.938,740.283V728.425h-8.263v11.858h-3.952v-15.81h-32.694v7.465h-3.952v-7.465h-8.622v7.465H2136.5v-36.01h-18.683V715.69h-11.5v5.269H2081.9V596.741h.12l-16.964-16.012v7.6h-.042v-7.466h-1.8V575.6h-14.369v5.269h-1.8v7.466h-3.593v10.1h1.8v60.913a121.461,121.461,0,0,0-23.353-7.513V612.047h3.593V601.068h-7.9V588.333H2002.5v12.735h-8.263v10.979h3.234v35.227c-12.092-1.838-25.153-3.349-38.441-4.686V612.047h-36.286v27.207l-3.592-.314V625.222h-4.67v-4.391h-34.849v4.391h-3.952v9.567q-1.957-.161-3.951-.3V571.648h.262l-4.61-10.549-22.53-19.784-20.242,16.9-5.776,13.432h.084v62.667q-5.912.273-11.988.651a13.672,13.672,0,0,0-5.071.331q-5.6.382-11.323.843V605.309c0-.115.013-.226.013-.342,0-.1-.008-.192-.013-.288V603.7h-.139c-1.28-4.969-10.611-4.7-16.693-.233-6.557,4.817-9.172,11.126-9.293,16.137a3.428,3.428,0,0,0,.016.344h-.116v18.615l-.764.081c-2.939-1.266-7.419-.828-11.08,1.2q-11.387,1.279-23,2.75V623.027h-6.467v-9.385l.077-.057v-8.834l-10.587-14.326h-7.847l-6.791,9.766v9.661h-9.7v38.361q-3.072.443-6.147.894v-3.244H1610.5v14.271l-14.016,2.23V640.455c0-.182.011-.364.011-.547,0-8-4-14.86-9.7-17.748v-8a7.426,7.426,0,0,0-3.964-6.908v-6.989h-4.729v7.313a7.644,7.644,0,0,0-3.344,6.584v8.1c-5.564,2.954-9.43,9.765-9.362,17.646,0,.055,0,.108,0,.163h-.03v27.207c-13.177,2.056-25.908,3.994-38.03,5.738l-18.783-11.236V647.674h-6.129v14.106l-30.075,17.989q-8.084.733-15.3,1.144l-2.338-4.426h-9.1V640.071h-.027c0-.054,0-.108,0-.163.069-7.881-3.8-14.693-9.362-17.646v-8.1a7.644,7.644,0,0,0-3.343-6.584v-7.313h-4.73v6.989a7.427,7.427,0,0,0-3.963,6.908v8c-5.692,2.888-9.7,9.745-9.7,17.748,0,.129.006.256.009.385v36.2h-7.591v1.487q-7.634-.736-15.905-1.221v-77.87h.012L1369.97,534.3l-34.441-7.917-16.815,60.634.084.019v89.351c-16.151.575-32.907,1.516-49.936,2.757V612.749l-3.712-.844v-8.429l-.043-.01-12.028-31.524-35.321-11.677,0-.015-.005.012-.094-.031.039.158-14.661,34.093h23.345l0-.014.061.015h-23.319v8.783h-4.312V685.7q-5.583.629-11.137,1.287V649.376h-4.312v-6.587h-5.388v-6.148h-20.479v6.148h-6.467v6.587h-5.388v43.053q-8.915,1.253-17.6,2.558V676.6h-4.671V665.624h-23.711v33.862c-13.344,2.232-26.02,4.522-37.78,6.829-34.157,6.7-75.057,7.841-116.635,5.838V672.006H863.211V704.7q-4.861-.625-9.649-1.282V660.211H830.127v-11.8H781.189V571.742H735.7v21.064h-8.961v67.406h-6.891v-11.8H692.961V540.567H682.624V527.93H670.216v-11.8H630.928v11.8H620.59v12.637h-8.272v167.67H590.951V452.1h-8.272v-16.85H537.938l.118-.028-.007.026h44.79l-28.129-65.409.077-.3-.182.06-.01-.024-.007.03L486.821,392l-23.077,60.481-.081.019v16.171l-7.121,1.621V600.388H393.819v62.351h-8.96V639.99H369.695v22.749h-8.96V420.959l.161-.036-32.258-116.33-66.078,15.189L222.169,443.7h.023V658.526H213.92V642.517H191.676V592.584H177.114v-69.44c0-.248.015-.5.015-.744,0-15.354-7.683-28.51-18.6-34.05V473c0-6.1-3.171-11.28-7.6-13.252V446.338h-9.074v14.03c-3.8,2.311-6.416,7.091-6.416,12.631v15.547c-10.677,5.667-18.092,18.735-17.962,33.855,0,.1,0,.208,0,.313h-.052V592.58H99.958L89.3,612.745,8.416,564.363V537.3H-3.341v27.065l-80.881,48.38L-94.873,592.58h-17.468V522.714h-.058c0-.105,0-.208,0-.313.132-15.12-7.284-28.189-17.961-33.855V473c0-5.539-2.617-10.32-6.416-12.631v-14.03h-9.074v13.409c-4.432,1.972-7.6,7.153-7.6,13.252V488.35c-10.921,5.54-18.6,18.7-18.6,34.051,0,.354.014.705.022,1.057v69.127H-186.6l.59,85.4h-12.324l-.174-17.029H-335.671l.174,17.029H-347.29l-.174-86.119h-18.611V573.327L-379.1,554.589h-15.055l-20.311,27.487v16.948l.146.109v18.005H-426.73l.174,50.733h-11.718V651.863h-8.271v16.008h-5.514l-.174,12.46h-.082c.04-9.286-4.266-20.735-15.648-29.1-7.978-5.86-19.384-7.133-25.625-3.413V611.241h-.224a6.287,6.287,0,0,0,.029-.66c-.233-9.616-5.248-21.72-17.829-30.961-11.668-8.569-29.572-9.085-32.026.447h-.269v1.871c-.008.184-.026.363-.024.555,0,.223.018.436.024.656v75.419A39.214,39.214,0,0,0-555.5,645.338c-11.421-8.389-29.883-7.392-30.132,4.225a33.618,33.618,0,0,0,.714,8.02h-.344l.174,10.289h-13.1l-.174-149.307h.161l-11.08-25.769-38.838-32.428-43.223,37.959-8.847,20.238h.5l.174,209.129h-7.582l-.174-106.342h-7.583v-8.425H-781.7v8.425h-8.961l.174,125.721h0V697.36h-6.892l-.174-101.286h-69.616l.174,76.01h-31.708V656.917h-30.327v15.167H-940.75l-.174-76.01h6.2V575.01h-15.852V550.578h-28.949V575.01h-15.164v21.064h6.891l.174,101.286h-17.92V682.2h-8.961V667.871h-12.407V682.2h-5.513l-.174-112.239h3.446V550.578h-6.892V536.252h-3.448v-10.11h-27.57v10.11h-3.446v14.325h-.082v-14.59l-32.548,30.72h.234l.174,130.653H-1149.6V687.25h-22.059V649.336H-1207.5v69.089h-7.58V704.1l-17.132-19.456v14.323h-7.583V684.645h-62.723v30.333h-7.583v-22.75h-15.853v22.75h-53.072v15.167h146.171V768.9h-15.164V840.52H974.157V768.9H946.612V747.978L1013.426,749v19.387H999.069v37.328H2157.316V768.389h-7.9v-20.2H2225.6v-7.9Z" transform="translate(3254.736 226.315)" fill="#fda2a2" opacity="0.397"/>
    <g id="组_39" data-name="组 39" transform="translate(-59.33 599.675)">
      <g id="组_34" data-name="组 34" transform="translate(661.383 197.916)">
        <rect id="矩形_28" data-name="矩形 28" width="106.691" height="18.808" transform="translate(0 233.733)" fill="#fed9d9"/>
        <rect id="矩形_29" data-name="矩形 29" width="82.911" height="18.808" transform="translate(11.971 220.971)" fill="#fed9d9"/>
        <path id="路径_1542" data-name="路径 1542" d="M.669.033,11.555,0l-.669,229.9L0,229.932Z" transform="matrix(-0.998, 0.068, -0.068, -0.998, 89.908, 229.406)" fill="#fed9d9"/>
        <path id="路径_1543" data-name="路径 1543" d="M0,0,10.886.033l.669,229.9L.669,229.9Z" transform="matrix(0.998, 0.068, -0.068, 0.998, 33.379, 0)" fill="#fed9d9"/>
      </g>
      <g id="组_35" data-name="组 35" transform="translate(1596.27 289.92)">
        <rect id="矩形_32" data-name="矩形 32" width="106.691" height="18.808" transform="translate(0 141.729)" fill="#fed9d9"/>
        <rect id="矩形_33" data-name="矩形 33" width="82.911" height="18.808" transform="translate(11.971 128.967)" fill="#fed9d9"/>
        <path id="路径_1544" data-name="路径 1544" d="M0,0,10.894.072l.747,118.108L.747,118.108Z" transform="translate(32.07 19.037) rotate(8.513)" fill="#fed9d9"/>
        <path id="路径_1545" data-name="路径 1545" d="M.747.072,11.641,0l-.747,118.108L0,118.18Z" transform="translate(91.787 135.914) rotate(171.487)" fill="#fed9d9"/>
        <path id="路径_186" data-name="路径 186" d="M4455.779,3813v23.51h30.36c.6-3.022,5.231-5.374,10.855-5.374s10.25,2.352,10.855,5.374h30.841V3813Z" transform="translate(-4443.809 -3813)" fill="#fed9d9"/>
      </g>
      <g id="组_36" data-name="组 36" transform="translate(1307.168 289.92)">
        <rect id="矩形_36" data-name="矩形 36" width="106.691" height="18.808" transform="translate(0 141.729)" fill="#fed9d9"/>
        <rect id="矩形_37" data-name="矩形 37" width="82.911" height="18.808" transform="translate(11.971 128.967)" fill="#fed9d9"/>
        <path id="路径_1546" data-name="路径 1546" d="M0,0,10.894.072l.747,118.108L.747,118.108Z" transform="translate(32.07 19.037) rotate(8.513)" fill="#fed9d9"/>
        <path id="路径_1547" data-name="路径 1547" d="M.747.072,11.641,0l-.747,118.108L0,118.18Z" transform="translate(91.787 135.914) rotate(171.487)" fill="#fed9d9"/>
        <path id="路径_187" data-name="路径 187" d="M4301.779,3813v23.51h30.36c.6-3.022,5.231-5.374,10.855-5.374s10.25,2.352,10.855,5.374h30.841V3813Z" transform="translate(-4289.809 -3813)" fill="#fed9d9"/>
      </g>
      <g id="组_37" data-name="组 37" transform="translate(991.785 278.232)">
        <rect id="矩形_40" data-name="矩形 40" width="106.691" height="18.808" transform="translate(0 153.416)" fill="#fed9d9"/>
        <rect id="矩形_41" data-name="矩形 41" width="82.911" height="18.808" transform="translate(11.971 140.654)" fill="#fed9d9"/>
        <path id="路径_1548" data-name="路径 1548" d="M0,0,10.894.072l.943,149.145L.943,149.145Z" transform="translate(36.471 0) rotate(8.513)" fill="#fed9d9"/>
        <path id="路径_1549" data-name="路径 1549" d="M.928.072,11.823,0l-.928,146.817L0,146.888Z" transform="translate(91.967 147.575) rotate(171.487)" fill="#fed9d9"/>
      </g>
      <g id="组_38" data-name="组 38" transform="translate(167.309 129.674)">
        <rect id="矩形_44" data-name="矩形 44" width="106.691" height="18.808" transform="translate(0 301.975)" fill="#fed9d9"/>
        <rect id="矩形_45" data-name="矩形 45" width="82.911" height="18.808" transform="translate(11.971 289.212)" fill="#fed9d9"/>
        <path id="路径_1550" data-name="路径 1550" d="M.8.033,11.685,0l-.8,274.474L0,274.507Z" transform="matrix(-0.998, 0.068, -0.068, -0.998, 90.038, 297.639)" fill="#fed9d9"/>
        <path id="路径_1551" data-name="路径 1551" d="M0,0,10.886.033l.868,298.284L.868,298.284Z" transform="matrix(0.998, 0.068, -0.068, 0.998, 37.804, 0)" fill="#fed9d9"/>
      </g>
      <path id="路径_188" data-name="路径 188" d="M3593.5,3559s756.7,294.7,2137.44,301.889l-33.328,85.215S3953.371,3863.332,3593.5,3559Z" transform="translate(-3593.5 -3559)" fill="#fed9d9"/>
    </g>
    <path id="路径_1552" data-name="路径 1552" d="M8.506,0c.464,0,.922,1.874,1.667,2.122.423.133,1.38-2.163,2.059-1.77.448.253.71,1.421,1.3,2.2.267.349.922-.332,1.333.3a11.749,11.749,0,0,1,.644,3.939c-.015,1.312,0,2.18,0,3.768,0,4.971-3.134,9-7,9S0,11.406,0,6.436C0,4.467,3.708,11.251,4.7,9.5c.6-1.063-.677-5.838,0-7.945.21-.663,1.258.749,2.352,1C7.495,2.646,7.977,0,8.506,0Z" transform="matrix(-0.438, -0.899, 0.899, -0.438, 2699.857, 881.714)" fill="#ffd394"/>
    <rect id="矩形_6" data-name="矩形 6" width="209" height="55" transform="translate(2613 1012)" fill="#fda2a2"/>
    <path id="路径_1530" data-name="路径 1530" d="M10,0c5.523,0,5.982,5.266,5.982,11.618,0,1.048-.1,5.7-.751,6.176s-.591-2.126-1.5-1.137C12.51,18.018,13.1,20.344,10,20.344c-1.568,0-.937.126-1.646-1.11-.436-.73-2.188-.19-2.686-1.439-.293-.714-1.908-.287-2.138-1.762-.074-.444-1.7-.286-1.7-1.232,0-.775-.993-1.406,1.05-5.105S5.151,0,10,0Z" transform="translate(2767 799.558)" fill="#ffd394"/>
    <path id="路径_1529" data-name="路径 1529" d="M7-1.557c.464,0,.922,1.874,1.667,2.122C9.09.7,10.048-1.6,10.726-1.205c.448.253.71,1.421,1.3,2.2.267.349.922-.332,1.333.3A11.749,11.749,0,0,1,14,5.232C13.985,6.544,14,7.412,14,9c0,4.971-3.134,9-7,9S-1.506,9.849-1.506,4.878c0-1.968,3.708,4.816,4.7,3.066.6-1.063-.677-5.838,0-7.945C3.4-.663,4.451.749,5.545,1,5.989,1.089,6.471-1.557,7-1.557Z" transform="translate(2885 683.005)" fill="#ffd394"/>
    <path id="路径_1526" data-name="路径 1526" d="M-124.459,166.379s329.28-142.4,701.51-133.372,421.776,15.27,931.879,24.6S2221.2-1.979,2651.158-.989s569.92,37.957,569.92,37.957L3192.332,275.58l-3459.137-.024Z" transform="translate(361 949.733)" fill="#ebe0bc"/>
    <g id="组_129" data-name="组 129" transform="translate(3109.78 610.639)">
      <path id="路径_1519" data-name="路径 1519" d="M1.741,0h18.8a91.608,91.608,0,0,0,1.02,14.4,50.87,50.87,0,0,0,3.511,11.56l-12.9,4.809L0,25.958A55.9,55.9,0,0,0,2.32,13.749,78.29,78.29,0,0,0,1.741,0Z" transform="translate(67.469 99.95) rotate(7)" fill="#ffd394"/>
      <path id="路径_1518" data-name="路径 1518" d="M28.605,0H0L7.51,189.244H19.481s4.207-6.635,6.488-53.946c.454-9.415-1.337-30.357,0-50.188S28.605,0,28.605,0Z" transform="translate(87.55 311.622) rotate(3)" fill="#ffd394"/>
      <path id="路径_1516" data-name="路径 1516" d="M-33.346-.151s.769-3.662,1.661-4.506,1.907,1.128,1.907,1.128,1.537-2.245,2.151-2.084.305,2.727.305,2.727,1.623-2.53,2.163-2.256,0,3.352,0,3.352,2.063-2.587,2.415-1.738S-24.018,1.41-23.749,1.6s3.225-.729,3.225,0-2.783,2.71-2.783,2.71l-1.356,3.408S-25.378,66-19.57,79.411c6.96,16.072,23.387,31.655,37.425,33.157s-12.1,29.005-12.1,29.005S-25.32,124.078-35.475,87.7c-7.869-28.187-2.264-65.447.756-81.3.022-.116-.07-1.923,0-2.28C-34.03.6-33.346-.151-33.346-.151Z" transform="translate(42.14 5.622)" fill="#ffd394"/>
      <ellipse id="椭圆_3" data-name="椭圆 3" cx="30.433" cy="34.908" rx="30.433" ry="34.908" transform="translate(50.528 39.619)" fill="#ffd394"/>
      <path id="路径_1517" data-name="路径 1517" d="M-10.193,2.575H18.412L10.9,191.819H-1.069s-4.207-6.635-6.488-53.946c-.454-9.415,1.337-30.357,0-50.188S-10.193,2.575-10.193,2.575Z" transform="translate(46.227 308.771)" fill="#ffd394"/>
      <path id="路径_1515" data-name="路径 1515" d="M3.886-1.247C7.778-9.952,14.377-9.574,25.956-8c1.345.3.808,7.951,9.59,9.273S45.574-5.98,46.658-5.956c5.091.54,20.8,3.775,28.155,18.716C80.5,24.311,70.769,55.1,67.749,80.049c-1.034,8.54,0,22.07,0,22.07a341.809,341.809,0,0,1,28.907,37c13.272,19.975,16.274,46.771,16.274,46.771s-40.672,24.916-82.966,19.9S-40.972,182-40.972,182s9.868-31.711,21.235-52.13A202.4,202.4,0,0,1,3.886,95.9s2.469,3.032,2.469-21.254S-.137,7.75,3.886-1.247Z" transform="translate(40.972 126.48)" fill="#81c4ef"/>
      <path id="路径_1520" data-name="路径 1520" d="M17.331,2.873c3.054,1.064-.98,20.451-2.012,25.943s-8.286,27.2-8.286,27.2S5.7,54.564,5.469,45.428c-.124-4.948-.4-10.223-.712-12.291C4.032,28.329,0,20.751,0,16.4,0,7.5,14.277,1.809,17.331,2.873Z" transform="translate(38.892 114.519)" fill="#ffd394"/>
      <path id="路径_1522" data-name="路径 1522" d="M2.2-.342s12.123,3.2,12.123,17.779S8.495,55.011,8.495,55.011-1.494,40.952-1.494,26.369A102.282,102.282,0,0,1,2.2-.342Z" transform="translate(107.075 130.954)" fill="#ffd394"/>
      <path id="路径_1521" data-name="路径 1521" d="M4.439,0,14.41,4.258S16.376,18.1,17.593,37.105c.829,12.945.9,28.811,1.352,42.982.735,23.057,1.038,37.811,1.475,44.189.01.142.362,1.376.389,1.75.122,1.7.55,1.853.55,1.853a21.321,21.321,0,0,1,2.951,2.506c.321.577-2.047-.288-2.047-.288s1.83,2.318,1.455,2.611-2.955-1.438-2.955-1.438,1.209,2.432.945,2.98-2.115-1.59-2.115-1.59,1.6,3.026.591,2.736-4.527-3.09-4.527-3.09-.145,3.7-.57,4.057-1.13-2.615-1.13-2.615S3.709,114.311,3.709,80.074c0-4.944.583-8.732.245-14.221C3.358,56.153,0,44.5,0,34.633A130.869,130.869,0,0,1,4.439,0Z" transform="translate(105.54 145.782) rotate(-8)" fill="#ffd394"/>
      <path id="路径_1523" data-name="路径 1523" d="M-54.207-3.571a35.784,35.784,0,0,1,1.842-15.337c2.2-6.57,8.035-15,10.886-17.322,6.309-5.135,16.484-8.137,22.061-8.233,10.766-.186,18.477,4.4,22.521,6.379,22.5,11.017,32.913,65.1,32.913,79.354,0,25.459-6.948,44.427-7.2,48.672C28.676,92.2,13.128,95.584.846,92.9-9.477,90.647-16.676,82.653-17.21,79.276c-1.137-7.2,10.913-31,14.38-52.369,1.691-10.424,1.58-29.466,1.58-29.466a12.684,12.684,0,0,1-3.233.4,30.346,30.346,0,0,1-4.221-.4A38.33,38.33,0,0,1-14-8.324a67.584,67.584,0,0,0-6.864-7.646s-.687,3.637-1.268,7.646A14.845,14.845,0,0,1-23.9-2.559s-8.866.253-16.443,0S-54.207-3.571-54.207-3.571Z" transform="translate(98.286 72.731)" fill="#363131"/>
    </g>
    <path id="路径_1525" data-name="路径 1525" d="M874.433-35.981c101.762,0,148.766,21.528,208.6,61.528,52.8,35.3,72.519,122.278,72.519,170.845,0,103.553-155.357,187.5-347,187.5S323.293,448.551,323.293,345c0-56.954-586.56-85.68-512.383-120.067,7.515-3.484,50.654-27.851,166.828-68.816C78,120.762,235.862,70.953,258.514,66.858,325.852,54.684,427.1,60.473,518.967,49.39,577.9,42.28,666.84,4.861,720.96-5.694,786.349-18.446,853.211-35.981,874.433-35.981Z" transform="matrix(0.921, 0.391, -0.391, 0.921, 1953.566, 861.098)" fill="#f2f8ff"/>
    <path id="路径_1524" data-name="路径 1524" d="M1571.845,18.15c186.982-1.908,99.237,29.271,221.19,64.164,145.931,41.754,307.641,26.637,307.641,97.91,0,130.775-423.739,236.79-946.447,236.79S29.891,656.462,29.891,525.687c0-85.788-144.531-126.73,202.028-268.762,125.182-51.3,499.447-143.7,826.106-174.088S1384.863,20.058,1571.845,18.15Z" transform="translate(335.893 697.734) rotate(11)" fill="#6ea5eb"/>
    <ellipse id="椭圆_7" data-name="椭圆 7" cx="93.5" cy="24" rx="93.5" ry="24" transform="translate(3104 1091)" fill="#cec08f"/>
    <path id="路径_1527" data-name="路径 1527" d="M1.523,0H23.272s-1.478,22.655-1.478,49.508V104.8H6.528S0,76.361,0,49.508,1.523,0,1.523,0Z" transform="translate(3147.777 1005.212)" fill="#3c3c3c"/>
    <path id="路径_1528" data-name="路径 1528" d="M21.761.227,0,0S1.676,22.66,1.91,49.5l.482,55.262,15.275.16s6.284-28.354,6.05-55.194S21.761.227,21.761.227Z" transform="translate(3195.728 1006.701) rotate(3)" fill="#3c3c3c"/>
    <g id="组_123" data-name="组 123" transform="translate(0.048 42.892)" opacity="0.387">
      <path id="路径_29" data-name="路径 29" d="M16829.23,1013.1c1.07-.726-9.738-3.99-10.906-5.985s-.2-4.722,2.318-7.338,11.408-7.968,15.045-7.968-3.137-2.546-6.457-1.988-15.184,4.087-15.184,4.087.834,7.319-2.631,10.133-14.17,1.181-17.635,5.981-2.744,17.9-2.744,17.9,5.471-11.925,10.234-14.824,7.57-3.493,12.775-3.079S16828.16,1013.827,16829.23,1013.1Z" transform="translate(-16615.277 -918.999)" fill="#fda2a2"/>
      <path id="路径_30" data-name="路径 30" d="M16832.371,1007.988a9.884,9.884,0,0,0,6.531,11.64c8.656,3.306,11.332,4.41,12.961,7.541s0,7.28,0,7.28,10.789-3.176,11.777-7.28-4.287-3.045-2.275-7.541,7.057-13.469,7.057-13.469-10.9,10.2-10.9,13.469-.326,3.425-1.691,4.06-3.523-4.687-12.635-6.869S16832.371,1007.988,16832.371,1007.988Z" transform="translate(-16208.704 -1006.158)" fill="#fda2a2"/>
      <path id="路径_31" data-name="路径 31" d="M16787.916,930.159c-2.037,2.03,2.506,3.641,6.234,5.576s2.787,5.662,5.422,7.9,6.25,2.324,9.117,3.549,3.645,4.86,3.645,4.86,3.811,1.819,6.77,0a8.994,8.994,0,0,0,3.775-4.86s-5.781-4.682-8.557-4.78,5.588-27.357,9.768-31.376-2.281-2.6-4.986,0-11.545,11.741-11.842,14.386-.055,5.6-1.742,7.886-5.16.874-8.27,0S16787.916,930.159,16787.916,930.159Z" transform="translate(-16588.873 -695.532)" fill="#fda2a2"/>
      <path id="路径_32" data-name="路径 32" d="M16827.063,947.721s3.748-10.968,9.707-11.816,5.852,3.738,11.9,1.823,11.926-10.119,11.926-10.119,16.73,2.226,21.053,4.037-15.732-1.874-19.957,1.59-6.279,7.588-6.279,14.484-4.109-8.2-12.422-6.161A76.674,76.674,0,0,0,16827.063,947.721Z" transform="translate(-16365.791 -859.306)" fill="#fda2a2"/>
      <path id="路径_34" data-name="路径 34" d="M16829.23,1013.1c1.07-.726-9.738-3.99-10.906-5.985s-.2-4.722,2.318-7.338,11.408-7.968,15.045-7.968-3.137-2.546-6.457-1.988-15.184,4.087-15.184,4.087.834,7.319-2.631,10.133-14.17,1.181-17.635,5.981-2.744,17.9-2.744,17.9,5.471-11.925,10.234-14.824,7.57-3.493,12.775-3.079S16828.16,1013.827,16829.23,1013.1Z" transform="translate(-16660.883 -619.196)" fill="#fda2a2"/>
      <path id="路径_36" data-name="路径 36" d="M16787.916,930.159c-2.037,2.03,2.506,3.641,6.234,5.576s2.787,5.662,5.422,7.9,6.25,2.324,9.117,3.549,3.645,4.86,3.645,4.86,3.811,1.819,6.77,0a8.994,8.994,0,0,0,3.775-4.86s-5.781-4.682-8.557-4.78,5.588-27.357,9.768-31.376-2.281-2.6-4.986,0-11.545,11.741-11.842,14.386-.055,5.6-1.742,7.886-5.16.874-8.27,0S16787.916,930.159,16787.916,930.159Z" transform="translate(-16214.004 -616.084)" fill="#fda2a2"/>
      <path id="路径_37" data-name="路径 37" d="M16827.063,947.721s3.748-10.968,9.707-11.816,5.852,3.738,11.9,1.823,11.926-10.119,11.926-10.119,16.73,2.226,21.053,4.037-15.732-1.874-19.957,1.59-6.279,7.588-6.279,14.484-4.109-8.2-12.422-6.161A76.674,76.674,0,0,0,16827.063,947.721Z" transform="translate(-16827.063 -703.262)" fill="#fda2a2"/>
      <path id="路径_38" data-name="路径 38" d="M16890.684,952.06a25.86,25.86,0,0,1,5.188-2.246c3.652-1.25,2.754,2.1,11.23,0s9.375-6.759,14.141-7.345,12.084,1.813,12.084,1.813-8.281-5.625-13.393-5.067-12.832,1.433-12.832,1.433.961-7.435-1.348-12.858-13.219-12.727-14.172-14.966-4.453,10.168,0,14.966,8.557,9.971,7.744,12.858S16890.684,952.06,16890.684,952.06Z" transform="translate(-16472.16 -688.261)" fill="#fda2a2"/>
    </g>
    <path id="路径_1531" data-name="路径 1531" d="M10.663,2.957a33.606,33.606,0,0,0,5.666-2.1s5.52,5.561,5.52,7.988c0,1.942-2.827,4.306-6.507,5.228-2.578.648-5.827,0-8.362,0-5.523,0-5.947-6.364-5.947-9.954S6.827,4.087,10.663,2.957Z" transform="translate(3153 1107)" fill="#fff"/>
    <path id="路径_1532" data-name="路径 1532" d="M12.218,2.957A33.607,33.607,0,0,1,6.552.855s-5.52,5.561-5.52,7.988c0,1.942,2.827,4.306,6.507,5.228,2.578.648,5.827,0,8.362,0,5.523,0,5.947-6.364,5.947-9.954S16.054,4.087,12.218,2.957Z" transform="translate(3186 1109)" fill="#fff"/>
    <path id="路径_1533" data-name="路径 1533" d="M1428.175,49.132c215.316,0,101.222,53.9,223.176,88.791,145.931,41.753,350.259,54.641,350.259,125.914,0,130.776-324.673,176.348-847.381,176.348S29.891,679.633,29.891,548.857c0-73.262,41.656-287.492,41.656-287.492s183.459-11.568,355.336-42.5,341.623-78.391,573.26-124.419C1230.408,48.688,1362.864,49.132,1428.175,49.132Z" transform="translate(-26.685 675.208) rotate(11)" fill="#8fc0ff"/>
    <g id="Group_7" data-name="Group 7" transform="matrix(-0.899, 0.438, -0.438, -0.899, 2689.587, 202.641)">
      <path id="路径_1534" data-name="路径 1534" d="M97.323,94.023.6,32.49,0,0Z" transform="translate(14.227 22.174)" fill="#8fc0ff"/>
      <path id="路径_1535" data-name="路径 1535" d="M41.332,0,0,54.006l99.358,63.663ZM27.776,48.434,38.1,34.368,66.755,82.6Z" transform="translate(14.545 0)" fill="#8fc0ff"/>
      <path id="路径_1536" data-name="路径 1536" d="M12.385,0,113.864,58.05,0,15.6Z" transform="translate(0 58.694)" fill="#8fc0ff"/>
    </g>
    <path id="路径_1537" data-name="路径 1537" d="M0,3.73S20.915,37.3,79.732,37.3,176.194,12.124,235.268,3.73s80.761,0,80.761,0V107.36s-23.042-7.791-81.254,0-92.9,31.166-151.592,31.166S0,107.36,0,107.36Z" transform="translate(2806.671 191.414) rotate(9)" fill="#8fc0ff"/>
    <g id="_5gUDqE" data-name="5gUDqE" transform="translate(3309.108 640.666)">
      <g id="组_113" data-name="组 113">
        <path id="路径_1474" data-name="路径 1474" d="M1494.824,4957.028l3.665-.2c.622-.035.864.958.324,1.33a23.232,23.232,0,0,0-2.964,2.333c-3.742,3.608-5.8,8.482-6.88,14.039-1.22,6.275-.916,12.574-.591,19.168.03.606.63.886,1,.476,3.1-3.416,6.5-4.78,10.657-3.387a.777.777,0,0,1,.125,1.321c-3.889,2.55-7.539,4.974-11.23,7.3a3.049,3.049,0,0,0-1.565,2.871c-.558,22.272,3.911,42.936,13.67,61.922l.307.594,1.486-.526a21.416,21.416,0,0,1,.074-2.412c.525-5.347,2.6-9.956,5.11-14.276,3.371-5.806,7.228-11.25,10.229-17.311,6.4-12.924,6.526-26.526,1.9-40.327a1.8,1.8,0,0,1-.118-1.037q3.349,5.745,6.7,11.489l1.476-.785c-.307-1.617-.622-3.231-.988-4.828-.669-2.922-1.415-5.825-2.252-8.684q-1.232-4.2-2.727-8.294c-.5-1.368-1.038-2.715-1.569-4.078-.29-.744.526-1.392.982-.78l12.056,16.137a.535.535,0,0,0,.9-.016c5.681-7.927,9.045-25.746,1.426-41.419-.33-.679.375-1.4.888-.91.939.9,1.882,1.792,2.842,2.656a67.563,67.563,0,0,0,5.39,4.41c.392.287.9-.055.9-.606a174.284,174.284,0,0,0-1.31-23.274c-.99-7.768-2.489-15.441-3.8-23.191a.677.677,0,0,1,.635-.855l7.907.852c.566.061.875-.776.457-1.239-1.972-2.181-3.869-4.231-5.66-6.407-3.174-3.855-6.238-7.84-9.343-11.777-1.078-1.366-1.987-1.457-2.873.163-2.583,4.717-5.31,9.365-7.482,14.353-4.9,11.239-7.731,23.382-10.313,35.631-3.917,18.577-6.091,37.494-7.884,56.482-1.358,14.379-2.461,28.793-3.685,43.191a.809.809,0,0,1-.479.664c0-.91-.036-1.823.005-2.731.686-14.993,1.178-30,2.128-44.974,1.062-16.746,2.671-33.434,5.1-49.989,2.219-15.1,6.219-29.4,13.45-42.17,1.743-3.079,3.778-5.919,5.724-8.765.38-.556-.086-1.354-.655-1.128a34.337,34.337,0,0,0-8.454,4.945,63.321,63.321,0,0,0-19.437,26.271c-1.545,3.755-2.2,8.13-2.821,12.319-1.187,8.022-2.057,16.114-3.051,24.179a4.084,4.084,0,0,0-.018.585A.656.656,0,0,0,1494.824,4957.028Z" transform="translate(-1410.175 -4776.479)" fill="#005951"/>
        <path id="路径_1475" data-name="路径 1475" d="M1639.082,5204.411h27.074a.661.661,0,0,0,.6-.7c2.266-91.963-17.01-176.215-60.266-252.084l-1.457.775c.442,2.2.886,4.41,1.351,6.607a59.846,59.846,0,0,1,1.5,14.125,6.629,6.629,0,0,0,.507,2.518c4.209,10.573,8.6,21.044,12.647,31.708a314.332,314.332,0,0,1,10.98,35.968,294.384,294.384,0,0,1,6.871,37.622,435.774,435.774,0,0,1,2.739,55.963c-.278,17.5-1.237,34.992-1.984,52.481-.18,4.217-.71,8.412-1.068,12.619-.045.532-.065,1.066-.087,1.646A.671.671,0,0,0,1639.082,5204.411Z" transform="translate(-1467.81 -4801.813)" fill="#754c24"/>
        <path id="路径_1476" data-name="路径 1476" d="M1585.969,4868.259a.808.808,0,0,0-.15,1.045c1.826,2.818,3.613,5.561,5.378,8.322,1.056,1.651,2.006,3.409,3.131,4.988a4.619,4.619,0,0,0,2.076,1.722c2.164.7,4.371,1.218,6.674,1.807.4.1.762-.289.719-.772-.2-2.208-.437-4.351-.538-6.468-.041-.859.98-1.059,1.167-.228a44.1,44.1,0,0,0,2.105,6.754,3.492,3.492,0,0,0,2.155,1.953,155.316,155.316,0,0,0,33.786,3.3,4.318,4.318,0,0,0,.587-.055.7.7,0,0,0,.522-.786c-.494-5.617-.983-11.187-1.471-16.75l1.482-.744a40.629,40.629,0,0,1,2.6,4.144,35.088,35.088,0,0,1,4.072,17.447,1.986,1.986,0,0,0,1.152,2.131q9.747,5.309,19.466,10.688c2.863,1.584,5.715,3.2,8.542,4.872a1.755,1.755,0,0,0,2.442-.72,45.19,45.19,0,0,0,6.215-19.932c.038-.475.063-.95.109-1.423a4.952,4.952,0,0,1,.388-.781c.259,2.576.585,4.7.666,6.827a94.54,94.54,0,0,1-1.32,19.9,3.332,3.332,0,0,0,.915,3.364,89.74,89.74,0,0,1,19.942,31.21,1.367,1.367,0,0,0,.121.236.57.57,0,0,0,.52.294l.117-.009c.056-4.327.3-8.665.134-12.978a104.079,104.079,0,0,0-9.426-39.847c-7.921-17.2-19-30.515-33.928-39a58.607,58.607,0,0,0-24.056-7.461c-3.143-.28-6.343.271-9.513.512-7.386.564-14.745,1.343-21.885,3.914a129.779,129.779,0,0,0-24.651,12.355C1586.128,4868.144,1586.049,4868.2,1585.969,4868.259Z" transform="translate(-1458.342 -4762.902)" fill="#005951"/>
        <path id="路径_1477" data-name="路径 1477" d="M1544.981,4810.2c1.481-4.557,2.847-9.135,4.447-13.592,2.937-8.184,7.614-14.847,12.968-20.911a188.637,188.637,0,0,1,25.968-24.408c10.819-8.375,22.421-14.476,35.139-17.3.633-.141,1.264-.3,1.9-.434.083-.017.18.064.677.261a88.253,88.253,0,0,0-18.932,8.025.789.789,0,0,0-.046,1.257c4.761,3.392,8.865,7.315,11.005,13.657a.552.552,0,0,0,.895.3,44.488,44.488,0,0,1,3.553-2.9c3.311-2.272,6.657-4.479,10.05-6.568a1.961,1.961,0,0,0,1.026-2.014,29.234,29.234,0,0,0-1.6-9.673c-.243-.694.462-1.319.932-.821,1.356,1.438,2.664,4.167,4.746,9.566a.574.574,0,0,0,.688.395c2.885-.888,5.83-1.632,8.658-2.786,3.114-1.269,6.206-2.048,9.486-1.472a3.523,3.523,0,0,0,.728-.063,21.794,21.794,0,0,0-9.529-9.264c-7.555-3.648-15.4-4.175-23.412-3.259a85.364,85.364,0,0,0-19.1,4.37,95,95,0,0,0-20.763,10.136,79.334,79.334,0,0,0-21,20.542c-3.161,4.467-6.011,9.25-8.931,13.908-.344.548-1.071.258-1.071-.429v-1.544l-1.511-.8-.06.065-1.018-1.07q.665-1.159,1.311-2.333a4.32,4.32,0,0,0,.548-2.275,80.627,80.627,0,0,0-6.471-24.76.551.551,0,0,0-1.031-.035,18.616,18.616,0,0,1-4.957,6.29c-.591.462-1.246-.453-.768-1.076a25.863,25.863,0,0,0,3.417-5.816c.089-.212.2-.408.3-.614.91-1.9,1.1-3.654-.267-5.5a42.807,42.807,0,0,1-2.632-4.36.539.539,0,0,0-.874-.148l-1.647,1.634-1.24-1.091c.3-.887.6-1.771.929-2.646a2.146,2.146,0,0,0-.344-2.345,66.475,66.475,0,0,0-15-14.531,1.964,1.964,0,0,0-.545-.148l-.18,1.213-1.414.15a13.01,13.01,0,0,1-.329-1.266,3.719,3.719,0,0,0-2.465-2.959c-3.072-1.26-6.135-2.552-9.261-3.722-.556-.208-1.016.575-.651,1.119,2.645,3.948,3.209,8.808,3.673,13.694a1.988,1.988,0,0,0,1.308,1.951c2.085,1.03,4.114,2.222,6.148,3.4l-.187,1.728c-1.308.3-2.617.6-3.9,1.016-2.613.856-2.528.926-2.244,4.2.305,3.525.489,7.067.719,10.635a.673.673,0,0,0,.532.656l6.511.855.047,1.741-6.351,1.348a.708.708,0,0,0-.492.767c.385,5.429.756,10.669,1.121,15.809a.62.62,0,0,0,.729.632l7.284-2,.11.442-.885.488a32.71,32.71,0,0,0-3.223,1.807c-2.387,1.692-3.977,3.666-3.126,7.594,1.156,5.343,1.809,10.841,2.7,16.268a13.949,13.949,0,0,0,.424,1.636.59.59,0,0,0,.7.461l8.117-2.358c.6-.175,1.008.744.538,1.228a23.114,23.114,0,0,1-7.677,5.122.762.762,0,0,0-.369.9,91.3,91.3,0,0,0,8.091,20.573.538.538,0,0,0,.825.193,40.393,40.393,0,0,1,14.87-7.579.726.726,0,0,0,.452-.856c-.7-3.6-1.327-7.083-2.065-10.534-2.535-11.863-4.932-23.775-7.732-35.549a178.034,178.034,0,0,0-10.511-30.275c-2.6-5.94-5.6-11.637-8.413-17.444a1.944,1.944,0,0,1-.2-1.115,4.4,4.4,0,0,1,.662.686,210.82,210.82,0,0,1,20.11,41.565c5.9,16.535,9.8,33.579,9.317,51.763A3.63,3.63,0,0,0,1544.981,4810.2Z" transform="translate(-1419.891 -4707)" fill="#005951"/>
        <path id="路径_1478" data-name="路径 1478" d="M1337.277,4880.479c.539-.457,1.087-.895,1.656-1.288,4.546-3.146,9.1-6.288,13.746-9.2a4.921,4.921,0,0,0,2.4-3.474c.125-.59.27-1.176.435-1.812a.575.575,0,0,1,1.144.03c.16.729.31,1.412.46,2.1a.591.591,0,0,0,.749.5c1.486-.535,2.939-1.038,4.361-1.645.3-.128.567-.768.633-1.218a50.987,50.987,0,0,1,3.506-11.938c.278-.681,1.132-.446,1.132.312v10.4a.649.649,0,0,0,.636.711c2.573-.227,5.2-.439,7.826-.756.321-.038.705-.716.854-1.19a61.434,61.434,0,0,1,6.362-13.871,9.688,9.688,0,0,1,1.353-1.711,57.346,57.346,0,0,0-3.284,16.255.689.689,0,0,0,.539.754,42.144,42.144,0,0,1,22.877,10.028c.382.325.918.03.944-.531a57.409,57.409,0,0,0-1.025-13.837l.424-.132c.613,2.282,1.41,4.521,1.794,6.858.526,3.2.724,6.471,1.1,9.707a3.754,3.754,0,0,0,.493,1.575c2.569,3.85,5.175,7.663,7.772,11.486.07.1.141.205.23.328a.553.553,0,0,0,1-.192c.965-2.792,1.906-5.365,2.688-8.006.635-2.145,1.163-4.334,1.685-6.479a.58.58,0,0,1,1.156.056c.932,5.6.092,12.736-2.446,19.53a.807.807,0,0,0,.169.851l3.02,2.872a.545.545,0,0,0,.9-.235c4.6-10.705,10.611-19.577,18.6-26.562a.8.8,0,0,0,0-1.158c-2.116-1.811-4.125-3.592-6.206-5.242-6.744-5.347-13.368-10.948-20.327-15.858-8.274-5.836-17.236-9.678-26.885-10.776a37.818,37.818,0,0,0-26.1,6.393c-9.88,6.614-17.259,16.27-23.434,27.408-1.4,2.53-2.726,5.124-4.052,7.714Z" transform="translate(-1336.157 -4757.556)" fill="#005951"/>
        <path id="路径_1479" data-name="路径 1479" d="M1583.706,4833.317c-.142.612.425,1.115.881.791,3.736-2.659,7.119-5.137,10.577-7.456a80.341,80.341,0,0,1,27.329-12.166c3.012-.667,6.109-.766,9.155-1.239a3.466,3.466,0,0,0,1.827-1.1c2.471-2.666,2.349-5.794,1.374-9.353a61.331,61.331,0,0,0-6.9-16.143c-.384-.622.217-1.436.772-1.043a46.561,46.561,0,0,1,11.776,12.721.536.536,0,0,0,.908.041c1.354-1.773,1.307-2.024.326-4.346-1.066-2.523-2.2-5-3.315-7.467-.283-.625.288-1.308.81-.969,1.64,1.064,3.005,2.954,5.039,6.813a.541.541,0,0,0,.941.1c1.372-1.785,2.742-3.546,4.057-5.363a2.766,2.766,0,0,0,.246-1.5c-.171-5.61-2.934-14.947-5.907-19.972a.531.531,0,0,0-.757-.208c-1.689,1.074-3.421,2.13-5.105,3.286a145.789,145.789,0,0,0-27.173,24.548q-6.567,7.521-13.056,15.137c-4.877,5.739-8.343,12.691-11.635,19.782q-1.087,2.339-2.067,4.75A2.185,2.185,0,0,0,1583.706,4833.317Z" transform="translate(-1457.358 -4729.629)" fill="#005951"/>
      </g>
    </g>
    <g id="_5gUDqE-2" data-name="5gUDqE" transform="translate(3318.259 751.648) rotate(9)" opacity="0.449">
      <g id="组_115" data-name="组 115">
        <path id="路径_1486" data-name="路径 1486" d="M6.125,46.268l2.406-.059a.493.493,0,0,1,.236.874,14.113,14.113,0,0,0-1.91,1.461c-2.4,2.276-3.671,5.412-4.288,9.011-.7,4.065-.39,8.176-.065,12.479.03.4.429.59.668.331,1.983-2.165,4.191-2.985,6.951-1.992a.509.509,0,0,1,.1.862c-2.514,1.583-4.874,3.089-7.262,4.531a1.861,1.861,0,0,0-.981,1.84,84.763,84.763,0,0,0,10.033,40.631c.07.131.141.263.212.393l.968-.313a13.75,13.75,0,0,1,.008-1.571,21.527,21.527,0,0,1,3.12-9.2c2.119-3.715,4.563-7.187,6.435-11.075,3.991-8.293,3.844-17.155.57-26.242a1.191,1.191,0,0,1-.095-.678l4.6,7.622.957-.481c-.229-1.059-.464-2.117-.731-3.166-.489-1.918-1.029-3.825-1.628-5.706-.587-1.843-1.233-3.667-1.933-5.46-.352-.9-.729-1.791-1.1-2.689-.2-.491.323-.9.633-.488l8.2,10.761a.354.354,0,0,0,.591.008c3.6-5.052,5.514-16.6.24-26.964-.229-.45.223-.9.568-.575.632.6,1.268,1.2,1.914,1.789,1.151,1.04,2.333,2.027,3.619,2.981.263.2.591-.016.585-.376A113.909,113.909,0,0,0,38.5,29.612c-.782-5.083-1.9-10.114-2.889-15.19-.06-.307.141-.581.4-.544l5.214.715c.373.051.563-.488.28-.8-1.333-1.461-2.615-2.836-3.83-4.291C35.52,6.927,33.438,4.268,31.33,1.64,30.6.728,30,.65,29.444,1.688c-1.619,3.022-3.333,6-4.678,9.2-3.03,7.226-4.689,15.082-6.181,23.013a317.767,317.767,0,0,0-4.233,36.65c-.651,9.344-1.133,18.715-1.7,28.073a.491.491,0,0,1-.3.423c-.015-.593-.054-1.189-.042-1.78.2-9.757.269-19.529.641-29.266.416-10.892,1.193-21.735,2.513-32.476,1.2-9.794,3.594-19.034,8.134-27.21,1.094-1.97,2.384-3.781,3.616-5.6.24-.355-.079-.884-.45-.75a21.076,21.076,0,0,0-5.476,3.053A38.125,38.125,0,0,0,8.95,21.751,33.352,33.352,0,0,0,7.3,29.722c-.645,5.206-1.082,10.461-1.6,15.7a2.537,2.537,0,0,0,0,.381A.46.46,0,0,0,6.125,46.268Z" transform="translate(52.581 73.108)" fill="#005951"/>
        <path id="路径_1487" data-name="路径 1487" d="M26.652,165.427l17.8.547a.4.4,0,0,0,.381-.441C44.776,105.646,30.681,50.349.959.029L.013.505c.328,1.445.657,2.892,1,4.333a39.463,39.463,0,0,1,1.226,9.235,4.439,4.439,0,0,0,.375,1.652c2.946,6.976,6.013,13.889,8.851,20.92a213.646,213.646,0,0,1,7.826,23.663,196.44,196.44,0,0,1,5.152,24.657,284.33,284.33,0,0,1,2.744,36.526c.112,11.4-.224,22.78-.42,34.163-.047,2.745-.325,5.468-.49,8.2-.021.346-.025.695-.03,1.071A.47.47,0,0,0,26.652,165.427Z" transform="translate(92.757 100.412)" fill="#754c24"/>
        <path id="路径_1488" data-name="路径 1488" d="M.468,11.1a.512.512,0,0,0-.08.677c1.248,1.875,2.469,3.7,3.676,5.533.722,1.1,1.377,2.263,2.143,3.315A3.287,3.287,0,0,0,7.6,21.791c1.435.5,2.894.881,4.419,1.313.262.074.5-.173.46-.488-.168-1.444-.361-2.846-.463-4.227a.388.388,0,1,1,.764-.125,29.939,29.939,0,0,0,1.5,4.445,2.476,2.476,0,0,0,1.45,1.316A104.929,104.929,0,0,0,38,26.857a3.094,3.094,0,0,0,.385-.024.428.428,0,0,0,.33-.5c-.419-3.67-.834-7.31-1.249-10.946l.962-.455a28.6,28.6,0,0,1,1.777,2.752,23.6,23.6,0,0,1,2.971,11.454,1.376,1.376,0,0,0,.794,1.412q6.5,3.656,12.981,7.358c1.909,1.091,3.812,2.2,5.7,3.349a1.12,1.12,0,0,0,1.594-.42,27.926,27.926,0,0,0,3.75-12.864c.017-.309.025-.619.048-.926a3.057,3.057,0,0,1,.242-.5c.214,1.685.464,3.072.553,4.462A60.463,60.463,0,0,1,68.3,43.95a2.247,2.247,0,0,0,.658,2.211A63.052,63.052,0,0,1,82.6,66.9a.976.976,0,0,0,.084.158.4.4,0,0,0,.347.2l.077,0c-.036-2.819.052-5.641-.13-8.456a70.029,70.029,0,0,0-6.87-26.159c-5.5-11.367-13.008-20.271-22.967-26.1A40.708,40.708,0,0,0,37.2,1.194a38.505,38.505,0,0,0-6.247.141c-4.847.218-9.673.577-14.325,2.107A80.146,80.146,0,0,0,.623,11C.571,11.028.52,11.063.468,11.1Z" transform="translate(85.232 60.142)" fill="#005951"/>
        <path id="路径_1489" data-name="路径 1489" d="M26.606,68.023c.9-2.939,1.718-5.9,2.7-8.769A38.758,38.758,0,0,1,37.476,45.89,113.508,113.508,0,0,1,54.141,30.508,55.053,55.053,0,0,1,76.956,19.941c.414-.079.825-.17,1.24-.245.054-.009.119.046.449.184a54.98,54.98,0,0,0-12.315,4.847.509.509,0,0,0-.009.818c3.187,2.307,5.953,4.947,7.467,9.123a.378.378,0,0,0,.593.216,26.618,26.618,0,0,1,2.287-1.818c2.139-1.415,4.3-2.785,6.5-4.078a1.2,1.2,0,0,0,.641-1.292,19.445,19.445,0,0,0-1.218-6.336c-.171-.457.281-.851.6-.516.916.964,1.823,2.769,3.282,6.33a.4.4,0,0,0,.459.271c1.883-.52,3.806-.946,5.647-1.64a10.986,10.986,0,0,1,6.213-.768,2.286,2.286,0,0,0,.478-.026,15.481,15.481,0,0,0-6.422-6.229,28.185,28.185,0,0,0-15.451-2.6,54.613,54.613,0,0,0-12.488,2.463,58.679,58.679,0,0,0-13.483,6.185A47.767,47.767,0,0,0,37.961,37.794c-2,2.847-3.8,5.907-5.638,8.883-.217.35-.7.146-.712-.3l-.026-1.006-1.007-.556-.039.042-.687-.718q.418-.743.822-1.5A2.689,2.689,0,0,0,31,41.173a54.464,54.464,0,0,0-4.672-16.267.365.365,0,0,0-.679-.044,11.194,11.194,0,0,1-3.154,4c-.381.289-.827-.321-.523-.717a15.618,15.618,0,0,0,2.149-3.722c.055-.136.127-.262.189-.394a3.173,3.173,0,0,0-.268-3.59,29.876,29.876,0,0,1-1.8-2.9.364.364,0,0,0-.578-.114L20.6,18.462l-.834-.736c.182-.571.368-1.143.567-1.7a1.423,1.423,0,0,0-.266-1.536A47.336,47.336,0,0,0,9.96,4.712,1.4,1.4,0,0,0,9.6,4.6l-.1.788-.927.07c-.091-.274-.173-.551-.237-.832A2.62,2.62,0,0,0,6.667,2.652C4.626,1.768,2.59.864.514.038.145-.108-.144.393.105.755c1.805,2.625,2.259,5.8,2.646,9a1.391,1.391,0,0,0,.893,1.3c1.388.713,2.742,1.53,4.1,2.338L7.65,14.513c-.855.168-1.71.335-2.546.583-1.7.505-1.646.553-1.4,2.689.26,2.3.441,4.616.652,6.946a.472.472,0,0,0,.36.438l4.3.688L9.068,27l-4.153.749a.433.433,0,0,0-.311.491c.345,3.545.677,6.968,1,10.325a.435.435,0,0,0,.49.427l4.756-1.156.08.291-.574.3a20.229,20.229,0,0,0-2.089,1.112,4.034,4.034,0,0,0-1.927,4.886c.85,3.5,1.372,7.1,2.049,10.655A9.576,9.576,0,0,0,8.7,56.152a.412.412,0,0,0,.47.314l5.3-1.373c.393-.1.675.5.374.811A14.08,14.08,0,0,1,9.88,59.088a.468.468,0,0,0-.227.577,62.767,62.767,0,0,0,5.667,13.572.365.365,0,0,0,.546.142,24.946,24.946,0,0,1,9.651-4.638.445.445,0,0,0,.283-.549c-.518-2.36-.992-4.643-1.535-6.907C22.4,53.5,20.619,45.691,18.579,37.962a121.661,121.661,0,0,0-7.422-19.943C9.345,14.094,7.28,10.322,5.331,6.48a1.305,1.305,0,0,1-.152-.731,3.109,3.109,0,0,1,.447.46A146.377,146.377,0,0,1,19.55,33.7c4.161,10.895,7.007,22.082,7,33.923A2.391,2.391,0,0,0,26.606,68.023Z" transform="translate(57.389 1.765)" fill="#005951"/>
        <path id="路径_1490" data-name="路径 1490" d="M1.462,28.07a13.091,13.091,0,0,1,1.067-.806c2.936-1.958,5.876-3.914,8.884-5.719a2.979,2.979,0,0,0,1.519-2.216c.072-.383.158-.761.255-1.172.105-.442.641-.411.753.043l.338,1.375a.412.412,0,0,0,.5.341c.968-.319,1.915-.617,2.84-.983.194-.079.36-.489.4-.781a31.559,31.559,0,0,1,2.1-7.709c.171-.438.737-.269.75.226l.175,6.775a.456.456,0,0,0,.431.478c1.688-.1,3.415-.181,5.134-.334.21-.02.452-.453.542-.759A37.367,37.367,0,0,1,31.1,7.917a5.787,5.787,0,0,1,.861-1.088,35.911,35.911,0,0,0-1.885,10.527.481.481,0,0,0,.367.5,29.588,29.588,0,0,1,15.213,7,.371.371,0,0,0,.611-.326,37.647,37.647,0,0,0-.907-9.04l.276-.078c.441,1.5,1,2.976,1.3,4.506.4,2.095.585,4.232.887,6.348A2.565,2.565,0,0,0,48.17,27.3c1.754,2.561,3.532,5.1,5.3,7.642.048.069.1.136.157.218a.359.359,0,0,0,.656-.105c.587-1.8,1.163-3.458,1.632-5.163.381-1.384.692-2.8,1-4.187.1-.462.668-.419.761.059A25.179,25.179,0,0,1,56.4,38.446a.537.537,0,0,0,.126.558l2.034,1.934a.351.351,0,0,0,.586-.135A43.544,43.544,0,0,1,70.928,23.868a.519.519,0,0,0-.022-.755c-1.421-1.223-2.773-2.424-4.169-3.542C62.212,15.95,57.762,12.167,53.1,8.827A40.513,40.513,0,0,0,35.242,1.26,24.163,24.163,0,0,0,18.187,4.9C11.8,9.008,7.111,15.152,3.238,22.286,2.359,23.906,1.533,25.57.7,27.23Z" transform="translate(1.346 52.062)" fill="#005951"/>
        <path id="路径_1491" data-name="路径 1491" d="M1.159,44.271c-.083.4.3.736.593.533,2.412-1.657,4.6-3.2,6.83-4.645a49.929,49.929,0,0,1,17.766-7.376c1.969-.374,4-.376,6-.622a2.125,2.125,0,0,0,1.183-.679c1.58-1.687,1.447-3.728.746-6.067a42.32,42.32,0,0,0-4.807-10.659c-.263-.414.118-.932.49-.665a33.117,33.117,0,0,1,7.958,8.528.355.355,0,0,0,.6.045c.861-1.128.825-1.292.141-2.825-.743-1.667-1.532-3.306-2.306-4.933-.2-.414.168-.846.516-.615,1.1.728,2.026,1.986,3.429,4.542a.362.362,0,0,0,.621.086c.872-1.135,1.743-2.254,2.578-3.412a1.745,1.745,0,0,0,.136-.971A34.742,34.742,0,0,0,39.409,1.4a.362.362,0,0,0-.5-.151c-1.093.665-2.214,1.319-3.3,2.039A87.823,87.823,0,0,0,18.15,18.739q-4.191,4.767-8.33,9.6C6.709,31.981,4.547,36.441,2.5,41c-.45,1-.875,2.023-1.28,3.054A1.415,1.415,0,0,0,1.159,44.271Z" transform="translate(83.671 25.857)" fill="#005951"/>
      </g>
    </g>
    <circle id="椭圆_4" data-name="椭圆 4" cx="12.5" cy="12.5" r="12.5" transform="translate(2677 175)" fill="#acacac"/>
    <circle id="椭圆_5" data-name="椭圆 5" cx="20" cy="20" r="20" transform="translate(2729 223.542)" fill="#acacac"/>
    <g id="Frame-2" transform="translate(2860.271 245.592) rotate(5)" clip-path="url(#clip-path)">
      <path id="路径_1538" data-name="路径 1538" d="M16.259,50.539c11.105,0,17.208-6.893,17.208-15.327-.309-17.16-22.6-12.1-22.6-21.408,0-3.171,2.055-5.766,7.386-5.766,3.447,0,5.171.717,8.775,3.384l6.146-6.579C29.565,1.888,26.482-.128,17.448.006,7.232.244,1.73,6.332,1.73,14.907c.05,17.079,22.752,10.329,22.787,21.16,0,3.1-2.93,6.459-8.273,6.459-4.664,0-6.515-1.763-9.79-4.861L0,44.047C3.444,47.506,7.837,50.51,16.259,50.539Z" transform="translate(101.466 3.897)" fill="#fff"/>
      <path id="路径_1539" data-name="路径 1539" d="M0,48H19.821c14.323-1.692,23.565-10.293,23.722-24.47S33.677,1.018,20.338,0H0Zm8.549-7.939.031-32.3h10.27c8.34.593,15.6,6.3,15.6,15.768s-6.738,15.533-15.6,16.529Z" transform="translate(146.31 7.048)" fill="#fff"/>
      <path id="路径_1540" data-name="路径 1540" d="M0,49.55l43.126-.078V0Zm34.022-8.066L19.1,41.406,34.067,23.815Z" transform="translate(46.389 17.999)" fill="#ff6d6d"/>
      <path id="路径_1541" data-name="路径 1541" d="M0,48H19.821c14.323-1.692,23.565-10.293,23.722-24.47S33.678,1.018,20.339,0H0Zm8.549-7.939.031-32.3H18.849c8.341.593,15.6,6.3,15.6,15.768s-6.738,15.533-15.6,16.529Z" transform="translate(-0.005 14.044)" fill="#fff"/>
    </g>
    <g id="boat_v2" data-name="boat v2" transform="translate(204.5 894.446)">
      <path id="路径_457" data-name="路径 457" d="M5471.56,3960.761s-20.555,49.2-80.743,49.069-177.437-.652-177.437,0-8.88-49.069-8.88-49.069Z" transform="translate(-5204.5 -3901.953)" fill="#627fa5"/>
      <path id="路径_458" data-name="路径 458" d="M5217.122,3949.666h226.434l6.915,14.905H5217.122Z" transform="translate(-5200.184 -3905.748)" fill="#b9d2ff"/>
      <path id="路径_459" data-name="路径 459" d="M5367.229,3938.873h12.162l6.914,14.905h-19.076Z" transform="translate(-5148.846 -3909.439)" fill="#25497a"/>
      <path id="路径_460" data-name="路径 460" d="M5225.7,3938.873h201.062l6.14,14.905H5225.7Z" transform="translate(-5197.25 -3909.439)" fill="#627fa5"/>
      <path id="路径_461" data-name="路径 461" d="M5357.549,3927.976h12.162l6.915,14.906h-19.076Z" transform="translate(-5152.156 -3913.166)" fill="#daf3f3"/>
      <path id="路径_462" data-name="路径 462" d="M5233.419,3927.976h178.243l5.442,14.906H5233.419Z" transform="translate(-5194.609 -3913.166)" fill="#b9d2ff"/>
      <path id="路径_463" data-name="路径 463" d="M5347.255,3916.94h12.162l6.914,14.906h-19.076Z" transform="translate(-5155.676 -3916.94)" fill="#25497a"/>
      <path id="路径_464" data-name="路径 464" d="M5244.325,3916.94h150.317l4.59,14.906H5244.325Z" transform="translate(-5190.88 -3916.94)" fill="#627fa5"/>
    </g>
    <ellipse id="椭圆_6" data-name="椭圆 6" cx="109" cy="28.5" rx="109" ry="28.5" transform="translate(2698 1058)" fill="#cec08f"/>
    <g id="组_128" data-name="组 128" transform="translate(2702.198 609.95)">
      <path id="路径_1511" data-name="路径 1511" d="M19.461,0C30.089,0,36.442,4.609,36.442,10.294s-.12,16.981-16.982,16.447S2.061,14.788,2.061,9.1,8.832,0,19.461,0Z" transform="translate(96.276 471.216)" fill="#4e4e4e"/>
      <path id="路径_1512" data-name="路径 1512" d="M25.451,0C37.576,0,47.708,3.955,47.708,10.279S31.519,25.784,20.551,25.4,0,21.984,0,15.661,13.327,0,25.451,0Z" transform="translate(3.046 462.68) rotate(3)" fill="#4e4e4e"/>
      <path id="路径_1505" data-name="路径 1505" d="M1.741,0h18.8a91.608,91.608,0,0,0,1.02,14.4,50.87,50.87,0,0,0,3.511,11.56H0A55.9,55.9,0,0,0,2.32,13.749,78.29,78.29,0,0,0,1.741,0Z" transform="matrix(1, 0.017, -0.017, 1, 74.393, 94.167)" fill="#ffd394"/>
      <path id="路径_1507" data-name="路径 1507" d="M34.409-2.436c18.663,0,31.291,17.23,31.291,35.967,0,9.35-4.1,17.166-9.731,23.484-5.328,5.979-12.21,10.442-21.561,10.442-8.865,0-15.152-4.106-20.4-9.9a35.455,35.455,0,0,1-9.4-24.031C4.617,14.794,15.746-2.436,34.409-2.436Z" transform="translate(51.48 32.297)" fill="#ffd394"/>
      <path id="路径_1504" data-name="路径 1504" d="M15.013,16.3C18.174,8.285,17.026,4.774,26.12-.018S45.075-2.793,51.39-2.869c5.8-.07,12.537-1.629,18.4-1.321C84.022-3.443,88.332,6.654,89.924,16.3c1.982,12.007,1.631,34.709,1.322,69.532-.418,47.131,0,54.909,0,54.909H16.153s1.763-7.64-1.14-49.125C12.394,54.191,11.139,26.125,15.013,16.3Z" transform="translate(35.204 113.624)" fill="#a5b3e3"/>
      <path id="路径_1506" data-name="路径 1506" d="M.756,23.223S26.391,41.087,45.131,34.745,71.451,0,71.451,0L83.766,0S78.973,53.117,55.842,63.167,0,58.987,0,58.987Z" transform="translate(111.538 87.972) rotate(-1)" fill="#a5b3e3"/>
      <path id="路径_1508" data-name="路径 1508" d="M-2.884,0S15.421,1.753,34.694,1.753,73.248,0,73.248,0,76.93,48.124,76.93,104.067v121.8s-7.5-3.674-14.93-4.2a41.684,41.684,0,0,0-14.806,2.1s-.756-54.082-4.557-104.556S36.395,29.14,36.395,29.14s-9.776,81.02-12.572,92.938S-3.841,223.772-3.841,223.772a89.484,89.484,0,0,0-14.325-8.2,42.825,42.825,0,0,0-12.814-3.162s20.22-77.953,23.346-103.015S-2.884,0-2.884,0Z" transform="translate(53.758 251.024)" fill="#9b9b9b"/>
      <path id="路径_1509" data-name="路径 1509" d="M17.482,0,53.819,6.417S40.446,50.945,34.271,81.193a141.32,141.32,0,0,1-22.259,51.6L0,129.431S7.657,91.987,12.129,62.072,17.482,0,17.482,0Z" transform="translate(32.126 129.229) rotate(14)" fill="#a5b3e3"/>
      <path id="路径_1510" data-name="路径 1510" d="M15.87-21.446A191.444,191.444,0,0,1,38.778-11.263C51.658-4.46,65.786,5.364,67.2,16.075c2.684,20.362.617,22.688.617,22.688l-3.07,14.9s1.306-14.9-2.935-20.872c-5.963-8.4-14.791-9.59-27.125-9.59S17.8,26.08,12.476,32.789C7.849,38.623,9.05,52.039,9.05,52.039l-2-14.945-17.631-15L8.6,17.05-8.4.822,19.858-5.761Z" transform="translate(49.268 21.446)" fill="#4e381e"/>
      <path id="路径_1513" data-name="路径 1513" d="M.858,1.926c1.509-2.751,15.157-2.392,18.25.047s-6.447,9.635-6.447,9.635L.291,9.908S-.652,4.677.858,1.926Z" transform="matrix(0.951, 0.309, -0.309, 0.951, 24.091, 457.504)" fill="#4e4e4e"/>
      <path id="路径_1514" data-name="路径 1514" d="M-.21-.177c4.028-2.014,12.084-2.014,16.112,0s0,8.056,0,8.056H-.21S-4.238,1.837-.21-.177Z" transform="translate(108.339 467.813)" fill="#4e4e4e"/>
    </g>
  </g>
</svg>
